<?xml version="1.0" standalone="no"?>
<!DOCTYPE svg PUBLIC "-//W3C//DTD SVG 1.1//EN" "http://www.w3.org/Graphics/SVG/1.1/DTD/svg11.dtd" >
<svg>
<metadata>
Created by FontForge 20090622 at Thu May 14 09:47:44 2015
 By deploy user
Copyright 1990-1998 Bitstream Inc.  All rights reserved.
</metadata>
<defs>
<font id="BookmanITCbyBT-Demi" horiz-adv-x="1024" >
  <font-face 
    font-family="BookmanITC Lt BT"
    font-weight="700"
    font-stretch="normal"
    units-per-em="2048"
    panose-1="2 5 8 4 5 5 5 2 2 4"
    ascent="1556"
    descent="-492"
    x-height="1014"
    cap-height="1384"
    bbox="-342 -588 2697 1954"
    underline-thickness="195"
    underline-position="-130"
    unicode-range="U+0020-U+F002"
  />
<missing-glyph horiz-adv-x="1229" 
d="M102 -362v1806h1024v-1806h-1024zM217 -248h795v1577h-795v-1577z" />
    <glyph glyph-name=".notdef" horiz-adv-x="1229" 
d="M102 -362v1806h1024v-1806h-1024zM217 -248h795v1577h-795v-1577z" />
    <glyph glyph-name=".null" horiz-adv-x="0" 
 />
    <glyph glyph-name="nonmarkingreturn" horiz-adv-x="668" 
 />
    <glyph glyph-name="space" unicode=" " horiz-adv-x="668" 
 />
    <glyph glyph-name="exclam" unicode="!" horiz-adv-x="782" 
d="M309 432q-19 225 -67.5 479t-48.5 291q0 100 53 156.5t145 56.5q93 0 146 -56.5t53 -156.5q0 -37 -49 -291t-68 -479h-164zM209 160q0 77 52.5 129.5t129.5 52.5q76 0 129 -53t53 -129q0 -77 -52.5 -128.5t-129.5 -51.5t-129.5 51.5t-52.5 128.5z" />
    <glyph glyph-name="quotedbl" unicode="&#x22;" horiz-adv-x="717" 
d="M553 846h-45l-84 463q-3 15 -3.5 22.5t-0.5 14.5q0 54 29.5 86t80.5 32t81 -31.5t30 -84.5q0 -16 -0.5 -24.5t-1.5 -15.5zM207 846h-43l-86 462q-3 16 -3.5 23.5t-0.5 14.5q0 54 29.5 86t80.5 32q52 0 82.5 -31.5t30.5 -84.5q0 -8 -1 -17t-3 -22z" />
    <glyph glyph-name="numbersign" unicode="#" horiz-adv-x="1575" 
d="M705 844l-84 -236h253l84 236h-253zM684 1466h248l-139 -393h241l140 393h247l-139 -393h270l-86 -229h-266l-82 -234h277l-84 -229h-275l-141 -393h-248l141 393h-241l-141 -393h-248l141 393h-276l86 229h272l82 234h-285l86 229h281z" />
    <glyph glyph-name="dollar" unicode="$" horiz-adv-x="1337" 
d="M616 -190v247q-252 9 -391 93.5t-139 228.5q0 73 42.5 114.5t117.5 41.5q64 0 109.5 -38.5t45.5 -90.5q0 -14 -7 -39t-7 -37q0 -62 76.5 -99.5t204.5 -37.5q143 0 220 53t77 153q0 108 -248 167l-109 26q-21 5 -62 16q-233 58 -304 113q-59 45 -88 104t-29 133
q0 176 131.5 282.5t359.5 115.5v219h123v-219q198 -12 319.5 -89t121.5 -186q0 -57 -33 -88.5t-92 -31.5q-42 0 -72.5 14.5t-48.5 42.5q-17 25 -27 68.5t-16 56.5q-16 35 -83.5 61.5t-148.5 26.5q-118 0 -187 -43.5t-69 -118.5q0 -125 318 -202l21 -5q12 -3 36 -8
q265 -62 342 -119q67 -48 98 -112t31 -152q0 -176 -128.5 -280.5t-381.5 -133.5v-247h-123z" />
    <glyph glyph-name="percent" unicode="%" horiz-adv-x="1862" 
d="M1264 356q0 -117 33 -174t102 -57q67 0 100 57t33 174q0 119 -32.5 175.5t-100.5 56.5q-69 0 -102 -57t-33 -175zM999 356q0 170 111 275.5t289 105.5q177 0 287 -105.5t110 -275.5q0 -169 -110.5 -275t-288.5 -106q-177 0 -287.5 106t-110.5 275zM330 1040
q0 -118 32.5 -174.5t100.5 -56.5t101.5 57.5t33.5 173.5q0 118 -33.5 175t-101.5 57t-100.5 -56.5t-32.5 -175.5zM383 -25l917 1446h179l-918 -1446h-178zM66 1042q0 169 110.5 274t288.5 105t287.5 -104.5t109.5 -274.5q0 -169 -111 -276t-288 -107q-176 0 -286.5 107
t-110.5 276z" />
    <glyph glyph-name="ampersand" unicode="&#x26;" horiz-adv-x="1571" 
d="M510 676q-48 -48 -71 -102t-23 -117q0 -128 64.5 -206.5t168.5 -78.5q46 0 98 21t107 63q-99 154 -179.5 251t-164.5 169zM668 942q50 33 78 77.5t28 92.5q0 50 -28 83.5t-68 33.5q-44 0 -74.5 -30t-30.5 -75q0 -44 24.5 -90.5t70.5 -91.5zM991 123
q-83 -77 -187.5 -116.5t-225.5 -39.5q-215 0 -356.5 124.5t-141.5 311.5q0 129 73 234t214 178q-57 60 -85 126t-28 140q0 141 114 237.5t283 96.5q155 0 252.5 -84.5t97.5 -218.5q0 -87 -47 -159t-147 -138q67 -61 129 -136.5t119 -166.5q32 54 48.5 107.5t16.5 103.5
q0 45 -25 72t-83 43v143h510v-143q-97 -15 -141 -48.5t-70 -125.5l-12 -43q-44 -172 -119 -281q49 -85 125.5 -123.5t197.5 -38.5q9 0 26.5 1t26.5 1v-160q-54 -10 -107.5 -15t-107.5 -5q-108 0 -193.5 30t-156.5 93z" />
    <glyph glyph-name="quotesingle" unicode="'" horiz-adv-x="371" 
d="M207 846h-43l-86 462q-3 16 -3.5 23.5t-0.5 14.5q0 53 31 85.5t81 32.5q51 0 81 -31.5t30 -84.5q0 -8 -1 -17t-3 -22z" />
    <glyph glyph-name="parenleft" unicode="(" horiz-adv-x="764" 
d="M655 -340q-110 16 -184.5 53t-122.5 101q-66 87 -93.5 226t-27.5 497t27.5 497.5t93.5 227.5q48 63 122.5 100t184.5 53v-158q-114 -19 -157 -149.5t-43 -570.5t43 -569.5t157 -149.5v-158z" />
    <glyph glyph-name="parenright" unicode=")" horiz-adv-x="764" 
d="M135 1415q110 -16 184.5 -53t122.5 -100q67 -88 94 -227.5t27 -497.5t-27 -497t-94 -226q-48 -64 -122.5 -101t-184.5 -53v158q114 20 157.5 149.5t43.5 569.5t-43.5 570.5t-157.5 149.5v158z" />
    <glyph glyph-name="asterisk" unicode="*" 
d="M395 1024q-146 10 -203 37t-57 84q0 48 33.5 87.5t75.5 39.5q38 0 76.5 -33.5t115.5 -144.5l33 18q-40 87 -55 131.5t-15 71.5q0 47 29.5 73.5t81.5 26.5t81.5 -26.5t29.5 -73.5q0 -27 -15 -71.5t-55 -131.5l33 -18q81 114 118 146t74 32q43 0 77 -39.5t34 -87.5
q0 -57 -57 -84t-203 -37v-39q146 -10 203 -37.5t57 -83.5q0 -48 -34 -87.5t-77 -39.5q-38 0 -75 32.5t-115 143.5l-33 -16q40 -87 55 -131.5t15 -71.5q0 -47 -29.5 -73.5t-81.5 -26.5t-82.5 27t-30.5 73q0 30 16.5 78t53.5 125l-33 16q-79 -111 -117 -143.5t-75 -32.5
q-42 0 -75.5 39.5t-33.5 87.5q0 57 59.5 85t200.5 36v39z" />
    <glyph glyph-name="plus" unicode="+" horiz-adv-x="1706" 
d="M735 1221h238v-494h479v-231h-479v-496h-238v496h-481v231h481v494z" />
    <glyph glyph-name="comma" unicode="," horiz-adv-x="668" 
d="M176 -145q43 32 74 67.5t51 75.5q-71 0 -114.5 47t-43.5 123q0 81 50.5 132.5t130.5 51.5q92 0 146 -59t54 -160q0 -111 -65 -212t-189 -181z" />
    <glyph glyph-name="hyphen" unicode="-" horiz-adv-x="674" 
d="M33 383l106 238h500l-104 -238h-502z" />
    <glyph glyph-name="period" unicode="." horiz-adv-x="668" 
d="M147 166q0 79 54 132.5t133 53.5q80 0 133 -53t53 -133t-53 -133t-133 -53q-79 0 -133 53.5t-54 132.5z" />
    <glyph glyph-name="slash" unicode="/" horiz-adv-x="569" 
d="M72 -190h-160l590 1605h157z" />
    <glyph glyph-name="zero" unicode="0" horiz-adv-x="1337" 
d="M420 698q0 -303 57 -427t191 -124q135 0 192.5 123.5t57.5 427.5q0 305 -57.5 429t-192.5 124q-134 0 -191 -124.5t-57 -428.5zM63 698q0 331 165 527t440 196t440.5 -196.5t165.5 -526.5t-165.5 -526.5t-440.5 -196.5q-276 0 -440.5 196.5t-164.5 526.5z" />
    <glyph glyph-name="one" unicode="1" horiz-adv-x="1337" 
d="M279 0v164q143 2 194 36.5t51 125.5v678q0 98 -42.5 128t-202.5 33v154q145 2 257.5 21.5t200.5 58.5h123v-1073q0 -91 53 -125.5t203 -36.5v-164h-837z" />
    <glyph glyph-name="two" unicode="2" horiz-adv-x="1337" 
d="M121 0l-29 225q357 226 530 421.5t173 373.5q0 107 -57 166t-160 59q-81 0 -140 -37.5t-59 -83.5q0 -7 25.5 -54.5t25.5 -96.5q0 -68 -47.5 -109t-126.5 -41q-77 0 -121.5 52t-44.5 141q0 170 154.5 286.5t390.5 116.5q251 0 401 -115.5t150 -306.5q0 -178 -159.5 -343
t-539.5 -373h328q113 0 177.5 46t111.5 158l149 -49l-114 -436h-1018z" />
    <glyph glyph-name="three" unicode="3" horiz-adv-x="1337" 
d="M954 764q151 -41 224 -123t73 -211q0 -199 -178.5 -327t-466.5 -128q-237 0 -387.5 101.5t-150.5 255.5q0 79 47 126.5t127 47.5q69 0 115 -45t46 -111q0 -21 -9 -48t-9 -32q0 -42 61 -72t154 -30q122 0 188 65.5t66 186.5q0 129 -74.5 189.5t-234.5 60.5
q-29 0 -44.5 -0.5t-29.5 -1.5v186q31 -3 45 -3.5t27 -0.5q126 0 194 54.5t68 156.5q0 86 -51 132t-146 46q-80 0 -134 -31.5t-54 -72.5q0 -11 14.5 -48t14.5 -63q0 -60 -45 -98.5t-115 -38.5q-84 0 -128 43.5t-44 126.5q0 155 150 259.5t380 104.5q237 0 385 -106t148 -273
q0 -92 -58.5 -164.5t-167.5 -113.5z" />
    <glyph glyph-name="four" unicode="4" horiz-adv-x="1337" 
d="M692 553v518q-90 -139 -187 -268t-202 -250h389zM514 0v164q97 6 133.5 33t36.5 90v65h-575l-66 154q171 199 335.5 418t334.5 475h303v-846h291l-88 -201h-203v-69q0 -65 36 -92t124 -27h10v-164h-672z" />
    <glyph glyph-name="five" unicode="5" horiz-adv-x="1337" 
d="M362 868q83 49 173.5 74t187.5 25q244 0 387 -130t143 -350q0 -230 -166.5 -371t-441.5 -141q-252 0 -399.5 90t-147.5 240q0 82 49.5 131t131.5 49q78 0 126 -47.5t48 -126.5q0 -16 -4.5 -38.5t-4.5 -28.5q0 -40 41 -66t105 -26q127 0 194.5 86t67.5 249q0 131 -68 210
t-180 79q-81 0 -151.5 -46t-126.5 -136l-160 43q12 117 19.5 298.5t11.5 463.5h637q63 0 95 20.5t52 71.5h158l-62 -363h-702q0 -65 -3 -130.5t-10 -129.5z" />
    <glyph glyph-name="six" unicode="6" horiz-adv-x="1337" 
d="M446 430q0 -125 61.5 -194.5t172.5 -69.5q114 0 176 72t62 206q0 133 -60 207t-168 74q-114 0 -179 -78t-65 -217zM428 807q84 59 169.5 87t182.5 28q221 0 359.5 -127.5t138.5 -329.5q0 -227 -161 -358.5t-443 -131.5q-289 0 -441.5 178t-152.5 515q0 362 176.5 558.5
t503.5 196.5q195 0 323.5 -82.5t128.5 -199.5q0 -70 -40.5 -108t-116.5 -38q-46 0 -79.5 17t-51.5 49q-16 28 -25.5 70.5t-11.5 48.5q-14 40 -44.5 57.5t-86.5 17.5q-149 0 -238.5 -119.5t-89.5 -322.5v-6z" />
    <glyph glyph-name="seven" unicode="7" horiz-adv-x="1337" 
d="M358 0q39 296 200 569.5t466 558.5h-539q-100 0 -150 -40t-85 -150l-144 20l62 441h1094l24 -232q-260 -275 -390.5 -563t-140.5 -604h-397z" />
    <glyph glyph-name="eight" unicode="8" horiz-adv-x="1337" 
d="M326 711q-96 49 -141.5 120t-45.5 170q0 188 150 305t395 117q231 0 372.5 -99.5t141.5 -258.5q0 -90 -48 -161t-144 -124q137 -60 198.5 -144t61.5 -208q0 -206 -165 -330.5t-442 -124.5q-270 0 -429.5 112.5t-159.5 299.5q0 119 64.5 201t191.5 125zM515 618
q-87 -33 -131 -91.5t-44 -139.5q0 -105 84 -166t231 -61q137 0 216 50.5t79 137.5q0 102 -417 263zM795 872q74 35 110.5 80t36.5 103q0 87 -71 139.5t-193 52.5q-94 0 -153.5 -42.5t-59.5 -106.5q0 -56 55.5 -99t274.5 -127z" />
    <glyph glyph-name="nine" unicode="9" horiz-adv-x="1337" 
d="M913 590q-83 -59 -169.5 -87t-184.5 -28q-219 0 -357.5 127.5t-138.5 329.5q0 219 163 355t427 136q291 0 449 -180.5t158 -513.5q0 -358 -174.5 -556t-489.5 -198q-204 0 -335.5 79.5t-131.5 193.5q0 71 43 113t115 42q113 0 159 -157q6 -20 9 -29q12 -43 38.5 -58.5
t88.5 -15.5q154 0 242.5 119t88.5 328zM895 946q0 135 -60.5 209t-170.5 74q-115 0 -178.5 -73t-63.5 -206q0 -129 61 -203.5t166 -74.5q121 0 183.5 70t62.5 204z" />
    <glyph glyph-name="colon" unicode=":" horiz-adv-x="707" 
d="M166 166q0 79 53.5 132.5t132.5 53.5q80 0 133.5 -53t53.5 -133t-53.5 -133t-133.5 -53q-79 0 -132.5 53.5t-53.5 132.5zM166 791q0 79 53.5 132.5t132.5 53.5q80 0 133.5 -53.5t53.5 -132.5q0 -80 -53.5 -133.5t-133.5 -53.5q-79 0 -132.5 53.5t-53.5 133.5z" />
    <glyph glyph-name="semicolon" unicode=";" horiz-adv-x="707" 
d="M197 -145q43 32 74 67.5t51 75.5q-72 0 -116 47t-44 123q0 81 50 132.5t130 51.5q93 0 148 -59t55 -160q0 -111 -65.5 -212t-188.5 -181zM164 791q0 79 54.5 132.5t133.5 53.5q80 0 132.5 -53t52.5 -133q0 -81 -52.5 -134t-132.5 -53q-79 0 -133.5 54t-54.5 133z" />
    <glyph glyph-name="less" unicode="&#x3c;" horiz-adv-x="1706" 
d="M1442 1214v-253l-854 -351l854 -348v-254l-1178 486v233z" />
    <glyph glyph-name="equal" unicode="=" horiz-adv-x="1706" 
d="M254 502h1198v-230h-1198v230zM254 950h1198v-231h-1198v231z" />
    <glyph glyph-name="greater" unicode="&#x3e;" horiz-adv-x="1706" 
d="M264 1214l1178 -487v-233l-1178 -486v254l854 348l-854 351v253z" />
    <glyph glyph-name="question" unicode="?" horiz-adv-x="1251" 
d="M418 160q0 77 52.5 129.5t129.5 52.5q76 0 128 -53t52 -129q0 -77 -51.5 -128.5t-128.5 -51.5t-129.5 51.5t-52.5 128.5zM494 432v100q0 67 21.5 116.5t69.5 96.5q16 15 59.5 53t68.5 62q29 30 45 73.5t16 94.5q0 104 -59.5 162.5t-165.5 58.5q-83 0 -140 -37t-57 -86
q0 -7 15.5 -46t15.5 -72q0 -64 -45 -107t-111 -43q-80 0 -126 49.5t-46 134.5q0 161 151.5 267t387.5 106q259 0 401 -103.5t142 -291.5q0 -69 -20.5 -129t-59.5 -109q-63 -79 -220 -152q-37 -17 -55 -26q-46 -22 -67 -58.5t-21 -94.5v-19h-200z" />
    <glyph glyph-name="at" unicode="@" horiz-adv-x="2019" 
d="M1171 313q-60 -95 -130 -143.5t-148 -48.5q-156 0 -241 90t-85 256q0 116 50.5 223.5t146.5 196.5q68 62 150 95.5t167 33.5q96 0 150 -44t67 -132l48 157h208l-174 -624q-8 -34 -11 -53t-3 -35q0 -45 19 -72t51 -27q30 0 84.5 27.5t101.5 69.5q97 87 148 211.5t51 273.5
q0 121 -34 219.5t-101 171.5q-99 109 -235.5 166t-299.5 57q-139 0 -265 -39.5t-233 -117.5q-166 -120 -255 -303t-89 -404q0 -336 205 -531.5t557 -195.5q163 0 315 49.5t316 157.5l41 -57q-151 -113 -321 -170.5t-351 -57.5q-432 0 -687 224.5t-255 601.5q0 202 87.5 381
t252.5 313q137 112 302.5 169.5t350.5 57.5q349 0 559.5 -189.5t210.5 -504.5q0 -164 -59 -302t-172 -239q-59 -52 -128 -80t-140 -28q-98 0 -156.5 52.5t-65.5 143.5zM1128 942q-60 0 -110 -44t-98 -140q-57 -112 -88 -218.5t-31 -187.5q0 -71 32.5 -113t86.5 -42
q59 0 115 60.5t108 180.5q42 99 67 198.5t25 166.5t-27.5 103t-79.5 36z" />
    <glyph glyph-name="A" unicode="A" horiz-adv-x="1501" 
d="M563 0h-581v170q146 18 233 228l4 10l406 976h313l397 -1026q45 -115 83.5 -147.5t111.5 -41.5v-169h-684v166h14q75 0 107 18.5t32 61.5q0 15 -3 30.5t-9 30.5l-72 191h-442l-59 -190q-5 -17 -6.5 -27t-1.5 -19q0 -48 37.5 -71t119.5 -25v-166zM547 668h297l-137 409z
" />
    <glyph glyph-name="B" unicode="B" horiz-adv-x="1495" 
d="M573 639v-270q0 -120 38 -162.5t137 -42.5q138 0 223.5 70.5t85.5 183.5q0 110 -69.5 165.5t-207.5 55.5h-207zM573 819h183q122 0 191 52t69 143q0 98 -68.5 151.5t-195.5 53.5q-109 0 -144 -32t-35 -147v-221zM51 0v169q96 4 129 48.5t33 208.5v532q0 165 -33 209
t-129 48v169h705q178 0 268.5 -14t155.5 -47q77 -40 123.5 -118.5t46.5 -170.5q0 -89 -46 -160t-141 -126q125 -45 189.5 -129t64.5 -203q0 -85 -32 -162.5t-91 -134.5q-66 -66 -161.5 -92.5t-327.5 -26.5h-754z" />
    <glyph glyph-name="C" unicode="C" horiz-adv-x="1452" 
d="M1251 481l172 -80q-102 -212 -262.5 -323t-365.5 -111q-139 0 -273.5 51t-230.5 140q-112 103 -166.5 236.5t-54.5 303.5q0 171 54 303.5t167 237.5q91 85 209.5 130.5t247.5 45.5q80 0 157.5 -21.5t153.5 -64.5l22 80h123l170 -508l-151 -51q-77 180 -191 281.5
t-237 101.5q-158 0 -252 -144t-94 -391q0 -249 98 -389.5t270 -140.5q121 0 239 84.5t195 228.5z" />
    <glyph glyph-name="D" unicode="D" horiz-adv-x="1636" 
d="M573 1040v-698q0 -113 32 -144.5t130 -31.5q211 0 332 140t121 386t-121 385.5t-332 139.5q-98 0 -130 -31.5t-32 -145.5zM51 0v169q96 4 129 48.5t33 208.5v532q0 165 -33 209t-129 48v169h697q397 0 608 -178.5t211 -513.5q0 -336 -210.5 -514t-608.5 -178h-697z" />
    <glyph glyph-name="E" unicode="E" horiz-adv-x="1477" 
d="M51 0v169q96 4 129 48.5t33 208.5v532q0 165 -33 209t-129 48v169h1149l189 -417l-129 -68q-108 159 -240.5 238.5t-290.5 79.5q-93 0 -124.5 -32t-31.5 -145v-198h66q107 0 145.5 42.5t44.5 172.5h146v-625h-146q-14 122 -59.5 178t-130.5 56h-66v-324q0 -112 31.5 -143
t126.5 -31q161 0 314 100t262 279l131 -72l-209 -475h-1178z" />
    <glyph glyph-name="F" unicode="F" horiz-adv-x="1327" 
d="M573 848h50q107 0 145.5 43t44.5 172h143v-641h-143q-14 121 -60 177t-130 56h-50v-229q0 -164 33.5 -208.5t128.5 -47.5v-170h-684v169q96 4 129 48.5t33 208.5v532q0 165 -33 209t-129 48v169h1112l187 -397l-127 -67q-99 147 -223 222t-271 75q-93 0 -124.5 -32
t-31.5 -145v-192z" />
    <glyph glyph-name="G" unicode="G" horiz-adv-x="1630" 
d="M1196 -18l-59 116q-93 -67 -196.5 -99t-227.5 -32q-144 0 -254 45t-197 140q-90 99 -141 243.5t-51 300.5q0 164 48.5 290.5t149.5 227.5q97 98 233.5 150.5t289.5 52.5q79 0 157 -18.5t160 -57.5l33 60h127l131 -473l-158 -56q-97 184 -205 269.5t-241 85.5
q-171 0 -261 -136t-90 -395q0 -254 88 -386t259 -132q133 0 213.5 64.5t80.5 169.5q0 74 -41.5 109t-133.5 38l-1 162h652v-162q-95 -19 -128.5 -61.5t-33.5 -147.5v-368h-203z" />
    <glyph glyph-name="H" unicode="H" horiz-adv-x="1659" 
d="M51 0v169q96 4 129 48.5t33 208.5v532q0 165 -33 209t-129 48v169h684v-165q-95 -3 -128.5 -47.5t-33.5 -208.5v-138h512v138q0 164 -33.5 208.5t-127.5 47.5v165h684v-169q-95 -3 -128.5 -47.5t-33.5 -209.5v-532q0 -164 33 -208.5t128 -47.5l1 -170h-684v166
q95 3 128 47.5t33 208.5v231h-512v-231q0 -164 33.5 -208.5t128.5 -47.5v-166h-684z" />
    <glyph glyph-name="I" unicode="I" horiz-adv-x="797" 
d="M739 1384v-169q-94 -3 -127.5 -47.5t-33.5 -209.5v-532q0 -164 33 -208.5t128 -47.5v-170h-682l1 170q94 3 126.5 46.5t32.5 209.5v532q0 167 -33 210.5t-127 46.5v169h682z" />
    <glyph glyph-name="J" unicode="J" horiz-adv-x="1352" 
d="M1294 1384v-169q-89 -4 -122 -41t-33 -181v-35v-493q0 -155 -23.5 -230.5t-79.5 -125.5q-76 -71 -196.5 -107.5t-276.5 -36.5q-246 0 -391 117t-145 311q0 95 57.5 156t146.5 61q74 0 120 -43t46 -112q0 -52 -35.5 -111t-35.5 -76q0 -36 57.5 -66t138.5 -30
q136 0 195 65.5t59 221.5v499q0 157 -34.5 206.5t-131.5 49.5h-6v170h690z" />
    <glyph glyph-name="K" unicode="K" horiz-adv-x="1575" 
d="M57 0l1 170q94 3 126.5 46.5t32.5 209.5v532q0 167 -33 210.5t-127 46.5v169h682v-165q-94 -3 -127.5 -47.5t-33.5 -208.5v-177l301 265q48 43 71 72t23 46q0 26 -22 39t-66 13q-5 0 -16 -1t-17 -1v165h649v-170q-96 -19 -172.5 -56.5t-165.5 -115.5l-168 -149l299 -496
q68 -111 136 -169t131 -58h16v-170h-725v165q65 2 100 20.5t35 52.5q0 20 -9.5 44.5t-43.5 77.5l-193 312l-163 -135v-115q0 -164 33 -208.5t128 -47.5v-166h-682z" />
    <glyph glyph-name="L" unicode="L" horiz-adv-x="1395" 
d="M1178 0h-1121l1 170q94 3 126.5 46.5t32.5 209.5v532q0 167 -33 210.5t-127 46.5v169h682v-169q-94 -3 -127.5 -47.5t-33.5 -209.5v-593q0 -112 32 -144.5t129 -32.5q145 0 278 96t230 271l135 -72z" />
    <glyph glyph-name="M" unicode="M" horiz-adv-x="1876" 
d="M414 1057v-635q0 -166 34.5 -211t135.5 -45h6v-166h-539v169q96 4 129 48.5t33 208.5v532q0 165 -33 209t-129 48v169h588l293 -847l285 847h632v-170h-14q-101 0 -136.5 -44.5t-35.5 -211.5v-532q0 -166 35.5 -211t136.5 -45h14v-170h-719v166h15q103 0 138.5 44
t35.5 212v635l-350 -1057h-191z" />
    <glyph glyph-name="N" unicode="N" horiz-adv-x="1507" 
d="M51 0v169q96 4 129 48.5t33 208.5v532q0 165 -33 209t-129 48v169h586l477 -788v367q0 164 -33.5 208.5t-128.5 47.5v165h512v-169q-93 -3 -126 -46.5t-33 -210.5v-958h-256l-646 1063v-641q0 -166 33 -210t127 -46v-166h-512z" />
    <glyph glyph-name="O" unicode="O" horiz-adv-x="1636" 
d="M457 692q0 -263 94 -406t266 -143q173 0 268 143.5t95 405.5t-95 405.5t-268 143.5q-172 0 -266 -143t-94 -406zM70 692q0 325 206 524t541 199t542.5 -199.5t207.5 -523.5t-207.5 -523.5t-542.5 -199.5t-541 199.5t-206 523.5z" />
    <glyph glyph-name="P" unicode="P" horiz-adv-x="1382" 
d="M574 743q12 -1 25.5 -1.5t41.5 -0.5q171 0 255.5 60.5t84.5 181.5q0 108 -71.5 169.5t-196.5 61.5q-82 0 -111 -32.5t-29 -141.5zM803 1384q268 0 405.5 -105t137.5 -312q0 -200 -129.5 -299t-391.5 -99h-252v-143q0 -164 33.5 -208.5t128.5 -47.5v-170h-684v169
q96 4 129 48.5t33 208.5v532q0 165 -33 209t-129 48v169h752z" />
    <glyph glyph-name="Q" unicode="Q" horiz-adv-x="1636" 
d="M1184 53q-81 -43 -168 -64.5t-185 -21.5q-332 0 -531.5 197.5t-199.5 527.5q0 326 198 524.5t519 198.5t519 -198.5t198 -524.5q0 -132 -31 -237t-96 -197q66 -63 98.5 -132t32.5 -146q0 -198 -210 -328.5t-542 -130.5q-272 0 -459.5 93.5t-187.5 219.5q0 62 44 106
t106 44q34 0 62.5 -15t51.5 -45q12 -14 26.5 -59t25.5 -68q21 -46 95.5 -72t190.5 -26q215 0 350.5 70.5t135.5 179.5q0 25 -10.5 50.5t-32.5 53.5zM604 238v16q0 101 77.5 152t229.5 51q51 0 105 -8t110 -23q16 57 23.5 122t7.5 144q0 263 -89 406t-251 143t-251 -143
t-89 -406q0 -162 31 -273t96 -181zM1008 213q-43 21 -83.5 32t-76.5 11q-54 0 -84.5 -16t-30.5 -43q0 -26 25.5 -41t70.5 -15q49 0 93.5 18t85.5 54z" />
    <glyph glyph-name="R" unicode="R" horiz-adv-x="1540" 
d="M51 0v169q96 4 129 48.5t33 208.5v532q0 165 -33 209t-129 48v169h768q276 0 414.5 -94t138.5 -282q0 -140 -75 -229.5t-232 -137.5l268 -346q53 -67 101 -94.5t118 -34.5v-166h-436l-424 600h-119v-174q0 -164 33.5 -208.5t128.5 -47.5v-170h-684zM574 786
q13 -1 27 -1.5t42 -0.5q181 0 271 54t90 163q0 100 -75.5 158t-205.5 58q-88 0 -119 -33.5t-31 -143.5z" />
    <glyph glyph-name="S" unicode="S" horiz-adv-x="1374" 
d="M229 -18l-168 516l156 53q97 -184 236 -284.5t297 -100.5q105 0 176 53t71 131q0 107 -297 179q-46 12 -71 18q-167 42 -250.5 69.5t-116.5 51.5q-76 53 -117 132t-41 175q0 186 147.5 313t364.5 127q86 0 168 -24.5t158 -73.5l31 74h125l121 -412l-140 -51
q-79 139 -195 216t-247 77q-97 0 -157 -40t-60 -102q0 -106 329 -181q71 -16 112 -26q256 -62 350 -153t94 -262q0 -212 -165 -352t-415 -140q-77 0 -159.5 25t-190.5 82l-25 -90h-121z" />
    <glyph glyph-name="T" unicode="T" horiz-adv-x="1417" 
d="M528 1196h-28q-125 0 -214 -67.5t-163 -219.5l-135 52l153 423h1135l154 -423l-136 -52q-74 152 -163 219.5t-213 67.5h-29v-770q0 -164 33 -208.5t128 -47.5l1 -170h-684v170q95 3 128 47.5t33 208.5v770z" />
    <glyph glyph-name="U" unicode="U" horiz-adv-x="1528" 
d="M209 958q0 166 -33.5 210t-128.5 47v169h676v-165q-94 -2 -128 -48.5t-34 -207.5v-512q0 -136 66 -205.5t194 -69.5q152 0 230.5 81.5t78.5 238.5v467q0 164 -33.5 208.5t-127.5 47.5v165h512v-169q-95 -3 -128.5 -48t-33.5 -204v-431q0 -169 -27.5 -261.5t-91.5 -157.5
q-70 -72 -177 -108t-249 -36q-284 0 -424.5 118.5t-140.5 356.5v514z" />
    <glyph glyph-name="V" unicode="V" horiz-adv-x="1427" 
d="M559 -14l-385 1042q-38 105 -87 143.5t-142 47.5v165h727v-165q-93 -6 -128.5 -22.5t-35.5 -53.5q0 -16 4 -35t16 -53l240 -672l242 664v1q22 62 22 87q0 41 -30 58.5t-123 25.5v165h559v-165q-81 -8 -136 -52.5t-85 -128.5l-396 -1052h-262z" />
    <glyph glyph-name="W" unicode="W" horiz-adv-x="1999" 
d="M713 422l159 496l-41 122q-29 91 -61.5 130t-83.5 49v165h606v-165q-63 -2 -95 -19.5t-32 -50.5q0 -8 3 -23t8 -33l184 -671l199 579q12 36 19 69t7 54q0 44 -40.5 67t-125.5 28l-6 165h578v-170q-92 -20 -141.5 -66t-90.5 -163l-342 -999h-256l-194 637l-224 -637h-260
l-338 1085q-24 78 -57.5 110t-87.5 34v169h582l-1 -165q-4 1 -8 1.5t-12 0.5q-32 0 -47.5 -16.5t-15.5 -49.5q0 -15 6 -47t16 -68z" />
    <glyph glyph-name="X" unicode="X" horiz-adv-x="1485" 
d="M12 0v162q80 24 143 70t113 116l264 359l-251 364q-48 68 -103 104.5t-125 47.5v161h703l-1 -155q-52 -3 -80 -18t-28 -42q0 -12 9 -29.5t32 -52.5l117 -172l131 191q13 19 20 37t7 35q0 26 -26 38.5t-83 12.5h-14v155h590v-161q-93 -14 -167 -60t-135 -127l-213 -286
l304 -428q49 -71 112 -111t139 -49v-162h-735v156q73 12 96 26.5t23 40.5q0 11 -9.5 31t-27.5 45l-172 248l-139 -205q-26 -38 -36.5 -61t-10.5 -41q0 -33 26.5 -50.5t114.5 -33.5v-156h-588z" />
    <glyph glyph-name="Y" unicode="Y" horiz-adv-x="1372" 
d="M317 0v170h9q102 0 137 44.5t35 211.5v143l-312 502q-33 55 -85 92.5t-124 59.5v161h721v-155q-73 0 -110 -14.5t-37 -43.5q0 -18 6.5 -38t24.5 -52l163 -284l193 309q18 29 23.5 43.5t5.5 28.5q0 26 -26 38.5t-85 12.5h-29v155h568v-161q-92 -26 -162.5 -84.5
t-145.5 -175.5l-235 -371l-6 -166v-45q0 -123 36 -167t130 -44h14v-170h-709z" />
    <glyph glyph-name="Z" unicode="Z" horiz-adv-x="1382" 
d="M111 0l-37 139l743 1053q-27 4 -57 6t-62 2q-170 0 -292.5 -77.5t-208.5 -239.5l-136 53l189 448h977l47 -139l-739 -1055q43 -6 82.5 -9t76.5 -3q195 0 323.5 84.5t196.5 257.5l138 -49l-166 -471h-1075z" />
    <glyph glyph-name="bracketleft" unicode="[" horiz-adv-x="717" 
d="M236 -307v1691h356v-165h-76q-32 0 -48.5 -15.5t-16.5 -46.5v-1237q0 -30 16.5 -45.5t48.5 -15.5h76v-166h-356z" />
    <glyph glyph-name="backslash" unicode="\" horiz-adv-x="569" 
d="M500 -190l-588 1605h158l589 -1605h-159z" />
    <glyph glyph-name="bracketright" unicode="]" horiz-adv-x="717" 
d="M506 1384v-1691h-356v166h73q33 0 49.5 15.5t16.5 45.5v1237q0 31 -16.5 46.5t-49.5 15.5h-73v165h356z" />
    <glyph glyph-name="asciicircum" unicode="^" horiz-adv-x="2048" 
d="M893 1462h260l479 -565h-121l-489 348l-490 -348h-120z" />
    <glyph glyph-name="underscore" unicode="_" 
d="M0 -244h1024v-239h-1024v239z" />
    <glyph glyph-name="grave" unicode="`" 
d="M707 1145h-91l-313 164q-56 30 -75 53t-19 55q0 40 25 65t65 25q31 0 63 -18.5t72 -61.5z" />
    <glyph glyph-name="a" unicode="a" horiz-adv-x="1145" 
d="M688 76q-82 -48 -156.5 -71t-146.5 -23q-159 0 -249.5 73t-90.5 201q0 164 150.5 261.5t439.5 121.5v104q0 53 -31.5 81t-89.5 28q-64 0 -90.5 -21.5t-34.5 -85.5q-10 -70 -47.5 -103.5t-105.5 -33.5q-61 0 -102.5 40.5t-41.5 99.5q0 128 123.5 207t329.5 79
q98 0 175.5 -21t129.5 -63q58 -46 81 -97.5t23 -160.5v-411q0 -56 8 -73.5t29 -17.5q13 1 26 5.5t32 14.5l94 -126q-65 -54 -124 -80.5t-114 -26.5q-56 0 -109 24.5t-108 74.5zM635 264v207q-130 -21 -190 -60.5t-60 -105.5q0 -43 30.5 -71.5t78.5 -28.5q30 0 64.5 14.5
t76.5 44.5z" />
    <glyph glyph-name="b" unicode="b" horiz-adv-x="1294" 
d="M150 1051q0 112 -28.5 145t-109.5 33v162q125 0 207 13t135 42h109v-496q61 38 127 57t139 19q220 0 354 -143t134 -379t-135 -379t-357 -143q-76 0 -153.5 21t-157.5 65l-37 -68h-227v1051zM481 743v-491q46 -40 89.5 -59t86.5 -19q97 0 150 85.5t53 240.5t-53 240
t-150 85q-46 0 -89.5 -20t-86.5 -62z" />
    <glyph glyph-name="c" unicode="c" horiz-adv-x="1124" 
d="M938 358l162 -79q-75 -159 -193 -232.5t-301 -73.5q-247 0 -396 145t-149 386q0 245 149.5 387.5t407.5 142.5q189 0 312 -85t123 -210q0 -72 -48.5 -119t-123.5 -47q-70 0 -104 34t-48 122q-13 84 -41 111.5t-88 27.5q-83 0 -133.5 -88.5t-50.5 -236.5q0 -187 57 -283
t168 -96q85 0 162.5 50.5t134.5 143.5z" />
    <glyph glyph-name="d" unicode="d" horiz-adv-x="1309" 
d="M797 252v491q-43 42 -86.5 62t-89.5 20q-97 0 -150 -85t-53 -240t53 -240.5t150 -85.5q43 0 86.5 19t89.5 59zM1128 340q0 -112 28.5 -145t109.5 -33v-162h-443v76q-50 -47 -118.5 -70.5t-155.5 -23.5q-216 0 -352 144t-136 378q0 239 135.5 381.5t362.5 142.5
q70 0 128 -19t110 -59v101q0 112 -28.5 145t-109.5 33v162h27q118 0 200 13.5t134 41.5h108v-1106z" />
    <glyph glyph-name="e" unicode="e" horiz-adv-x="1124" 
d="M938 358l162 -79q-78 -156 -199 -231t-295 -75q-248 0 -396.5 144.5t-148.5 386.5q0 243 149 386.5t402 143.5q211 0 336 -120t125 -322q0 -8 -1 -21t-1 -20h-655v-72q0 -163 55.5 -240t173.5 -77q93 0 166 48.5t127 147.5zM440 711h287q0 69 -36.5 105t-106.5 36
q-71 0 -107.5 -36t-36.5 -105z" />
    <glyph glyph-name="f" unicode="f" horiz-adv-x="729" 
d="M180 840h-139v174h139v4q0 201 122 314.5t339 113.5q127 0 197.5 -47t70.5 -131q0 -58 -42 -95.5t-107 -37.5q-29 0 -51.5 8t-40.5 24q-9 8 -24 27q-36 47 -71 47q-34 0 -47.5 -27.5t-13.5 -105.5v-94h178v-174h-178v-500q0 -105 31.5 -141.5t115.5 -36.5h31v-162h-649
v162q82 0 110.5 26.5t28.5 151.5v500z" />
    <glyph glyph-name="g" unicode="g" horiz-adv-x="1128" 
d="M303 -117q-25 -22 -38 -44t-13 -42q0 -64 73 -98.5t207 -34.5t206.5 28.5t72.5 80.5q0 66 -361 97zM164 -51q-50 42 -74 89t-24 101q0 82 47 141t139 93q-69 62 -101 129.5t-32 148.5q0 170 122 276.5t316 106.5q44 0 81.5 -5.5t72.5 -16.5q57 90 123.5 136t140.5 46
q68 0 111.5 -37.5t43.5 -95.5q0 -47 -29 -79t-71 -32q-11 0 -52 11.5t-71 11.5q-19 0 -34 -6t-29 -19q78 -56 116.5 -129.5t38.5 -165.5q0 -170 -121.5 -274.5t-322.5 -104.5q-47 0 -91.5 6t-86.5 17q-19 -13 -28 -25.5t-9 -27.5q0 -60 251 -75l50 -3q274 -18 370.5 -80
t96.5 -203q0 -181 -151 -281t-427 -100q-246 0 -370.5 65t-124.5 193q0 69 31.5 115t97.5 74zM690 645q0 103 -33.5 155t-99.5 52q-67 0 -101 -52.5t-34 -154.5t34 -154.5t101 -52.5q66 0 99.5 52t33.5 155z" />
    <glyph glyph-name="h" unicode="h" horiz-adv-x="1341" 
d="M51 0v162q82 0 110.5 33.5t28.5 144.5v711q0 111 -28.5 144.5t-110.5 33.5v162q126 0 209 13t135 42h127v-531q81 55 165 83t169 28q160 0 234.5 -88.5t74.5 -280.5v-317q0 -111 29 -144.5t111 -33.5v-162h-596v156q74 3 99.5 34.5t25.5 143.5v328q0 89 -22 120t-79 31
q-49 0 -97.5 -21.5t-113.5 -72.5v-385q0 -110 25.5 -142.5t99.5 -36.5v-155h-596z" />
    <glyph glyph-name="i" unicode="i" horiz-adv-x="705" 
d="M532 1014v-674q0 -112 28.5 -145t109.5 -33v-162h-607v162q82 0 110 33t28 145v281q0 112 -28 145t-110 33v162q130 0 210.5 12.5t132.5 40.5h126zM199 1264q0 76 52.5 129t129.5 53t129.5 -53t52.5 -129q0 -77 -52.5 -130t-129.5 -53t-129.5 53t-52.5 130z" />
    <glyph glyph-name="j" unicode="j" horiz-adv-x="690" 
d="M547 1014v-1039q0 -233 -111 -331.5t-373 -98.5q-120 0 -193 47.5t-73 124.5q0 58 38 98t91 40q36 0 65 -11.5t50 -33.5l22 -24q37 -40 62 -40q48 0 69 32.5t21 106.5v736q0 112 -28 145t-109 33v162q129 0 209.5 12.5t132.5 40.5h127zM195 1264q0 76 52.5 129t129.5 53
t129.5 -53t52.5 -129q0 -77 -52.5 -130t-129.5 -53t-129.5 53t-52.5 130z" />
    <glyph glyph-name="k" unicode="k" horiz-adv-x="1282" 
d="M39 0v162q81 0 109 33t28 145v711q0 112 -28 145t-109 33v162q125 0 207 13t135 42h135v-817l162 135q24 20 32.5 32.5t8.5 24.5q0 14 -14.5 21.5t-42.5 7.5q-14 0 -21 -0.5t-14 -1.5v166h549v-166q-75 -6 -134 -32.5t-143 -100.5l-80 -70l248 -354q38 -56 88.5 -87
t118.5 -42v-162h-569v156q31 9 45 19t14 24t-20 46q-5 9 -9 15l-129 211l-98 -78v-59q0 -110 25.5 -142.5t99.5 -36.5v-155h-594z" />
    <glyph glyph-name="l" unicode="l" horiz-adv-x="688" 
d="M39 0v162q81 0 109 33t28 145v711q0 112 -28 145t-109 33v162q125 0 207 13t135 42h127v-1112q0 -110 25.5 -142.5t99.5 -36.5v-155h-594z" />
    <glyph glyph-name="m" unicode="m" horiz-adv-x="1956" 
d="M51 0v162q82 0 110.5 33.5t28.5 144.5v281q0 111 -28.5 144.5t-110.5 33.5v162q121 0 201.5 12.5t132.5 40.5h109v-101q95 57 183.5 85t174.5 28q88 0 149.5 -29t102.5 -90q98 61 185.5 90t172.5 29q162 0 237 -88t75 -281v-317q0 -112 28 -145t109 -33v-162h-586v155
q74 3 100.5 36t26.5 143v328q0 92 -22 124.5t-78 32.5q-40 0 -95 -25.5t-118 -74.5v-383q0 -114 25.5 -145.5t98.5 -34.5l1 -156h-566l1 156q75 3 100.5 35.5t25.5 142.5v328q0 89 -21 123t-73 34q-45 0 -100 -25t-119 -75v-385q0 -110 25.5 -142.5t99.5 -36.5v-155h-586z
" />
    <glyph glyph-name="n" unicode="n" horiz-adv-x="1341" 
d="M51 0v162q82 0 110.5 33.5t28.5 144.5v281q0 111 -28.5 144.5t-110.5 33.5v162q130 0 211.5 12.5t132.5 40.5h109v-101q95 57 181.5 85t168.5 28q163 0 237 -87.5t74 -281.5v-317q0 -111 29 -144.5t111 -33.5v-162h-596v156q74 3 99.5 34.5t25.5 143.5v305q0 120 -20 150
t-73 30q-46 0 -99 -24t-120 -76v-385q0 -110 25.5 -142.5t99.5 -36.5v-155h-596z" />
    <glyph glyph-name="o" unicode="o" horiz-adv-x="1214" 
d="M418 502q0 -181 47 -272t141 -91q95 0 143 91.5t48 271.5t-48.5 272t-142.5 92q-93 0 -140.5 -91.5t-47.5 -272.5zM61 502q0 241 149 386.5t396 145.5t396 -145.5t149 -386.5q0 -242 -148 -386.5t-397 -144.5q-248 0 -396.5 144.5t-148.5 386.5z" />
    <glyph glyph-name="p" unicode="p" horiz-adv-x="1319" 
d="M522 -115q0 -110 26 -143.5t99 -36.5v-160h-596v160q82 0 110.5 34t28.5 146v736q0 111 -28.5 144.5t-110.5 33.5v162q121 0 201.5 12.5t132.5 40.5h109v-76q63 43 131 64.5t143 21.5q217 0 352 -145t135 -379q0 -237 -135.5 -381t-359.5 -144q-64 0 -122.5 15.5
t-115.5 48.5v-154zM522 743v-491q46 -40 89.5 -59t86.5 -19q97 0 150 85.5t53 240.5t-53.5 240t-151.5 85q-45 0 -87.5 -20t-86.5 -62z" />
    <glyph glyph-name="q" unicode="q" horiz-adv-x="1292" 
d="M797 743q-43 42 -86.5 62t-89.5 20q-97 0 -150 -85t-53 -240t53 -240.5t150 -85.5q43 0 86.5 19t89.5 59v491zM1128 -115q0 -113 28.5 -146.5t109.5 -33.5v-160h-594v160q73 3 99 36.5t26 143.5v154q-57 -32 -116 -48t-124 -16q-224 0 -360 144t-136 381q0 236 135.5 379
t358.5 143q76 0 141.5 -20.5t126.5 -63.5l45 76h260v-1129z" />
    <glyph glyph-name="r" unicode="r" horiz-adv-x="915" 
d="M47 0v162q81 0 109 33t28 145v281q0 112 -28 145t-109 33v161q106 2 179.5 15t123.5 39h121l4 -94q68 53 131.5 79.5t126.5 26.5q83 0 135 -44.5t52 -115.5t-42 -111t-116 -40q-41 0 -98 29.5t-78 29.5q-15 0 -32.5 -7.5t-37.5 -23.5v-403q0 -112 28 -145t109 -33v-162
h-606z" />
    <glyph glyph-name="s" unicode="s" horiz-adv-x="1018" 
d="M121 -8l-66 336l148 45q57 -102 136 -152.5t181 -50.5q68 0 109 25.5t41 66.5q0 66 -174 100q-105 20 -170 37q-136 37 -193 103t-57 182q0 152 108.5 251t276.5 99q63 0 127 -15.5t131 -47.5l24 51h115l37 -301l-154 -25q-70 84 -133 122t-129 38q-51 0 -82.5 -24.5
t-31.5 -63.5q0 -25 13.5 -45.5t35.5 -28.5q40 -15 153 -33t178 -40q111 -38 163.5 -105t52.5 -170q0 -161 -119.5 -268t-298.5 -107q-67 0 -132 17t-130 51l-25 -47h-135z" />
    <glyph glyph-name="t" unicode="t" horiz-adv-x="807" 
d="M457 315q0 -67 19 -97t63 -30q28 0 66.5 25t92.5 78l121 -119q-85 -104 -181 -152.5t-216 -48.5q-141 0 -204.5 73.5t-63.5 236.5v557h-138v147q112 21 174 99.5t82 222.5h185v-293h245v-176h-245v-523z" />
    <glyph glyph-name="u" unicode="u" horiz-adv-x="1323" 
d="M827 82q-87 -55 -165.5 -78.5t-174.5 -23.5q-171 0 -247 86t-76 282v273q0 112 -28 145t-109 33v162h30q120 0 199 12.5t131 40.5h109v-680q0 -89 22.5 -123.5t77.5 -34.5q42 0 96 25t117 73v347q0 112 -28 145t-109 33v162h30q120 0 199 12.5t131 40.5h109v-674
q0 -112 28 -145t109 -33v-162h-451v82z" />
    <glyph glyph-name="v" unicode="v" horiz-adv-x="1151" 
d="M463 0l-305 694q-2 4 -6 13q-53 123 -148 137v170h563v-166h-14q-39 0 -62.5 -14t-23.5 -37q0 -12 21 -70l8 -21l129 -333l131 342q12 32 16 49t4 31q0 24 -25 37.5t-73 15.5v166h467v-170q-56 -17 -102.5 -61.5t-73.5 -106.5l-291 -676h-215z" />
    <glyph glyph-name="w" unicode="w" horiz-adv-x="1597" 
d="M422 0l-270 709q-24 63 -59 95t-87 40v170h516v-166q-42 -4 -57.5 -15t-15.5 -36q0 -16 3.5 -35t10.5 -41l104 -356l99 340q3 10 4.5 20.5t1.5 30.5q0 40 -21.5 62t-68.5 30v166h493v-166q-47 -2 -65.5 -15t-18.5 -45q0 -15 15 -64q2 -8 4 -14l88 -325l104 309
q12 38 15.5 55.5t3.5 32.5q0 26 -21.5 43t-60.5 23v166h456v-170q-56 -8 -104 -53t-72 -113l-245 -678h-240l-141 422l-146 -422h-225z" />
    <glyph glyph-name="x" unicode="x" horiz-adv-x="1151" 
d="M0 0v160q52 18 98 48.5t88 74.5l222 231l-125 182q-47 70 -105 109t-115 39h-2l2 170h543v-166h-14q-21 0 -33 -7t-12 -20q0 -9 8.5 -26.5t22.5 -34.5l67 -86l71 89q14 18 23 36t9 26q-1 12 -13 18.5t-30 6.5q-8 0 -12 -0.5t-7 -1.5v166h449l-1 -170q-57 -2 -113.5 -33
t-111.5 -90l-164 -182l189 -228q66 -79 114.5 -112t102.5 -39v-160h-600v154q50 6 72 18.5t22 34.5q0 12 -6 24.5t-18 24.5l-105 109l-100 -107q-15 -17 -23 -32t-8 -27q0 -22 24 -33.5t68 -11.5v-154h-477z" />
    <glyph glyph-name="y" unicode="y" horiz-adv-x="1130" 
d="M580 -152q-77 -172 -155.5 -237.5t-197.5 -65.5q-105 0 -164 48.5t-59 134.5q0 69 42 112t110 43q49 0 101.5 -36.5t59.5 -36.5q14 0 29 16t31 49l74 152l-267 626l-6 15q-74 176 -184 176h-6v170h592v-159q-80 -9 -99.5 -21.5t-19.5 -42.5q0 -15 14 -50l2 -6l135 -344
l129 320q11 26 17 49t6 37q0 28 -26 42.5t-74 14.5h-17v160h506v-170q-69 -2 -116.5 -41t-88.5 -127z" />
    <glyph glyph-name="z" unicode="z" horiz-adv-x="1130" 
d="M109 0l-58 166l567 676q-7 0 -20 1t-20 1q-127 0 -208 -48.5t-126 -152.5l-156 49l117 322h780l64 -156l-570 -668h6q44 -4 64 -4q141 0 240 61.5t147 178.5l154 -55l-127 -371h-854z" />
    <glyph glyph-name="braceleft" unicode="{" 
d="M852 1516v-66q-111 -3 -152 -54t-41 -208v-131q0 -227 -50.5 -308.5t-184.5 -113.5q134 -33 184.5 -113.5t50.5 -306.5v-131q0 -158 41 -209.5t152 -55.5v-63h-12q-229 0 -314.5 74t-85.5 272v187q0 168 -54.5 230t-207.5 77v80q153 14 207.5 76.5t54.5 230.5v186
q0 199 85.5 273t314.5 74h12z" />
    <glyph glyph-name="bar" unicode="|" 
d="M393 1565h240v-2048h-240v2048z" />
    <glyph glyph-name="braceright" unicode="}" 
d="M172 1516h12q229 0 314.5 -74t85.5 -273v-186q0 -168 54.5 -230.5t207.5 -76.5v-80q-153 -15 -207.5 -77t-54.5 -230v-187q0 -198 -85.5 -272t-314.5 -74h-12v63q111 4 152 55.5t41 209.5v131q0 226 50.5 306.5t184.5 113.5q-134 34 -184.5 115t-50.5 307v131
q0 157 -41 208t-152 54v66z" />
    <glyph glyph-name="asciitilde" unicode="~" horiz-adv-x="1706" 
d="M1530 819v-254q-101 -69 -194 -103t-183 -34q-45 0 -89 7.5t-83 21.5q-13 4 -38 13q-255 89 -382 89q-84 0 -175.5 -37.5t-207.5 -120.5v254q112 73 207.5 108.5t179.5 35.5q63 0 126.5 -12t169.5 -46q16 -5 51 -17q159 -56 247 -56q84 0 173.5 36t197.5 115z" />
    <glyph glyph-name="Adieresis" unicode="&#xc4;" horiz-adv-x="1501" 
d="M563 0h-581v170q146 18 233 228l4 10l406 976h313l397 -1026q45 -115 83.5 -147.5t111.5 -41.5v-169h-684v166h14q75 0 107 18.5t32 61.5q0 15 -3 30.5t-9 30.5l-72 191h-442l-59 -190q-5 -17 -6.5 -27t-1.5 -19q0 -48 37.5 -71t119.5 -25v-166zM547 668h297l-137 409z
M831 1690q0 48 36 83t85 35t84 -34.5t35 -83.5q0 -54 -33 -87.5t-86 -33.5q-51 0 -86 34.5t-35 86.5zM467 1690q0 48 36 83t85 35t84 -34.5t35 -83.5q0 -54 -33.5 -87.5t-85.5 -33.5t-86.5 34.5t-34.5 86.5z" />
    <glyph glyph-name="Aring" unicode="&#xc5;" horiz-adv-x="1501" 
d="M530 1704q0 106 72 178t178 72q107 0 180.5 -72.5t73.5 -177.5q0 -106 -74 -180t-180 -74q-105 0 -177.5 73.5t-72.5 180.5zM647 1704q0 -58 38.5 -97.5t94.5 -39.5q57 0 97.5 40t40.5 97q0 56 -40.5 94.5t-97.5 38.5t-95 -38t-38 -95zM563 0h-581v170q146 18 233 228
l4 10l406 976h313l397 -1026q45 -115 83.5 -147.5t111.5 -41.5v-169h-684v166h14q75 0 107 18.5t32 61.5q0 15 -3 30.5t-9 30.5l-72 191h-442l-59 -190q-5 -17 -6.5 -27t-1.5 -19q0 -48 37.5 -71t119.5 -25v-166zM547 668h297l-137 409z" />
    <glyph glyph-name="Ccedilla" unicode="&#xc7;" horiz-adv-x="1452" 
d="M1251 481l172 -80q-102 -212 -262.5 -323t-365.5 -111q-139 0 -273.5 51t-230.5 140q-112 103 -166.5 236.5t-54.5 303.5q0 171 54 303.5t167 237.5q91 85 209.5 130.5t247.5 45.5q80 0 157.5 -21.5t153.5 -64.5l22 80h123l170 -508l-151 -51q-77 180 -191 281.5
t-237 101.5q-158 0 -252 -144t-94 -391q0 -249 98 -389.5t270 -140.5q121 0 239 84.5t195 228.5zM498 -377l41 90q72 -39 130 -56t118 -17q40 0 64 22t24 59q0 43 -25.5 64.5t-75.5 21.5q-14 0 -29.5 -1.5t-31.5 -3.5v198h70v-115q16 3 32.5 4.5t32.5 1.5q86 0 136.5 -45.5
t50.5 -124.5q0 -85 -60 -131.5t-170 -46.5q-57 0 -130 19t-177 61z" />
    <glyph glyph-name="Eacute" unicode="&#xc9;" horiz-adv-x="1477" 
d="M51 0v169q96 4 129 48.5t33 208.5v532q0 165 -33 209t-129 48v169h1149l189 -417l-129 -68q-108 159 -240.5 238.5t-290.5 79.5q-93 0 -124.5 -32t-31.5 -145v-198h66q107 0 145.5 42.5t44.5 172.5h146v-625h-146q-14 122 -59.5 178t-130.5 56h-66v-324q0 -112 31.5 -143
t126.5 -31q161 0 314 100t262 279l131 -72l-209 -475h-1178zM477 1526l273 282q40 43 72 61.5t63 18.5q40 0 65 -25t25 -65q0 -32 -19 -55t-75 -53l-313 -164h-91z" />
    <glyph glyph-name="Ntilde" unicode="&#xd1;" horiz-adv-x="1507" 
d="M51 0v169q96 4 129 48.5t33 208.5v532q0 165 -33 209t-129 48v169h586l477 -788v367q0 164 -33.5 208.5t-128.5 47.5v165h512v-169q-93 -3 -126 -46.5t-33 -210.5v-958h-256l-646 1063v-641q0 -166 33 -210t127 -46v-166h-512zM1043 1849q-14 -117 -68 -182t-137 -65
q-16 0 -29.5 2t-27.5 6l-105 26q-14 4 -29 6.5t-28 2.5q-31 0 -52.5 -21t-37.5 -67h-66q17 124 69.5 185.5t141.5 61.5q17 0 32.5 -2t31.5 -6l109 -29q11 -3 20.5 -4.5t17.5 -1.5q32 0 54 21t38 67h66z" />
    <glyph glyph-name="Odieresis" unicode="&#xd6;" horiz-adv-x="1636" 
d="M457 692q0 -263 94 -406t266 -143q173 0 268 143.5t95 405.5t-95 405.5t-268 143.5q-172 0 -266 -143t-94 -406zM70 692q0 325 206 524t541 199t542.5 -199.5t207.5 -523.5t-207.5 -523.5t-542.5 -199.5t-541 199.5t-206 523.5zM880 1690q0 48 36 83t85 35t84 -34.5
t35 -83.5q0 -54 -33 -87.5t-86 -33.5q-51 0 -86 34.5t-35 86.5zM516 1690q0 48 36 83t85 35t84 -34.5t35 -83.5q0 -54 -33.5 -87.5t-85.5 -33.5t-86.5 34.5t-34.5 86.5z" />
    <glyph glyph-name="Udieresis" unicode="&#xdc;" horiz-adv-x="1528" 
d="M209 958q0 166 -33.5 210t-128.5 47v169h676v-165q-94 -2 -128 -48.5t-34 -207.5v-512q0 -136 66 -205.5t194 -69.5q152 0 230.5 81.5t78.5 238.5v467q0 164 -33.5 208.5t-127.5 47.5v165h512v-169q-95 -3 -128.5 -48t-33.5 -204v-431q0 -169 -27.5 -261.5t-91.5 -157.5
q-70 -72 -177 -108t-249 -36q-284 0 -424.5 118.5t-140.5 356.5v514zM862 1690q0 48 36 83t85 35t84 -34.5t35 -83.5q0 -54 -33 -87.5t-86 -33.5q-51 0 -86 34.5t-35 86.5zM498 1690q0 48 36 83t85 35t84 -34.5t35 -83.5q0 -54 -33.5 -87.5t-85.5 -33.5t-86.5 34.5
t-34.5 86.5z" />
    <glyph glyph-name="aacute" unicode="&#xe1;" horiz-adv-x="1145" 
d="M688 76q-82 -48 -156.5 -71t-146.5 -23q-159 0 -249.5 73t-90.5 201q0 164 150.5 261.5t439.5 121.5v104q0 53 -31.5 81t-89.5 28q-64 0 -90.5 -21.5t-34.5 -85.5q-10 -70 -47.5 -103.5t-105.5 -33.5q-61 0 -102.5 40.5t-41.5 99.5q0 128 123.5 207t329.5 79
q98 0 175.5 -21t129.5 -63q58 -46 81 -97.5t23 -160.5v-411q0 -56 8 -73.5t29 -17.5q13 1 26 5.5t32 14.5l94 -126q-65 -54 -124 -80.5t-114 -26.5q-56 0 -109 24.5t-108 74.5zM635 264v207q-130 -21 -190 -60.5t-60 -105.5q0 -43 30.5 -71.5t78.5 -28.5q30 0 64.5 14.5
t76.5 44.5zM360 1145l273 282q40 43 72 61.5t63 18.5q40 0 65 -25t25 -65q0 -32 -19 -55t-75 -53l-313 -164h-91z" />
    <glyph glyph-name="agrave" unicode="&#xe0;" horiz-adv-x="1145" 
d="M688 76q-82 -48 -156.5 -71t-146.5 -23q-159 0 -249.5 73t-90.5 201q0 164 150.5 261.5t439.5 121.5v104q0 53 -31.5 81t-89.5 28q-64 0 -90.5 -21.5t-34.5 -85.5q-10 -70 -47.5 -103.5t-105.5 -33.5q-61 0 -102.5 40.5t-41.5 99.5q0 128 123.5 207t329.5 79
q98 0 175.5 -21t129.5 -63q58 -46 81 -97.5t23 -160.5v-411q0 -56 8 -73.5t29 -17.5q13 1 26 5.5t32 14.5l94 -126q-65 -54 -124 -80.5t-114 -26.5q-56 0 -109 24.5t-108 74.5zM635 264v207q-130 -21 -190 -60.5t-60 -105.5q0 -43 30.5 -71.5t78.5 -28.5q30 0 64.5 14.5
t76.5 44.5zM750 1145h-91l-313 164q-56 30 -75 53t-19 55q0 40 25 65t65 25q31 0 63 -18.5t72 -61.5z" />
    <glyph glyph-name="acircumflex" unicode="&#xe2;" horiz-adv-x="1145" 
d="M688 76q-82 -48 -156.5 -71t-146.5 -23q-159 0 -249.5 73t-90.5 201q0 164 150.5 261.5t439.5 121.5v104q0 53 -31.5 81t-89.5 28q-64 0 -90.5 -21.5t-34.5 -85.5q-10 -70 -47.5 -103.5t-105.5 -33.5q-61 0 -102.5 40.5t-41.5 99.5q0 128 123.5 207t329.5 79
q98 0 175.5 -21t129.5 -63q58 -46 81 -97.5t23 -160.5v-411q0 -56 8 -73.5t29 -17.5q13 1 26 5.5t32 14.5l94 -126q-65 -54 -124 -80.5t-114 -26.5q-56 0 -109 24.5t-108 74.5zM635 264v207q-130 -21 -190 -60.5t-60 -105.5q0 -43 30.5 -71.5t78.5 -28.5q30 0 64.5 14.5
t76.5 44.5zM256 1145l225 348h148l225 -348h-84l-215 178l-215 -178h-84z" />
    <glyph glyph-name="adieresis" unicode="&#xe4;" horiz-adv-x="1145" 
d="M688 76q-82 -48 -156.5 -71t-146.5 -23q-159 0 -249.5 73t-90.5 201q0 164 150.5 261.5t439.5 121.5v104q0 53 -31.5 81t-89.5 28q-64 0 -90.5 -21.5t-34.5 -85.5q-10 -70 -47.5 -103.5t-105.5 -33.5q-61 0 -102.5 40.5t-41.5 99.5q0 128 123.5 207t329.5 79
q98 0 175.5 -21t129.5 -63q58 -46 81 -97.5t23 -160.5v-411q0 -56 8 -73.5t29 -17.5q13 1 26 5.5t32 14.5l94 -126q-65 -54 -124 -80.5t-114 -26.5q-56 0 -109 24.5t-108 74.5zM635 264v207q-130 -21 -190 -60.5t-60 -105.5q0 -43 30.5 -71.5t78.5 -28.5q30 0 64.5 14.5
t76.5 44.5zM616 1309q0 48 36 83t85 35t84 -34.5t35 -83.5q0 -54 -33 -87.5t-86 -33.5q-51 0 -86 34.5t-35 86.5zM252 1309q0 48 36 83t85 35t84 -34.5t35 -83.5q0 -54 -33.5 -87.5t-85.5 -33.5t-86.5 34.5t-34.5 86.5z" />
    <glyph glyph-name="atilde" unicode="&#xe3;" horiz-adv-x="1145" 
d="M688 76q-82 -48 -156.5 -71t-146.5 -23q-159 0 -249.5 73t-90.5 201q0 164 150.5 261.5t439.5 121.5v104q0 53 -31.5 81t-89.5 28q-64 0 -90.5 -21.5t-34.5 -85.5q-10 -70 -47.5 -103.5t-105.5 -33.5q-61 0 -102.5 40.5t-41.5 99.5q0 128 123.5 207t329.5 79
q98 0 175.5 -21t129.5 -63q58 -46 81 -97.5t23 -160.5v-411q0 -56 8 -73.5t29 -17.5q13 1 26 5.5t32 14.5l94 -126q-65 -54 -124 -80.5t-114 -26.5q-56 0 -109 24.5t-108 74.5zM635 264v207q-130 -21 -190 -60.5t-60 -105.5q0 -43 30.5 -71.5t78.5 -28.5q30 0 64.5 14.5
t76.5 44.5zM844 1468q-14 -117 -68 -182t-137 -65q-16 0 -29.5 2t-27.5 6l-105 26q-14 4 -29 6.5t-28 2.5q-31 0 -52.5 -21t-37.5 -67h-66q17 124 69.5 185.5t141.5 61.5q17 0 32.5 -2t31.5 -6l109 -29q11 -3 20.5 -4.5t17.5 -1.5q32 0 54 21t38 67h66z" />
    <glyph glyph-name="aring" unicode="&#xe5;" horiz-adv-x="1145" 
d="M293 1343q0 106 73 179t179 73t179 -73t73 -179q0 -105 -73 -178t-179 -73t-179 73t-73 178zM410 1343q0 -56 40 -95.5t97 -39.5q56 0 94.5 39t38.5 96t-39 96.5t-94 39.5q-57 0 -97 -39.5t-40 -96.5zM635 264v207q-130 -21 -190 -60.5t-60 -105.5q0 -43 30.5 -71.5
t78.5 -28.5q30 0 64.5 14.5t76.5 44.5zM688 76q-82 -48 -156.5 -71t-146.5 -23q-159 0 -249.5 73t-90.5 201q0 164 150.5 261.5t439.5 121.5v104q0 53 -31.5 81t-89.5 28q-64 0 -90.5 -21.5t-34.5 -85.5q-10 -70 -47.5 -103.5t-105.5 -33.5q-61 0 -102.5 40.5t-41.5 99.5
q0 128 123.5 207t329.5 79q98 0 175.5 -21t129.5 -63q58 -46 81 -97.5t23 -160.5v-411q0 -56 8 -73.5t29 -17.5q13 1 26 5.5t32 14.5l94 -126q-65 -54 -124 -80.5t-114 -26.5q-56 0 -109 24.5t-108 74.5z" />
    <glyph glyph-name="ccedilla" unicode="&#xe7;" horiz-adv-x="1124" 
d="M938 358l162 -79q-75 -159 -193 -232.5t-301 -73.5q-247 0 -396 145t-149 386q0 245 149.5 387.5t407.5 142.5q189 0 312 -85t123 -210q0 -72 -48.5 -119t-123.5 -47q-70 0 -104 34t-48 122q-13 84 -41 111.5t-88 27.5q-83 0 -133.5 -88.5t-50.5 -236.5q0 -187 57 -283
t168 -96q85 0 162.5 50.5t134.5 143.5zM295 -377l41 90q72 -39 130 -56t118 -17q40 0 64 22t24 59q0 43 -25.5 64.5t-75.5 21.5q-14 0 -29.5 -1.5t-31.5 -3.5v198h70v-115q16 3 32.5 4.5t32.5 1.5q86 0 136.5 -45.5t50.5 -124.5q0 -85 -60 -131.5t-170 -46.5q-57 0 -130 19
t-177 61z" />
    <glyph glyph-name="eacute" unicode="&#xe9;" horiz-adv-x="1124" 
d="M938 358l162 -79q-78 -156 -199 -231t-295 -75q-248 0 -396.5 144.5t-148.5 386.5q0 243 149 386.5t402 143.5q211 0 336 -120t125 -322q0 -8 -1 -21t-1 -20h-655v-72q0 -163 55.5 -240t173.5 -77q93 0 166 48.5t127 147.5zM440 711h287q0 69 -36.5 105t-106.5 36
q-71 0 -107.5 -36t-36.5 -105zM403 1145l273 282q40 43 72 61.5t63 18.5q40 0 65 -25t25 -65q0 -32 -19 -55t-75 -53l-313 -164h-91z" />
    <glyph glyph-name="egrave" unicode="&#xe8;" horiz-adv-x="1124" 
d="M938 358l162 -79q-78 -156 -199 -231t-295 -75q-248 0 -396.5 144.5t-148.5 386.5q0 243 149 386.5t402 143.5q211 0 336 -120t125 -322q0 -8 -1 -21t-1 -20h-655v-72q0 -163 55.5 -240t173.5 -77q93 0 166 48.5t127 147.5zM440 711h287q0 69 -36.5 105t-106.5 36
q-71 0 -107.5 -36t-36.5 -105zM793 1145h-91l-313 164q-56 30 -75 53t-19 55q0 40 25 65t65 25q31 0 63 -18.5t72 -61.5z" />
    <glyph glyph-name="ecircumflex" unicode="&#xea;" horiz-adv-x="1124" 
d="M938 358l162 -79q-78 -156 -199 -231t-295 -75q-248 0 -396.5 144.5t-148.5 386.5q0 243 149 386.5t402 143.5q211 0 336 -120t125 -322q0 -8 -1 -21t-1 -20h-655v-72q0 -163 55.5 -240t173.5 -77q93 0 166 48.5t127 147.5zM440 711h287q0 69 -36.5 105t-106.5 36
q-71 0 -107.5 -36t-36.5 -105zM299 1145l225 348h148l225 -348h-84l-215 178l-215 -178h-84z" />
    <glyph glyph-name="edieresis" unicode="&#xeb;" horiz-adv-x="1124" 
d="M938 358l162 -79q-78 -156 -199 -231t-295 -75q-248 0 -396.5 144.5t-148.5 386.5q0 243 149 386.5t402 143.5q211 0 336 -120t125 -322q0 -8 -1 -21t-1 -20h-655v-72q0 -163 55.5 -240t173.5 -77q93 0 166 48.5t127 147.5zM440 711h287q0 69 -36.5 105t-106.5 36
q-71 0 -107.5 -36t-36.5 -105zM659 1309q0 48 36 83t85 35t84 -34.5t35 -83.5q0 -54 -33 -87.5t-86 -33.5q-51 0 -86 34.5t-35 86.5zM295 1309q0 48 36 83t85 35t84 -34.5t35 -83.5q0 -54 -33.5 -87.5t-85.5 -33.5t-86.5 34.5t-34.5 86.5z" />
    <glyph glyph-name="iacute" unicode="&#xed;" horiz-adv-x="705" 
d="M532 1014v-674q0 -112 28.5 -145t109.5 -33v-162h-607v162q82 0 110 33t28 145v281q0 112 -28 145t-110 33v162q130 0 210.5 12.5t132.5 40.5h126zM157 1145l273 282q40 43 72 61.5t63 18.5q40 0 65 -25t25 -65q0 -32 -19 -55t-75 -53l-313 -164h-91z" />
    <glyph glyph-name="igrave" unicode="&#xec;" horiz-adv-x="705" 
d="M532 1014v-674q0 -112 28.5 -145t109.5 -33v-162h-607v162q82 0 110 33t28 145v281q0 112 -28 145t-110 33v162q130 0 210.5 12.5t132.5 40.5h126zM547 1145h-91l-313 164q-56 30 -75 53t-19 55q0 40 25 65t65 25q31 0 63 -18.5t72 -61.5z" />
    <glyph glyph-name="icircumflex" unicode="&#xee;" horiz-adv-x="705" 
d="M532 1014v-674q0 -112 28.5 -145t109.5 -33v-162h-607v162q82 0 110 33t28 145v281q0 112 -28 145t-110 33v162q130 0 210.5 12.5t132.5 40.5h126zM53 1145l225 348h148l225 -348h-84l-215 178l-215 -178h-84z" />
    <glyph glyph-name="idieresis" unicode="&#xef;" horiz-adv-x="705" 
d="M532 1014v-674q0 -112 28.5 -145t109.5 -33v-162h-607v162q82 0 110 33t28 145v281q0 112 -28 145t-110 33v162q130 0 210.5 12.5t132.5 40.5h126zM413 1309q0 48 36 83t85 35t84 -34.5t35 -83.5q0 -54 -33 -87.5t-86 -33.5q-51 0 -86 34.5t-35 86.5zM49 1309q0 48 36 83
t85 35t84 -34.5t35 -83.5q0 -54 -33.5 -87.5t-85.5 -33.5t-86.5 34.5t-34.5 86.5z" />
    <glyph glyph-name="ntilde" unicode="&#xf1;" horiz-adv-x="1341" 
d="M51 0v162q82 0 110.5 33.5t28.5 144.5v281q0 111 -28.5 144.5t-110.5 33.5v162q130 0 211.5 12.5t132.5 40.5h109v-101q95 57 181.5 85t168.5 28q163 0 237 -87.5t74 -281.5v-317q0 -111 29 -144.5t111 -33.5v-162h-596v156q74 3 99.5 34.5t25.5 143.5v305q0 120 -20 150
t-73 30q-46 0 -99 -24t-120 -76v-385q0 -110 25.5 -142.5t99.5 -36.5v-155h-596zM961 1468q-14 -117 -68 -182t-137 -65q-16 0 -29.5 2t-27.5 6l-105 26q-14 4 -29 6.5t-28 2.5q-31 0 -52.5 -21t-37.5 -67h-66q17 124 69.5 185.5t141.5 61.5q17 0 32.5 -2t31.5 -6l109 -29
q11 -3 20.5 -4.5t17.5 -1.5q32 0 54 21t38 67h66z" />
    <glyph glyph-name="oacute" unicode="&#xf3;" horiz-adv-x="1214" 
d="M418 502q0 -181 47 -272t141 -91q95 0 143 91.5t48 271.5t-48.5 272t-142.5 92q-93 0 -140.5 -91.5t-47.5 -272.5zM61 502q0 241 149 386.5t396 145.5t396 -145.5t149 -386.5q0 -242 -148 -386.5t-397 -144.5q-248 0 -396.5 144.5t-148.5 386.5zM413 1145l273 282
q40 43 72 61.5t63 18.5q40 0 65 -25t25 -65q0 -32 -19 -55t-75 -53l-313 -164h-91z" />
    <glyph glyph-name="ograve" unicode="&#xf2;" horiz-adv-x="1214" 
d="M418 502q0 -181 47 -272t141 -91q95 0 143 91.5t48 271.5t-48.5 272t-142.5 92q-93 0 -140.5 -91.5t-47.5 -272.5zM61 502q0 241 149 386.5t396 145.5t396 -145.5t149 -386.5q0 -242 -148 -386.5t-397 -144.5q-248 0 -396.5 144.5t-148.5 386.5zM803 1145h-91l-313 164
q-56 30 -75 53t-19 55q0 40 25 65t65 25q31 0 63 -18.5t72 -61.5z" />
    <glyph glyph-name="ocircumflex" unicode="&#xf4;" horiz-adv-x="1214" 
d="M418 502q0 -181 47 -272t141 -91q95 0 143 91.5t48 271.5t-48.5 272t-142.5 92q-93 0 -140.5 -91.5t-47.5 -272.5zM61 502q0 241 149 386.5t396 145.5t396 -145.5t149 -386.5q0 -242 -148 -386.5t-397 -144.5q-248 0 -396.5 144.5t-148.5 386.5zM309 1145l225 348h148
l225 -348h-84l-215 178l-215 -178h-84z" />
    <glyph glyph-name="odieresis" unicode="&#xf6;" horiz-adv-x="1214" 
d="M418 502q0 -181 47 -272t141 -91q95 0 143 91.5t48 271.5t-48.5 272t-142.5 92q-93 0 -140.5 -91.5t-47.5 -272.5zM61 502q0 241 149 386.5t396 145.5t396 -145.5t149 -386.5q0 -242 -148 -386.5t-397 -144.5q-248 0 -396.5 144.5t-148.5 386.5zM669 1309q0 48 36 83
t85 35t84 -34.5t35 -83.5q0 -54 -33 -87.5t-86 -33.5q-51 0 -86 34.5t-35 86.5zM305 1309q0 48 36 83t85 35t84 -34.5t35 -83.5q0 -54 -33.5 -87.5t-85.5 -33.5t-86.5 34.5t-34.5 86.5z" />
    <glyph glyph-name="otilde" unicode="&#xf5;" horiz-adv-x="1214" 
d="M418 502q0 -181 47 -272t141 -91q95 0 143 91.5t48 271.5t-48.5 272t-142.5 92q-93 0 -140.5 -91.5t-47.5 -272.5zM61 502q0 241 149 386.5t396 145.5t396 -145.5t149 -386.5q0 -242 -148 -386.5t-397 -144.5q-248 0 -396.5 144.5t-148.5 386.5zM897 1468
q-14 -117 -68 -182t-137 -65q-16 0 -29.5 2t-27.5 6l-105 26q-14 4 -29 6.5t-28 2.5q-31 0 -52.5 -21t-37.5 -67h-66q17 124 69.5 185.5t141.5 61.5q17 0 32.5 -2t31.5 -6l109 -29q11 -3 20.5 -4.5t17.5 -1.5q32 0 54 21t38 67h66z" />
    <glyph glyph-name="uacute" unicode="&#xfa;" horiz-adv-x="1323" 
d="M827 82q-87 -55 -165.5 -78.5t-174.5 -23.5q-171 0 -247 86t-76 282v273q0 112 -28 145t-109 33v162h30q120 0 199 12.5t131 40.5h109v-680q0 -89 22.5 -123.5t77.5 -34.5q42 0 96 25t117 73v347q0 112 -28 145t-109 33v162h30q120 0 199 12.5t131 40.5h109v-674
q0 -112 28 -145t109 -33v-162h-451v82zM450 1145l273 282q40 43 72 61.5t63 18.5q40 0 65 -25t25 -65q0 -32 -19 -55t-75 -53l-313 -164h-91z" />
    <glyph glyph-name="ugrave" unicode="&#xf9;" horiz-adv-x="1323" 
d="M827 82q-87 -55 -165.5 -78.5t-174.5 -23.5q-171 0 -247 86t-76 282v273q0 112 -28 145t-109 33v162h30q120 0 199 12.5t131 40.5h109v-680q0 -89 22.5 -123.5t77.5 -34.5q42 0 96 25t117 73v347q0 112 -28 145t-109 33v162h30q120 0 199 12.5t131 40.5h109v-674
q0 -112 28 -145t109 -33v-162h-451v82zM840 1145h-91l-313 164q-56 30 -75 53t-19 55q0 40 25 65t65 25q31 0 63 -18.5t72 -61.5z" />
    <glyph glyph-name="ucircumflex" unicode="&#xfb;" horiz-adv-x="1323" 
d="M827 82q-87 -55 -165.5 -78.5t-174.5 -23.5q-171 0 -247 86t-76 282v273q0 112 -28 145t-109 33v162h30q120 0 199 12.5t131 40.5h109v-680q0 -89 22.5 -123.5t77.5 -34.5q42 0 96 25t117 73v347q0 112 -28 145t-109 33v162h30q120 0 199 12.5t131 40.5h109v-674
q0 -112 28 -145t109 -33v-162h-451v82zM346 1145l225 348h148l225 -348h-84l-215 178l-215 -178h-84z" />
    <glyph glyph-name="udieresis" unicode="&#xfc;" horiz-adv-x="1323" 
d="M827 82q-87 -55 -165.5 -78.5t-174.5 -23.5q-171 0 -247 86t-76 282v273q0 112 -28 145t-109 33v162h30q120 0 199 12.5t131 40.5h109v-680q0 -89 22.5 -123.5t77.5 -34.5q42 0 96 25t117 73v347q0 112 -28 145t-109 33v162h30q120 0 199 12.5t131 40.5h109v-674
q0 -112 28 -145t109 -33v-162h-451v82zM706 1309q0 48 36 83t85 35t84 -34.5t35 -83.5q0 -54 -33 -87.5t-86 -33.5q-51 0 -86 34.5t-35 86.5zM342 1309q0 48 36 83t85 35t84 -34.5t35 -83.5q0 -54 -33.5 -87.5t-85.5 -33.5t-86.5 34.5t-34.5 86.5z" />
    <glyph glyph-name="dagger" unicode="&#x2020;" 
d="M449 -18q-6 225 -38 364t-98 236q44 32 76 75.5t53 98.5q-84 -38 -134 -53t-87 -15q-62 0 -97.5 38t-35.5 103q0 67 36 105.5t97 38.5q37 0 87 -15t134 -53q-21 78 -57 195q-41 133 -41 160q0 70 46 112.5t122 42.5t122 -42.5t46 -112.5q0 -27 -41 -160
q-36 -117 -57 -195q84 38 134 53t87 15q61 0 97 -38.5t36 -105.5q0 -65 -35.5 -103t-97.5 -38q-37 0 -87 15t-134 53q21 -55 53 -98.5t76 -75.5q-66 -97 -98 -236t-38 -364h-126z" />
    <glyph glyph-name="degree" unicode="&#xb0;" horiz-adv-x="674" 
d="M338 1321q-69 0 -117.5 -48t-48.5 -116q0 -70 48 -118t118 -48q68 0 116 49t48 117t-48 116t-116 48zM338 1466q129 0 220 -91t91 -220q0 -128 -91.5 -219.5t-221.5 -91.5q-129 0 -219 90.5t-90 220.5q0 131 90.5 221t220.5 90z" />
    <glyph glyph-name="cent" unicode="&#xa2;" horiz-adv-x="1337" 
d="M653 395v674q-89 -30 -128.5 -108t-39.5 -226q0 -157 40.5 -238.5t127.5 -101.5zM1063 575l143 -81q-75 -147 -178.5 -220.5t-245.5 -81.5v-307h-129v312q-222 27 -344.5 164t-122.5 358q0 218 124 356t343 164v250h129v-248q177 -9 286.5 -92t109.5 -205
q0 -65 -49.5 -110.5t-122.5 -45.5q-68 0 -110 41t-42 107v9q2 35 2 67q0 24 -20 40t-53 19v-688q87 5 153 50t127 142z" />
    <glyph glyph-name="sterling" unicode="&#xa3;" horiz-adv-x="1337" 
d="M467 246q-44 17 -75.5 25t-53.5 8q-46 0 -71 -22t-25 -62q0 -31 19.5 -46.5t57.5 -15.5q51 0 88.5 29t59.5 84zM678 137q-75 -84 -162 -127t-182 -43q-131 0 -209 64t-78 170q0 107 74.5 174t193.5 67q30 0 66.5 -5.5t81.5 -16.5q-6 59 -31 126.5t-70 145.5h-280l63 152
h170q-12 53 -18 93t-6 71q0 184 145 298.5t381 114.5q190 0 308 -89.5t118 -229.5q0 -88 -42 -135t-120 -47q-64 0 -99.5 33t-35.5 91q0 28 10.5 67.5t10.5 51.5q0 39 -42 65.5t-104 26.5q-110 0 -170.5 -62t-60.5 -175q0 -39 11 -82t34 -92h401l-63 -152h-281
q43 -88 62.5 -158t19.5 -131q0 -19 -1.5 -41t-3.5 -45q97 -45 167.5 -68.5t112.5 -23.5q31 0 50 15.5t19 40.5q0 27 -19 43t-52 16q-16 0 -33 -3t-37 -9l-47 127q39 21 79.5 32t84.5 11q109 0 175 -69.5t66 -184.5q0 -116 -79.5 -192.5t-200.5 -76.5q-70 0 -147.5 31.5
t-229.5 130.5z" />
    <glyph glyph-name="section" unicode="&#xa7;" 
d="M698 592q12 15 17.5 29.5t5.5 29.5q0 71 -190 127q-82 24 -132 41q-24 -16 -35.5 -32.5t-11.5 -34.5q0 -61 189 -113q97 -28 157 -47zM874 508q46 -32 68.5 -78t22.5 -106q0 -167 -127.5 -262t-352.5 -95q-197 0 -315.5 72t-118.5 188q0 64 40.5 104t105.5 40
q102 0 150 -155q2 -7 3 -11q9 -32 47.5 -48t108.5 -16q85 0 138.5 33.5t53.5 85.5q0 66 -147 102q-16 4 -25 7q-277 67 -352.5 130.5t-75.5 184.5q0 65 26.5 118t82.5 101q-51 34 -73.5 75t-22.5 99q0 150 116.5 244t304.5 94q183 0 294.5 -72t111.5 -186q0 -55 -31.5 -86
t-87.5 -31q-93 0 -147 121q-6 13 -8 18q-15 34 -49.5 49t-94.5 15q-63 0 -98 -22t-35 -62q0 -59 164 -107q41 -12 66 -20q209 -66 281.5 -133t72.5 -174q0 -63 -23 -115t-74 -102z" />
    <glyph glyph-name="bullet" unicode="&#x2022;" horiz-adv-x="1208" 
d="M307 762q0 123 87 209t210 86q122 0 208.5 -86.5t86.5 -208.5t-87.5 -209.5t-209.5 -87.5q-123 0 -209 87t-86 210z" />
    <glyph glyph-name="paragraph" unicode="&#xb6;" 
d="M997 1479v-123h-106v-1356h-176v1356h-150v-1356h-174v784q-164 6 -263 101t-99 245q0 158 106 253.5t283 95.5h579z" />
    <glyph glyph-name="germandbls" unicode="&#xdf;" horiz-adv-x="1352" 
d="M33 0v164q91 5 121 31t30 137v534h-137l37 146h115q30 206 183 321t396 115q175 0 280 -75t105 -197q0 -63 -31.5 -119.5t-89.5 -93.5q-11 -8 -33 -20q-46 -26 -46 -50q0 -29 64 -56q50 -20 77 -38q92 -60 140 -147.5t48 -194.5q0 -209 -150 -344.5t-386 -135.5
q-47 0 -97 8.5t-104 24.5l29 168q33 -8 60.5 -12t51.5 -4q122 0 199.5 70t77.5 180q0 76 -39 130.5t-164 131.5l-65 38q-144 85 -144 146t148 156l12 8q89 57 112 86t23 66q0 42 -36 69t-93 27q-108 0 -167.5 -84t-59.5 -238v-948h-467z" />
    <glyph glyph-name="registered" unicode="&#xae;" horiz-adv-x="1683" 
d="M772 728q8 -2 16 -2.5t23 -0.5q85 0 127.5 43.5t42.5 130.5q0 62 -38.5 103.5t-98.5 41.5q-37 0 -54.5 -15.5t-17.5 -47.5v-253zM463 1100h405q147 0 236.5 -56t89.5 -145q0 -87 -64.5 -136.5t-211.5 -74.5q116 -23 172.5 -87.5t56.5 -172.5q0 -48 10 -68t33 -20
q25 0 39 31t14 88v12h55q0 -5 1 -15t1 -14q0 -90 -47 -135t-141 -45q-45 0 -80 13t-55 36q-32 37 -36 134q-2 43 -5 65q-13 87 -47.5 124.5t-100.5 37.5h-16v-244q0 -45 18 -63.5t70 -26.5v-57h-397v57q57 5 77.5 24t20.5 66v524q0 47 -19 65.5t-79 26.5v56zM844 1311
q-127 0 -244.5 -49t-204.5 -138q-88 -90 -135 -204.5t-47 -241.5q0 -130 47 -244t137 -203q93 -91 205.5 -137.5t239.5 -46.5t240.5 47.5t201.5 136.5q89 91 137.5 207.5t48.5 239.5q0 125 -49 243.5t-137 204.5q-89 88 -204 136.5t-236 48.5zM844 1423q150 0 291 -60
t245 -169q99 -102 152 -240t53 -292q0 -141 -63 -280.5t-176 -246.5q-102 -97 -232 -149t-272 -52q-109 0 -212.5 31.5t-197.5 91.5q-159 107 -246.5 269.5t-87.5 351.5q0 149 56 284t161 240q105 106 242.5 163.5t286.5 57.5z" />
    <glyph glyph-name="copyright" unicode="&#xa9;" horiz-adv-x="1683" 
d="M1128 1104h50v-330h-52q-29 130 -98 201.5t-164 71.5q-112 0 -167.5 -91t-55.5 -272q0 -182 61 -278.5t177 -96.5q76 0 143.5 44.5t124.5 131.5l51 -32q-64 -108 -152 -162.5t-198 -54.5q-192 0 -318.5 122t-126.5 306q0 194 122.5 319t312.5 125q82 0 157.5 -33
t79.5 -33q22 0 33.5 13.5t19.5 48.5zM844 1311q-126 0 -242.5 -49t-204.5 -138q-89 -91 -136.5 -206t-47.5 -240q0 -130 47 -244t137 -203q93 -91 205.5 -137.5t239.5 -46.5t240.5 47.5t201.5 136.5q89 91 137.5 207.5t48.5 239.5q0 126 -48.5 244.5t-135.5 203.5
q-89 88 -205 136.5t-237 48.5zM844 1423q144 0 280.5 -56.5t241.5 -160.5q104 -104 161.5 -242.5t57.5 -285.5q0 -146 -56.5 -281.5t-162.5 -242.5q-105 -106 -240 -161.5t-284 -55.5t-283 55.5t-242 161.5q-106 104 -162.5 239t-56.5 285q0 149 55.5 283t161.5 241
q105 106 242.5 163.5t286.5 57.5z" />
    <glyph glyph-name="trademark" unicode="&#x2122;" horiz-adv-x="1683" 
d="M745 1460h222l127 -356l123 356h206v-26l-22 -7q-19 -4 -27 -15t-8 -34v-383q0 -22 8 -33t27 -16l22 -6v-33h-260v33l30 6q18 3 27 15.5t9 33.5v355l-148 -445h-43l-166 457v-367q0 -22 9 -34t27 -15l34 -6v-33h-197v33l35 6q18 4 26.5 16t8.5 33v375q0 21 -9 33.5
t-25 15.5l-36 6v35zM229 1460h457l12 -198h-36q-7 79 -38 116t-92 37v-420q1 -22 8.5 -34t23.5 -15l30 -6v-33h-272v33l30 6q15 3 23 15.5t8 33.5v420h-4q-58 0 -89.5 -38t-37.5 -115h-35z" />
    <glyph glyph-name="acute" unicode="&#xb4;" 
d="M317 1145l273 282q40 43 72 61.5t63 18.5q40 0 65 -25t25 -65q0 -32 -19 -55t-75 -53l-313 -164h-91z" />
    <glyph glyph-name="dieresis" unicode="&#xa8;" 
d="M573 1309q0 48 36 83t85 35t84 -34.5t35 -83.5q0 -54 -33 -87.5t-86 -33.5q-51 0 -86 34.5t-35 86.5zM209 1309q0 48 36 83t85 35t84 -34.5t35 -83.5q0 -54 -33.5 -87.5t-85.5 -33.5t-86.5 34.5t-34.5 86.5z" />
    <glyph glyph-name="notequal" unicode="&#x2260;" horiz-adv-x="1706" 
d="M1194 1251l168 -137l-135 -168h225v-221h-377l-180 -227h557v-222h-704l-246 -307l-170 137l135 170h-213v222h360l183 227h-543v221h694z" />
    <glyph glyph-name="AE" unicode="&#xc6;" horiz-adv-x="2214" 
d="M1937 1384l187 -417l-127 -68q-108 159 -240.5 238.5t-290.5 79.5q-93 0 -124 -32t-31 -145v-198h65q108 0 146 42.5t45 172.5h145v-623h-145q-14 120 -60 176t-131 56h-65v-324q0 -112 31 -143t126 -31q161 0 314 100t262 279l131 -72l-209 -475h-1165v170
q94 3 127 46.5t33 209.5v72h-406l-100 -166q-11 -16 -16 -33t-5 -35q0 -50 38 -74t116 -24v-166h-600v170q117 6 256 232l4 6l414 663q9 15 14.5 31.5t5.5 30.5q0 40 -35 60t-106 22v169h1396zM664 668h297v555z" />
    <glyph glyph-name="Oslash" unicode="&#xd8;" horiz-adv-x="1636" 
d="M1139 1006l-566 -756q44 -54 103 -79.5t141 -25.5q177 0 275 143.5t98 403.5q0 89 -12.5 166.5t-38.5 147.5zM494 377l567 756q-43 51 -106 78.5t-140 27.5q-175 0 -270.5 -143t-95.5 -404q0 -89 11 -167.5t34 -147.5zM272 -150h-170l211 285q-122 103 -182.5 241.5
t-60.5 315.5q0 330 208.5 526.5t559.5 196.5q101 0 190.5 -22.5t175.5 -69.5l127 170h170l-180 -246q121 -95 183.5 -235t62.5 -320q0 -169 -55 -301.5t-169 -234.5q-98 -90 -235 -138.5t-291 -48.5q-110 0 -205.5 22.5t-183.5 69.5z" />
    <glyph glyph-name="infinity" unicode="&#x221e;" horiz-adv-x="1706" 
d="M956 561q44 -68 103.5 -103.5t130.5 -35.5q89 0 146 52t57 132q0 77 -52 129.5t-127 52.5q-71 0 -130 -51t-128 -176zM752 657q-43 68 -101.5 102t-132.5 34q-90 0 -146.5 -51t-56.5 -130q0 -78 51.5 -131t127.5 -53q69 0 130 53.5t128 175.5zM856 442
q-68 -130 -147.5 -193t-176.5 -63q-139 0 -238 121.5t-99 300.5q0 188 87.5 305t227.5 117q90 0 166.5 -56.5t175.5 -199.5q70 131 149 193.5t175 62.5q140 0 238.5 -120.5t98.5 -299.5q0 -189 -87.5 -306.5t-227.5 -117.5q-91 0 -166 55t-176 201z" />
    <glyph glyph-name="plusminus" unicode="&#xb1;" horiz-adv-x="1706" 
d="M254 213h1198v-231h-1198v231zM735 1241h238v-319h479v-232h-479v-319h-238v319h-481v232h481v319z" />
    <glyph glyph-name="lessequal" unicode="&#x2264;" horiz-adv-x="1706" 
d="M256 213h1196v-229h-1196v229zM1450 1257v-239l-776 -240l776 -239v-240l-1194 379v201z" />
    <glyph glyph-name="greaterequal" unicode="&#x2265;" horiz-adv-x="1706" 
d="M256 213h1196v-229h-1196v229zM256 1257l1194 -378v-201l-1194 -379v240l778 239l-778 240v239z" />
    <glyph glyph-name="yen" unicode="&#xa5;" horiz-adv-x="1380" 
d="M979 1108q15 25 21 40.5t6 31.5q0 27 -24.5 40t-76.5 13q-6 0 -18.5 -1t-20.5 -1v158h537v-162q-89 -26 -168 -92t-139 -164l-33 -58h278v-112h-350l-131 -203h481v-115h-487v-53q0 -168 35.5 -213t138.5 -45h8v-172h-688v172h8q102 0 137 45t35 213v55h-477v115h461
l-123 201h-338v112h268l-102 158q-38 59 -89 96.5t-120 59.5v162h676v-158q-77 0 -113 -13.5t-36 -41.5q0 -23 7.5 -46.5t22.5 -46.5l201 -311z" />
    <glyph glyph-name="mu" unicode="&#xb5;" horiz-adv-x="1233" 
d="M219 190q-12 -89 -27 -239q-40 -377 -163 -377q-57 0 -92 34.5t-35 88.5q0 56 69 281t105 397l108 510h293l-106 -498q-10 -43 -15.5 -75t-5.5 -50q0 -54 28 -86.5t75 -32.5q62 0 104 55t68 171l110 516h291l-111 -525q-6 -26 -9 -49t-3 -43q0 -43 19.5 -67.5t54.5 -24.5
q26 0 49.5 13.5t40.5 37.5q10 14 25 42q35 63 65 63q11 0 20 -12t9 -27q0 -30 -21 -87t-53 -104q-41 -62 -95.5 -92t-125.5 -30q-90 0 -136.5 47.5t-54.5 146.5q-36 -97 -98.5 -145.5t-150.5 -48.5q-101 0 -161 54.5t-71 155.5z" />
    <glyph glyph-name="partialdiff" unicode="&#x2202;" horiz-adv-x="1114" 
d="M766 684q21 113 32 206t11 150q0 87 -29.5 148t-68.5 61q-35 0 -132 -93t-180 -93q-48 0 -80 33.5t-32 83.5q0 69 93 125.5t220 56.5q210 0 332.5 -161t122.5 -441q0 -344 -162.5 -564.5t-417.5 -220.5q-182 0 -299 116.5t-117 299.5q0 203 119.5 336t298.5 133
q101 0 170.5 -42.5t118.5 -133.5zM698 532q0 114 -36.5 176t-104.5 62q-96 0 -160.5 -136.5t-64.5 -346.5q0 -116 36.5 -176t106.5 -60q97 0 160 135.5t63 345.5z" />
    <glyph glyph-name="summation" unicode="&#x2211;" horiz-adv-x="1585" 
d="M27 1473h1276l153 -463h-92l-102 262q-25 62 -74 86t-201 24h-485l590 -757v-41l-689 -652h885q41 0 58 13.5t28 49.5l70 230h94l-188 -618h-1325v88l766 725l-764 981v72z" />
    <glyph glyph-name="product" unicode="&#x220f;" horiz-adv-x="1774" 
d="M43 1473h1681v-91h-192v-1685h192v-90h-753v90h168v1685h-512v-1685h170v-90h-754v90h193v1685h-193v91z" />
    <glyph glyph-name="pi" unicode="&#x3c0;" horiz-adv-x="1513" 
d="M1481 885l-68 -320h-358v-49v-70q0 -53 6 -147.5t6 -136.5q0 -102 -38.5 -154.5t-113.5 -52.5q-60 0 -93.5 33t-33.5 94q0 70 66 228.5t92 254.5h-377q0 -9 -1 -25t-1 -24v-70q0 -51 6.5 -145.5t6.5 -138.5q0 -102 -38.5 -154.5t-113.5 -52.5q-61 0 -94 33t-33 94
q0 66 66.5 224t93.5 259h-207q-90 0 -126 -26t-52 -97h-72q48 251 144.5 347t302.5 96h1030z" />
    <glyph glyph-name="integral" unicode="&#x222b;" horiz-adv-x="1249" 
d="M362 -248q99 0 119 667q3 101 4 154q17 523 130.5 753t349.5 230q105 0 170 -53t65 -137q0 -64 -41 -103.5t-106 -39.5q-64 0 -96.5 38.5t-32.5 112.5q0 38 -7.5 49t-25.5 11q-101 0 -124 -667l-3 -91q-11 -329 -30.5 -472.5t-57.5 -244.5q-62 -166 -159.5 -249
t-229.5 -83q-107 0 -171.5 52t-64.5 139q0 65 42 104t112 39q60 0 92.5 -36t32.5 -103q0 -12 -2 -24v-3q0 -24 8 -33.5t26 -9.5z" />
    <glyph glyph-name="ordfeminine" unicode="&#xaa;" horiz-adv-x="848" 
d="M510 727q-61 -33 -116 -49t-109 -16q-119 0 -185.5 51t-66.5 141q0 114 111 182t325 84v74q0 37 -22.5 56.5t-65.5 19.5q-48 0 -67.5 -15t-24.5 -58q-8 -50 -36 -73.5t-79 -23.5q-45 0 -75.5 28.5t-30.5 69.5q0 90 91 145.5t244 55.5q73 0 130 -15t96 -45
q43 -32 60.5 -68t17.5 -112v-289q0 -40 5.5 -51.5t20.5 -11.5q8 0 16 2.5t27 11.5l70 -88q-47 -38 -91.5 -57t-84.5 -19t-79 17t-81 53zM469 858v146q-96 -15 -140 -43t-44 -74q0 -30 22.5 -50t57.5 -20q23 0 48 10t56 31z" />
    <glyph glyph-name="ordmasculine" unicode="&#xba;" horiz-adv-x="899" 
d="M309 1026q0 -127 35 -190.5t105 -63.5t105.5 64t35.5 190q0 125 -36 189.5t-105 64.5q-70 0 -105 -64t-35 -190zM45 1026q0 168 110.5 270.5t293.5 102.5q182 0 292.5 -102.5t110.5 -270.5q0 -170 -110 -271.5t-293 -101.5q-184 0 -294 101.5t-110 271.5z" />
    <glyph glyph-name="Omega" unicode="&#x3a9;" horiz-adv-x="1581" 
d="M1153 297v-14h283l37 120h81l-120 -403h-545q85 207 128.5 423.5t43.5 430.5q0 278 -66.5 413.5t-201.5 135.5q-136 0 -203.5 -137t-67.5 -410q0 -211 43.5 -428t128.5 -428h-544l-121 403h82l36 -120h283v14q-170 66 -264 208.5t-94 334.5q0 281 205 469t516 188
q309 0 514.5 -189t205.5 -470q0 -189 -95 -332t-265 -209z" />
    <glyph glyph-name="ae" unicode="&#xe6;" horiz-adv-x="1663" 
d="M748 117q-70 -71 -167 -108.5t-210 -37.5q-148 0 -237 75.5t-89 201.5q0 165 150 263t440 122v108q0 55 -32.5 83t-94.5 28q-59 0 -85.5 -23t-33.5 -84q-10 -71 -48 -106t-105 -35q-61 0 -102.5 41t-41.5 100q0 126 121.5 207.5t310.5 81.5q109 0 190 -25t136 -75
q66 51 141.5 75.5t167.5 24.5q203 0 328 -121.5t125 -318.5q0 -18 -0.5 -26.5t-2.5 -16.5h-655v-72q0 -163 56 -240t174 -77q93 0 165.5 48.5t127.5 147.5l161 -79q-78 -157 -199 -232.5t-294 -75.5q-124 0 -225 37t-172 109zM979 711h287q0 69 -36.5 105t-107.5 36
q-69 0 -106 -36.5t-37 -104.5zM635 465q-132 -23 -191 -62t-59 -102q0 -48 30 -76t81 -28q70 0 104.5 42.5t34.5 129.5v96z" />
    <glyph glyph-name="oslash" unicode="&#xf8;" horiz-adv-x="1214" 
d="M262 -225h-149l166 288q-110 78 -164 187t-54 254q0 239 150 385.5t397 146.5q49 0 100 -8.5t107 -26.5l123 216h152l-152 -275q108 -76 160.5 -179t52.5 -241q0 -260 -149 -405.5t-414 -145.5q-51 0 -99 9t-94 26zM436 312l287 495q-28 32 -57.5 47.5t-63.5 15.5
q-91 0 -137.5 -97t-46.5 -288q0 -55 4.5 -97t13.5 -76zM774 702l-289 -505q24 -30 53 -44t68 -14q93 0 142 89.5t49 260.5q0 44 -6 97.5t-17 115.5z" />
    <glyph glyph-name="questiondown" unicode="&#xbf;" horiz-adv-x="1251" 
d="M758 952v-100q0 -67 -22 -117.5t-70 -97.5q-16 -15 -59.5 -52.5t-67.5 -62.5q-30 -30 -46 -72.5t-16 -93.5q0 -104 59.5 -162.5t165.5 -58.5q83 0 140 36t57 85q0 7 -14.5 47.5t-14.5 73.5q0 64 44.5 106.5t109.5 42.5q80 0 126 -49t46 -135q0 -161 -151.5 -267
t-387.5 -106q-258 0 -400 104t-142 292q0 68 20 128.5t60 108.5q63 80 219 152l55 26q46 23 67 59t21 95v18h201zM834 1223q0 -77 -52 -129t-129 -52q-76 0 -129 52.5t-53 128.5t53 129t129 53q77 0 129 -52.5t52 -129.5z" />
    <glyph glyph-name="exclamdown" unicode="&#xa1;" horiz-adv-x="782" 
d="M573 1223q0 -77 -52.5 -129t-129.5 -52q-76 0 -129 52.5t-53 128.5t52.5 129t129.5 53t129.5 -53t52.5 -129zM473 952q19 -224 68 -478t49 -292q0 -99 -53 -156t-146 -57q-92 0 -145 57t-53 156q0 38 48.5 292t67.5 478h164z" />
    <glyph glyph-name="logicalnot" unicode="&#xac;" horiz-adv-x="1706" 
d="M254 866h1198v-501h-229v274h-969v227z" />
    <glyph glyph-name="radical" unicode="&#x221a;" horiz-adv-x="1366" 
d="M1155 1714h215v-149h-96l-590 -1606h-119l-307 846l-145 -55l-37 129l360 127l223 -635z" />
    <glyph glyph-name="florin" unicode="&#x192;" horiz-adv-x="1337" 
d="M457 608h-217l30 180h199q31 327 156 482t356 155q115 0 181.5 -46t66.5 -126q0 -64 -33 -97.5t-96 -33.5q-62 0 -110 59q-6 7 -9 11q-1 1 -5 6q-26 33 -56 33q-82 0 -102 -330q-4 -72 -7 -112l246 -1l-33 -180h-223q-31 -340 -62.5 -538t-72.5 -324
q-50 -151 -159.5 -242.5t-240.5 -91.5q-119 0 -191.5 50.5t-72.5 131.5q0 53 38 90t91 37q31 0 55 -13.5t47 -45.5q26 -34 43.5 -43.5t42.5 -9.5q45 0 65 42t28 194q3 59 18 326t27 437z" />
    <glyph glyph-name="approxequal" unicode="&#x2248;" horiz-adv-x="1706" 
d="M1530 602v-254q-105 -71 -196 -104t-181 -33t-283 65.5t-309 65.5q-82 0 -172.5 -37t-210.5 -121v254q111 74 209 109t195 35q115 0 304.5 -65.5t272.5 -65.5t170 35t201 116zM1530 1036v-254q-107 -70 -197 -102.5t-178 -32.5q-91 0 -284 64.5t-310 64.5q-84 0 -172 -36
t-211 -122v256q112 74 209 108t195 34q115 0 304.5 -65.5t272.5 -65.5t170.5 35.5t200.5 115.5z" />
    <glyph glyph-name="Delta" unicode="&#x2206;" horiz-adv-x="1346" 
d="M528 1085l-356 -751h713zM639 1497h76l712 -1497h-1509z" />
    <glyph glyph-name="guillemotleft" unicode="&#xab;" horiz-adv-x="1042" 
d="M729 498q125 -154 183.5 -241t58.5 -120q0 -12 -9 -21.5t-20 -9.5q-24 0 -181.5 137t-307.5 244v21q149 106 307 242.5t182 136.5q11 0 20 -8.5t9 -20.5q0 -32 -58.5 -119.5t-183.5 -240.5zM350 498q125 -154 183.5 -241t58.5 -120q0 -12 -9 -21.5t-20 -9.5
q-24 0 -183 137.5t-308 243.5v21q148 106 307.5 242.5t183.5 136.5q12 0 20.5 -8.5t8.5 -20.5q0 -32 -58.5 -119.5t-183.5 -240.5z" />
    <glyph glyph-name="guillemotright" unicode="&#xbb;" horiz-adv-x="1042" 
d="M313 498q-125 153 -183 240.5t-58 119.5q0 12 8.5 20.5t19.5 8.5q24 0 182 -136.5t308 -242.5v-21q-150 -107 -308 -244t-182 -137q-11 0 -19.5 9.5t-8.5 21.5q0 33 58 120t183 241zM692 498q-125 153 -183 240.5t-58 119.5q0 12 8.5 20.5t19.5 8.5q25 0 184 -136.5
t308 -242.5v-21q-150 -106 -309 -243.5t-183 -137.5q-11 0 -19.5 9.5t-8.5 21.5q0 33 58 120t183 241z" />
    <glyph glyph-name="ellipsis" unicode="&#x2026;" horiz-adv-x="2048" 
d="M155 166q0 79 54 132.5t133 53.5q80 0 133 -53t53 -133t-53 -133t-133 -53q-79 0 -133 53.5t-54 132.5zM837 166q0 79 54 132.5t133 53.5q80 0 133 -53t53 -133t-53 -133t-133 -53q-79 0 -133 53.5t-54 132.5zM1521 166q0 79 54 132.5t133 53.5q80 0 133 -53t53 -133
t-53 -133t-133 -53q-79 0 -133 53.5t-54 132.5z" />
    <glyph glyph-name="nonbreakingspace" unicode="&#xa0;" horiz-adv-x="1337" 
 />
    <glyph glyph-name="Agrave" unicode="&#xc0;" horiz-adv-x="1501" 
d="M563 0h-581v170q146 18 233 228l4 10l406 976h313l397 -1026q45 -115 83.5 -147.5t111.5 -41.5v-169h-684v166h14q75 0 107 18.5t32 61.5q0 15 -3 30.5t-9 30.5l-72 191h-442l-59 -190q-5 -17 -6.5 -27t-1.5 -19q0 -48 37.5 -71t119.5 -25v-166zM547 668h297l-137 409z
M965 1526h-91l-313 164q-56 30 -75 53t-19 55q0 40 25 65t65 25q31 0 63 -18.5t72 -61.5z" />
    <glyph glyph-name="Atilde" unicode="&#xc3;" horiz-adv-x="1501" 
d="M563 0h-581v170q146 18 233 228l4 10l406 976h313l397 -1026q45 -115 83.5 -147.5t111.5 -41.5v-169h-684v166h14q75 0 107 18.5t32 61.5q0 15 -3 30.5t-9 30.5l-72 191h-442l-59 -190q-5 -17 -6.5 -27t-1.5 -19q0 -48 37.5 -71t119.5 -25v-166zM547 668h297l-137 409z
M1059 1849q-14 -117 -68 -182t-137 -65q-16 0 -29.5 2t-27.5 6l-105 26q-14 4 -29 6.5t-28 2.5q-31 0 -52.5 -21t-37.5 -67h-66q17 124 69.5 185.5t141.5 61.5q17 0 32.5 -2t31.5 -6l109 -29q11 -3 20.5 -4.5t17.5 -1.5q32 0 54 21t38 67h66z" />
    <glyph glyph-name="Otilde" unicode="&#xd5;" horiz-adv-x="1636" 
d="M457 692q0 -263 94 -406t266 -143q173 0 268 143.5t95 405.5t-95 405.5t-268 143.5q-172 0 -266 -143t-94 -406zM70 692q0 325 206 524t541 199t542.5 -199.5t207.5 -523.5t-207.5 -523.5t-542.5 -199.5t-541 199.5t-206 523.5zM1108 1849q-14 -117 -68 -182t-137 -65
q-16 0 -29.5 2t-27.5 6l-105 26q-14 4 -29 6.5t-28 2.5q-31 0 -52.5 -21t-37.5 -67h-66q17 124 69.5 185.5t141.5 61.5q17 0 32.5 -2t31.5 -6l109 -29q11 -3 20.5 -4.5t17.5 -1.5q32 0 54 21t38 67h66z" />
    <glyph glyph-name="OE" unicode="&#x152;" horiz-adv-x="2402" 
d="M1196 0v86q-89 -60 -188.5 -89.5t-216.5 -29.5q-151 0 -276 47t-224 140q-113 106 -167 238t-54 300q0 169 54.5 301.5t166.5 235.5q97 90 233 138t293 48q109 0 204 -30t175 -91v88h930l186 -415l-127 -68q-108 159 -240.5 238.5t-289.5 79.5q-93 0 -124.5 -32
t-31.5 -145v-198h66q107 0 145.5 42.5t44.5 172.5h146v-625h-146q-14 122 -59.5 178t-130.5 56h-66v-324q0 -112 31.5 -143t126.5 -31q160 0 313 100t262 279l131 -72l-209 -475h-958zM449 692q0 -263 96 -406t272 -143q177 0 274 143.5t97 405.5q0 263 -97 406t-274 143
q-176 0 -272 -143t-96 -406z" />
    <glyph glyph-name="oe" unicode="&#x153;" horiz-adv-x="1849" 
d="M1825 279q-78 -157 -199.5 -232.5t-294.5 -75.5q-117 0 -203.5 32t-160.5 101q-73 -66 -167.5 -99.5t-209.5 -33.5q-235 0 -382 147t-147 384q0 238 148.5 385t386.5 147q115 0 207 -28t170 -86q71 58 160.5 86t201.5 28q213 0 338 -119.5t125 -322.5q0 -8 -1 -21t-1 -20
h-655v-72q0 -163 55.5 -240t173.5 -77q94 0 166 48t127 148zM1165 711h287q0 69 -36.5 105t-106.5 36q-71 0 -107.5 -36t-36.5 -105zM418 502q0 -181 47 -272t141 -91q95 0 143 91.5t48 271.5t-48.5 272t-142.5 92q-93 0 -140.5 -91.5t-47.5 -272.5z" />
    <glyph glyph-name="endash" unicode="&#x2013;" 
d="M0 410v194h1024v-194h-1024z" />
    <glyph glyph-name="emdash" unicode="&#x2014;" horiz-adv-x="2048" 
d="M0 410v194h2048v-194h-2048z" />
    <glyph glyph-name="quotedblleft" unicode="&#x201c;" horiz-adv-x="1055" 
d="M401 1313q-36 -35 -62.5 -75t-43.5 -85q4 0 11 1t11 1q70 0 114 -48.5t44 -125.5q0 -82 -52.5 -133t-137.5 -51q-89 0 -144 66.5t-55 174.5q0 99 53 196t154 181zM895 1313q-36 -35 -62.5 -75t-44.5 -85q5 0 12 1t11 1q69 0 113.5 -48.5t44.5 -125.5q0 -82 -53 -133
t-138 -51q-88 0 -143 66.5t-55 174.5q0 99 53 196t153 181z" />
    <glyph glyph-name="quotedblright" unicode="&#x201d;" horiz-adv-x="1055" 
d="M162 903q37 36 63.5 75t42.5 83q-4 0 -11 -1t-11 -1q-69 0 -113.5 49.5t-44.5 126.5q0 82 51.5 132t136.5 50q89 0 144 -66t55 -173q0 -100 -53 -196.5t-154 -180.5zM653 903q37 36 63.5 75t43.5 83q-4 0 -11.5 -1t-11.5 -1q-69 0 -113 49.5t-44 126.5q0 82 51.5 132
t136.5 50q89 0 144 -66t55 -173q0 -100 -53.5 -196.5t-153.5 -180.5z" />
    <glyph glyph-name="quoteleft" unicode="&#x2018;" horiz-adv-x="561" 
d="M401 1313q-36 -35 -62.5 -75t-43.5 -85q4 0 11 1t11 1q70 0 114 -48.5t44 -125.5q0 -82 -52.5 -133t-137.5 -51q-89 0 -144 66.5t-55 174.5q0 99 53 196t154 181z" />
    <glyph glyph-name="quoteright" unicode="&#x2019;" horiz-adv-x="561" 
d="M160 903q37 36 63 75t43 83q-4 0 -11 -1t-11 -1q-69 0 -113.5 49.5t-44.5 126.5q0 82 51.5 132t136.5 50q89 0 144 -66t55 -173q0 -100 -52.5 -197t-152.5 -180z" />
    <glyph glyph-name="divide" unicode="&#xf7;" horiz-adv-x="1706" 
d="M854 371q68 0 116 -48.5t48 -117.5q0 -68 -47.5 -116t-116.5 -48t-117.5 48t-48.5 116t49 117t117 49zM254 727h1198v-231h-1198v231zM854 1182q67 0 115.5 -49t48.5 -117t-48.5 -116t-117.5 -48t-116.5 48t-47.5 116t49 117t117 49z" />
    <glyph glyph-name="lozenge" unicode="&#x25ca;" horiz-adv-x="1012" 
d="M506 1409l-385 -817l385 -825l385 825zM506 1653l500 -1061l-500 -1069l-500 1069z" />
    <glyph glyph-name="ydieresis" unicode="&#xff;" horiz-adv-x="1130" 
d="M580 -152q-77 -172 -155.5 -237.5t-197.5 -65.5q-105 0 -164 48.5t-59 134.5q0 69 42 112t110 43q49 0 101.5 -36.5t59.5 -36.5q14 0 29 16t31 49l74 152l-267 626l-6 15q-74 176 -184 176h-6v170h592v-159q-80 -9 -99.5 -21.5t-19.5 -42.5q0 -15 14 -50l2 -6l135 -344
l129 320q11 26 17 49t6 37q0 28 -26 42.5t-74 14.5h-17v160h506v-170q-69 -2 -116.5 -41t-88.5 -127zM626 1309q0 48 36 83t85 35t84 -34.5t35 -83.5q0 -54 -33 -87.5t-86 -33.5q-51 0 -86 34.5t-35 86.5zM262 1309q0 48 36 83t85 35t84 -34.5t35 -83.5q0 -54 -33.5 -87.5
t-85.5 -33.5t-86.5 34.5t-34.5 86.5z" />
    <glyph glyph-name="Ydieresis" unicode="&#x178;" horiz-adv-x="1372" 
d="M317 0v170h9q102 0 137 44.5t35 211.5v143l-312 502q-33 55 -85 92.5t-124 59.5v161h721v-155q-73 0 -110 -14.5t-37 -43.5q0 -18 6.5 -38t24.5 -52l163 -284l193 309q18 29 23.5 43.5t5.5 28.5q0 26 -26 38.5t-85 12.5h-29v155h568v-161q-92 -26 -162.5 -84.5
t-145.5 -175.5l-235 -371l-6 -166v-45q0 -123 36 -167t130 -44h14v-170h-709zM747 1690q0 48 36 83t85 35t84 -34.5t35 -83.5q0 -54 -33 -87.5t-86 -33.5q-51 0 -86 34.5t-35 86.5zM383 1690q0 48 36 83t85 35t84 -34.5t35 -83.5q0 -54 -33.5 -87.5t-85.5 -33.5t-86.5 34.5
t-34.5 86.5z" />
    <glyph glyph-name="fraction" unicode="&#x2215;" horiz-adv-x="342" 
d="M-164 -25h-178l848 1446h176z" />
    <glyph glyph-name="currency" unicode="&#xa4;" horiz-adv-x="1337" 
d="M918 492h-390q16 -160 85.5 -244t185.5 -84q112 0 202 73.5t162 221.5l166 -84q-98 -206 -230 -303t-323 -97q-224 0 -381 139.5t-205 374.5h-172l19 113l137 1q-2 37 -3 59.5t-1 42.5q0 18 1 39l3 60l-156 1l19 110h153q48 223 200 364.5t353 141.5q57 0 129.5 -27
t120.5 -63l21 84h114l162 -489l-149 -52q-70 182 -167 279.5t-206 97.5q-101 0 -162 -83.5t-82 -252.5h457l-18 -110l-449 -1l-3 -60t-1 -39q0 -20 1 -42.5t4 -60.5h421z" />
    <glyph glyph-name="guilsinglleft" unicode="&#x2039;" horiz-adv-x="664" 
d="M350 498q125 -154 183.5 -241t58.5 -120q0 -12 -9 -21.5t-20 -9.5q-24 0 -181.5 137t-307.5 244v21q149 106 307 242.5t182 136.5q12 0 20.5 -8.5t8.5 -20.5q0 -32 -58.5 -119.5t-183.5 -240.5z" />
    <glyph glyph-name="guilsinglright" unicode="&#x203a;" horiz-adv-x="664" 
d="M313 498q-125 153 -183 240.5t-58 119.5q0 12 8.5 20.5t19.5 8.5q24 0 182 -136.5t308 -242.5v-21q-150 -107 -308 -244t-182 -137q-11 0 -19.5 9.5t-8.5 21.5q0 33 58 120t183 241z" />
    <glyph glyph-name="fi" unicode="&#xf001;" horiz-adv-x="1366" 
d="M180 840h-139v174h139q2 212 149.5 323t428.5 111q194 0 314 -64.5t120 -164.5q0 -58 -40.5 -95t-104.5 -37q-57 0 -98 22t-80 72l-13 18q-55 79 -149 79q-99 0 -147 -48t-48 -147v-69h692v-674q0 -114 28.5 -146t108.5 -32v-162h-606v162q81 0 109 33t28 145v322
q0 112 -28 145t-109 33h-223v-500q0 -107 29.5 -142.5t111.5 -35.5h9v-162h-621v162q82 0 110.5 26.5t28.5 151.5v500z" />
    <glyph glyph-name="fl" unicode="&#xf002;" horiz-adv-x="1366" 
d="M735 0v162q81 0 109 33t28 145v747q-34 8 -51 26.5t-28 62.5q-16 58 -45 81t-84 23q-78 0 -115 -44t-37 -136v-86h178v-174h-178v-500q0 -107 29.5 -142.5t111.5 -35.5h9v-162h-621v162q82 0 110.5 26.5t28.5 151.5v500h-139v174h139v8q0 200 129.5 313t358.5 113
q83 0 162.5 -17.5t160.5 -54.5l105 51h108v-1093q0 -110 25.5 -142.5t99.5 -36.5v-155h-594z" />
    <glyph glyph-name="daggerdbl" unicode="&#x2021;" 
d="M453 -18q-5 114 -26 213t-58 182q29 29 48 58.5t29 60.5q-85 -28 -128 -39t-66 -11q-62 0 -94.5 32t-32.5 91q0 61 33 93t94 32q23 0 66 -10.5t128 -37.5q-5 22 -18.5 51t-34.5 65q22 30 35 54.5t18 45.5q-85 -28 -128 -38.5t-66 -10.5q-61 0 -94 32.5t-33 92.5
t32.5 91.5t94.5 31.5q23 0 66 -10.5t128 -38.5q-16 46 -45 120q-43 107 -43 140q0 63 43 103t111 40t111 -40t43 -103q0 -33 -43 -140q-29 -74 -45 -120q85 28 128 38.5t66 10.5q62 0 94.5 -31.5t32.5 -91.5t-33 -92.5t-94 -32.5q-23 0 -66 10.5t-128 38.5q5 -21 18 -45.5
t35 -54.5q-21 -36 -34.5 -65t-18.5 -51q85 27 128 37.5t66 10.5q61 0 94 -32t33 -93q0 -59 -32.5 -91t-94.5 -32q-23 0 -66 11t-128 39q10 -31 29 -60.5t48 -58.5q-37 -85 -58 -183t-26 -212h-118z" />
    <glyph glyph-name="periodcentered" unicode="&#xb7;" horiz-adv-x="668" 
d="M141 698q0 80 56.5 136.5t136.5 56.5q81 0 136.5 -56t55.5 -137t-55.5 -136.5t-136.5 -55.5q-82 0 -137.5 55.5t-55.5 136.5z" />
    <glyph glyph-name="quotesinglbase" unicode="&#x201a;" horiz-adv-x="561" 
d="M160 -160q36 35 62.5 75t43.5 85q-4 0 -11 -1t-11 -1q-70 0 -114 48.5t-44 125.5q0 82 51.5 132t136.5 50q89 0 144 -66t55 -173q0 -100 -52.5 -197t-152.5 -180z" />
    <glyph glyph-name="quotedblbase" unicode="&#x201e;" horiz-adv-x="1055" 
d="M653 -160q36 35 63 75t44 85q-4 0 -11.5 -1t-11.5 -1q-69 0 -113 48.5t-44 125.5q0 82 51.5 132t136.5 50q89 0 144 -66t55 -173q0 -99 -53.5 -196t-153.5 -181zM160 -160q36 35 62.5 75t43.5 85q-4 0 -11 -1t-11 -1q-70 0 -114 48.5t-44 125.5q0 82 51.5 132t136.5 50
q89 0 144 -66t55 -173q0 -100 -52.5 -197t-152.5 -180z" />
    <glyph glyph-name="perthousand" unicode="&#x2030;" horiz-adv-x="2761" 
d="M2165 356q0 -118 32.5 -174.5t100.5 -56.5t101.5 57.5t33.5 173.5q0 118 -33.5 175t-101.5 57t-100.5 -56.5t-32.5 -175.5zM1901 356q0 170 110.5 275.5t288.5 105.5q177 0 287 -105.5t110 -275.5q0 -169 -110.5 -275t-288.5 -106q-177 0 -287 106t-110 275zM1264 356
q0 -117 33 -174t102 -57q67 0 100 57t33 174q0 119 -32.5 175.5t-100.5 56.5q-69 0 -102 -57t-33 -175zM999 356q0 170 111 275.5t289 105.5q177 0 287 -105.5t110 -275.5q0 -169 -110.5 -275t-288.5 -106q-177 0 -287.5 106t-110.5 275zM330 1040q0 -118 32.5 -174.5
t100.5 -56.5t101.5 57.5t33.5 173.5q0 118 -33.5 175t-101.5 57t-100.5 -56.5t-32.5 -175.5zM383 -25l917 1446h179l-918 -1446h-178zM66 1042q0 169 110.5 274t288.5 105t287.5 -104.5t109.5 -274.5q0 -169 -111 -276t-288 -107q-176 0 -286.5 107t-110.5 276z" />
    <glyph glyph-name="Acircumflex" unicode="&#xc2;" horiz-adv-x="1501" 
d="M563 0h-581v170q146 18 233 228l4 10l406 976h313l397 -1026q45 -115 83.5 -147.5t111.5 -41.5v-169h-684v166h14q75 0 107 18.5t32 61.5q0 15 -3 30.5t-9 30.5l-72 191h-442l-59 -190q-5 -17 -6.5 -27t-1.5 -19q0 -48 37.5 -71t119.5 -25v-166zM547 668h297l-137 409z
M471 1526l225 348h148l225 -348h-84l-215 178l-215 -178h-84z" />
    <glyph glyph-name="Ecircumflex" unicode="&#xca;" horiz-adv-x="1477" 
d="M51 0v169q96 4 129 48.5t33 208.5v532q0 165 -33 209t-129 48v169h1149l189 -417l-129 -68q-108 159 -240.5 238.5t-290.5 79.5q-93 0 -124.5 -32t-31.5 -145v-198h66q107 0 145.5 42.5t44.5 172.5h146v-625h-146q-14 122 -59.5 178t-130.5 56h-66v-324q0 -112 31.5 -143
t126.5 -31q161 0 314 100t262 279l131 -72l-209 -475h-1178zM373 1526l225 348h148l225 -348h-84l-215 178l-215 -178h-84z" />
    <glyph glyph-name="Aacute" unicode="&#xc1;" horiz-adv-x="1501" 
d="M563 0h-581v170q146 18 233 228l4 10l406 976h313l397 -1026q45 -115 83.5 -147.5t111.5 -41.5v-169h-684v166h14q75 0 107 18.5t32 61.5q0 15 -3 30.5t-9 30.5l-72 191h-442l-59 -190q-5 -17 -6.5 -27t-1.5 -19q0 -48 37.5 -71t119.5 -25v-166zM547 668h297l-137 409z
M575 1526l273 282q40 43 72 61.5t63 18.5q40 0 65 -25t25 -65q0 -32 -19 -55t-75 -53l-313 -164h-91z" />
    <glyph glyph-name="Edieresis" unicode="&#xcb;" horiz-adv-x="1477" 
d="M51 0v169q96 4 129 48.5t33 208.5v532q0 165 -33 209t-129 48v169h1149l189 -417l-129 -68q-108 159 -240.5 238.5t-290.5 79.5q-93 0 -124.5 -32t-31.5 -145v-198h66q107 0 145.5 42.5t44.5 172.5h146v-625h-146q-14 122 -59.5 178t-130.5 56h-66v-324q0 -112 31.5 -143
t126.5 -31q161 0 314 100t262 279l131 -72l-209 -475h-1178zM733 1690q0 48 36 83t85 35t84 -34.5t35 -83.5q0 -54 -33 -87.5t-86 -33.5q-51 0 -86 34.5t-35 86.5zM369 1690q0 48 36 83t85 35t84 -34.5t35 -83.5q0 -54 -33.5 -87.5t-85.5 -33.5t-86.5 34.5t-34.5 86.5z" />
    <glyph glyph-name="Egrave" unicode="&#xc8;" horiz-adv-x="1477" 
d="M51 0v169q96 4 129 48.5t33 208.5v532q0 165 -33 209t-129 48v169h1149l189 -417l-129 -68q-108 159 -240.5 238.5t-290.5 79.5q-93 0 -124.5 -32t-31.5 -145v-198h66q107 0 145.5 42.5t44.5 172.5h146v-625h-146q-14 122 -59.5 178t-130.5 56h-66v-324q0 -112 31.5 -143
t126.5 -31q161 0 314 100t262 279l131 -72l-209 -475h-1178zM867 1526h-91l-313 164q-56 30 -75 53t-19 55q0 40 25 65t65 25q31 0 63 -18.5t72 -61.5z" />
    <glyph glyph-name="Iacute" unicode="&#xcd;" horiz-adv-x="797" 
d="M739 1384v-169q-94 -3 -127.5 -47.5t-33.5 -209.5v-532q0 -164 33 -208.5t128 -47.5v-170h-682l1 170q94 3 126.5 46.5t32.5 209.5v532q0 167 -33 210.5t-127 46.5v169h682zM204 1526l273 282q40 43 72 61.5t63 18.5q40 0 65 -25t25 -65q0 -32 -19 -55t-75 -53l-313 -164
h-91z" />
    <glyph glyph-name="Icircumflex" unicode="&#xce;" horiz-adv-x="797" 
d="M739 1384v-169q-94 -3 -127.5 -47.5t-33.5 -209.5v-532q0 -164 33 -208.5t128 -47.5v-170h-682l1 170q94 3 126.5 46.5t32.5 209.5v532q0 167 -33 210.5t-127 46.5v169h682zM100 1526l225 348h148l225 -348h-84l-215 178l-215 -178h-84z" />
    <glyph glyph-name="Idieresis" unicode="&#xcf;" horiz-adv-x="797" 
d="M739 1384v-169q-94 -3 -127.5 -47.5t-33.5 -209.5v-532q0 -164 33 -208.5t128 -47.5v-170h-682l1 170q94 3 126.5 46.5t32.5 209.5v532q0 167 -33 210.5t-127 46.5v169h682zM460 1690q0 48 36 83t85 35t84 -34.5t35 -83.5q0 -54 -33 -87.5t-86 -33.5q-51 0 -86 34.5
t-35 86.5zM96 1690q0 48 36 83t85 35t84 -34.5t35 -83.5q0 -54 -33.5 -87.5t-85.5 -33.5t-86.5 34.5t-34.5 86.5z" />
    <glyph glyph-name="Igrave" unicode="&#xcc;" horiz-adv-x="797" 
d="M739 1384v-169q-94 -3 -127.5 -47.5t-33.5 -209.5v-532q0 -164 33 -208.5t128 -47.5v-170h-682l1 170q94 3 126.5 46.5t32.5 209.5v532q0 167 -33 210.5t-127 46.5v169h682zM594 1526h-91l-313 164q-56 30 -75 53t-19 55q0 40 25 65t65 25q31 0 63 -18.5t72 -61.5z" />
    <glyph glyph-name="Oacute" unicode="&#xd3;" horiz-adv-x="1636" 
d="M457 692q0 -263 94 -406t266 -143q173 0 268 143.5t95 405.5t-95 405.5t-268 143.5q-172 0 -266 -143t-94 -406zM70 692q0 325 206 524t541 199t542.5 -199.5t207.5 -523.5t-207.5 -523.5t-542.5 -199.5t-541 199.5t-206 523.5zM624 1526l273 282q40 43 72 61.5t63 18.5
q40 0 65 -25t25 -65q0 -32 -19 -55t-75 -53l-313 -164h-91z" />
    <glyph glyph-name="Ocircumflex" unicode="&#xd4;" horiz-adv-x="1636" 
d="M457 692q0 -263 94 -406t266 -143q173 0 268 143.5t95 405.5t-95 405.5t-268 143.5q-172 0 -266 -143t-94 -406zM70 692q0 325 206 524t541 199t542.5 -199.5t207.5 -523.5t-207.5 -523.5t-542.5 -199.5t-541 199.5t-206 523.5zM520 1526l225 348h148l225 -348h-84
l-215 178l-215 -178h-84z" />
    <glyph glyph-name="apple" unicode="&#xf000;" horiz-adv-x="1618" 
d="M836 1216q-1 6 -1.5 14t-0.5 23q0 124 95 229.5t236 131.5q1 -10 1.5 -23t0.5 -39q0 -131 -103.5 -234.5t-203.5 -103.5h-8q-3 0 -7.5 1t-8.5 1zM1505 403q-114 -247 -205 -342.5t-204 -95.5q-50 0 -131.5 33t-122.5 33q-45 0 -131 -33t-127 -33q-64 0 -128.5 44
t-129.5 132q-102 140 -157.5 295.5t-55.5 300.5q0 219 125 356.5t323 137.5q68 0 155 -34t124 -34q34 0 121.5 34t152.5 34q111 0 199 -39.5t160 -122.5q-102 -65 -151.5 -145.5t-49.5 -182.5q0 -113 60 -200t173 -138z" />
    <glyph glyph-name="Ograve" unicode="&#xd2;" horiz-adv-x="1636" 
d="M457 692q0 -263 94 -406t266 -143q173 0 268 143.5t95 405.5t-95 405.5t-268 143.5q-172 0 -266 -143t-94 -406zM70 692q0 325 206 524t541 199t542.5 -199.5t207.5 -523.5t-207.5 -523.5t-542.5 -199.5t-541 199.5t-206 523.5zM1014 1526h-91l-313 164q-56 30 -75 53
t-19 55q0 40 25 65t65 25q31 0 63 -18.5t72 -61.5z" />
    <glyph glyph-name="Uacute" unicode="&#xda;" horiz-adv-x="1528" 
d="M209 958q0 166 -33.5 210t-128.5 47v169h676v-165q-94 -2 -128 -48.5t-34 -207.5v-512q0 -136 66 -205.5t194 -69.5q152 0 230.5 81.5t78.5 238.5v467q0 164 -33.5 208.5t-127.5 47.5v165h512v-169q-95 -3 -128.5 -48t-33.5 -204v-431q0 -169 -27.5 -261.5t-91.5 -157.5
q-70 -72 -177 -108t-249 -36q-284 0 -424.5 118.5t-140.5 356.5v514zM606 1526l273 282q40 43 72 61.5t63 18.5q40 0 65 -25t25 -65q0 -32 -19 -55t-75 -53l-313 -164h-91z" />
    <glyph glyph-name="Ucircumflex" unicode="&#xdb;" horiz-adv-x="1528" 
d="M209 958q0 166 -33.5 210t-128.5 47v169h676v-165q-94 -2 -128 -48.5t-34 -207.5v-512q0 -136 66 -205.5t194 -69.5q152 0 230.5 81.5t78.5 238.5v467q0 164 -33.5 208.5t-127.5 47.5v165h512v-169q-95 -3 -128.5 -48t-33.5 -204v-431q0 -169 -27.5 -261.5t-91.5 -157.5
q-70 -72 -177 -108t-249 -36q-284 0 -424.5 118.5t-140.5 356.5v514zM502 1526l225 348h148l225 -348h-84l-215 178l-215 -178h-84z" />
    <glyph glyph-name="Ugrave" unicode="&#xd9;" horiz-adv-x="1528" 
d="M209 958q0 166 -33.5 210t-128.5 47v169h676v-165q-94 -2 -128 -48.5t-34 -207.5v-512q0 -136 66 -205.5t194 -69.5q152 0 230.5 81.5t78.5 238.5v467q0 164 -33.5 208.5t-127.5 47.5v165h512v-169q-95 -3 -128.5 -48t-33.5 -204v-431q0 -169 -27.5 -261.5t-91.5 -157.5
q-70 -72 -177 -108t-249 -36q-284 0 -424.5 118.5t-140.5 356.5v514zM996 1526h-91l-313 164q-56 30 -75 53t-19 55q0 40 25 65t65 25q31 0 63 -18.5t72 -61.5z" />
    <glyph glyph-name="dotlessi" unicode="&#x131;" horiz-adv-x="705" 
d="M532 1014v-674q0 -112 28.5 -145t109.5 -33v-162h-607v162q82 0 110 33t28 145v281q0 112 -28 145t-110 33v162q130 0 210.5 12.5t132.5 40.5h126z" />
    <glyph glyph-name="circumflex" unicode="&#x2c6;" 
d="M213 1145l225 348h148l225 -348h-84l-215 178l-215 -178h-84z" />
    <glyph glyph-name="tilde" unicode="&#x2dc;" 
d="M801 1468q-14 -117 -68 -182t-137 -65q-16 0 -29.5 2t-27.5 6l-105 26q-14 4 -29 6.5t-28 2.5q-31 0 -52.5 -21t-37.5 -67h-66q17 124 69.5 185.5t141.5 61.5q17 0 32.5 -2t31.5 -6l109 -29q11 -3 20.5 -4.5t17.5 -1.5q32 0 54 21t38 67h66z" />
    <glyph glyph-name="macron" unicode="&#xaf;" 
d="M236 1235v147h552v-147h-552z" />
    <glyph glyph-name="breve" unicode="&#x2d8;" 
d="M203 1462h76q17 -65 71.5 -94t161.5 -29q108 0 162.5 29.5t68.5 93.5h76q-20 -140 -98.5 -213t-208.5 -73t-209 73t-100 213z" />
    <glyph glyph-name="dotaccent" unicode="&#x2d9;" 
d="M381 1309q0 52 39.5 91.5t91.5 39.5q55 0 93 -38.5t38 -92.5q0 -57 -37 -94t-94 -37q-54 0 -92.5 38t-38.5 93z" />
    <glyph glyph-name="ring" unicode="&#x2da;" 
d="M377 1378q0 -57 39 -96t96 -39t96 39t39 96t-39.5 96t-95.5 39q-57 0 -96 -39t-39 -96zM260 1378q0 106 73 179t179 73t179 -73t73 -179t-73 -179t-179 -73t-179 73t-73 179z" />
    <glyph glyph-name="cedilla" unicode="&#xb8;" 
d="M211 -377l41 90q72 -39 130 -56t118 -17q40 0 64 22t24 59q0 43 -25.5 64.5t-75.5 21.5q-14 0 -29.5 -1.5t-31.5 -3.5v198h70v-115q16 3 32.5 4.5t32.5 1.5q86 0 136.5 -45.5t50.5 -124.5q0 -85 -60 -131.5t-170 -46.5q-57 0 -130 19t-177 61z" />
    <glyph glyph-name="hungarumlaut" unicode="&#x2dd;" 
d="M565 1145l197 281l2 2q58 81 102 81q33 0 56.5 -23t23.5 -56q0 -25 -16.5 -50.5t-48.5 -50.5l-242 -184h-74zM313 1145l144 270q31 57 52.5 75.5t49.5 18.5q33 0 55.5 -21.5t22.5 -53.5q0 -25 -12.5 -48.5t-38.5 -48.5l-199 -192h-74z" />
    <glyph glyph-name="ogonek" unicode="&#x2db;" 
d="M678 29q-91 -73 -132.5 -136.5t-41.5 -128.5q0 -53 24.5 -82.5t67.5 -29.5q35 0 63.5 17.5t53.5 54.5l32 -19q-41 -84 -100 -124t-139 -40q-65 0 -107.5 43t-42.5 109q0 84 67 167t202 169h53z" />
    <glyph glyph-name="caron" unicode="&#x2c7;" 
d="M213 1493h84l215 -178l215 178h84l-225 -348h-148z" />
    <glyph glyph-name="Lslash" unicode="&#x141;" horiz-adv-x="1407" 
d="M1194 0h-1122v170q95 3 128 47.5t33 208.5v125l-233 -141v165l233 142v241q0 165 -33.5 209.5t-127.5 47.5v169h684v-169q-95 -3 -128.5 -47.5t-33.5 -209.5v-100l317 193v-166l-317 -193v-327q0 -112 32 -144.5t130 -32.5q144 0 276 95.5t230 271.5l135 -72z" />
    <glyph glyph-name="lslash" unicode="&#x142;" horiz-adv-x="717" 
d="M51 0v162q82 0 110.5 33.5t28.5 144.5v256l-190 -117v174l190 119v279q0 111 -28.5 144.5t-110.5 33.5v162q126 0 209 13t135 42h127v-545l195 121v-174l-195 -121v-393q0 -110 25.5 -142.5t99.5 -36.5v-155h-596z" />
    <glyph glyph-name="Scaron" unicode="&#x160;" horiz-adv-x="1374" 
d="M229 -18l-168 516l156 53q97 -184 236 -284.5t297 -100.5q105 0 176 53t71 131q0 107 -297 179q-46 12 -71 18q-167 42 -250.5 69.5t-116.5 51.5q-76 53 -117 132t-41 175q0 186 147.5 313t364.5 127q86 0 168 -24.5t158 -73.5l31 74h125l121 -412l-140 -51
q-79 139 -195 216t-247 77q-97 0 -157 -40t-60 -102q0 -106 329 -181q71 -16 112 -26q256 -62 350 -153t94 -262q0 -212 -165 -352t-415 -140q-77 0 -159.5 25t-190.5 82l-25 -90h-121zM389 1874h84l215 -178l215 178h84l-225 -348h-148z" />
    <glyph glyph-name="scaron" unicode="&#x161;" horiz-adv-x="1018" 
d="M121 -8l-66 336l148 45q57 -102 136 -152.5t181 -50.5q68 0 109 25.5t41 66.5q0 66 -174 100q-105 20 -170 37q-136 37 -193 103t-57 182q0 152 108.5 251t276.5 99q63 0 127 -15.5t131 -47.5l24 51h115l37 -301l-154 -25q-70 84 -133 122t-129 38q-51 0 -82.5 -24.5
t-31.5 -63.5q0 -25 13.5 -45.5t35.5 -28.5q40 -15 153 -33t178 -40q111 -38 163.5 -105t52.5 -170q0 -161 -119.5 -268t-298.5 -107q-67 0 -132 17t-130 51l-25 -47h-135zM211 1493h84l215 -178l215 178h84l-225 -348h-148z" />
    <glyph glyph-name="Zcaron" unicode="&#x17d;" horiz-adv-x="1382" 
d="M111 0l-37 139l743 1053q-27 4 -57 6t-62 2q-170 0 -292.5 -77.5t-208.5 -239.5l-136 53l189 448h977l47 -139l-739 -1055q43 -6 82.5 -9t76.5 -3q195 0 323.5 84.5t196.5 257.5l138 -49l-166 -471h-1075zM393 1874h84l215 -178l215 178h84l-225 -348h-148z" />
    <glyph glyph-name="zcaron" unicode="&#x17e;" horiz-adv-x="1130" 
d="M109 0l-58 166l567 676q-7 0 -20 1t-20 1q-127 0 -208 -48.5t-126 -152.5l-156 49l117 322h780l64 -156l-570 -668h6q44 -4 64 -4q141 0 240 61.5t147 178.5l154 -55l-127 -371h-854zM266 1493h84l215 -178l215 178h84l-225 -348h-148z" />
    <glyph glyph-name="brokenbar" unicode="&#xa6;" 
d="M393 408h240v-758h-240v758zM393 1432h240v-758h-240v758z" />
    <glyph glyph-name="Eth" unicode="&#xd0;" horiz-adv-x="1651" 
d="M66 0v170q95 3 128 47.5t33 208.5v236h-227v157h227v139q0 165 -33.5 209.5t-127.5 46.5v170h696q397 0 608 -178.5t211 -513.5q0 -336 -210 -514t-609 -178h-696zM588 662v-320q0 -113 32 -144.5t130 -31.5q211 0 331.5 140t120.5 386t-120.5 385.5t-331.5 139.5
q-98 0 -130 -31.5t-32 -145.5v-221h305v-157h-305z" />
    <glyph glyph-name="eth" unicode="&#xf0;" horiz-adv-x="1214" 
d="M702 959q-23 55 -50.5 102.5t-59.5 87.5l-289 -119l-49 113l258 104q-41 46 -91 84.5t-112 71.5l215 43q56 -32 101.5 -62.5t81.5 -60.5l299 121l47 -111l-240 -96q170 -179 254 -368.5t84 -393.5q0 -228 -148.5 -366t-396.5 -138q-247 0 -396 138t-149 366
q0 221 147 361.5t378 140.5q32 0 60.5 -4.5t55.5 -13.5zM418 473q0 -171 47 -257.5t141 -86.5q95 0 143 86.5t48 257.5t-48.5 258.5t-142.5 87.5q-93 0 -140.5 -87t-47.5 -259z" />
    <glyph glyph-name="Yacute" unicode="&#xdd;" horiz-adv-x="1372" 
d="M317 0v170h9q102 0 137 44.5t35 211.5v143l-312 502q-33 55 -85 92.5t-124 59.5v161h721v-155q-73 0 -110 -14.5t-37 -43.5q0 -18 6.5 -38t24.5 -52l163 -284l193 309q18 29 23.5 43.5t5.5 28.5q0 26 -26 38.5t-85 12.5h-29v155h568v-161q-92 -26 -162.5 -84.5
t-145.5 -175.5l-235 -371l-6 -166v-45q0 -123 36 -167t130 -44h14v-170h-709zM491 1526l273 282q40 43 72 61.5t63 18.5q40 0 65 -25t25 -65q0 -32 -19 -55t-75 -53l-313 -164h-91z" />
    <glyph glyph-name="yacute" unicode="&#xfd;" horiz-adv-x="1130" 
d="M580 -152q-77 -172 -155.5 -237.5t-197.5 -65.5q-105 0 -164 48.5t-59 134.5q0 69 42 112t110 43q49 0 101.5 -36.5t59.5 -36.5q14 0 29 16t31 49l74 152l-267 626l-6 15q-74 176 -184 176h-6v170h592v-159q-80 -9 -99.5 -21.5t-19.5 -42.5q0 -15 14 -50l2 -6l135 -344
l129 320q11 26 17 49t6 37q0 28 -26 42.5t-74 14.5h-17v160h506v-170q-69 -2 -116.5 -41t-88.5 -127zM370 1145l273 282q40 43 72 61.5t63 18.5q40 0 65 -25t25 -65q0 -32 -19 -55t-75 -53l-313 -164h-91z" />
    <glyph glyph-name="Thorn" unicode="&#xde;" horiz-adv-x="1382" 
d="M213 958q0 165 -33 209t-129 48v169h684v-169q-89 -4 -125.5 -38t-36.5 -114h230q268 0 405.5 -96t137.5 -283q0 -181 -130 -271.5t-391 -90.5h-252v-11q0 -70 39.5 -104.5t122.5 -36.5v-170h-684v169q96 4 129 48.5t33 208.5v532zM574 481q13 -1 27.5 -1.5t43.5 -0.5
q167 0 251.5 55t84.5 164q0 98 -71 153.5t-197 55.5q-82 0 -111 -30t-29 -127z" />
    <glyph glyph-name="thorn" unicode="&#xfe;" horiz-adv-x="1319" 
d="M508 -115q0 -110 26 -143.5t98 -36.5l1 -160h-594v160q80 0 108.5 33.5t28.5 146.5v1166q0 112 -28 145t-109 33v162q125 0 208 13t136 42h125v-508q54 44 115.5 65t134.5 21q214 0 349.5 -145.5t135.5 -378.5q0 -237 -136 -381t-359 -144q-65 0 -124 16t-116 48v-154z
M508 743v-491q46 -40 89.5 -59t86.5 -19q96 0 149.5 85.5t53.5 240.5q0 158 -54 241.5t-155 83.5q-42 0 -83.5 -20t-86.5 -62z" />
    <glyph glyph-name="minus" unicode="&#x2212;" horiz-adv-x="1706" 
d="M254 729h1198v-235h-1198v235z" />
    <glyph glyph-name="multiply" unicode="&#xd7;" horiz-adv-x="1706" 
d="M430 1214l440 -440l441 440l162 -161l-441 -443l441 -440l-162 -162l-441 441l-440 -441l-162 162l441 440l-441 443z" />
    <glyph glyph-name="onesuperior" unicode="&#xb9;" horiz-adv-x="883" 
d="M184 559v98q95 2 128.5 22.5t33.5 74.5v407q0 59 -27.5 77t-134.5 20v91q98 2 172 14t131 36h82v-645q0 -54 35 -74.5t133 -22.5v-98h-553z" />
    <glyph glyph-name="twosuperior" unicode="&#xb2;" horiz-adv-x="883" 
d="M80 559l-19 135q235 135 349 252.5t114 224.5q0 65 -37.5 100.5t-105.5 35.5q-53 0 -92 -23t-39 -51q0 -4 17.5 -32t17.5 -58q0 -41 -31.5 -65.5t-83.5 -24.5t-81.5 31t-29.5 85q0 102 102.5 172t258.5 70q165 0 263.5 -69.5t98.5 -184.5q0 -107 -105 -206.5t-355 -223.5
h217q73 0 115.5 27.5t74.5 95.5l98 -29l-75 -262h-672z" />
    <glyph glyph-name="threesuperior" unicode="&#xb3;" horiz-adv-x="883" 
d="M631 1018q99 -25 146.5 -74t47.5 -127q0 -119 -117.5 -195.5t-308.5 -76.5q-155 0 -254.5 60.5t-99.5 152.5q0 47 31.5 75.5t83.5 28.5q45 0 75.5 -26.5t30.5 -65.5q0 -13 -6 -30t-6 -19q0 -26 40 -44t101 -18q81 0 124.5 39.5t43.5 112.5q0 78 -48.5 114t-154.5 36h-49
v110q9 0 24.5 -1t22.5 -1q84 0 128 32.5t44 94.5q0 51 -33 79t-96 28q-53 0 -89 -19.5t-36 -44.5q0 -5 10.5 -27t10.5 -38q0 -36 -30 -59t-77 -23q-55 0 -83.5 25.5t-28.5 76.5q0 92 99 154.5t251 62.5q156 0 253 -63.5t97 -163.5q0 -55 -38 -98t-109 -68z" />
    <glyph glyph-name="onequarter" unicode="&#xbc;" horiz-adv-x="2028" 
d="M1620 309v291q-54 -75 -114.5 -146.5t-131.5 -144.5h246zM1507 0l1 92q60 3 83 18t23 50v37h-363l-41 86q111 115 215.5 238.5t206.5 260.5h191v-473h184l-55 -112h-129v-39q0 -36 22.5 -51t79.5 -15h6v-92h-424zM678 -25h-178l848 1446h176zM176 614v93q89 0 121.5 19.5
t32.5 70.5v379q0 56 -27.5 73t-126.5 19v86q88 0 160 10.5t129 32.5h78v-600q0 -51 34 -70.5t128 -19.5v-93h-529z" />
    <glyph glyph-name="onehalf" unicode="&#xbd;" horiz-adv-x="2028" 
d="M1260 0l-19 127q224 124 333 234t109 210q0 60 -35 92.5t-100 32.5q-51 0 -88 -20.5t-37 -46.5q0 -3 15.5 -30t15.5 -54q0 -38 -29.5 -61t-78.5 -23t-77 29t-28 79q0 95 97 160.5t245 65.5q158 0 253 -65t95 -171q0 -100 -100.5 -192.5t-339.5 -208.5h207q70 0 111 25.5
t71 88.5l94 -28l-73 -244h-641zM678 -25h-178l848 1446h176zM176 614v93q89 0 121.5 19.5t32.5 70.5v379q0 56 -27.5 73t-126.5 19v86q88 0 160 10.5t129 32.5h78v-600q0 -51 34 -70.5t128 -19.5v-93h-529z" />
    <glyph glyph-name="threequarters" unicode="&#xbe;" horiz-adv-x="2028" 
d="M1620 309v291q-54 -75 -114.5 -146.5t-131.5 -144.5h246zM1507 0l1 92q60 3 83 18t23 50v37h-363l-41 86q111 115 215.5 238.5t206.5 260.5h191v-473h184l-55 -112h-129v-39q0 -36 22.5 -51t79.5 -15h6v-92h-424zM678 -25h-178l848 1446h176zM602 1042q95 -23 140.5 -69
t45.5 -117q0 -112 -113 -184t-294 -72q-149 0 -243.5 57t-94.5 144q0 43 30 69.5t79 26.5q44 0 73 -24.5t29 -61.5q0 -12 -6 -27t-6 -18q0 -24 38.5 -40.5t98.5 -16.5q77 0 118.5 36.5t41.5 104.5q0 71 -47.5 105t-147.5 34h-47v104q16 -2 26 -2.5t19 -0.5q80 0 123 30.5
t43 87.5q0 48 -32.5 74.5t-92.5 26.5q-51 0 -85 -18t-34 -42q0 -5 9.5 -25.5t9.5 -35.5q0 -34 -28.5 -56t-72.5 -22q-53 0 -80.5 24.5t-27.5 71.5q0 88 94 146.5t240 58.5q149 0 242 -60t93 -153q0 -52 -36.5 -92t-104.5 -64z" />
    <glyph glyph-name="franc" unicode="&#x20a3;" horiz-adv-x="2243" 
d="M573 848h50q107 0 145.5 43t44.5 172h143v-641h-143q-14 121 -60 177t-130 56h-50v-229q0 -164 33.5 -208.5t128.5 -47.5v-170h-684v169q96 4 129 48.5t33 208.5v532q0 165 -33 209t-129 48v169h1112l187 -397l-127 -67q-99 147 -223 222t-271 75q-93 0 -124.5 -32
t-31.5 -145v-192zM1374 0v162q81 0 109 33t28 145v281q0 112 -28 145t-109 33v161q106 2 179.5 15t123.5 39h121l4 -94q68 53 131.5 79.5t126.5 26.5q83 0 135 -44.5t52 -115.5t-42 -111t-116 -40q-41 0 -98 29.5t-78 29.5q-15 0 -32.5 -7.5t-37.5 -23.5v-403
q0 -112 28 -145t109 -33v-162h-606z" />
    <glyph glyph-name="Gbreve" unicode="&#x11e;" horiz-adv-x="1630" 
d="M1196 -18l-59 116q-93 -67 -196.5 -99t-227.5 -32q-144 0 -254 45t-197 140q-90 99 -141 243.5t-51 300.5q0 164 48.5 290.5t149.5 227.5q97 98 233.5 150.5t289.5 52.5q79 0 157 -18.5t160 -57.5l33 60h127l131 -473l-158 -56q-97 184 -205 269.5t-241 85.5
q-171 0 -261 -136t-90 -395q0 -254 88 -386t259 -132q133 0 213.5 64.5t80.5 169.5q0 74 -41.5 109t-133.5 38l-1 162h652v-162q-95 -19 -128.5 -61.5t-33.5 -147.5v-368h-203zM506 1843h76q17 -65 71.5 -94t161.5 -29q108 0 162.5 29.5t68.5 93.5h76q-20 -140 -98.5 -213
t-208.5 -73t-209 73t-100 213z" />
    <glyph glyph-name="gbreve" unicode="&#x11f;" horiz-adv-x="1128" 
d="M303 -117q-25 -22 -38 -44t-13 -42q0 -64 73 -98.5t207 -34.5t206.5 28.5t72.5 80.5q0 66 -361 97zM164 -51q-50 42 -74 89t-24 101q0 82 47 141t139 93q-69 62 -101 129.5t-32 148.5q0 170 122 276.5t316 106.5q44 0 81.5 -5.5t72.5 -16.5q57 90 123.5 136t140.5 46
q68 0 111.5 -37.5t43.5 -95.5q0 -47 -29 -79t-71 -32q-11 0 -52 11.5t-71 11.5q-19 0 -34 -6t-29 -19q78 -56 116.5 -129.5t38.5 -165.5q0 -170 -121.5 -274.5t-322.5 -104.5q-47 0 -91.5 6t-86.5 17q-19 -13 -28 -25.5t-9 -27.5q0 -60 251 -75l50 -3q274 -18 370.5 -80
t96.5 -203q0 -181 -151 -281t-427 -100q-246 0 -370.5 65t-124.5 193q0 69 31.5 115t97.5 74zM690 645q0 103 -33.5 155t-99.5 52q-67 0 -101 -52.5t-34 -154.5t34 -154.5t101 -52.5q66 0 99.5 52t33.5 155zM256 1462h76q17 -65 71.5 -94t161.5 -29q108 0 162.5 29.5
t68.5 93.5h76q-20 -140 -98.5 -213t-208.5 -73t-209 73t-100 213z" />
    <glyph glyph-name="Idotaccent" unicode="&#x130;" horiz-adv-x="797" 
d="M739 1384v-169q-94 -3 -127.5 -47.5t-33.5 -209.5v-532q0 -164 33 -208.5t128 -47.5v-170h-682l1 170q94 3 126.5 46.5t32.5 209.5v532q0 167 -33 210.5t-127 46.5v169h682zM268 1690q0 52 39.5 91.5t91.5 39.5q55 0 93 -38.5t38 -92.5q0 -57 -37 -94t-94 -37
q-54 0 -92.5 38t-38.5 93z" />
    <glyph glyph-name="Scedilla" unicode="&#x15e;" horiz-adv-x="1374" 
d="M229 -18l-168 516l156 53q97 -184 236 -284.5t297 -100.5q105 0 176 53t71 131q0 107 -297 179q-46 12 -71 18q-167 42 -250.5 69.5t-116.5 51.5q-76 53 -117 132t-41 175q0 186 147.5 313t364.5 127q86 0 168 -24.5t158 -73.5l31 74h125l121 -412l-140 -51
q-79 139 -195 216t-247 77q-97 0 -157 -40t-60 -102q0 -106 329 -181q71 -16 112 -26q256 -62 350 -153t94 -262q0 -212 -165 -352t-415 -140q-77 0 -159.5 25t-190.5 82l-25 -90h-121zM387 -377l41 90q72 -39 130 -56t118 -17q40 0 64 22t24 59q0 43 -25.5 64.5t-75.5 21.5
q-14 0 -29.5 -1.5t-31.5 -3.5v198h70v-115q16 3 32.5 4.5t32.5 1.5q86 0 136.5 -45.5t50.5 -124.5q0 -85 -60 -131.5t-170 -46.5q-57 0 -130 19t-177 61z" />
    <glyph glyph-name="scedilla" unicode="&#x15f;" horiz-adv-x="1018" 
d="M121 -8l-66 336l148 45q57 -102 136 -152.5t181 -50.5q68 0 109 25.5t41 66.5q0 66 -174 100q-105 20 -170 37q-136 37 -193 103t-57 182q0 152 108.5 251t276.5 99q63 0 127 -15.5t131 -47.5l24 51h115l37 -301l-154 -25q-70 84 -133 122t-129 38q-51 0 -82.5 -24.5
t-31.5 -63.5q0 -25 13.5 -45.5t35.5 -28.5q40 -15 153 -33t178 -40q111 -38 163.5 -105t52.5 -170q0 -161 -119.5 -268t-298.5 -107q-67 0 -132 17t-130 51l-25 -47h-135zM209 -377l41 90q72 -39 130 -56t118 -17q40 0 64 22t24 59q0 43 -25.5 64.5t-75.5 21.5
q-14 0 -29.5 -1.5t-31.5 -3.5v198h70v-115q16 3 32.5 4.5t32.5 1.5q86 0 136.5 -45.5t50.5 -124.5q0 -85 -60 -131.5t-170 -46.5q-57 0 -130 19t-177 61z" />
    <glyph glyph-name="Cacute" unicode="&#x106;" horiz-adv-x="1452" 
d="M1251 481l172 -80q-102 -212 -262.5 -323t-365.5 -111q-139 0 -273.5 51t-230.5 140q-112 103 -166.5 236.5t-54.5 303.5q0 171 54 303.5t167 237.5q91 85 209.5 130.5t247.5 45.5q80 0 157.5 -21.5t153.5 -64.5l22 80h123l170 -508l-151 -51q-77 180 -191 281.5
t-237 101.5q-158 0 -252 -144t-94 -391q0 -249 98 -389.5t270 -140.5q121 0 239 84.5t195 228.5zM577 1526l273 282q40 43 72 61.5t63 18.5q40 0 65 -25t25 -65q0 -32 -19 -55t-75 -53l-313 -164h-91z" />
    <glyph glyph-name="cacute" unicode="&#x107;" horiz-adv-x="1124" 
d="M938 358l162 -79q-75 -159 -193 -232.5t-301 -73.5q-247 0 -396 145t-149 386q0 245 149.5 387.5t407.5 142.5q189 0 312 -85t123 -210q0 -72 -48.5 -119t-123.5 -47q-70 0 -104 34t-48 122q-13 84 -41 111.5t-88 27.5q-83 0 -133.5 -88.5t-50.5 -236.5q0 -187 57 -283
t168 -96q85 0 162.5 50.5t134.5 143.5zM401 1145l273 282q40 43 72 61.5t63 18.5q40 0 65 -25t25 -65q0 -32 -19 -55t-75 -53l-313 -164h-91z" />
    <glyph glyph-name="Ccaron" unicode="&#x10c;" horiz-adv-x="1452" 
d="M1251 481l172 -80q-102 -212 -262.5 -323t-365.5 -111q-139 0 -273.5 51t-230.5 140q-112 103 -166.5 236.5t-54.5 303.5q0 171 54 303.5t167 237.5q91 85 209.5 130.5t247.5 45.5q80 0 157.5 -21.5t153.5 -64.5l22 80h123l170 -508l-151 -51q-77 180 -191 281.5
t-237 101.5q-158 0 -252 -144t-94 -391q0 -249 98 -389.5t270 -140.5q121 0 239 84.5t195 228.5zM473 1874h84l215 -178l215 178h84l-225 -348h-148z" />
    <glyph glyph-name="ccaron" unicode="&#x10d;" horiz-adv-x="1124" 
d="M938 358l162 -79q-75 -159 -193 -232.5t-301 -73.5q-247 0 -396 145t-149 386q0 245 149.5 387.5t407.5 142.5q189 0 312 -85t123 -210q0 -72 -48.5 -119t-123.5 -47q-70 0 -104 34t-48 122q-13 84 -41 111.5t-88 27.5q-83 0 -133.5 -88.5t-50.5 -236.5q0 -187 57 -283
t168 -96q85 0 162.5 50.5t134.5 143.5zM297 1493h84l215 -178l215 178h84l-225 -348h-148z" />
    <glyph glyph-name="dcroat" unicode="&#x111;" horiz-adv-x="1323" 
d="M797 252v438q-46 42 -88.5 62t-87.5 20q-93 0 -148 -81.5t-55 -217.5q0 -137 56.5 -218t152.5 -81q40 0 82 19t88 59zM1128 1165h195v-112h-195v-713q0 -114 28.5 -145.5t108.5 -32.5l1 -162h-443v76q-50 -47 -118.5 -70.5t-155.5 -23.5q-209 0 -348.5 141.5
t-139.5 353.5q0 217 139.5 357.5t358.5 140.5q71 0 128 -19t110 -59v156h-275v112h271q0 52 -23.5 70.5t-110.5 24.5v131q143 0 223 12.5t138 42.5h108v-281z" />
    <glyph glyph-name="sfthyphen" unicode="&#xad;" horiz-adv-x="674" 
d="M33 383l106 238h500l-104 -238h-502z" />
    <glyph glyph-name="periodcentered" unicode="&#x2219;" horiz-adv-x="668" 
d="M141 698q0 80 56.5 136.5t136.5 56.5q81 0 136.5 -56t55.5 -137t-55.5 -136.5t-136.5 -55.5q-82 0 -137.5 55.5t-55.5 136.5z" />
    <glyph glyph-name="euro" horiz-adv-x="1337" 
d="M918 492h-390q16 -160 85.5 -244t185.5 -84q112 0 202 73.5t162 221.5l166 -84q-98 -206 -230 -303t-323 -97q-224 0 -381 139.5t-205 374.5h-172l19 113l137 1q-2 37 -3 59.5t-1 42.5q0 18 1 39l3 60l-156 1l19 110h153q48 223 200 364.5t353 141.5q57 0 129.5 -27
t120.5 -63l21 84h114l162 -489l-149 -52q-70 182 -167 279.5t-206 97.5q-101 0 -162 -83.5t-82 -252.5h457l-18 -110l-449 -1l-3 -60t-1 -39q0 -20 1 -42.5t4 -60.5h421z" />
    <glyph glyph-name="euro" unicode="&#x20ac;" horiz-adv-x="1337" 
d="M918 492h-390q16 -160 85.5 -244t185.5 -84q112 0 202 73.5t162 221.5l166 -84q-98 -206 -230 -303t-323 -97q-224 0 -381 139.5t-205 374.5h-172l19 113l137 1q-2 37 -3 59.5t-1 42.5q0 18 1 39l3 60l-156 1l19 110h153q48 223 200 364.5t353 141.5q57 0 129.5 -27
t120.5 -63l21 84h114l162 -489l-149 -52q-70 182 -167 279.5t-206 97.5q-101 0 -162 -83.5t-82 -252.5h457l-18 -110l-449 -1l-3 -60t-1 -39q0 -20 1 -42.5t4 -60.5h421z" />
    </font>
</defs>
</svg>
