<?xml version="1.0" standalone="no"?>
<!DOCTYPE svg PUBLIC "-//W3C//DTD SVG 1.1//EN" "http://www.w3.org/Graphics/SVG/1.1/DTD/svg11.dtd" >
<svg>
<metadata>
Created by FontForge 20090622 at Wed Jun 17 13:30:08 2015
 By deploy user
Copyright 1990-1998 Bitstream Inc.  All rights reserved.
</metadata>
<defs>
<font id="BookmanITCbyBT-LightItalic" horiz-adv-x="1024" >
  <font-face 
    font-family="BookmanITC Lt BT"
    font-weight="400"
    font-style="italic"
    font-stretch="normal"
    units-per-em="2048"
    panose-1="2 5 6 4 5 5 5 9 2 4"
    ascent="1556"
    descent="-492"
    x-height="985"
    cap-height="1374"
    bbox="-555 -483 2519 1923"
    underline-thickness="125"
    underline-position="-165"
    slope="-10"
    unicode-range="U+0020-U+F002"
  />
<missing-glyph horiz-adv-x="1229" 
d="M102 -362v1806h1024v-1806h-1024zM217 -248h795v1577h-795v-1577z" />
    <glyph glyph-name=".notdef" horiz-adv-x="1229" 
d="M102 -362v1806h1024v-1806h-1024zM217 -248h795v1577h-795v-1577z" />
    <glyph glyph-name=".null" horiz-adv-x="0" 
 />
    <glyph glyph-name="nonmarkingreturn" horiz-adv-x="623" 
 />
    <glyph glyph-name="space" unicode=" " horiz-adv-x="623" 
 />
    <glyph glyph-name="exclam" unicode="!" horiz-adv-x="664" 
d="M227 334q38 219 42.5 491t6.5 299q11 146 52.5 213.5t120.5 67.5q58 0 89 -33.5t31 -97.5q0 -43 -21 -119t-97 -291l-6 -16q-110 -313 -138 -514h-80zM88 82q0 63 44.5 107t107.5 44q50 0 82 -32t32 -82q0 -64 -44 -110t-105 -46q-53 0 -85 32.5t-32 86.5z" />
    <glyph glyph-name="quotedbl" unicode="&#x22;" horiz-adv-x="678" 
d="M518 864h-31l-65 457q0 2 -1 6q-3 22 -3 33q0 49 22.5 75.5t63.5 26.5q40 0 62 -26t22 -74q0 -14 -0.5 -23t-1.5 -18zM190 864h-32l-64 457l-3 26t-1 15q0 48 22 74t62 26q41 0 63.5 -26t22.5 -74q0 -9 -3 -34q-1 -5 -1 -7z" />
    <glyph glyph-name="numbersign" unicode="#" horiz-adv-x="1575" 
d="M700 868l-100 -286h289l102 286h-291zM778 1456h133l-168 -471h287l168 471h131l-166 -471h307l-40 -117h-310l-100 -286h332l-43 -115h-330l-166 -469h-133l166 469h-287l-166 -469h-131l166 469h-324l43 115h322l100 286h-348l43 117h348z" />
    <glyph glyph-name="dollar" unicode="$" horiz-adv-x="1247" 
d="M428 -174l41 225q-219 8 -337 84t-118 209q0 80 46 130t118 50q47 0 77 -28.5t30 -73.5q0 -36 -15.5 -83.5t-15.5 -57.5q0 -70 69 -110t191 -40q181 0 296.5 79.5t115.5 197.5q0 81 -61.5 124.5t-295.5 85.5q-251 46 -346.5 114t-95.5 190q0 162 161 281.5t406 129.5
l35 201h82l-35 -203q178 -12 281.5 -83t103.5 -179q0 -67 -40 -108t-105 -41q-44 0 -71 23.5t-27 62.5q0 15 10 50t10 54q0 65 -68.5 110.5t-173.5 45.5q-153 0 -244.5 -68.5t-91.5 -181.5q0 -81 64 -124.5t315 -92.5q259 -51 328.5 -108.5t69.5 -172.5
q0 -190 -161.5 -319.5t-424.5 -147.5l-41 -225h-82z" />
    <glyph glyph-name="percent" unicode="%" horiz-adv-x="1737" 
d="M1114 332q0 -127 45 -190.5t133 -63.5q89 0 135 64t46 190t-45 189t-136 63q-90 0 -134 -62.5t-44 -189.5zM926 332q0 152 104 253t262 101t263.5 -101t105.5 -253t-105.5 -254.5t-263.5 -102.5q-157 0 -261.5 102t-104.5 255zM385 -25l838 1424h129l-838 -1424h-129z
M264 1042q0 -125 45.5 -188t134.5 -63q90 0 134.5 62.5t44.5 188.5q0 128 -44.5 191t-134.5 63t-135 -63.5t-45 -190.5zM76 1042q0 153 105 255t263 102t262.5 -102t104.5 -255q0 -152 -104.5 -253t-262.5 -101t-263 101t-105 253z" />
    <glyph glyph-name="ampersand" unicode="&#x26;" horiz-adv-x="1681" 
d="M930 201q-69 164 -161 305t-206 256q-130 -45 -204 -150.5t-74 -244.5q0 -142 77 -223t213 -81q87 0 176 34.5t179 103.5zM698 893q111 55 168.5 129.5t57.5 161.5q0 62 -35.5 100.5t-91.5 38.5q-76 0 -131.5 -61.5t-55.5 -149.5q0 -58 22 -112.5t66 -106.5zM975 133
q-119 -85 -223 -123.5t-211 -38.5q-208 0 -337.5 105.5t-129.5 271.5q0 158 111 284.5t315 201.5q-37 58 -55.5 112.5t-18.5 106.5q0 143 117 248.5t276 105.5q111 0 178.5 -62.5t67.5 -164.5q0 -105 -75.5 -193.5t-225.5 -159.5q132 -170 207 -284.5t100 -184.5
q63 83 91 132.5t28 76.5q0 22 -3 34.5t-7 12.5q-32 0 -69.5 42.5t-37.5 88.5q0 61 42 101.5t106 40.5q62 0 97.5 -40.5t35.5 -111.5q0 -93 -54.5 -200t-183.5 -265q47 -103 107 -157t127 -54q32 0 53.5 17.5t21.5 42.5q0 7 -24.5 49.5t-24.5 79.5q0 50 33 83.5t82 33.5
q53 0 87 -33.5t34 -87.5q0 -114 -97 -193.5t-239 -79.5q-91 0 -168.5 42t-132.5 120z" />
    <glyph glyph-name="quotesingle" unicode="'" horiz-adv-x="348" 
d="M190 864h-32l-66 457q-1 8 -1.5 16t-0.5 23q0 50 21.5 76t62.5 26t63.5 -26t22.5 -74q0 -9 -3 -34q-1 -5 -1 -7z" />
    <glyph glyph-name="parenleft" unicode="(" horiz-adv-x="711" 
d="M397 -297q-151 51 -219.5 157.5t-68.5 289.5q0 57 5.5 130t16.5 164q27 212 63.5 365t86.5 264q60 133 160 219t225 113l-17 -92q-91 -30 -153 -131.5t-103 -288.5q-55 -248 -87 -481t-32 -361q0 -90 34.5 -153t105.5 -105z" />
    <glyph glyph-name="parenright" unicode=")" horiz-adv-x="711" 
d="M258 1405q151 -52 220 -158t69 -289q0 -58 -5.5 -130.5t-17.5 -163.5q-26 -211 -62.5 -363t-86.5 -264q-61 -135 -160.5 -221.5t-222.5 -112.5l16 92q90 30 151.5 130.5t102.5 289.5q55 248 87 481t32 361q0 91 -33.5 154t-103.5 104z" />
    <glyph glyph-name="asterisk" unicode="*" 
d="M494 1055q-127 17 -186.5 48t-59.5 79q0 31 23 54.5t55 23.5q36 0 78 -32.5t118 -123.5l24 16q-3 11 -9 29q-41 114 -41 168q0 40 21 64t56 24q37 0 58.5 -24t21.5 -64q0 -47 -38 -160q-9 -24 -13 -37l25 -18q76 92 119 125t79 33q32 0 54 -23.5t22 -54.5
q0 -48 -59.5 -79t-186.5 -48v-31q127 -17 186.5 -48t59.5 -79q0 -32 -22 -55t-54 -23q-36 0 -79 33t-119 125l-24 -18q3 -11 9 -30q41 -114 41 -167q0 -40 -21 -64t-57 -24t-57.5 24t-21.5 64q0 47 40 166q7 21 10 33l-24 16q-79 -94 -120 -126t-76 -32q-32 0 -55 23.5
t-23 54.5q0 48 59.5 79t186.5 48v31z" />
    <glyph glyph-name="plus" unicode="+" horiz-adv-x="1706" 
d="M795 1221h118v-551h539v-117h-539v-553h-118v553h-541v117h541v551z" />
    <glyph glyph-name="comma" unicode="," horiz-adv-x="623" 
d="M248 29q-16 -16 -32.5 -23.5t-35.5 -7.5q-43 0 -66.5 25.5t-23.5 72.5q0 63 42.5 107.5t100.5 44.5q56 0 89.5 -35.5t33.5 -93.5q0 -101 -64.5 -189.5t-189.5 -158.5l-26 39q81 59 121.5 111t50.5 108z" />
    <glyph glyph-name="hyphen" unicode="-" horiz-adv-x="674" 
d="M23 408l75 170h477l-75 -170h-477z" />
    <glyph glyph-name="period" unicode="." horiz-adv-x="623" 
d="M96 98q0 63 45.5 108.5t108.5 45.5q50 0 82.5 -33t32.5 -84q0 -64 -45 -109.5t-107 -45.5q-53 0 -85 32t-32 86z" />
    <glyph glyph-name="slash" unicode="/" horiz-adv-x="569" 
d="M12 -190h-114l606 1595h112z" />
    <glyph glyph-name="zero" unicode="0" horiz-adv-x="1247" 
d="M725 1305q-89 0 -168 -58.5t-139 -167.5q-69 -125 -109.5 -292.5t-40.5 -333.5q0 -183 67 -281t191 -98q84 0 160 53t133 154q73 125 115.5 294.5t42.5 339.5q0 189 -65 289.5t-187 100.5zM1188 844q0 -168 -53.5 -329t-151.5 -288q-94 -123 -212.5 -185t-256.5 -62
q-213 0 -334 147t-121 405q0 161 50.5 315t144.5 283q94 130 218.5 199.5t260.5 69.5q206 0 330.5 -152t124.5 -403z" />
    <glyph glyph-name="one" unicode="1" horiz-adv-x="1247" 
d="M176 0l12 63q118 13 158 22t57 24q43 32 68 169v1l135 763q4 24 6 44.5t2 37.5q0 71 -38 96t-154 25h-25l11 62q137 16 215.5 31.5t130.5 35.5h118l-37.5 -192.5t-27.5 -149.5l-135 -759q-3 -15 -4.5 -33t-1.5 -54q0 -60 40 -85t179 -38l-11 -63h-698z" />
    <glyph glyph-name="two" unicode="2" horiz-adv-x="1247" 
d="M14 0v152q420 227 656.5 474t236.5 451q0 102 -66 158.5t-184 56.5q-122 0 -209.5 -57.5t-87.5 -130.5q0 -15 14.5 -53.5t14.5 -61.5q0 -50 -35.5 -83.5t-89.5 -33.5q-56 0 -86.5 30.5t-30.5 86.5q0 159 164 283.5t391 124.5q204 0 322.5 -90.5t118.5 -243.5
q0 -197 -217 -414.5t-676 -478.5h459q108 0 181 53.5t138 182.5l72 -29l-154 -377h-932z" />
    <glyph glyph-name="three" unicode="3" horiz-adv-x="1247" 
d="M786 762q157 -20 232.5 -94t75.5 -207q0 -208 -184.5 -346t-473.5 -138q-198 0 -315 76t-117 201q0 72 44.5 120t111.5 48q45 0 69.5 -24t24.5 -68q0 -23 -15.5 -60t-15.5 -57q0 -62 64 -100.5t170 -38.5q189 0 298 108t109 295q0 121 -74.5 178.5t-232.5 57.5
q-23 0 -50 -1.5t-62 -4.5l18 88q8 0 24 -1t23 -1q183 0 292 82t109 219q0 103 -60 159t-171 56t-195 -48.5t-84 -105.5q0 -13 5.5 -41t5.5 -43q0 -51 -35 -82t-92 -31q-46 0 -72.5 26t-26.5 71q0 128 158.5 236t366.5 108q189 0 302 -82.5t113 -218.5q0 -122 -95.5 -217
t-244.5 -119z" />
    <glyph glyph-name="four" unicode="4" horiz-adv-x="1247" 
d="M680 489l121 695q-85 -106 -213 -249.5l-410 -445.5h502zM412 0l10 61q110 18 155 59t62 142l18 107h-606l-20 90q311 326 503 545t302 370h202l-155 -885h274v-16l-51 -104h-246l-18 -111q-1 -5 -3 -18q-5 -37 -5 -52q0 -56 32 -82t138 -45l-11 -61h-581z" />
    <glyph glyph-name="five" unicode="5" horiz-adv-x="1247" 
d="M291 807q96 74 193.5 108.5t211.5 34.5q192 0 304 -99t112 -267q0 -128 -52 -238.5t-153 -198.5q-98 -84 -213 -125.5t-252 -41.5q-186 0 -304 77t-118 195q0 68 43.5 116t104.5 48q44 0 70 -26t26 -68q0 -22 -16.5 -66.5t-16.5 -69.5q0 -47 56.5 -77.5t144.5 -30.5
q185 0 311.5 134.5t126.5 330.5q0 134 -71.5 211t-196.5 77q-101 0 -184 -43.5t-166 -140.5l-100 31q45 161 80 334t61 362h819l-57 -160h-680q-10 -78 -31 -178.5t-53 -228.5z" />
    <glyph glyph-name="six" unicode="6" horiz-adv-x="1247" 
d="M289 352q0 -139 63.5 -206.5t194.5 -67.5q153 0 258.5 126.5t105.5 313.5q0 120 -66 188t-181 68q-156 0 -265.5 -124t-109.5 -298zM328 702q84 90 186 134.5t227 44.5q184 0 293 -97.5t109 -259.5q0 -126 -59 -235t-171 -191q-81 -60 -174.5 -89t-206.5 -29
q-220 0 -341 125.5t-121 355.5q0 173 56.5 343t158.5 304q107 141 244.5 215t293.5 74q166 0 274.5 -70.5t108.5 -171.5q0 -52 -32.5 -83.5t-86.5 -31.5q-53 0 -80.5 30.5t-27.5 90.5q0 8 2 24t2 25q0 37 -53.5 61.5t-136.5 24.5q-178 0 -292 -145.5t-173 -448.5z" />
    <glyph glyph-name="seven" unicode="7" horiz-adv-x="1247" 
d="M254 0q94 307 294.5 608t512.5 602h-479q-138 0 -204 -38.5t-122 -139.5h-76l123 342h924v-121q-303 -313 -478.5 -624t-228.5 -629h-266z" />
    <glyph glyph-name="eight" unicode="8" horiz-adv-x="1247" 
d="M504 684q-151 -48 -231 -140.5t-80 -217.5q0 -122 81 -187t232 -65q177 0 287 87.5t110 225.5q0 98 -77.5 159.5t-321.5 137.5zM721 823q144 44 214.5 114t70.5 169t-64 153t-180 54q-146 0 -248 -76.5t-102 -179.5q0 -78 67 -130t242 -104zM391 731q-97 47 -140.5 104.5
t-43.5 137.5q0 179 158.5 302.5t396.5 123.5q189 0 305.5 -83.5t116.5 -215.5q0 -111 -90 -195t-256 -129q159 -64 220.5 -134t61.5 -181q0 -87 -40 -167.5t-119 -152.5q-93 -84 -206 -125t-251 -41q-226 0 -361 104t-135 275q0 126 102.5 227.5t280.5 149.5z" />
    <glyph glyph-name="nine" unicode="9" horiz-adv-x="1247" 
d="M956 1022q0 139 -64 207.5t-194 68.5q-152 0 -258 -126.5t-106 -313.5q0 -119 66 -187.5t182 -68.5q155 0 264.5 123t109.5 297zM920 674q-86 -91 -188 -134.5t-226 -43.5q-184 0 -294 97.5t-110 258.5q0 126 58.5 234t171.5 190q82 61 176.5 91t204.5 30
q220 0 341.5 -126t121.5 -356q0 -173 -56 -341.5t-159 -305.5q-106 -141 -243 -214.5t-294 -73.5q-166 0 -275.5 70t-109.5 171q0 51 32.5 83t86.5 32t82 -31t28 -90q0 -8 -2 -25t-2 -26q0 -36 52.5 -60t136.5 -24q177 0 292.5 146t174.5 448z" />
    <glyph glyph-name="colon" unicode=":" horiz-adv-x="623" 
d="M86 94q0 61 43.5 104.5t103.5 43.5q48 0 78.5 -32t30.5 -81q0 -62 -42 -105.5t-101 -43.5q-52 0 -82.5 30.5t-30.5 83.5zM203 750q0 61 42.5 105t102.5 44q48 0 79.5 -32t31.5 -81q0 -61 -43 -105t-103 -44q-51 0 -80.5 30t-29.5 83z" />
    <glyph glyph-name="semicolon" unicode=";" horiz-adv-x="623" 
d="M201 750q0 60 42.5 103.5t102.5 43.5q48 0 79.5 -31t31.5 -80q0 -61 -43 -105t-103 -44q-51 0 -80.5 30t-29.5 83zM240 29q-16 -16 -33 -23.5t-35 -7.5q-44 0 -68 25.5t-24 72.5q0 63 42 107.5t101 44.5q56 0 89.5 -35.5t33.5 -93.5q0 -101 -64.5 -189.5t-189.5 -158.5
l-24 39q81 59 121.5 111t50.5 108z" />
    <glyph glyph-name="less" unicode="&#x3c;" horiz-adv-x="1706" 
d="M1442 1145v-127l-1000 -408l1000 -405v-129l-1178 483v103z" />
    <glyph glyph-name="equal" unicode="=" horiz-adv-x="1706" 
d="M254 477h1198v-117h-1198v117zM254 860h1198v-117h-1198v117z" />
    <glyph glyph-name="greater" unicode="&#x3e;" horiz-adv-x="1706" 
d="M264 1145l1178 -483v-103l-1178 -483v129l1000 405l-1000 408v127z" />
    <glyph glyph-name="question" unicode="?" horiz-adv-x="1090" 
d="M213 84q0 63 44.5 107.5t107.5 44.5q50 0 82 -32t32 -83q0 -64 -44 -110t-105 -46q-53 0 -85 32.5t-32 86.5zM326 307q0 153 43 239t170 171l54 35q135 84 177 143q33 45 50.5 98.5t17.5 108.5q0 105 -69 162t-196 57q-117 0 -200.5 -50t-83.5 -116q0 -15 6 -46.5
t6 -49.5q0 -49 -36.5 -84t-88.5 -35q-50 0 -78 27t-28 75q0 144 160 254.5t382 110.5q200 0 322.5 -93.5t122.5 -244.5q0 -71 -27.5 -138.5t-79.5 -123.5q-82 -88 -311 -174l-33 -12q-85 -33 -128.5 -105t-59.5 -209h-92z" />
    <glyph glyph-name="at" unicode="@" horiz-adv-x="2019" 
d="M1190 336q-62 -106 -139 -158.5t-170 -52.5q-125 0 -201 92t-76 244q0 108 49 216t138 193q65 64 144 100t155 36q87 0 143 -49.5t78 -145.5l53 180h143l-170 -610q0 -2 -1 -5q-17 -59 -17 -104q0 -47 25.5 -74.5t68.5 -27.5q34 0 79 17.5t85 48.5q122 90 187 231t65 315
q0 140 -50 252t-153 203q-90 79 -216 122.5t-267 43.5q-187 0 -341.5 -58.5t-275.5 -175.5q-130 -126 -197 -293.5t-67 -369.5q0 -175 57 -304.5t181 -234.5q114 -97 261 -146.5t320 -49.5q163 0 317.5 52t295.5 154l30 -36q-148 -110 -313 -166t-342 -56q-187 0 -342 46.5
t-274 138.5q-151 113 -229.5 274.5t-78.5 358.5q0 204 86 381t250 313q131 110 291 165.5t344 55.5q347 0 553.5 -187t206.5 -499q0 -157 -58 -297t-163 -236q-57 -52 -123.5 -80t-134.5 -28q-97 0 -149 52.5t-58 158.5zM1098 965q-54 0 -99 -31t-92 -100
q-72 -108 -114.5 -234t-42.5 -225q0 -93 40.5 -147t108.5 -54q66 0 126 44.5t116 133.5q57 94 91 202.5t34 197.5q0 93 -47.5 153t-120.5 60z" />
    <glyph glyph-name="A" unicode="A" horiz-adv-x="1346" 
d="M860 608l-115 590l-321 -590h436zM-160 0l13 66q80 23 134.5 67.5t100.5 124.5l629 1116h198l232 -1110l3 -15q30 -144 161 -183l-13 -66h-534l12 66q91 14 126.5 41t35.5 79q0 13 -2 29t-6 37l-51 266h-508l-125 -242q-15 -28 -23 -55t-8 -49q0 -41 34 -65.5t113 -40.5
l-12 -66h-510z" />
    <glyph glyph-name="B" unicode="B" horiz-adv-x="1464" 
d="M377 275q-3 -18 -4.5 -33t-1.5 -27q0 -70 58 -97.5t214 -27.5q230 0 358.5 101.5t128.5 279.5q0 127 -102.5 178t-376.5 51q-54 0 -181 -3q-13 -1 -19 -1zM465 791h188q147 0 221.5 8t124.5 26q89 35 139 100t50 144q0 118 -92 169.5t-312 51.5q-136 0 -187.5 -30.5
t-66.5 -110.5zM-51 0l12 66q101 16 144.5 61.5t66.5 173.5l141 792q6 36 8.5 57t2.5 34q0 54 -32.5 81t-121.5 44l12 65h682q290 0 412.5 -67t122.5 -222q0 -120 -79 -204t-228 -125q136 -42 203 -116.5t67 -184.5q0 -87 -44 -172t-122 -148q-87 -71 -212.5 -103t-319.5 -32
h-715z" />
    <glyph glyph-name="C" unicode="C" horiz-adv-x="1481" 
d="M1278 420l86 -39q-137 -210 -300 -310t-368 -100q-287 0 -457.5 162t-170.5 432q0 145 49 283t143 258q112 144 270 222.5t336 78.5q109 0 200.5 -31.5t176.5 -97.5l64 96h65l19 -483h-84q-49 201 -156.5 310.5t-255.5 109.5q-110 0 -219 -65t-191 -179
q-84 -117 -132 -262.5t-48 -282.5q0 -199 116 -321.5t302 -122.5q161 0 296 83t259 259z" />
    <glyph glyph-name="D" unicode="D" horiz-adv-x="1571" 
d="M377 293q-5 -29 -7.5 -57t-2.5 -50q0 -55 35.5 -78.5t119.5 -23.5q145 0 275 39.5t213 107.5q118 98 188 262.5t70 346.5q0 224 -123.5 338t-366.5 114q-138 0 -186.5 -34t-69.5 -152zM-51 0l12 66q100 16 144 61.5t67 173.5l141 792q6 36 8.5 57t2.5 34q0 54 -32.5 81
t-121.5 44l12 65h527q210 0 314.5 -15.5t178.5 -51.5q145 -71 221 -199.5t76 -300.5q0 -159 -61.5 -307.5t-175.5 -266.5q-122 -124 -276 -178.5t-390 -54.5h-647z" />
    <glyph glyph-name="E" unicode="E" horiz-adv-x="1425" 
d="M-51 0l12 66q101 16 144.5 61.5t66.5 173.5l141 792q6 36 8.5 57t2.5 34q0 54 -32.5 81t-121.5 44l12 65h1121l79 -407l-82 -13q-79 165 -210 245.5t-318 80.5q-129 0 -179.5 -32.5t-68.5 -131.5l-59 -336h106q143 0 204 49.5t102 182.5h65l-102 -582h-66v27
q0 127 -47.5 174t-183.5 47h-97l-71 -416q-6 -37 -8 -56t-2 -30q0 -48 52.5 -71t164.5 -23q175 0 339 83.5t341 262.5l61 -27l-195 -401h-1179z" />
    <glyph glyph-name="F" unicode="F" horiz-adv-x="1366" 
d="M-51 0l12 66q101 16 144.5 61t66.5 172l141 795q6 37 8.5 56t2.5 32q0 54 -32.5 81t-121.5 44l12 67h1121l79 -409l-82 -13q-79 165 -210 245.5t-318 80.5q-129 0 -179.5 -32.5t-68.5 -131.5l-59 -336h106q143 0 204 49.5t102 182.5h65l-102 -582h-66v27q0 127 -47.5 174
t-183.5 47h-97l-69 -397q-6 -33 -8 -52.5t-2 -36.5q0 -59 35 -88t116 -36l-12 -66h-557z" />
    <glyph glyph-name="G" unicode="G" horiz-adv-x="1616" 
d="M1542 598q-94 -18 -135 -56.5t-66 -174.5l-65 -367h-113l-37 109q-103 -71 -207.5 -105.5t-218.5 -34.5q-278 0 -448 164t-170 432q0 145 49.5 284t142.5 259q112 144 270 221.5t339 77.5q111 0 203 -31t174 -96l63 96h63l21 -428l-84 -22q-68 193 -171 290t-243 97
q-109 0 -218 -65.5t-191 -180.5q-84 -117 -132.5 -262.5t-48.5 -282.5q0 -197 117 -322.5t297 -125.5q171 0 290.5 112t119.5 275q0 60 -36 93t-114 44l13 72h548z" />
    <glyph glyph-name="H" unicode="H" horiz-adv-x="1583" 
d="M-51 0l12 66q101 16 144.5 61.5t66.5 173.5l141 792q6 36 8.5 57t2.5 34q0 54 -32.5 81t-121.5 44l12 65h555l-10 -65q-100 -16 -144 -61.5t-67 -174.5l-49 -272h688l51 292q5 28 8 52t3 39q0 59 -35.5 88t-116.5 37l12 65h555l-12 -65q-99 -16 -142.5 -61.5
t-66.5 -174.5l-141 -792q-6 -38 -8 -57t-2 -31q0 -56 32.5 -83.5t120.5 -43.5l-12 -66h-557l12 66q100 16 144 61.5t67 173.5l72 406h-688l-74 -426q-6 -35 -8 -54.5t-2 -33.5q0 -60 35.5 -90t115.5 -37l-12 -66h-557z" />
    <glyph glyph-name="I" unicode="I" horiz-adv-x="672" 
d="M-51 0l12 66q101 16 144.5 61.5t66.5 173.5l141 792q6 36 8.5 57t2.5 34q0 54 -32.5 81t-121.5 44l12 65h555l-10 -65q-100 -16 -144 -62t-67 -174l-139 -792q-5 -29 -7.5 -51t-2.5 -37q0 -60 35.5 -90t115.5 -37l-12 -66h-557z" />
    <glyph glyph-name="J" unicode="J" horiz-adv-x="1260" 
d="M885 1094q1 8 4 25q8 49 8 65q0 57 -35.5 84.5t-132.5 40.5l12 65h570l-13 -65q-98 -16 -141.5 -61.5t-66.5 -174.5l-119 -672q-22 -121 -54 -186t-90 -111q-82 -65 -192 -101t-227 -36q-193 0 -312 96.5t-119 249.5q0 97 52.5 165.5t124.5 68.5q43 0 69.5 -25t26.5 -65
q0 -18 -7 -36t-20 -34q-8 -11 -25 -30q-59 -67 -59 -113q0 -76 74 -124t195 -48q147 0 237.5 91t122.5 271z" />
    <glyph glyph-name="K" unicode="K" horiz-adv-x="1419" 
d="M444 674l547 446q47 39 59.5 58.5t12.5 44.5q0 34 -31 56t-90 30l12 65h529l-13 -65q-86 -32 -173 -83.5t-173 -121.5l-297 -244l338 -594q53 -91 115.5 -142t132.5 -58l-12 -66h-576l11 66q75 4 111 22.5t36 52.5q0 17 -7.5 39t-21.5 46l-286 507l-248 -203l-45 -249
q-5 -33 -6.5 -51.5t-1.5 -36.5q0 -60 35.5 -90t115.5 -37l-12 -66h-557l12 66q101 16 144.5 61.5t66.5 173.5l141 792q6 36 8.5 57t2.5 34q0 54 -32.5 81t-121.5 44l12 65h555l-10 -65q-100 -16 -145.5 -63.5t-67.5 -172.5z" />
    <glyph glyph-name="L" unicode="L" horiz-adv-x="1286" 
d="M-51 0l12 66q101 16 144.5 61.5t66.5 173.5l141 792q6 36 8.5 57t2.5 34q0 54 -32.5 81t-121.5 44l12 65h555l-10 -65q-100 -16 -144 -62t-67 -174l-141 -811q-6 -30 -8 -48.5t-2 -33.5q0 -49 47.5 -72.5t144.5 -23.5q151 0 295.5 86.5t282.5 259.5l61 -29l-195 -401
h-1052z" />
    <glyph glyph-name="M" unicode="M" horiz-adv-x="1778" 
d="M276 280q-4 -30 -6 -50t-2 -37q0 -60 35.5 -90t116.5 -37l-12 -66h-461l12 66q100 16 144 61t67 174l139 792l8 47q7 40 7 46q0 51 -34 78.5t-122 44.5l12 65h453l184 -1042l576 1042h434l-12 -65q-99 -16 -142.5 -61.5t-66.5 -174.5l-142 -792q-4 -23 -6 -45.5t-2 -42.5
q0 -60 35 -90t115 -37l-13 -66h-555l13 66q98 16 141 59t68 176l161 920l-680 -1221h-77l-220 1231z" />
    <glyph glyph-name="N" unicode="N" horiz-adv-x="1470" 
d="M1192 1094q4 22 6 45.5t2 44.5q0 59 -35 88t-116 37l12 65h461l-13 -65q-99 -16 -142 -61t-67 -175l-188 -1073h-168l-508 1221l-155 -940q-5 -21 -7 -42.5t-2 -45.5q0 -60 35 -90t115 -37l-12 -66h-461l12 66q101 16 144.5 61.5t66.5 173.5l141 792q6 36 8.5 57t2.5 34
q0 54 -32.5 81t-121.5 44l12 65h422l445 -1089z" />
    <glyph glyph-name="O" unicode="O" horiz-adv-x="1581" 
d="M895 1305q-120 0 -226 -59t-188 -171q-86 -118 -134 -268.5t-48 -302.5q0 -204 103 -321t280 -117q121 0 229.5 59t190.5 170q86 117 132 265t46 308q0 206 -102 321.5t-283 115.5zM72 565q0 171 65.5 325.5t188.5 272.5q123 119 270.5 179.5t312.5 60.5q280 0 439 -162
t159 -446q0 -164 -65 -315t-189 -273q-120 -119 -265.5 -179.5t-311.5 -60.5q-280 0 -442 161t-162 437z" />
    <glyph glyph-name="P" unicode="P" horiz-adv-x="1276" 
d="M442 664q35 -4 67 -5.5t62 -1.5q238 0 362 96.5t124 280.5q0 128 -74.5 186t-239.5 58q-117 0 -161 -32t-64 -148zM172 301l141 792q6 36 8.5 57t2.5 34q0 54 -32.5 81t-121.5 44l12 65h570q261 0 382 -83t121 -261q0 -227 -175.5 -345t-512.5 -118q-56 0 -86 1t-57 3
l-47 -290q-6 -28 -8 -48.5t-2 -39.5q0 -60 35.5 -90t115.5 -37l-12 -66h-557l12 66q101 16 144.5 61.5t66.5 173.5z" />
    <glyph glyph-name="Q" unicode="Q" horiz-adv-x="1581" 
d="M1092 283q93 122 140.5 270t47.5 315q0 206 -102 321.5t-283 115.5q-120 0 -227 -60t-189 -172q-84 -115 -132 -266t-48 -303q0 -168 70 -277t202 -147q-21 24 -32 47.5t-11 44.5q0 71 83.5 119.5t215.5 48.5q60 0 126 -14.5t139 -42.5zM973 166q-63 29 -108.5 42
t-80.5 13q-72 0 -116.5 -21.5t-44.5 -56.5q0 -33 30 -48t97 -15q38 0 90 19.5t133 66.5zM1196 156q23 -38 34 -74t11 -72q0 -177 -181.5 -291t-473.5 -114q-239 0 -401 82t-162 194q0 50 34 82.5t86 32.5q86 0 105 -131l6 -37q8 -54 100.5 -90.5t227.5 -36.5q201 0 341 84
t140 199q0 15 -4.5 32.5t-14.5 38.5q-101 -47 -193.5 -70.5t-178.5 -23.5q-270 0 -434 166t-164 438q0 171 65.5 326t186.5 270q124 120 271 181t312 61q280 0 439 -161.5t159 -444.5q0 -185 -78 -345.5t-233 -295.5z" />
    <glyph glyph-name="R" unicode="R" horiz-adv-x="1434" 
d="M455 744q58 -4 111.5 -5.5t101.5 -1.5q122 0 201 14t130 44q70 41 110 111t40 151q0 120 -83.5 176.5t-260.5 56.5q-163 0 -214 -30.5t-69 -126.5zM373 281q-3 -19 -4.5 -40.5t-1.5 -47.5q0 -60 35.5 -90t115.5 -37l-12 -66h-557l12 66q101 16 144.5 61.5t66.5 173.5
l141 792q6 36 8.5 57t2.5 34q0 54 -32.5 81t-121.5 44l12 65h676q266 0 384 -72.5t118 -232.5q0 -154 -116.5 -265t-311.5 -140l223 -416q50 -95 98 -130.5t129 -51.5l-12 -66h-328l-346 647h-260z" />
    <glyph glyph-name="S" unicode="S" horiz-adv-x="1348" 
d="M219 96l-53 -100h-70l-49 504l80 12q46 -202 180 -321t314 -119q174 0 294.5 87.5t120.5 213.5q0 84 -49 132.5t-207 100.5q-64 22 -184 52q-201 51 -270 102q-63 46 -94 106t-31 135q0 172 152 288t380 116q84 0 167.5 -26t170.5 -79l41 76h64l63 -397l-76 -12
q-56 165 -172.5 254.5t-275.5 89.5q-128 0 -218.5 -74t-90.5 -176q0 -130 285 -208q56 -15 87 -24q161 -46 230.5 -71.5t99.5 -46.5q69 -50 100 -108.5t31 -137.5q0 -73 -26 -142t-76 -126q-96 -112 -224.5 -170t-283.5 -58q-118 0 -218 31t-192 96z" />
    <glyph glyph-name="T" unicode="T" horiz-adv-x="1366" 
d="M1333 1374l56 -391l-70 -10q-44 144 -141.5 230.5t-212.5 86.5q-58 0 -84 -27.5t-41 -111.5l-154 -870q-4 -23 -6 -45.5t-2 -42.5q0 -60 35 -90t114 -37l-12 -66h-555l12 66q100 16 143 61t66 174l150 846q1 9 5.5 34t4.5 38q0 40 -19 55.5t-71 15.5q-105 0 -209 -76
t-219 -237l-60 20l156 377h1114z" />
    <glyph glyph-name="U" unicode="U" horiz-adv-x="1591" 
d="M1663 1374l-12 -65q-100 -15 -144.5 -60.5t-66.5 -171.5l-115 -649q-22 -125 -65 -200t-125 -136q-79 -57 -196.5 -90t-248.5 -33q-126 0 -235 29t-166 76q-61 47 -89 103t-28 130q0 26 3 54t9 61l121 676q7 41 8.5 57.5t1.5 28.5q0 56 -32.5 83t-118.5 42l10 65h557
l-12 -65q-100 -15 -144 -60.5t-67 -171.5l-115 -653q-4 -23 -6 -46t-2 -46q0 -120 91 -186t257 -66q213 0 328 86.5t149 271.5l119 660q6 34 8 53t2 33q0 56 -32.5 83t-118.5 42l10 65h465z" />
    <glyph glyph-name="V" unicode="V" horiz-adv-x="1358" 
d="M465 -31l-244 1143q-20 96 -58 134t-120 63l12 65h549l-10 -65q-92 -22 -127 -51.5t-35 -79.5q0 -17 1.5 -35t4.5 -35l176 -885l480 838q25 44 37 77t12 58q0 39 -37.5 66.5t-116.5 46.5l12 65h506l-12 -65q-95 -29 -155 -74.5t-123 -157.5l-642 -1108h-110z" />
    <glyph glyph-name="W" unicode="W" horiz-adv-x="1864" 
d="M393 -29l-172 1123q-16 109 -49 148.5t-109 66.5l11 67h504l-13 -67q-88 -30 -112.5 -56t-24.5 -77q0 -22 1 -35t3 -24l115 -855l360 770q-9 119 -48 181.5t-122 95.5l13 67h491l-12 -67q-73 -23 -102 -51.5t-29 -75.5q0 -9 2 -28.5t6 -43.5l117 -848l374 789
q24 51 37 87.5t13 55.5q0 42 -31 69t-100 46l12 67h422l-13 -67q-76 -44 -125 -98t-96 -152l-516 -1088h-137l-125 873l-412 -873h-133z" />
    <glyph glyph-name="X" unicode="X" horiz-adv-x="1452" 
d="M-137 0l8 66q81 10 158.5 57t163.5 139l415 447l-225 397l-8 14q-82 148 -219 189l12 65h551l-4 -65q-76 -15 -106.5 -37.5t-30.5 -61.5q0 -18 6.5 -39t19.5 -45l168 -292l272 299q29 32 37.5 50.5t8.5 39.5q0 30 -27 50.5t-84 35.5l10 65h504l-2 -65
q-114 -29 -198 -82.5t-169 -151.5l-297 -342l263 -463l5 -9q96 -172 246 -195l-2 -66h-616l4 65q81 2 123.5 28t42.5 75q0 20 -9.5 47.5t-27.5 58.5l-194 338l-322 -344q-36 -37 -51 -63.5t-15 -50.5q0 -33 30 -56.5t83 -32.5v-65h-524z" />
    <glyph glyph-name="Y" unicode="Y" horiz-adv-x="1274" 
d="M625 281q-5 -31 -7 -51t-2 -37q0 -60 36 -90t116 -37l-12 -66h-557l12 66q100 16 144 61t67 174l49 283l-250 516l-12 24q-68 144 -186 185l10 65h538l-10 -65q-72 -11 -106.5 -36t-34.5 -67q0 -23 20 -65q7 -15 10 -22l197 -421l350 412q28 34 43 64t15 53
q0 30 -30.5 51.5t-86.5 30.5l12 65h477l-8 -65q-92 -25 -169 -80t-197 -199l-375 -448z" />
    <glyph glyph-name="Z" unicode="Z" horiz-adv-x="1319" 
d="M-18 0l-37 74l1097 1208q-52 6 -100 9t-92 3q-213 0 -363 -77.5t-266 -245.5l-63 28l166 375h970l27 -88l-1069 -1169q76 -9 137.5 -14t106.5 -5q213 0 374.5 78.5t294.5 247.5l62 -33l-164 -391h-1081z" />
    <glyph glyph-name="bracketleft" unicode="[" horiz-adv-x="664" 
d="M582 1374l-17 -94h-43q-66 0 -90 -24t-41 -119l-203 -1154q-3 -21 -4.5 -39.5t-1.5 -31.5q0 -39 21 -56.5t67 -17.5h47l-16 -94h-299l287 1630h293z" />
    <glyph glyph-name="backslash" unicode="\" horiz-adv-x="569" 
d="M377 -190l-268 1595h118l269 -1595h-119z" />
    <glyph glyph-name="bracketright" unicode="]" horiz-adv-x="664" 
d="M31 -256l16 94h43q66 0 90 24t41 120l203 1153q1 5 2 13q6 43 6 58q0 39 -21.5 56.5t-68.5 17.5h-45l16 94h297l-286 -1630h-293z" />
    <glyph glyph-name="asciicircum" unicode="^" horiz-adv-x="2048" 
d="M934 1462h178l520 -565h-92l-518 436l-520 -436h-90z" />
    <glyph glyph-name="underscore" unicode="_" 
d="M0 -365h1024v-118h-1024v118z" />
    <glyph glyph-name="grave" unicode="`" 
d="M741 1116h-67l-244 203q-32 26 -43.5 45t-11.5 41q0 28 20 49t47 21q21 0 44 -15.5t42 -42.5z" />
    <glyph glyph-name="a" unicode="a" horiz-adv-x="1298" 
d="M868 791q-56 51 -113 76.5t-116 25.5q-80 0 -149.5 -39.5t-122.5 -116.5q-67 -95 -102.5 -202.5t-35.5 -215.5q0 -110 50 -175.5t133 -65.5q167 0 291.5 191.5t164.5 521.5zM764 200q-97 -113 -192 -166.5t-201 -53.5q-157 0 -250.5 104.5t-93.5 280.5q0 123 45.5 240
t128.5 204q82 88 186.5 137t210.5 49q76 0 146.5 -27.5t142.5 -84.5l18 102h187l-123 -710q-3 -20 -4.5 -36t-1.5 -28q0 -54 25 -85.5t69 -31.5q26 0 61.5 17.5t83.5 54.5l49 -43q-68 -73 -138 -108t-146 -35q-97 0 -148.5 56t-54.5 164z" />
    <glyph glyph-name="b" unicode="b" horiz-adv-x="1247" 
d="M264 1130q6 35 9 61t3 40q0 51 -28 73.5t-101 28.5l9 51q71 5 143 17.5t145 34.5h68l-127 -686q86 121 187 182t216 61q159 0 255 -104.5t96 -278.5q0 -102 -33.5 -201t-97.5 -188q-83 -116 -197.5 -177.5t-247.5 -61.5q-89 0 -163 27t-138 83l-94 -92h-115zM283 199
q44 -64 100 -93.5t129 -29.5q174 0 298 175t124 427q0 100 -51.5 157.5t-141.5 57.5q-172 0 -296.5 -186.5t-161.5 -507.5z" />
    <glyph glyph-name="c" unicode="c" horiz-adv-x="1018" 
d="M895 174q-109 -104 -218.5 -154.5t-227.5 -50.5q-190 0 -306 114.5t-116 299.5q0 102 37.5 203.5t105.5 183.5q95 114 212 174t245 60q145 0 235 -64.5t90 -165.5q0 -45 -30 -76.5t-74 -31.5q-78 0 -87 108q-1 7 -1 10q-8 70 -43.5 106t-95.5 36q-75 0 -140.5 -44.5
t-115.5 -129.5q-56 -94 -85.5 -195t-29.5 -197q0 -139 68.5 -215.5t191.5 -76.5q68 0 146 38t194 132z" />
    <glyph glyph-name="d" unicode="d" horiz-adv-x="1290" 
d="M778 223q-86 -122 -188.5 -184t-216.5 -62q-158 0 -254 106t-96 279q0 102 33 201.5t98 188.5q82 116 196.5 177.5t247.5 61.5q89 0 163.5 -27t137.5 -83l47 249q5 27 7.5 51t2.5 48q0 52 -28 75t-99 29l9 51q75 6 147 19t139 33h66l-209 -1137q-6 -34 -9 -61t-3 -43
q0 -49 23 -75t65 -26q32 0 66.5 14.5t74.5 45.5l35 -52q-69 -58 -139 -88t-138 -30q-86 0 -134 49t-48 139q0 14 4 46v5zM879 774q-49 63 -105.5 93t-126.5 30q-171 0 -295.5 -176t-124.5 -426q0 -100 52 -158.5t141 -58.5q172 0 296.5 187t162.5 509z" />
    <glyph glyph-name="e" unicode="e" horiz-adv-x="1137" 
d="M961 168q-110 -96 -237 -145.5t-263 -49.5q-189 0 -309.5 110t-120.5 282q0 131 60.5 252.5t176.5 220.5q98 82 211.5 125t235.5 43q157 0 250.5 -63.5t93.5 -168.5q0 -147 -203.5 -236.5t-581.5 -107.5q-6 -33 -9 -59t-3 -47q0 -114 70.5 -181t187.5 -67q85 0 179.5 36
t205.5 111zM295 518q269 5 415 74t146 190q0 64 -46 104t-122 40q-133 0 -240 -110.5t-153 -297.5z" />
    <glyph glyph-name="f" unicode="f" horiz-adv-x="702" 
d="M264 918h-172l12 67h170q23 216 139 334.5t304 118.5q106 0 162.5 -31t56.5 -88q0 -37 -25.5 -60.5t-64.5 -23.5q-26 0 -46.5 11.5t-44.5 40.5l-13 17q-39 52 -93 52q-75 0 -114 -72t-68 -299h203l-11 -67h-202l-117 -705q-52 -316 -229 -491t-445 -175
q-98 0 -156.5 34.5t-58.5 90.5q0 40 30.5 69.5t72.5 29.5q36 0 88 -46l24 -20q39 -30 72.5 -43.5t68.5 -13.5q128 0 210.5 137.5t129.5 431.5z" />
    <glyph glyph-name="g" unicode="g" horiz-adv-x="1198" 
d="M881 985h182l-180 -965q-28 -147 -68.5 -223t-114.5 -131q-79 -60 -180 -90.5t-219 -30.5q-154 0 -252 47.5t-98 118.5q0 38 26.5 63t67.5 25q29 0 51.5 -12t55.5 -51q54 -69 92.5 -88t93.5 -19q175 0 263.5 131t111.5 424q-87 -104 -174 -153t-183 -49q-149 0 -239 104
t-90 279q0 103 31 204t89 187q78 116 184 176.5t230 60.5q83 0 151 -26.5t130 -83.5zM823 776q-40 63 -92.5 93t-122.5 30q-161 0 -276 -174.5t-115 -425.5q0 -101 47 -159t127 -58q164 0 280 184.5t152 509.5z" />
    <glyph glyph-name="h" unicode="h" horiz-adv-x="1255" 
d="M55 0l209 1130q2 9 4 23q11 62 11 78q0 50 -29 73t-103 29l11 51q73 5 144 17.5t142 34.5h70l-108 -584q104 72 206 107.5t203 35.5q109 0 170.5 -54t61.5 -150q0 -31 -17 -114l-2 -9l-78 -369q-9 -41 -13.5 -70t-4.5 -47q0 -41 23 -64.5t63 -23.5q29 0 64.5 14.5
t82.5 45.5l33 -52q-71 -59 -136 -88.5t-126 -29.5q-94 0 -146.5 48t-52.5 134q0 15 5 45.5t18 95.5l82 396q5 23 7.5 42.5t2.5 34.5q0 53 -33.5 82t-95.5 29q-72 0 -157.5 -38.5t-180.5 -113.5l-137 -739h-193z" />
    <glyph glyph-name="i" unicode="i" horiz-adv-x="639" 
d="M326 285l-2 -13q-13 -73 -13 -92q0 -49 22.5 -74.5t63.5 -25.5q32 0 68.5 14.5t81.5 44.5l33 -51q-72 -60 -138 -90.5t-127 -30.5q-95 0 -145.5 49.5t-50.5 143.5q0 21 4 53t12 82l70 385q6 32 9 58t3 44q0 51 -29 73.5t-102 29.5l11 51q76 4 147.5 16.5t138.5 32.5h72z
M283 1174q0 58 41 99.5t100 41.5q46 0 75 -30t29 -77q0 -59 -40 -101t-97 -42q-50 0 -79 29t-29 80z" />
    <glyph glyph-name="j" unicode="j" horiz-adv-x="635" 
d="M301 27l-6 -35q-43 -236 -158 -330q-69 -56 -161.5 -86.5t-196.5 -30.5q-123 0 -189.5 30t-66.5 85q0 38 28.5 62t73.5 24q29 0 54 -11.5t53 -37.5q6 -6 16 -17q48 -53 113 -53q98 0 147.5 63t91.5 294l129 692q1 4 3 13q12 69 12 89q0 51 -29.5 74.5t-101.5 30.5l10 51
q75 3 147 16t140 35h69zM303 1174q0 58 40.5 99.5t98.5 41.5q46 0 75.5 -30t29.5 -77q0 -59 -40 -101t-97 -42q-50 0 -78.5 28.5t-28.5 80.5z" />
    <glyph glyph-name="k" unicode="k" horiz-adv-x="1237" 
d="M289 1130q6 38 9 62.5t3 38.5q0 50 -29 73t-102 29l10 51q75 5 146.5 18t140.5 34h72l-193 -1028q160 270 363.5 428.5t384.5 158.5q64 0 100.5 -26.5t36.5 -73.5t-33 -75.5t-86 -28.5q-32 0 -91 20t-87 20q-45 0 -95 -25t-114 -81q65 -353 136 -480.5t190 -127.5
q22 0 50 6t62 18l41 -61q-78 -47 -143 -70.5t-115 -23.5q-158 0 -245 132.5t-142 471.5q-105 -118 -175 -261t-114 -329h-192z" />
    <glyph glyph-name="l" unicode="l" horiz-adv-x="616" 
d="M307 286q-7 -34 -10.5 -62t-3.5 -46q0 -46 22.5 -71t65.5 -25q31 0 67 14t80 43l33 -49q-70 -59 -136 -89t-128 -30q-97 0 -147 48.5t-50 142.5q0 24 4.5 58.5t12.5 74.5l153 835q2 9 4 23q11 62 11 78q0 50 -29 73t-102 29l10 51q79 5 150.5 17.5t136.5 34.5h69z" />
    <glyph glyph-name="m" unicode="m" horiz-adv-x="1937" 
d="M1065 850q129 76 232 110.5t198 34.5q109 0 170 -54t61 -150q0 -31 -16 -114l-2 -9l-78 -369q-9 -42 -13.5 -70.5t-4.5 -46.5q0 -41 23 -64.5t63 -23.5q29 0 64.5 14.5t82.5 45.5l33 -52q-71 -59 -136 -88.5t-126 -29.5q-94 0 -146.5 48t-52.5 134q0 15 5 45.5t18 95.5
l82 396q5 23 7.5 42.5t2.5 34.5q0 53 -33.5 82t-95.5 29q-68 0 -152.5 -35.5t-183.5 -105.5l-139 -750h-193l129 702q5 24 7.5 44.5t2.5 35.5q0 52 -33 80.5t-93 28.5q-73 0 -159.5 -38.5t-180.5 -113.5l-138 -739h-192l127 680q6 35 9 61.5t3 38.5q0 51 -29 73.5t-102 29.5
l11 51q79 5 150 17.5t136 33.5h72l-27 -133q104 72 207 107.5t205 35.5q89 0 144 -35t81 -110z" />
    <glyph glyph-name="n" unicode="n" horiz-adv-x="1280" 
d="M78 0l127 680q6 35 9 61.5t3 38.5q0 51 -29 73.5t-102 29.5l10 51l287 51h72l-27 -133q104 72 206 107.5t204 35.5q109 0 170 -54t61 -150q0 -22 -3.5 -50t-12.5 -73l-80 -369q-8 -36 -12.5 -66t-4.5 -51q0 -41 22.5 -64.5t61.5 -23.5q30 0 67 14.5t83 45.5l33 -52
q-70 -59 -136.5 -88.5t-128.5 -29.5q-93 0 -144.5 47.5t-51.5 134.5q0 19 5 54.5t15 86.5l82 395q5 23 7.5 42.5t2.5 35.5q0 54 -32.5 82.5t-93.5 28.5q-73 0 -159.5 -38.5t-180.5 -113.5l-138 -739h-192z" />
    <glyph glyph-name="o" unicode="o" horiz-adv-x="1135" 
d="M600 918q-159 0 -263 -165t-104 -421q0 -136 56.5 -205.5t167.5 -69.5q161 0 265.5 164t104.5 422q0 134 -58 204.5t-169 70.5zM27 393q0 106 36 206.5t105 186.5q85 107 197 162.5t243 55.5q193 0 309.5 -113.5t116.5 -298.5q0 -110 -35 -212.5t-100 -184.5
q-86 -108 -201.5 -166t-244.5 -58q-196 0 -311 114.5t-115 307.5z" />
    <glyph glyph-name="p" unicode="p" horiz-adv-x="1255" 
d="M299 197q45 -64 100.5 -93.5t128.5 -29.5q174 0 298 175t124 427q0 100 -51.5 158.5t-140.5 58.5q-172 0 -296 -186.5t-163 -509.5zM279 90l-52 -275q-5 -33 -6.5 -51t-1.5 -34q0 -56 33 -85t121 -48l-8 -52h-558l9 52q108 20 152 62t67 165l160 856q6 30 9 57t3 47
q0 47 -27.5 68t-103.5 31l12 51l287 51h67l-41 -235q86 121 187.5 182t216.5 61q158 0 254 -105.5t96 -279.5q0 -102 -33.5 -201t-97.5 -188q-83 -116 -197.5 -177.5t-246.5 -61.5q-89 0 -163.5 27t-137.5 83z" />
    <glyph glyph-name="q" unicode="q" horiz-adv-x="1223" 
d="M883 776q-45 63 -101.5 93t-130.5 30q-174 0 -298 -174.5t-124 -425.5q0 -100 52 -158.5t141 -58.5q172 0 297 186t164 508zM780 225q-86 -121 -187 -182t-216 -61q-158 0 -254 104.5t-96 278.5q0 103 33 203.5t96 187.5q82 116 196.5 177.5t247.5 61.5q88 0 162.5 -27.5
t138.5 -84.5l98 102h109l-215 -1169q-4 -20 -6 -40.5t-2 -45.5q0 -56 33 -85t120 -48l-8 -52h-557l8 52q107 20 150.5 60t68.5 167z" />
    <glyph glyph-name="r" unicode="r" horiz-adv-x="870" 
d="M432 862q78 66 150.5 98.5t140.5 32.5q58 0 91.5 -26t33.5 -72q0 -47 -30 -75.5t-79 -28.5q-31 0 -89 24.5t-91 24.5q-72 0 -112 -54.5t-66 -193.5l-109 -592h-194l127 680q6 35 9 61.5t3 38.5q0 51 -29 73.5t-102 29.5l10 50q76 4 147.5 17t139.5 35h72z" />
    <glyph glyph-name="s" unicode="s" horiz-adv-x="1022" 
d="M893 315q0 -147 -138 -245.5t-352 -98.5q-173 0 -304.5 69.5t-131.5 152.5q0 39 27.5 64.5t68.5 25.5q72 0 135 -94q13 -18 19 -27q39 -55 87.5 -81t111.5 -26q111 0 188.5 55.5t77.5 133.5q0 58 -45.5 97.5t-163.5 78.5q-237 76 -302 136t-65 159q0 127 114.5 211
t291.5 84q185 0 303.5 -56.5t118.5 -138.5q0 -35 -23 -56.5t-61 -21.5q-63 0 -117 73q-13 17 -20 25q-39 44 -91 68.5t-106 24.5q-91 0 -146 -44.5t-55 -117.5q0 -98 305 -196l1 -1q152 -48 212 -105.5t60 -148.5z" />
    <glyph glyph-name="t" unicode="t" horiz-adv-x="743" 
d="M324 281q-6 -31 -8.5 -53t-2.5 -38q0 -62 28 -92t85 -30q41 0 86.5 20t99.5 62l45 -60q-71 -60 -148.5 -89.5t-160.5 -29.5q-113 0 -168 47.5t-55 145.5q0 25 3 54t9 61l117 634h-158l13 72h10q127 0 201.5 83t113.5 269h86l-65 -352h272l-14 -72h-271z" />
    <glyph glyph-name="u" unicode="u" horiz-adv-x="1280" 
d="M78 883l11 51q80 5 152 17.5t136 33.5h69l-129 -699q-1 -6 -3 -17q-9 -50 -9 -70q0 -54 33 -82.5t96 -28.5q76 0 162.5 38t175.5 112l139 747h193l-127 -690l-2 -10q-17 -86 -17 -109q0 -41 23 -64.5t63 -23.5q30 0 65.5 14.5t82.5 44.5l35 -49q-71 -59 -137 -88.5
t-129 -29.5q-81 0 -133 37.5t-74 113.5q-108 -78 -206.5 -114.5t-201.5 -36.5q-111 0 -172 53.5t-61 150.5q0 34 13 110q2 12 3 17l68 369q6 31 9 56t3 44q0 51 -29 73.5t-102 29.5z" />
    <glyph glyph-name="v" unicode="v" horiz-adv-x="1114" 
d="M66 885l8 51q93 9 163 21t125 28h70l-110 -599l-3 -15q-24 -126 -24 -170q0 -61 38.5 -92t112.5 -31q57 0 123 27t121 73q84 71 131 171.5t47 205.5q0 62 -20 109.5t-68 95.5q-41 41 -53 65.5t-12 55.5q0 51 31 83.5t79 32.5q79 0 123.5 -72t44.5 -200
q0 -338 -175.5 -545t-461.5 -207q-125 0 -189.5 57t-64.5 167q0 21 2.5 42t6.5 40l71 403q7 36 10 60.5t3 39.5q0 51 -29 74t-100 29z" />
    <glyph glyph-name="w" unicode="w" horiz-adv-x="1769" 
d="M63 883l9 53q75 6 148 18.5t140 30.5h70l-131 -696q-6 -37 -9 -64.5t-3 -44.5q0 -49 34 -76.5t95 -27.5q72 0 157.5 38t180.5 113l141 758h192l-114 -598q-12 -64 -17.5 -107t-5.5 -73q0 -69 35.5 -100t112.5 -31q55 0 121.5 28t121.5 74q83 71 130 170t47 205
q0 62 -20.5 109.5t-67.5 95.5q-41 38 -53.5 63t-12.5 56q0 50 32 83t81 33q78 0 123 -71.5t45 -198.5q0 -336 -177 -544t-462 -208q-99 0 -160 36t-88 110q-124 -74 -231 -110t-203 -36q-110 0 -171 54.5t-61 150.5q0 21 4 50.5t13 74.5l71 379q6 33 9.5 60.5t3.5 41.5
q0 50 -28 72t-102 29z" />
    <glyph glyph-name="x" unicode="x" horiz-adv-x="1126" 
d="M639 479q75 -225 127 -297.5t123 -72.5q24 0 51.5 9t63.5 29l36 -45q-71 -65 -135 -97t-125 -32q-69 0 -128 48t-91 131l-94 241q-124 -207 -235 -313.5t-203 -106.5q-39 0 -64.5 25.5t-25.5 64.5q0 46 35.5 76.5t91.5 30.5q6 0 16.5 -1t15.5 -1q78 0 145 61t185 260
l-78 216q-26 74 -73 115.5t-123 58.5l14 53q60 6 117 19.5t110 33.5h68l135 -410q122 203 234.5 311.5t199.5 108.5q42 0 68 -25.5t26 -66.5q0 -45 -35.5 -74.5t-91.5 -29.5q-6 0 -16.5 1t-15.5 1q-80 0 -149 -65.5t-179 -256.5z" />
    <glyph glyph-name="y" unicode="y" horiz-adv-x="1200" 
d="M737 127q-104 -72 -206 -107.5t-203 -35.5q-109 0 -170.5 53.5t-61.5 148.5q0 18 3.5 42t15.5 83l69 369q7 36 10 60.5t3 39.5q0 51 -29 73.5t-102 29.5l10 53q75 8 147 20t142 29h69l-131 -707q-5 -23 -7.5 -44.5t-2.5 -36.5q0 -51 33 -79t94 -28q74 0 160.5 38
t179.5 112l139 745h193l-179 -965q-26 -144 -67.5 -221.5t-114.5 -132.5q-81 -61 -173.5 -91t-199.5 -30q-172 0 -275 45.5t-103 118.5q0 38 26.5 64t67.5 26q28 0 50 -12t56 -53q55 -69 93.5 -88t93.5 -19q165 0 254 119.5t116 380.5z" />
    <glyph glyph-name="z" unicode="z" horiz-adv-x="1167" 
d="M1032 979l35 -64l-774 -821q72 -10 134 -15t112 -5q99 0 156.5 19.5t90.5 64.5q10 13 26 44q45 87 118 87q45 0 70.5 -27t25.5 -76q0 -85 -94 -140.5t-244 -55.5q-19 0 -144 6t-231 6q-47 0 -133 -2.5t-117 -3.5l-34 65l775 822q-51 11 -99 16.5t-93 5.5q-88 0 -146 -21
t-89 -65q-10 -13 -26 -44q-44 -87 -118 -87q-44 0 -69 27t-25 76q0 84 93.5 139t244.5 55q15 0 133 -5t224 -5q53 0 174 3q16 1 24 1z" />
    <glyph glyph-name="braceleft" unicode="{" 
d="M846 1516v-51q-142 -2 -194 -55.5t-52 -209.5v-143q0 -226 -61 -308.5t-226 -113.5q165 -31 226 -113.5t61 -308.5v-143q0 -156 51.5 -208.5t194.5 -54.5v-51h-10q-217 0 -298 73.5t-81 272.5v213q0 158 -59 218t-222 73v60q165 15 223 74t58 216v213q0 200 81 273.5
t298 73.5h10z" />
    <glyph glyph-name="bar" unicode="|" 
d="M449 1565h126v-2048h-126v2048z" />
    <glyph glyph-name="braceright" unicode="}" 
d="M178 1516h10q216 0 297.5 -74t81.5 -273v-213q0 -157 58 -216t223 -74v-60q-163 -13 -222 -73t-59 -218v-213q0 -198 -81.5 -272t-297.5 -74h-10v51q143 2 194.5 54.5t51.5 208.5v143q0 226 61 308.5t226 113.5q-165 31 -226 113.5t-61 308.5v143q0 156 -52 209.5
t-194 55.5v51z" />
    <glyph glyph-name="asciitilde" unicode="~" horiz-adv-x="1706" 
d="M1530 758v-131q-101 -72 -197.5 -108t-189.5 -36q-43 0 -90.5 9t-100.5 26q-30 10 -87 31q-202 72 -302 72q-83 0 -173.5 -37.5t-211.5 -122.5v133q105 73 202 109t185 36q56 0 116.5 -12.5t174.5 -52.5q12 -4 35 -13q164 -59 254 -59q85 0 176 36.5t209 119.5z" />
    <glyph glyph-name="Adieresis" unicode="&#xc4;" horiz-adv-x="1346" 
d="M860 608l-115 590l-321 -590h436zM-160 0l13 66q80 23 134.5 67.5t100.5 124.5l629 1116h198l232 -1110l3 -15q30 -144 161 -183l-13 -66h-534l12 66q91 14 126.5 41t35.5 79q0 13 -2 29t-6 37l-51 266h-508l-125 -242q-15 -28 -23 -55t-8 -49q0 -41 34 -65.5t113 -40.5
l-12 -66h-510zM944 1667q0 38 30 67t69 29q40 0 69 -28.5t29 -67.5q0 -44 -28 -72.5t-70 -28.5q-40 0 -69.5 29.5t-29.5 71.5zM570 1667q0 38 29.5 67t68.5 29q40 0 69 -28.5t29 -67.5q0 -44 -27.5 -72.5t-70.5 -28.5q-40 0 -69 29.5t-29 71.5z" />
    <glyph glyph-name="Aring" unicode="&#xc5;" horiz-adv-x="1346" 
d="M674 1681q0 -64 45 -108.5t110 -44.5t109.5 44.5t44.5 108.5q0 66 -44.5 111t-109.5 45q-66 0 -110.5 -45t-44.5 -111zM588 1681q0 102 70 172t171 70t170.5 -70t69.5 -172q0 -101 -69 -170t-171 -69q-101 0 -171 69t-70 170zM860 608l-115 590l-321 -590h436zM-160 0
l13 66q80 23 134.5 67.5t100.5 124.5l629 1116h198l232 -1110l3 -15q30 -144 161 -183l-13 -66h-534l12 66q91 14 126.5 41t35.5 79q0 13 -2 29t-6 37l-51 266h-508l-125 -242q-15 -28 -23 -55t-8 -49q0 -41 34 -65.5t113 -40.5l-12 -66h-510z" />
    <glyph glyph-name="Ccedilla" unicode="&#xc7;" horiz-adv-x="1481" 
d="M1278 420l86 -39q-137 -210 -300 -310t-368 -100q-287 0 -457.5 162t-170.5 432q0 145 49 283t143 258q112 144 270 222.5t336 78.5q109 0 200.5 -31.5t176.5 -97.5l64 96h65l19 -483h-84q-49 201 -156.5 310.5t-255.5 109.5q-110 0 -219 -65t-191 -179
q-84 -117 -132 -262.5t-48 -282.5q0 -199 116 -321.5t302 -122.5q161 0 296 83t259 259zM363 -373l35 80q62 -35 120 -53.5t103 -18.5q63 0 93 22.5t30 70.5q0 41 -30 65.5t-81 24.5q-15 0 -38 -3t-54 -10l62 195h63l-35 -112q17 2 32.5 3.5t31.5 2.5q83 0 131.5 -44
t48.5 -120q0 -82 -59.5 -129t-163.5 -47q-55 0 -124.5 17.5t-164.5 55.5z" />
    <glyph glyph-name="Eacute" unicode="&#xc9;" horiz-adv-x="1425" 
d="M-51 0l12 66q101 16 144.5 61.5t66.5 173.5l141 792q6 36 8.5 57t2.5 34q0 54 -32.5 81t-121.5 44l12 65h1121l79 -407l-82 -13q-79 165 -210 245.5t-318 80.5q-129 0 -179.5 -32.5t-68.5 -131.5l-59 -336h106q143 0 204 49.5t102 182.5h65l-102 -582h-66v27
q0 127 -47.5 174t-183.5 47h-97l-71 -416q-6 -37 -8 -56t-2 -30q0 -48 52.5 -71t164.5 -23q175 0 339 83.5t341 262.5l61 -27l-195 -401h-1179zM713 1517h-72l299 314q19 20 40.5 31.5t39.5 11.5q28 0 49 -21t21 -49q0 -21 -15.5 -40t-54.5 -44z" />
    <glyph glyph-name="Ntilde" unicode="&#xd1;" horiz-adv-x="1470" 
d="M1192 1094q4 22 6 45.5t2 44.5q0 59 -35 88t-116 37l12 65h461l-13 -65q-99 -16 -142 -61t-67 -175l-188 -1073h-168l-508 1221l-155 -940q-5 -21 -7 -42.5t-2 -45.5q0 -60 35 -90t115 -37l-12 -66h-461l12 66q101 16 144.5 61.5t66.5 173.5l141 792q6 36 8.5 57t2.5 34
q0 54 -32.5 81t-121.5 44l12 65h422l445 -1089zM1200 1787q-18 -99 -62.5 -146.5t-117.5 -47.5q-17 0 -32.5 2t-28.5 6l-131 37l-12 3q-40 9 -58 9q-38 0 -61 -19t-31 -56h-49q15 94 58 141t114 47q14 0 30 -3t43 -11l131 -35q21 -5 34 -6.5t24 -1.5q42 0 65.5 19.5
t34.5 61.5h49z" />
    <glyph glyph-name="Odieresis" unicode="&#xd6;" horiz-adv-x="1581" 
d="M895 1305q-120 0 -226 -59t-188 -171q-86 -118 -134 -268.5t-48 -302.5q0 -204 103 -321t280 -117q121 0 229.5 59t190.5 170q86 117 132 265t46 308q0 206 -102 321.5t-283 115.5zM72 565q0 171 65.5 325.5t188.5 272.5q123 119 270.5 179.5t312.5 60.5q280 0 439 -162
t159 -446q0 -164 -65 -315t-189 -273q-120 -119 -265.5 -179.5t-311.5 -60.5q-280 0 -442 161t-162 437zM1093 1667q0 38 30 67t69 29q40 0 69 -28.5t29 -67.5q0 -44 -28 -72.5t-70 -28.5q-40 0 -69.5 29.5t-29.5 71.5zM719 1667q0 38 29.5 67t68.5 29q40 0 69 -28.5
t29 -67.5q0 -44 -27.5 -72.5t-70.5 -28.5q-40 0 -69 29.5t-29 71.5z" />
    <glyph glyph-name="Udieresis" unicode="&#xdc;" horiz-adv-x="1591" 
d="M1663 1374l-12 -65q-100 -15 -144.5 -60.5t-66.5 -171.5l-115 -649q-22 -125 -65 -200t-125 -136q-79 -57 -196.5 -90t-248.5 -33q-126 0 -235 29t-166 76q-61 47 -89 103t-28 130q0 26 3 54t9 61l121 676q7 41 8.5 57.5t1.5 28.5q0 56 -32.5 83t-118.5 42l10 65h557
l-12 -65q-100 -15 -144 -60.5t-67 -171.5l-115 -653q-4 -23 -6 -46t-2 -46q0 -120 91 -186t257 -66q213 0 328 86.5t149 271.5l119 660q6 34 8 53t2 33q0 56 -32.5 83t-118.5 42l10 65h465zM1087 1667q0 38 30 67t69 29q40 0 69 -28.5t29 -67.5q0 -44 -28 -72.5t-70 -28.5
q-40 0 -69.5 29.5t-29.5 71.5zM713 1667q0 38 29.5 67t68.5 29q40 0 69 -28.5t29 -67.5q0 -44 -27.5 -72.5t-70.5 -28.5q-40 0 -69 29.5t-29 71.5z" />
    <glyph glyph-name="aacute" unicode="&#xe1;" horiz-adv-x="1298" 
d="M868 791q-56 51 -113 76.5t-116 25.5q-80 0 -149.5 -39.5t-122.5 -116.5q-67 -95 -102.5 -202.5t-35.5 -215.5q0 -110 50 -175.5t133 -65.5q167 0 291.5 191.5t164.5 521.5zM764 200q-97 -113 -192 -166.5t-201 -53.5q-157 0 -250.5 104.5t-93.5 280.5q0 123 45.5 240
t128.5 204q82 88 186.5 137t210.5 49q76 0 146.5 -27.5t142.5 -84.5l18 102h187l-123 -710q-3 -20 -4.5 -36t-1.5 -28q0 -54 25 -85.5t69 -31.5q26 0 61.5 17.5t83.5 54.5l49 -43q-68 -73 -138 -108t-146 -35q-97 0 -148.5 56t-54.5 164zM637 1116h-72l299 314
q19 20 40.5 31.5t39.5 11.5q28 0 49 -21t21 -49q0 -21 -15.5 -40t-54.5 -44z" />
    <glyph glyph-name="agrave" unicode="&#xe0;" horiz-adv-x="1298" 
d="M868 791q-56 51 -113 76.5t-116 25.5q-80 0 -149.5 -39.5t-122.5 -116.5q-67 -95 -102.5 -202.5t-35.5 -215.5q0 -110 50 -175.5t133 -65.5q167 0 291.5 191.5t164.5 521.5zM764 200q-97 -113 -192 -166.5t-201 -53.5q-157 0 -250.5 104.5t-93.5 280.5q0 123 45.5 240
t128.5 204q82 88 186.5 137t210.5 49q76 0 146.5 -27.5t142.5 -84.5l18 102h187l-123 -710q-3 -20 -4.5 -36t-1.5 -28q0 -54 25 -85.5t69 -31.5q26 0 61.5 17.5t83.5 54.5l49 -43q-68 -73 -138 -108t-146 -35q-97 0 -148.5 56t-54.5 164zM878 1116h-67l-244 203
q-32 26 -43.5 45t-11.5 41q0 28 20 49t47 21q21 0 44 -15.5t42 -42.5z" />
    <glyph glyph-name="acircumflex" unicode="&#xe2;" horiz-adv-x="1298" 
d="M868 791q-56 51 -113 76.5t-116 25.5q-80 0 -149.5 -39.5t-122.5 -116.5q-67 -95 -102.5 -202.5t-35.5 -215.5q0 -110 50 -175.5t133 -65.5q167 0 291.5 191.5t164.5 521.5zM764 200q-97 -113 -192 -166.5t-201 -53.5q-157 0 -250.5 104.5t-93.5 280.5q0 123 45.5 240
t128.5 204q82 88 186.5 137t210.5 49q76 0 146.5 -27.5t142.5 -84.5l18 102h187l-123 -710q-3 -20 -4.5 -36t-1.5 -28q0 -54 25 -85.5t69 -31.5q26 0 61.5 17.5t83.5 54.5l49 -43q-68 -73 -138 -108t-146 -35q-97 0 -148.5 56t-54.5 164zM995 1116h-55l-176 207l-277 -207
h-67l309 348h104z" />
    <glyph glyph-name="adieresis" unicode="&#xe4;" horiz-adv-x="1298" 
d="M868 791q-56 51 -113 76.5t-116 25.5q-80 0 -149.5 -39.5t-122.5 -116.5q-67 -95 -102.5 -202.5t-35.5 -215.5q0 -110 50 -175.5t133 -65.5q167 0 291.5 191.5t164.5 521.5zM764 200q-97 -113 -192 -166.5t-201 -53.5q-157 0 -250.5 104.5t-93.5 280.5q0 123 45.5 240
t128.5 204q82 88 186.5 137t210.5 49q76 0 146.5 -27.5t142.5 -84.5l18 102h187l-123 -710q-3 -20 -4.5 -36t-1.5 -28q0 -54 25 -85.5t69 -31.5q26 0 61.5 17.5t83.5 54.5l49 -43q-68 -73 -138 -108t-146 -35q-97 0 -148.5 56t-54.5 164zM837 1266q0 38 30 67t69 29
q40 0 69 -28.5t29 -67.5q0 -44 -28 -72.5t-70 -28.5q-40 0 -69.5 29.5t-29.5 71.5zM463 1266q0 38 29.5 67t68.5 29q40 0 69 -28.5t29 -67.5q0 -44 -27.5 -72.5t-70.5 -28.5q-40 0 -69 29.5t-29 71.5z" />
    <glyph glyph-name="atilde" unicode="&#xe3;" horiz-adv-x="1298" 
d="M868 791q-56 51 -113 76.5t-116 25.5q-80 0 -149.5 -39.5t-122.5 -116.5q-67 -95 -102.5 -202.5t-35.5 -215.5q0 -110 50 -175.5t133 -65.5q167 0 291.5 191.5t164.5 521.5zM764 200q-97 -113 -192 -166.5t-201 -53.5q-157 0 -250.5 104.5t-93.5 280.5q0 123 45.5 240
t128.5 204q82 88 186.5 137t210.5 49q76 0 146.5 -27.5t142.5 -84.5l18 102h187l-123 -710q-3 -20 -4.5 -36t-1.5 -28q0 -54 25 -85.5t69 -31.5q26 0 61.5 17.5t83.5 54.5l49 -43q-68 -73 -138 -108t-146 -35q-97 0 -148.5 56t-54.5 164zM1044 1386q-18 -99 -62.5 -146.5
t-117.5 -47.5q-17 0 -32.5 2t-28.5 6l-131 37l-12 3q-40 9 -58 9q-38 0 -61 -19t-31 -56h-49q15 94 58 141t114 47q14 0 30 -3t43 -11l131 -35q21 -5 34 -6.5t24 -1.5q42 0 65.5 19.5t34.5 61.5h49z" />
    <glyph glyph-name="aring" unicode="&#xe5;" horiz-adv-x="1298" 
d="M528 1309q0 -65 45 -109.5t111 -44.5q65 0 109.5 44.5t44.5 109.5t-44.5 110t-109.5 45q-66 0 -111 -44.5t-45 -110.5zM442 1309q0 101 70.5 171t171.5 70t170.5 -70t69.5 -171q0 -102 -69.5 -171t-170.5 -69q-102 0 -172 69.5t-70 170.5zM868 791q-56 51 -113 76.5
t-116 25.5q-80 0 -149.5 -39.5t-122.5 -116.5q-67 -95 -102.5 -202.5t-35.5 -215.5q0 -110 50 -175.5t133 -65.5q167 0 291.5 191.5t164.5 521.5zM764 200q-97 -113 -192 -166.5t-201 -53.5q-157 0 -250.5 104.5t-93.5 280.5q0 123 45.5 240t128.5 204q82 88 186.5 137
t210.5 49q76 0 146.5 -27.5t142.5 -84.5l18 102h187l-123 -710q-3 -20 -4.5 -36t-1.5 -28q0 -54 25 -85.5t69 -31.5q26 0 61.5 17.5t83.5 54.5l49 -43q-68 -73 -138 -108t-146 -35q-97 0 -148.5 56t-54.5 164z" />
    <glyph glyph-name="ccedilla" unicode="&#xe7;" horiz-adv-x="1018" 
d="M895 174q-109 -104 -218.5 -154.5t-227.5 -50.5q-190 0 -306 114.5t-116 299.5q0 102 37.5 203.5t105.5 183.5q95 114 212 174t245 60q145 0 235 -64.5t90 -165.5q0 -45 -30 -76.5t-74 -31.5q-78 0 -87 108q-1 7 -1 10q-8 70 -43.5 106t-95.5 36q-75 0 -140.5 -44.5
t-115.5 -129.5q-56 -94 -85.5 -195t-29.5 -197q0 -139 68.5 -215.5t191.5 -76.5q68 0 146 38t194 132zM148 -373l35 80q62 -35 120 -53.5t103 -18.5q63 0 93 22.5t30 70.5q0 41 -30 65.5t-81 24.5q-15 0 -38 -3t-54 -10l62 195h63l-35 -112q17 2 32.5 3.5t31.5 2.5
q83 0 131.5 -44t48.5 -120q0 -82 -59.5 -129t-163.5 -47q-55 0 -124.5 17.5t-164.5 55.5z" />
    <glyph glyph-name="eacute" unicode="&#xe9;" horiz-adv-x="1137" 
d="M961 168q-110 -96 -237 -145.5t-263 -49.5q-189 0 -309.5 110t-120.5 282q0 131 60.5 252.5t176.5 220.5q98 82 211.5 125t235.5 43q157 0 250.5 -63.5t93.5 -168.5q0 -147 -203.5 -236.5t-581.5 -107.5q-6 -33 -9 -59t-3 -47q0 -114 70.5 -181t187.5 -67q85 0 179.5 36
t205.5 111zM295 518q269 5 415 74t146 190q0 64 -46 104t-122 40q-133 0 -240 -110.5t-153 -297.5zM598 1116h-72l299 314q19 20 40.5 31.5t39.5 11.5q28 0 49 -21t21 -49q0 -21 -15.5 -40t-54.5 -44z" />
    <glyph glyph-name="egrave" unicode="&#xe8;" horiz-adv-x="1137" 
d="M961 168q-110 -96 -237 -145.5t-263 -49.5q-189 0 -309.5 110t-120.5 282q0 131 60.5 252.5t176.5 220.5q98 82 211.5 125t235.5 43q157 0 250.5 -63.5t93.5 -168.5q0 -147 -203.5 -236.5t-581.5 -107.5q-6 -33 -9 -59t-3 -47q0 -114 70.5 -181t187.5 -67q85 0 179.5 36
t205.5 111zM295 518q269 5 415 74t146 190q0 64 -46 104t-122 40q-133 0 -240 -110.5t-153 -297.5zM839 1116h-67l-244 203q-32 26 -43.5 45t-11.5 41q0 28 20 49t47 21q21 0 44 -15.5t42 -42.5z" />
    <glyph glyph-name="ecircumflex" unicode="&#xea;" horiz-adv-x="1137" 
d="M961 168q-110 -96 -237 -145.5t-263 -49.5q-189 0 -309.5 110t-120.5 282q0 131 60.5 252.5t176.5 220.5q98 82 211.5 125t235.5 43q157 0 250.5 -63.5t93.5 -168.5q0 -147 -203.5 -236.5t-581.5 -107.5q-6 -33 -9 -59t-3 -47q0 -114 70.5 -181t187.5 -67q85 0 179.5 36
t205.5 111zM295 518q269 5 415 74t146 190q0 64 -46 104t-122 40q-133 0 -240 -110.5t-153 -297.5zM956 1116h-55l-176 207l-277 -207h-67l309 348h104z" />
    <glyph glyph-name="edieresis" unicode="&#xeb;" horiz-adv-x="1137" 
d="M961 168q-110 -96 -237 -145.5t-263 -49.5q-189 0 -309.5 110t-120.5 282q0 131 60.5 252.5t176.5 220.5q98 82 211.5 125t235.5 43q157 0 250.5 -63.5t93.5 -168.5q0 -147 -203.5 -236.5t-581.5 -107.5q-6 -33 -9 -59t-3 -47q0 -114 70.5 -181t187.5 -67q85 0 179.5 36
t205.5 111zM295 518q269 5 415 74t146 190q0 64 -46 104t-122 40q-133 0 -240 -110.5t-153 -297.5zM798 1266q0 38 30 67t69 29q40 0 69 -28.5t29 -67.5q0 -44 -28 -72.5t-70 -28.5q-40 0 -69.5 29.5t-29.5 71.5zM424 1266q0 38 29.5 67t68.5 29q40 0 69 -28.5t29 -67.5
q0 -44 -27.5 -72.5t-70.5 -28.5q-40 0 -69 29.5t-29 71.5z" />
    <glyph glyph-name="iacute" unicode="&#xed;" horiz-adv-x="639" 
d="M205 680q6 30 9 56t3 46q0 51 -29 73.5t-102 29.5l11 51q76 4 147.5 16.5t138.5 32.5h72l-129 -688q-1 -4 -3 -14q-12 -68 -12 -88q0 -49 23.5 -76t64.5 -27q31 0 67 14.5t81 45.5l35 -52q-70 -59 -137 -88.5t-130 -29.5q-96 0 -146 48.5t-50 141.5q0 26 4 60.5t12 74.5z
M256 1116h-72l299 314q19 20 40.5 31.5t39.5 11.5q28 0 49 -21t21 -49q0 -21 -15.5 -40t-54.5 -44z" />
    <glyph glyph-name="igrave" unicode="&#xec;" horiz-adv-x="639" 
d="M205 680q6 30 9 56t3 46q0 51 -29 73.5t-102 29.5l11 51q76 4 147.5 16.5t138.5 32.5h72l-129 -688q-1 -4 -3 -14q-12 -68 -12 -88q0 -49 23.5 -76t64.5 -27q31 0 67 14.5t81 45.5l35 -52q-70 -59 -137 -88.5t-130 -29.5q-96 0 -146 48.5t-50 141.5q0 26 4 60.5t12 74.5z
M497 1116h-67l-244 203q-32 26 -43.5 45t-11.5 41q0 28 20 49t47 21q21 0 44 -15.5t42 -42.5z" />
    <glyph glyph-name="icircumflex" unicode="&#xee;" horiz-adv-x="639" 
d="M205 680q6 30 9 56t3 46q0 51 -29 73.5t-102 29.5l11 51q76 4 147.5 16.5t138.5 32.5h72l-129 -688q-1 -4 -3 -14q-12 -68 -12 -88q0 -49 23.5 -76t64.5 -27q31 0 67 14.5t81 45.5l35 -52q-70 -59 -137 -88.5t-130 -29.5q-96 0 -146 48.5t-50 141.5q0 26 4 60.5t12 74.5z
M614 1116h-55l-176 207l-277 -207h-67l309 348h104z" />
    <glyph glyph-name="idieresis" unicode="&#xef;" horiz-adv-x="639" 
d="M205 680q6 30 9 56t3 46q0 51 -29 73.5t-102 29.5l11 51q76 4 147.5 16.5t138.5 32.5h72l-129 -688q-1 -4 -3 -14q-12 -68 -12 -88q0 -49 23.5 -76t64.5 -27q31 0 67 14.5t81 45.5l35 -52q-70 -59 -137 -88.5t-130 -29.5q-96 0 -146 48.5t-50 141.5q0 26 4 60.5t12 74.5z
M456 1266q0 38 30 67t69 29q40 0 69 -28.5t29 -67.5q0 -44 -28 -72.5t-70 -28.5q-40 0 -69.5 29.5t-29.5 71.5zM82 1266q0 38 29.5 67t68.5 29q40 0 69 -28.5t29 -67.5q0 -44 -27.5 -72.5t-70.5 -28.5q-40 0 -69 29.5t-29 71.5z" />
    <glyph glyph-name="ntilde" unicode="&#xf1;" horiz-adv-x="1280" 
d="M78 0l127 680q6 35 9 61.5t3 38.5q0 51 -29 73.5t-102 29.5l10 51l287 51h72l-27 -133q104 72 206 107.5t204 35.5q109 0 170 -54t61 -150q0 -22 -3.5 -50t-12.5 -73l-80 -369q-8 -36 -12.5 -66t-4.5 -51q0 -41 22.5 -64.5t61.5 -23.5q30 0 67 14.5t83 45.5l33 -52
q-70 -59 -136.5 -88.5t-128.5 -29.5q-93 0 -144.5 47.5t-51.5 134.5q0 19 5 54.5t15 86.5l82 395q5 23 7.5 42.5t2.5 35.5q0 54 -32.5 82.5t-93.5 28.5q-73 0 -159.5 -38.5t-180.5 -113.5l-138 -739h-192zM1003 1386q-18 -99 -62.5 -146.5t-117.5 -47.5q-17 0 -32.5 2
t-28.5 6l-131 37l-12 3q-40 9 -58 9q-38 0 -61 -19t-31 -56h-49q15 94 58 141t114 47q14 0 30 -3t43 -11l131 -35q21 -5 34 -6.5t24 -1.5q42 0 65.5 19.5t34.5 61.5h49z" />
    <glyph glyph-name="oacute" unicode="&#xf3;" horiz-adv-x="1135" 
d="M600 918q-159 0 -263 -165t-104 -421q0 -136 56.5 -205.5t167.5 -69.5q161 0 265.5 164t104.5 422q0 134 -58 204.5t-169 70.5zM27 393q0 106 36 206.5t105 186.5q85 107 197 162.5t243 55.5q193 0 309.5 -113.5t116.5 -298.5q0 -110 -35 -212.5t-100 -184.5
q-86 -108 -201.5 -166t-244.5 -58q-196 0 -311 114.5t-115 307.5zM568 1116h-72l299 314q19 20 40.5 31.5t39.5 11.5q28 0 49 -21t21 -49q0 -21 -15.5 -40t-54.5 -44z" />
    <glyph glyph-name="ograve" unicode="&#xf2;" horiz-adv-x="1135" 
d="M600 918q-159 0 -263 -165t-104 -421q0 -136 56.5 -205.5t167.5 -69.5q161 0 265.5 164t104.5 422q0 134 -58 204.5t-169 70.5zM27 393q0 106 36 206.5t105 186.5q85 107 197 162.5t243 55.5q193 0 309.5 -113.5t116.5 -298.5q0 -110 -35 -212.5t-100 -184.5
q-86 -108 -201.5 -166t-244.5 -58q-196 0 -311 114.5t-115 307.5zM809 1116h-67l-244 203q-32 26 -43.5 45t-11.5 41q0 28 20 49t47 21q21 0 44 -15.5t42 -42.5z" />
    <glyph glyph-name="ocircumflex" unicode="&#xf4;" horiz-adv-x="1135" 
d="M600 918q-159 0 -263 -165t-104 -421q0 -136 56.5 -205.5t167.5 -69.5q161 0 265.5 164t104.5 422q0 134 -58 204.5t-169 70.5zM27 393q0 106 36 206.5t105 186.5q85 107 197 162.5t243 55.5q193 0 309.5 -113.5t116.5 -298.5q0 -110 -35 -212.5t-100 -184.5
q-86 -108 -201.5 -166t-244.5 -58q-196 0 -311 114.5t-115 307.5zM926 1116h-55l-176 207l-277 -207h-67l309 348h104z" />
    <glyph glyph-name="odieresis" unicode="&#xf6;" horiz-adv-x="1135" 
d="M600 918q-159 0 -263 -165t-104 -421q0 -136 56.5 -205.5t167.5 -69.5q161 0 265.5 164t104.5 422q0 134 -58 204.5t-169 70.5zM27 393q0 106 36 206.5t105 186.5q85 107 197 162.5t243 55.5q193 0 309.5 -113.5t116.5 -298.5q0 -110 -35 -212.5t-100 -184.5
q-86 -108 -201.5 -166t-244.5 -58q-196 0 -311 114.5t-115 307.5zM768 1266q0 38 30 67t69 29q40 0 69 -28.5t29 -67.5q0 -44 -28 -72.5t-70 -28.5q-40 0 -69.5 29.5t-29.5 71.5zM394 1266q0 38 29.5 67t68.5 29q40 0 69 -28.5t29 -67.5q0 -44 -27.5 -72.5t-70.5 -28.5
q-40 0 -69 29.5t-29 71.5z" />
    <glyph glyph-name="otilde" unicode="&#xf5;" horiz-adv-x="1135" 
d="M600 918q-159 0 -263 -165t-104 -421q0 -136 56.5 -205.5t167.5 -69.5q161 0 265.5 164t104.5 422q0 134 -58 204.5t-169 70.5zM27 393q0 106 36 206.5t105 186.5q85 107 197 162.5t243 55.5q193 0 309.5 -113.5t116.5 -298.5q0 -110 -35 -212.5t-100 -184.5
q-86 -108 -201.5 -166t-244.5 -58q-196 0 -311 114.5t-115 307.5zM975 1386q-18 -99 -62.5 -146.5t-117.5 -47.5q-17 0 -32.5 2t-28.5 6l-131 37l-12 3q-40 9 -58 9q-38 0 -61 -19t-31 -56h-49q15 94 58 141t114 47q14 0 30 -3t43 -11l131 -35q21 -5 34 -6.5t24 -1.5
q42 0 65.5 19.5t34.5 61.5h49z" />
    <glyph glyph-name="uacute" unicode="&#xfa;" horiz-adv-x="1280" 
d="M78 883l11 51q80 5 152 17.5t136 33.5h69l-129 -699q-1 -6 -3 -17q-9 -50 -9 -70q0 -54 33 -82.5t96 -28.5q76 0 162.5 38t175.5 112l139 747h193l-127 -690l-2 -10q-17 -86 -17 -109q0 -41 23 -64.5t63 -23.5q30 0 65.5 14.5t82.5 44.5l35 -49q-71 -59 -137 -88.5
t-129 -29.5q-81 0 -133 37.5t-74 113.5q-108 -78 -206.5 -114.5t-201.5 -36.5q-111 0 -172 53.5t-61 150.5q0 34 13 110q2 12 3 17l68 369q6 31 9 56t3 44q0 51 -29 73.5t-102 29.5zM596 1116h-72l299 314q19 20 40.5 31.5t39.5 11.5q28 0 49 -21t21 -49q0 -21 -15.5 -40
t-54.5 -44z" />
    <glyph glyph-name="ugrave" unicode="&#xf9;" horiz-adv-x="1280" 
d="M78 883l11 51q80 5 152 17.5t136 33.5h69l-129 -699q-1 -6 -3 -17q-9 -50 -9 -70q0 -54 33 -82.5t96 -28.5q76 0 162.5 38t175.5 112l139 747h193l-127 -690l-2 -10q-17 -86 -17 -109q0 -41 23 -64.5t63 -23.5q30 0 65.5 14.5t82.5 44.5l35 -49q-71 -59 -137 -88.5
t-129 -29.5q-81 0 -133 37.5t-74 113.5q-108 -78 -206.5 -114.5t-201.5 -36.5q-111 0 -172 53.5t-61 150.5q0 34 13 110q2 12 3 17l68 369q6 31 9 56t3 44q0 51 -29 73.5t-102 29.5zM837 1116h-67l-244 203q-32 26 -43.5 45t-11.5 41q0 28 20 49t47 21q21 0 44 -15.5
t42 -42.5z" />
    <glyph glyph-name="ucircumflex" unicode="&#xfb;" horiz-adv-x="1280" 
d="M78 883l11 51q80 5 152 17.5t136 33.5h69l-129 -699q-1 -6 -3 -17q-9 -50 -9 -70q0 -54 33 -82.5t96 -28.5q76 0 162.5 38t175.5 112l139 747h193l-127 -690l-2 -10q-17 -86 -17 -109q0 -41 23 -64.5t63 -23.5q30 0 65.5 14.5t82.5 44.5l35 -49q-71 -59 -137 -88.5
t-129 -29.5q-81 0 -133 37.5t-74 113.5q-108 -78 -206.5 -114.5t-201.5 -36.5q-111 0 -172 53.5t-61 150.5q0 34 13 110q2 12 3 17l68 369q6 31 9 56t3 44q0 51 -29 73.5t-102 29.5zM954 1116h-55l-176 207l-277 -207h-67l309 348h104z" />
    <glyph glyph-name="udieresis" unicode="&#xfc;" horiz-adv-x="1280" 
d="M78 883l11 51q80 5 152 17.5t136 33.5h69l-129 -699q-1 -6 -3 -17q-9 -50 -9 -70q0 -54 33 -82.5t96 -28.5q76 0 162.5 38t175.5 112l139 747h193l-127 -690l-2 -10q-17 -86 -17 -109q0 -41 23 -64.5t63 -23.5q30 0 65.5 14.5t82.5 44.5l35 -49q-71 -59 -137 -88.5
t-129 -29.5q-81 0 -133 37.5t-74 113.5q-108 -78 -206.5 -114.5t-201.5 -36.5q-111 0 -172 53.5t-61 150.5q0 34 13 110q2 12 3 17l68 369q6 31 9 56t3 44q0 51 -29 73.5t-102 29.5zM796 1266q0 38 30 67t69 29q40 0 69 -28.5t29 -67.5q0 -44 -28 -72.5t-70 -28.5
q-40 0 -69.5 29.5t-29.5 71.5zM422 1266q0 38 29.5 67t68.5 29q40 0 69 -28.5t29 -67.5q0 -44 -27.5 -72.5t-70.5 -28.5q-40 0 -69 29.5t-29 71.5z" />
    <glyph glyph-name="dagger" unicode="&#x2020;" 
d="M358 -18q25 182 33 262t8 127q0 65 -11 125.5t-34 119.5q44 41 79.5 87t62.5 96q-34 -9 -92 -27q-113 -35 -156 -35q-52 0 -80.5 27t-28.5 76q0 45 28 70.5t77 25.5q55 0 250 -59l16 -4q0 126 -11.5 253l-11.5 127q0 74 37 113t105 39q58 0 91.5 -28t33.5 -77
q0 -34 -67 -172t-101 -254l75 23q125 39 173 39q52 0 80 -25.5t28 -72.5q0 -48 -30.5 -74.5t-86.5 -26.5q-41 0 -125 26.5t-127 35.5q11 -50 31 -95t49 -88q-83 -114 -137 -268t-86 -366h-72z" />
    <glyph glyph-name="degree" unicode="&#xb0;" horiz-adv-x="674" 
d="M338 1372q-84 0 -143.5 -58.5t-59.5 -142.5t59.5 -143t143.5 -59t142.5 59t58.5 143t-58.5 142.5t-142.5 58.5zM338 1454q117 0 200 -83t83 -200q0 -116 -83.5 -199t-201.5 -83t-199.5 82t-81.5 200q0 119 82.5 201t200.5 82z" />
    <glyph glyph-name="cent" unicode="&#xa2;" horiz-adv-x="1247" 
d="M563 358l148 756q-127 -17 -214 -167t-87 -355q0 -87 37.5 -144t115.5 -90zM487 -39l54 281q-164 29 -250 126t-86 253q0 239 147 405t377 184l45 226h82l-45 -230q131 -14 213 -81t82 -156q0 -68 -35 -106t-98 -38q-46 0 -72.5 24t-26.5 64q0 19 10.5 50t10.5 45
q0 34 -27.5 60t-76.5 38l-148 -764h6q84 0 160.5 41.5t151.5 126.5l61 -51q-79 -104 -177.5 -159t-221.5 -64l-54 -275h-82z" />
    <glyph glyph-name="sterling" unicode="&#xa3;" horiz-adv-x="1247" 
d="M358 215q-53 28 -97.5 41.5t-80.5 13.5q-68 0 -108.5 -29.5t-40.5 -78.5q0 -40 28 -63t76 -23q65 0 123.5 36t99.5 103zM465 154q-86 -89 -176 -134t-183 -45q-87 0 -139.5 45.5t-52.5 120.5q0 99 76 163.5t192 64.5q47 0 100 -11t113 -32q8 28 11.5 52.5t3.5 47.5
q0 55 -34 271l-6 34h-247l24 98l215 1q-1 9 -1.5 18.5t-0.5 30.5q0 226 152.5 373t386.5 147q165 0 266 -75.5t101 -197.5q0 -80 -42.5 -135t-103.5 -55q-36 0 -62 21.5t-26 50.5q0 47 36 95.5t36 63.5q0 62 -60 103t-153 41q-140 0 -230 -103t-90 -264q0 -22 2.5 -51.5
t6.5 -63.5h323l-22 -98h-287q11 -66 16.5 -124t5.5 -103q0 -74 -18 -131t-57 -107q110 -54 180 -78t117 -24q73 0 120.5 37t47.5 94q0 35 -24.5 56.5t-63.5 21.5q-24 0 -51.5 -7t-59.5 -22l-27 64q52 26 96.5 38.5t84.5 12.5q83 0 130.5 -46t47.5 -128q0 -128 -88 -214.5
t-220 -86.5q-74 0 -152.5 35t-213.5 135z" />
    <glyph glyph-name="section" unicode="&#xa7;" 
d="M670 494q49 36 71.5 70t22.5 71q0 97 -266 218l-103 48q-64 -25 -95.5 -59.5t-31.5 -79.5q0 -102 278 -217zM745 446q42 -29 62 -68.5t20 -92.5q0 -141 -119 -229.5t-315 -88.5q-172 0 -280.5 75.5t-108.5 190.5q0 48 25.5 76.5t68.5 28.5q55 0 77 -33t22 -137
q0 -46 57.5 -78.5t146.5 -32.5q120 0 191.5 44.5t71.5 117.5q0 93 -166 157q-32 12 -49 19q-217 86 -281 148.5t-64 158.5q0 80 47.5 136.5t163.5 111.5q-37 36 -56 77t-19 85q0 128 111 211.5t284 83.5q150 0 256 -73.5t106 -170.5q0 -47 -26.5 -74.5t-71.5 -27.5
q-44 0 -67 23.5t-23 68.5v41q0 61 -50 96t-138 35q-91 0 -154.5 -44.5t-63.5 -106.5q0 -90 216 -188l61 -28q142 -65 195 -123t53 -141q0 -71 -43.5 -129.5t-139.5 -118.5z" />
    <glyph glyph-name="bullet" unicode="&#x2022;" horiz-adv-x="1208" 
d="M307 762q0 123 87 209t210 86q122 0 208.5 -86.5t86.5 -208.5t-87.5 -209.5t-209.5 -87.5q-123 0 -209 87t-86 210z" />
    <glyph glyph-name="paragraph" unicode="&#xb6;" 
d="M948 1479v-78h-125v-1401h-94v1401h-182v-1401h-96v782q-173 8 -274 102.5t-101 245.5q0 157 107.5 253t285.5 96h479z" />
    <glyph glyph-name="germandbls" unicode="&#xdf;" horiz-adv-x="1350" 
d="M272 924h-116l12 61h117q49 217 200.5 334t382.5 117q146 0 237 -69t91 -177q0 -74 -34 -124t-134 -108q-32 -18 -88 -42q-76 -32 -76 -58q0 -30 89 -73q27 -13 42 -21q123 -62 177.5 -134.5t54.5 -170.5q0 -87 -47.5 -172t-137.5 -160t-199 -115.5t-222 -40.5
q-64 0 -128.5 10t-130.5 29l48 107q58 -19 110 -28t98 -9q170 0 285 102.5t115 249.5q0 85 -61.5 146t-229.5 135l-5 2q-122 54 -122 114q0 62 158 125l41 17q124 51 173.5 101t49.5 120q0 67 -45.5 106t-122.5 39q-158 0 -257 -115.5t-142 -351.5l-121 -657
q-59 -323 -232.5 -494.5t-441.5 -171.5q-98 0 -155.5 34.5t-57.5 90.5q0 40 30.5 69.5t71.5 29.5q36 0 86 -45q16 -14 25 -21q39 -30 72.5 -43.5t68.5 -13.5q126 0 208.5 136t135.5 433z" />
    <glyph glyph-name="registered" unicode="&#xae;" horiz-adv-x="1683" 
d="M729 719q16 -1 32 -1.5t34 -0.5q112 0 173.5 45.5t61.5 128.5q0 73 -53 117.5t-143 44.5q-52 0 -78.5 -18.5t-26.5 -53.5v-262zM469 1092h393q147 0 232.5 -54.5t85.5 -146.5q0 -76 -69.5 -124t-217.5 -75q93 -29 142 -77.5t71 -133.5q6 -22 11 -63q13 -88 59 -88
q32 0 49.5 34t17.5 99h43v-12q0 -88 -40.5 -133.5t-119.5 -45.5q-46 0 -78.5 17t-48.5 49q-18 40 -21 113.5t-9 95.5q-20 68 -70.5 100.5t-136.5 32.5h-33v-248q0 -54 26.5 -75.5t98.5 -25.5v-40h-385v40q72 3 99.5 24.5t27.5 76.5v516q0 55 -26 76t-101 25v43zM844 1303
q-122 0 -236 -48t-202 -137t-134.5 -202.5t-46.5 -237.5q0 -127 46.5 -239t136.5 -201q88 -89 198.5 -135t235.5 -46q126 0 236.5 46t197.5 135q88 90 135 203t47 237t-47.5 241.5t-132.5 200.5q-86 87 -200.5 135t-233.5 48zM844 1382q138 0 268.5 -54t228.5 -152
q97 -97 150 -228t53 -272q0 -137 -55.5 -267.5t-157.5 -232.5q-99 -99 -224.5 -150t-270.5 -51q-137 0 -263 52.5t-227 152.5t-154 227t-53 271q0 140 53 268.5t152 229.5q98 99 228 152.5t272 53.5z" />
    <glyph glyph-name="copyright" unicode="&#xa9;" horiz-adv-x="1683" 
d="M1120 1096h35l2 -314h-41q-34 137 -104 206t-176 69q-123 0 -185.5 -94.5t-62.5 -278.5q0 -189 67 -285t199 -96q86 0 156 43t127 131l34 -24q-58 -105 -143 -157t-199 -52q-167 0 -285 123t-118 297q0 186 116 312t285 126q74 0 148 -34t82 -34q27 0 42 14.5t21 47.5z
M844 1303q-123 0 -237.5 -48.5t-200.5 -136.5q-88 -89 -134.5 -202.5t-46.5 -237.5q0 -125 47 -238.5t136 -201.5q88 -89 198.5 -135t235.5 -46q126 0 236.5 46t197.5 135q88 90 135 203t47 237t-47.5 240.5t-132.5 201.5q-86 87 -200.5 135t-233.5 48zM844 1382
q137 0 266.5 -53.5t226.5 -150.5q98 -97 152.5 -228.5t54.5 -271.5t-53 -268t-154 -230q-98 -100 -225 -152.5t-270 -52.5t-269 52.5t-227 152.5t-154 227t-53 271q0 140 53 268.5t152 229.5q98 99 228 152.5t272 53.5z" />
    <glyph glyph-name="trademark" unicode="&#x2122;" horiz-adv-x="1683" 
d="M788 1438h183l141 -400l148 400h174v-25l-30 -2q-22 -2 -34 -15.5t-12 -37.5v-373q0 -24 12 -37.5t34 -15.5l30 -2v-27h-236v27l31 2q21 2 33 16t12 37v395l-178 -479h-15l-174 479v-395q0 -23 12.5 -37t34.5 -16l31 -2v-27h-197v27l34 2q21 2 32.5 16t11.5 37v371
q0 23 -12.5 37t-34.5 16l-31 2v27zM256 1438h440l11 -178h-25q-8 79 -40.5 115t-96.5 36h-21v-426q0 -23 12 -37t33 -16l31 -2v-27h-248v27l31 2q21 1 33 15.5t12 37.5v426h-20q-64 0 -97 -36t-41 -115h-26z" />
    <glyph glyph-name="acute" unicode="&#xb4;" 
d="M500 1116h-72l299 314q19 20 40.5 31.5t39.5 11.5q28 0 49 -21t21 -49q0 -21 -15.5 -40t-54.5 -44z" />
    <glyph glyph-name="dieresis" unicode="&#xa8;" 
d="M700 1266q0 38 30 67t69 29q40 0 69 -28.5t29 -67.5q0 -44 -28 -72.5t-70 -28.5q-40 0 -69.5 29.5t-29.5 71.5zM326 1266q0 38 29.5 67t68.5 29q40 0 69 -28.5t29 -67.5q0 -44 -27.5 -72.5t-70.5 -28.5q-40 0 -69 29.5t-29 71.5z" />
    <glyph glyph-name="notequal" unicode="&#x2260;" horiz-adv-x="1706" 
d="M1210 1180l88 -70l-196 -250h350v-115h-424l-211 -270h635v-115h-709l-251 -319l-89 70l197 249h-346v115h420l211 270h-631v115h704z" />
    <glyph glyph-name="AE" unicode="&#xc6;" horiz-adv-x="2083" 
d="M883 592h-389l-246 -305q-33 -42 -46.5 -69t-13.5 -50q0 -34 34.5 -57t96.5 -31l-14 -80h-504l15 74q54 5 117 48t124 118l699 847q31 38 45 66t14 51q0 36 -35.5 60t-95.5 30l14 80h1266l78 -407l-82 -13q-80 165 -210.5 245.5t-317.5 80.5q-130 0 -180.5 -32.5
t-67.5 -131.5l-60 -336h105q142 0 203.5 49.5t101.5 182.5h65l-102 -582h-65v29q0 126 -47.5 172.5t-182.5 46.5h-96l-72 -416q-4 -25 -6 -47.5t-2 -38.5q0 -48 52 -71t163 -23q175 0 340 83.5t340 262.5l59 -27l-194 -401h-1178l13 66q99 16 143 61t67 174zM899 688
l102 578l-432 -578h330z" />
    <glyph glyph-name="Oslash" unicode="&#xd8;" horiz-adv-x="1581" 
d="M371 221l792 981q-50 52 -115 77.5t-149 25.5q-125 0 -231 -58.5t-189 -173.5q-87 -120 -134.5 -273.5t-47.5 -316.5q0 -74 18 -137.5t56 -124.5zM430 152q58 -45 119.5 -65.5t132.5 -20.5q120 0 229 59.5t191 169.5q86 117 132 265t46 310q0 80 -15.5 145.5t-47.5 123.5
zM76 -143l192 239q-97 87 -145.5 204t-48.5 265q0 171 65 325t187 271q127 121 276 182.5t316 61.5q95 0 177.5 -23.5t155.5 -70.5l150 186h102l-182 -231q94 -96 141 -212.5t47 -252.5q0 -164 -66.5 -318.5t-189.5 -275.5q-121 -120 -267 -180t-316 -60q-85 0 -166.5 19.5
t-161.5 58.5l-147 -188h-119z" />
    <glyph glyph-name="infinity" unicode="&#x221e;" horiz-adv-x="1706" 
d="M905 559q51 -95 119 -141.5t156 -46.5q102 0 168.5 71t66.5 181q0 108 -61 179.5t-152 71.5q-85 0 -153.5 -72.5t-143.5 -242.5zM803 666q-51 95 -119 142.5t-154 47.5q-105 0 -171 -71t-66 -183q0 -108 61 -179t152 -71q85 0 152 69t145 245zM866 494
q-71 -138 -148 -201.5t-173 -63.5q-134 0 -226 109t-92 272q0 172 82.5 277.5t214.5 105.5q97 0 172 -63t144 -203q67 138 146 204t175 66q134 0 226 -108.5t92 -272.5q0 -171 -82 -277t-213 -106q-96 0 -169 60t-149 201z" />
    <glyph glyph-name="plusminus" unicode="&#xb1;" horiz-adv-x="1706" 
d="M254 158h1198v-117h-1198v117zM795 1180h118v-344h539v-117h-539v-344h-118v344h-541v117h541v344z" />
    <glyph glyph-name="lessequal" unicode="&#x2264;" horiz-adv-x="1706" 
d="M262 150h1182v-117h-1182v117zM1444 1192v-125l-977 -324l977 -323v-125l-1182 399v101z" />
    <glyph glyph-name="greaterequal" unicode="&#x2265;" horiz-adv-x="1706" 
d="M262 150h1182v-117h-1182v117zM262 1192l1182 -397v-101l-1182 -399v125l979 323l-979 324v125z" />
    <glyph glyph-name="yen" unicode="&#xa5;" horiz-adv-x="1206" 
d="M1417 1364l-8 -66q-95 -26 -175.5 -86t-189.5 -192l-86 -105h252l-12 -75h-303l-174 -209h440l-12 -72h-479l-47 -280l-1 -6q-8 -56 -8 -83q0 -59 34.5 -88t113.5 -36l-10 -66h-535l12 66q100 16 143 60.5t66 172.5l45 260h-460l12 74h426l-99 209h-290l12 73h242
l-86 176q-5 10 -13 28q-66 139 -184 179l10 66h520l-10 -66q-72 -10 -106.5 -35t-34.5 -67q0 -25 25 -75q4 -8 6 -11l196 -418l346 410q29 34 43.5 63t14.5 52q0 29 -30 50t-87 31l12 66h469z" />
    <glyph glyph-name="mu" unicode="&#xb5;" horiz-adv-x="1120" 
d="M164 193q-27 -136 -52 -339q-34 -272 -112 -272q-37 0 -58.5 23.5t-21.5 64.5q0 40 64.5 273.5t105.5 427.5l109 514h147l-104 -492q-6 -30 -9.5 -58.5t-3.5 -53.5q0 -83 42 -129t118 -46q98 0 163.5 68.5t94.5 200.5l111 510h149l-114 -531q-13 -59 -17 -87.5t-4 -49.5
q0 -48 26 -78t66 -30q35 0 65.5 18t51.5 51t41 93.5t39 60.5q12 0 19 -10t7 -27q0 -25 -11 -66.5t-29 -83.5q-38 -82 -95 -122.5t-135 -40.5q-68 0 -108.5 51t-40.5 139v23q-46 -110 -116 -164t-165 -54q-96 0 -152.5 54.5t-70.5 161.5z" />
    <glyph glyph-name="partialdiff" unicode="&#x2202;" horiz-adv-x="1044" 
d="M754 604q13 81 19.5 161.5t6.5 158.5q0 140 -39.5 216.5t-111.5 76.5q-53 0 -117 -63.5t-109 -63.5q-29 0 -51 21.5t-22 51.5q0 59 68 105.5t163 46.5q171 0 273 -152.5t102 -412.5q0 -335 -139 -555t-344 -220q-147 0 -241.5 106.5t-94.5 272.5q0 189 108.5 316
t266.5 127q99 0 162.5 -47t99.5 -146zM709 483q0 117 -45 180.5t-127 63.5q-113 0 -184.5 -127.5t-71.5 -333.5q0 -117 44 -178t128 -61q111 0 183.5 128t72.5 328z" />
    <glyph glyph-name="summation" unicode="&#x2211;" horiz-adv-x="1434" 
d="M12 1473h1135l98 -340h-74l-67 219q-8 27 -32 39t-73 12h-741l864 -850v-37l-858 -756h893q60 0 77.5 13t29.5 51l71 229h74l-135 -446h-1260v28l959 838l-961 950v50z" />
    <glyph glyph-name="product" unicode="&#x220f;" horiz-adv-x="1595" 
d="M57 1473h1479v-70h-186v-1727h186v-69h-555v69h197v1727h-762v-1727h196v-69h-555v69h187v1727h-187v70z" />
    <glyph glyph-name="pi" unicode="&#x3c0;" horiz-adv-x="1354" 
d="M1329 885l-35 -162h-329q-34 -179 -54 -452q-23 -314 -120 -314q-38 0 -58 24.5t-20 69.5q0 58 77 280.5t117 391.5h-375q-33 -177 -53 -448q-25 -318 -123 -318q-37 0 -57 25t-20 71q0 56 77.5 277t118.5 393h-133q-136 0 -180 -43.5t-72 -171.5h-59q37 207 117.5 292
t238.5 85h942z" />
    <glyph glyph-name="integral" unicode="&#x222b;" horiz-adv-x="1020" 
d="M301 -268q103 0 116 664q3 141 5 216q12 503 102 719.5t281 216.5q76 0 122 -39t46 -104q0 -48 -31 -77.5t-82 -29.5q-53 0 -85 35t-32 92q0 8 -6 15.5t-14 7.5q-105 0 -119 -634q-3 -157 -6 -245q-10 -308 -31.5 -461t-62.5 -247q-49 -114 -123 -173t-168 -59
q-73 0 -119.5 38t-46.5 97q0 53 31.5 84t83.5 31q47 0 79.5 -29t32.5 -67q0 -24 7.5 -37.5t19.5 -13.5z" />
    <glyph glyph-name="ordfeminine" unicode="&#xaa;" horiz-adv-x="975" 
d="M651 1233q-42 36 -85 54t-87 18q-60 0 -111.5 -27.5t-93.5 -81.5q-50 -67 -76 -142t-26 -151q0 -77 37.5 -122.5t99.5 -45.5q126 0 219 134t123 364zM573 821q-72 -80 -143.5 -117.5t-150.5 -37.5q-118 0 -188.5 73.5t-70.5 196.5q0 87 34.5 169t97.5 142q61 61 139 95
t158 34q57 0 109.5 -18.5t107.5 -59.5l14 72h139l-92 -497q-2 -10 -3 -19.5t-1 -26.5q0 -38 18.5 -60t51.5 -22q19 0 45 12.5t63 39.5l37 -31q-51 -51 -103 -75.5t-110 -24.5q-73 0 -111.5 39.5t-40.5 115.5z" />
    <glyph glyph-name="ordmasculine" unicode="&#xba;" horiz-adv-x="852" 
d="M451 1323q-120 0 -197.5 -115.5t-77.5 -296.5q0 -94 42 -142t124 -48q122 0 200.5 114.5t78.5 294.5q0 94 -44 143.5t-126 49.5zM20 954q0 76 27.5 146.5t79.5 130.5q64 74 147.5 112.5t182.5 38.5q143 0 231 -79.5t88 -208.5q0 -77 -26.5 -148.5t-75.5 -128.5
q-65 -76 -151.5 -117t-182.5 -41q-146 0 -233 80.5t-87 214.5z" />
    <glyph glyph-name="Omega" unicode="&#x3a9;" horiz-adv-x="1567" 
d="M1100 188v-26h313l66 203h61l-108 -365h-500q134 233 202 451t68 413q0 271 -107.5 416t-308.5 145t-309 -145t-108 -416q0 -195 68 -411t204 -453h-500l-110 365h61l68 -203h311v26q-165 203 -234 361.5t-69 327.5q0 272 174.5 446t443.5 174t443 -174.5t174 -445.5
q0 -169 -69 -327.5t-234 -361.5z" />
    <glyph glyph-name="ae" unicode="&#xe6;" horiz-adv-x="1802" 
d="M959 518q268 5 414.5 74t146.5 190q0 64 -46.5 104t-121.5 40q-132 0 -237 -108t-156 -300zM940 854q85 72 200.5 111t241.5 39q156 0 248 -63t92 -167q0 -148 -204.5 -238t-581.5 -106q-5 -28 -7.5 -50.5t-2.5 -43.5q0 -121 69 -190.5t191 -69.5q83 0 177.5 36.5
t205.5 110.5l55 -57q-111 -95 -235.5 -144t-251.5 -49q-150 0 -249.5 53t-152.5 160q-86 -106 -202 -159.5t-259 -53.5q-124 0 -191 57.5t-67 164.5q0 174 196 280.5t544 118.5q18 80 25 122t7 64q0 63 -54 104.5t-138 41.5q-91 0 -143.5 -32t-69.5 -97q-17 -66 -50.5 -97.5
t-84.5 -31.5q-33 0 -55.5 21t-22.5 52q0 99 131.5 181t316.5 82q124 0 202 -36.5t120 -113.5zM739 512q-241 -7 -384.5 -84.5t-143.5 -198.5q0 -67 47.5 -110t124.5 -43q148 0 242.5 114.5t113.5 321.5z" />
    <glyph glyph-name="oslash" unicode="&#xf8;" horiz-adv-x="1135" 
d="M23 -195l167 240q-80 59 -121.5 148t-41.5 202q0 104 36 206t103 185q83 105 195.5 161.5t236.5 56.5q68 0 126.5 -13.5t109.5 -40.5l143 207h96l-176 -252q68 -60 101.5 -138.5t33.5 -176.5q0 -110 -34.5 -212t-98.5 -183q-85 -109 -199 -165.5t-245 -56.5
q-55 0 -103.5 8t-89.5 23l-141 -199h-98zM807 774l-481 -682q26 -17 59.5 -26t73.5 -9q159 0 262.5 158t103.5 406q0 43 -4.5 81t-13.5 72zM268 156l496 698q-34 32 -75 49t-87 17q-158 0 -266.5 -164.5t-108.5 -411.5q0 -58 10.5 -105t30.5 -83z" />
    <glyph glyph-name="questiondown" unicode="&#xbf;" horiz-adv-x="1090" 
d="M743 1063q0 -153 -43 -239t-170 -171l-60 -38q-130 -81 -171 -138q-32 -44 -50 -98.5t-18 -110.5q0 -104 69.5 -160.5t197.5 -56.5q117 0 200.5 49.5t83.5 114.5q0 15 -7 47.5t-7 50.5q0 49 36.5 84t88.5 35q50 0 78 -28t28 -76q0 -143 -159.5 -253t-382.5 -110
q-201 0 -323 93t-122 243q0 71 27.5 138.5t79.5 123.5q82 88 310 173l35 13q86 33 129.5 105t59.5 209h90zM856 1288q0 -63 -44.5 -108t-106.5 -45q-51 0 -83 32t-32 82q0 65 45 111.5t106 46.5q53 0 84 -32t31 -87z" />
    <glyph glyph-name="exclamdown" unicode="&#xa1;" horiz-adv-x="664" 
d="M571 1286q0 -63 -44 -107t-107 -44q-51 0 -83 32t-32 82q0 65 44 110.5t106 45.5q53 0 84.5 -32.5t31.5 -86.5zM432 1034q-37 -218 -42 -490.5t-7 -299.5q-11 -146 -52.5 -213.5t-119.5 -67.5q-59 0 -90 33.5t-31 97.5q0 71 91 325l12 32q71 195 107 329t52 254h80z" />
    <glyph glyph-name="logicalnot" unicode="&#xac;" horiz-adv-x="1706" 
d="M254 858h1198v-502h-115v385h-1083v117z" />
    <glyph glyph-name="radical" unicode="&#x221a;" horiz-adv-x="1288" 
d="M1106 1647h182v-82h-119l-594 -1606h-53l-323 893l-119 -43l-23 68l262 92l265 -729z" />
    <glyph glyph-name="florin" unicode="&#x192;" horiz-adv-x="1247" 
d="M492 729h-244v98h254q27 281 140.5 426.5t305.5 145.5q108 0 175 -36t67 -93q0 -49 -25.5 -74t-74.5 -25q-30 0 -56.5 13.5t-68.5 54.5q-40 38 -62.5 49.5t-46.5 11.5q-62 0 -91 -89t-48 -384h274v-98h-280q-35 -673 -149.5 -926.5t-362.5 -253.5q-105 0 -164.5 35.5
t-59.5 96.5q0 38 25 62t66 24q25 0 45.5 -10t52.5 -42q39 -39 63 -51t52 -12q61 0 97 46.5t50 145.5q14 91 31 316t35 569z" />
    <glyph glyph-name="approxequal" unicode="&#x2248;" horiz-adv-x="1706" 
d="M1530 584v-131q-107 -75 -202 -110.5t-187 -35.5q-98 0 -288 69.5t-290 69.5q-82 0 -169.5 -35.5t-215.5 -123.5v131q108 74 203.5 110.5t183.5 36.5q111 0 301.5 -69.5t276.5 -69.5q85 0 173.5 35.5t213.5 122.5zM1530 934v-131q-104 -73 -200 -108.5t-187 -35.5
q-100 0 -290 69t-290 69q-83 0 -171.5 -36t-213.5 -122v131q106 73 202 109t185 36q111 0 300.5 -68.5t277.5 -68.5q87 0 175 35t212 121z" />
    <glyph glyph-name="Delta" unicode="&#x2206;" horiz-adv-x="1208" 
d="M555 1212l-389 -1042h768zM596 1497h29l555 -1497h-1151z" />
    <glyph glyph-name="guillemotleft" unicode="&#xab;" horiz-adv-x="948" 
d="M565 485q83 -155 120.5 -233t37.5 -94q0 -10 -5.5 -17t-12.5 -8q-22 0 -113 122.5t-182 221.5v21q146 102 290.5 228t161.5 126q10 0 13.5 -3t3.5 -11q0 -31 -85.5 -127.5t-228.5 -225.5zM238 485q91 -172 125 -242.5t34 -84.5q0 -10 -6 -17.5t-12 -7.5q-22 0 -114 123
t-183 221v21q146 102 290.5 228t162.5 126q10 0 13 -3t3 -11q0 -31 -85.5 -127.5t-227.5 -225.5z" />
    <glyph glyph-name="guillemotright" unicode="&#xbb;" horiz-adv-x="948" 
d="M305 502q-87 163 -122.5 236.5t-35.5 88.5q1 11 7 18t12 7q22 0 113 -121.5t182 -220.5v-21q-147 -102 -291.5 -229t-161.5 -127q-10 1 -13 4t-3 13q0 30 85 126.5t228 225.5zM633 502q-98 184 -129 247.5t-31 77.5q0 10 6 17.5t13 7.5q22 0 114 -122t182 -220v-21
q-147 -102 -291 -229t-161 -127q-9 0 -13 3.5t-4 13.5q0 30 85.5 126.5t228.5 225.5z" />
    <glyph glyph-name="ellipsis" unicode="&#x2026;" horiz-adv-x="2048" 
d="M127 98q0 63 45.5 108.5t108.5 45.5q50 0 82.5 -33t32.5 -84q0 -64 -45 -109.5t-107 -45.5q-53 0 -85 32t-32 86zM809 98q0 63 45.5 108.5t108.5 45.5q50 0 82.5 -33t32.5 -84q0 -64 -45 -109.5t-107 -45.5q-53 0 -85 32t-32 86zM1493 98q0 63 45.5 108.5t108.5 45.5
q50 0 82.5 -33t32.5 -84q0 -64 -45 -109.5t-107 -45.5q-53 0 -85 32t-32 86z" />
    <glyph glyph-name="nonbreakingspace" unicode="&#xa0;" horiz-adv-x="1247" 
 />
    <glyph glyph-name="Agrave" unicode="&#xc0;" horiz-adv-x="1346" 
d="M860 608l-115 590l-321 -590h436zM-160 0l13 66q80 23 134.5 67.5t100.5 124.5l629 1116h198l232 -1110l3 -15q30 -144 161 -183l-13 -66h-534l12 66q91 14 126.5 41t35.5 79q0 13 -2 29t-6 37l-51 266h-508l-125 -242q-15 -28 -23 -55t-8 -49q0 -41 34 -65.5t113 -40.5
l-12 -66h-510zM985 1517h-67l-244 203q-32 26 -43.5 45t-11.5 41q0 28 20 49t47 21q21 0 44 -15.5t42 -42.5z" />
    <glyph glyph-name="Atilde" unicode="&#xc3;" horiz-adv-x="1346" 
d="M860 608l-115 590l-321 -590h436zM-160 0l13 66q80 23 134.5 67.5t100.5 124.5l629 1116h198l232 -1110l3 -15q30 -144 161 -183l-13 -66h-534l12 66q91 14 126.5 41t35.5 79q0 13 -2 29t-6 37l-51 266h-508l-125 -242q-15 -28 -23 -55t-8 -49q0 -41 34 -65.5t113 -40.5
l-12 -66h-510zM1151 1787q-18 -99 -62.5 -146.5t-117.5 -47.5q-17 0 -32.5 2t-28.5 6l-131 37l-12 3q-40 9 -58 9q-38 0 -61 -19t-31 -56h-49q15 94 58 141t114 47q14 0 30 -3t43 -11l131 -35q21 -5 34 -6.5t24 -1.5q42 0 65.5 19.5t34.5 61.5h49z" />
    <glyph glyph-name="Otilde" unicode="&#xd5;" horiz-adv-x="1581" 
d="M895 1305q-120 0 -226 -59t-188 -171q-86 -118 -134 -268.5t-48 -302.5q0 -204 103 -321t280 -117q121 0 229.5 59t190.5 170q86 117 132 265t46 308q0 206 -102 321.5t-283 115.5zM72 565q0 171 65.5 325.5t188.5 272.5q123 119 270.5 179.5t312.5 60.5q280 0 439 -162
t159 -446q0 -164 -65 -315t-189 -273q-120 -119 -265.5 -179.5t-311.5 -60.5q-280 0 -442 161t-162 437zM1300 1787q-18 -99 -62.5 -146.5t-117.5 -47.5q-17 0 -32.5 2t-28.5 6l-131 37l-12 3q-40 9 -58 9q-38 0 -61 -19t-31 -56h-49q15 94 58 141t114 47q14 0 30 -3t43 -11
l131 -35q21 -5 34 -6.5t24 -1.5q42 0 65.5 19.5t34.5 61.5h49z" />
    <glyph glyph-name="OE" unicode="&#x152;" horiz-adv-x="2447" 
d="M1171 137q-106 -85 -229 -127.5t-264 -42.5q-281 0 -442.5 160t-161.5 438q0 171 65 326.5t187 271.5q121 117 270.5 179.5t306.5 62.5q131 0 245.5 -45.5t215.5 -136.5l25 151h942l79 -407l-81 -13q-80 165 -211 245.5t-318 80.5q-129 0 -179.5 -32.5t-68.5 -131.5
l-59 -336h106q143 0 204 49.5t102 182.5h65l-102 -582h-66v27q0 127 -47.5 174t-183.5 47h-96l-72 -416q-4 -25 -6 -47.5t-2 -38.5q0 -48 51.5 -71t161.5 -23q176 0 340.5 83t341.5 263l59 -27l-192 -401h-1010zM895 1305q-120 0 -226 -59t-188 -171q-86 -118 -134 -268.5
t-48 -302.5q0 -204 103 -321t280 -117q121 0 229.5 59t190.5 170q86 117 132 265t46 308q0 206 -102 321.5t-283 115.5z" />
    <glyph glyph-name="oe" unicode="&#x153;" horiz-adv-x="1870" 
d="M1025 512q266 4 413 73t147 189q0 63 -46.5 102t-123.5 39q-132 0 -235.5 -105.5t-154.5 -297.5zM600 918q-159 0 -264 -165t-105 -421q0 -135 57.5 -205t168.5 -70q161 0 264.5 163.5t103.5 422.5q0 135 -57 205t-168 70zM979 809q101 92 219.5 139t249.5 47
q154 0 247 -63t93 -166q0 -147 -205 -236.5t-583 -105.5q-6 -29 -8.5 -51.5t-2.5 -40.5q0 -120 70.5 -189t191.5 -69q84 0 178.5 36.5t204.5 110.5l56 -55q-113 -95 -236.5 -145t-249.5 -50q-118 0 -210 39.5t-158 118.5q-79 -80 -175.5 -119t-218.5 -39q-187 0 -301 117
t-114 307q0 104 36 206t103 185q86 108 198 163t244 55q118 0 208.5 -47.5t162.5 -147.5z" />
    <glyph glyph-name="endash" unicode="&#x2013;" 
d="M-49 430l22 125h1024l-22 -125h-1024z" />
    <glyph glyph-name="emdash" unicode="&#x2014;" horiz-adv-x="2048" 
d="M0 430v125h2048v-125h-2048z" />
    <glyph glyph-name="quotedblleft" unicode="&#x201c;" horiz-adv-x="844" 
d="M281 1147q15 15 32 23t35 8q43 0 66.5 -25.5t23.5 -73.5q0 -62 -42 -105.5t-101 -43.5q-55 0 -89 35.5t-34 93.5q0 100 64.5 188t189.5 158l27 -37q-80 -59 -121 -111.5t-51 -109.5zM651 1147q16 15 32.5 23t35.5 8q44 0 68 -26t24 -73q0 -61 -43 -105t-102 -44
q-55 0 -88 35t-33 94q0 100 64.5 188t189.5 158l24 -37q-79 -59 -120.5 -111.5t-51.5 -109.5z" />
    <glyph glyph-name="quotedblright" unicode="&#x201d;" horiz-adv-x="844" 
d="M352 1190q-15 -15 -32 -23t-35 -8q-43 0 -66.5 26.5t-23.5 74.5q0 62 42 105.5t101 43.5q55 0 89 -35.5t34 -93.5q0 -101 -64.5 -189.5t-189.5 -158.5l-27 39q81 59 121.5 111t50.5 108zM723 1190q-15 -15 -33 -23t-37 -8q-43 0 -66.5 26.5t-23.5 74.5q0 62 42 105.5
t102 43.5q55 0 88.5 -35.5t33.5 -93.5q0 -101 -64.5 -189.5t-189.5 -158.5l-24 39q81 59 121.5 111t50.5 108z" />
    <glyph glyph-name="quoteleft" unicode="&#x2018;" horiz-adv-x="473" 
d="M283 1147q15 15 32 23t35 8q44 0 67 -25.5t23 -73.5q0 -62 -42 -105.5t-101 -43.5q-55 0 -89 35.5t-34 93.5q0 100 64.5 188t189.5 158l27 -37q-80 -59 -121 -111.5t-51 -109.5z" />
    <glyph glyph-name="quoteright" unicode="&#x2019;" horiz-adv-x="473" 
d="M352 1190q-15 -15 -32 -23t-35 -8q-43 0 -66.5 26.5t-23.5 74.5q0 62 42 105.5t101 43.5q55 0 89 -35.5t34 -93.5q0 -101 -64.5 -189.5t-189.5 -158.5l-27 39q81 59 121.5 111t50.5 108z" />
    <glyph glyph-name="divide" unicode="&#xf7;" horiz-adv-x="1706" 
d="M854 365q47 0 81 -34t34 -81t-33.5 -81t-81.5 -34t-81.5 33.5t-33.5 81.5t34 81.5t81 33.5zM254 670h1198v-117h-1198v117zM854 1085q48 0 81.5 -33.5t33.5 -80.5q0 -48 -33.5 -81.5t-81.5 -33.5q-49 0 -82 33.5t-33 81.5q0 47 34 80.5t81 33.5z" />
    <glyph glyph-name="lozenge" unicode="&#x25ca;" horiz-adv-x="1012" 
d="M506 1409l-385 -817l385 -825l385 825zM506 1653l500 -1061l-500 -1069l-500 1069z" />
    <glyph glyph-name="ydieresis" unicode="&#xff;" horiz-adv-x="1200" 
d="M737 127q-104 -72 -206 -107.5t-203 -35.5q-109 0 -170.5 53.5t-61.5 148.5q0 18 3.5 42t15.5 83l69 369q7 36 10 60.5t3 39.5q0 51 -29 73.5t-102 29.5l10 53q75 8 147 20t142 29h69l-131 -707q-5 -23 -7.5 -44.5t-2.5 -36.5q0 -51 33 -79t94 -28q74 0 160.5 38
t179.5 112l139 745h193l-179 -965q-26 -144 -67.5 -221.5t-114.5 -132.5q-81 -61 -173.5 -91t-199.5 -30q-172 0 -275 45.5t-103 118.5q0 38 26.5 64t67.5 26q28 0 50 -12t56 -53q55 -69 93.5 -88t93.5 -19q165 0 254 119.5t116 380.5zM788 1266q0 38 30 67t69 29
q40 0 69 -28.5t29 -67.5q0 -44 -28 -72.5t-70 -28.5q-40 0 -69.5 29.5t-29.5 71.5zM414 1266q0 38 29.5 67t68.5 29q40 0 69 -28.5t29 -67.5q0 -44 -27.5 -72.5t-70.5 -28.5q-40 0 -69 29.5t-29 71.5z" />
    <glyph glyph-name="Ydieresis" unicode="&#x178;" horiz-adv-x="1274" 
d="M625 281q-5 -31 -7 -51t-2 -37q0 -60 36 -90t116 -37l-12 -66h-557l12 66q100 16 144 61t67 174l49 283l-250 516l-12 24q-68 144 -186 185l10 65h538l-10 -65q-72 -11 -106.5 -36t-34.5 -67q0 -23 20 -65q7 -15 10 -22l197 -421l350 412q28 34 43 64t15 53
q0 30 -30.5 51.5t-86.5 30.5l12 65h477l-8 -65q-92 -25 -169 -80t-197 -199l-375 -448zM909 1667q0 38 30 67t69 29q40 0 69 -28.5t29 -67.5q0 -44 -28 -72.5t-70 -28.5q-40 0 -69.5 29.5t-29.5 71.5zM535 1667q0 38 29.5 67t68.5 29q40 0 69 -28.5t29 -67.5
q0 -44 -27.5 -72.5t-70.5 -28.5q-40 0 -69 29.5t-29 71.5z" />
    <glyph glyph-name="fraction" unicode="&#x2215;" horiz-adv-x="342" 
d="M-342 -25l893 1424h131l-893 -1424h-131z" />
    <glyph glyph-name="currency" unicode="&#xa4;" horiz-adv-x="1247" 
d="M-25 588h154q2 52 9.5 104.5t21.5 104.5h-158l25 73h153q81 240 246.5 384.5t370.5 144.5q89 0 154 -27t136 -94l50 96h65l25 -483h-82q-39 199 -123 305.5t-201 106.5q-132 0 -241 -114.5t-177 -318.5h586l-24 -73h-586q-14 -51 -24 -104t-15 -105h575l-24 -74h-553
q2 -200 89 -314t239 -114q128 0 236.5 81t211.5 253l86 -41q-113 -206 -247.5 -302.5t-309.5 -96.5q-237 0 -368.5 137.5t-143.5 396.5h-180z" />
    <glyph glyph-name="guilsinglleft" unicode="&#x2039;" horiz-adv-x="621" 
d="M238 485q91 -172 125 -242.5t34 -84.5q0 -10 -6 -17.5t-12 -7.5q-22 0 -114 123t-183 221v21q146 102 290.5 228t162.5 126q10 0 13 -3t3 -11q0 -31 -85.5 -127.5t-227.5 -225.5z" />
    <glyph glyph-name="guilsinglright" unicode="&#x203a;" horiz-adv-x="621" 
d="M305 502q-87 163 -122.5 236.5t-35.5 88.5q1 11 7 18t12 7q22 0 113 -121.5t182 -220.5v-21q-147 -102 -291.5 -229t-161.5 -127q-10 1 -13 4t-3 13q0 30 85 126.5t228 225.5z" />
    <glyph glyph-name="fi" unicode="&#xf001;" horiz-adv-x="1319" 
d="M338 211q-51 -316 -228 -491t-446 -175q-99 0 -157 34t-58 91q0 41 30.5 71t71.5 30q35 0 87 -46q16 -14 26 -22q37 -29 71 -42t70 -13q128 0 210.5 137t129.5 430l117 705h-172l12 65h170q31 224 164.5 338.5t364.5 114.5q141 0 224 -41t83 -109q0 -37 -25 -60.5
t-63 -23.5q-50 0 -113 81q-8 10 -12 16q-22 28 -63.5 43.5t-96.5 15.5q-116 0 -176.5 -81.5t-93.5 -293.5h661l-126 -685q-9 -49 -12 -70.5t-3 -34.5q0 -47 23.5 -74t64.5 -27q29 0 65 14.5t83 45.5l32 -52q-70 -59 -135 -88.5t-127 -29.5q-97 0 -147.5 48.5t-50.5 141.5
q0 24 4 58.5t12 74.5l76 410q6 37 9 62t3 38q0 55 -36.5 79t-121.5 24h-284z" />
    <glyph glyph-name="fl" unicode="&#xf002;" horiz-adv-x="1309" 
d="M1042 1382l97 54h67l-209 -1137v-3q-14 -79 -14 -101q0 -47 23.5 -74t64.5 -27q29 0 65 14.5t83 45.5l34 -52q-70 -59 -136 -88.5t-128 -29.5q-96 0 -147 49t-51 141q0 24 4 58t12 75l168 916q-28 12 -54.5 47.5t-31.5 40.5q-28 25 -64.5 37t-83.5 12q-124 0 -185.5 -79
t-94.5 -296h205l-11 -65h-204l-117 -709q-52 -316 -229 -491t-445 -175q-99 0 -157 34t-58 91q0 41 30.5 71t71.5 30q35 0 87 -46q16 -14 26 -22q37 -29 71 -42t70 -13q128 0 210 137t130 430l117 705h-172l12 65h170q29 221 162 337t358 116q84 0 146.5 -14t107.5 -42z" />
    <glyph glyph-name="daggerdbl" unicode="&#x2021;" 
d="M352 -18q17 101 24 160t7 98q0 48 -10 90.5t-31 83.5q28 27 54.5 62t52.5 79q-34 -9 -92 -27q-113 -34 -156 -34q-52 0 -80.5 27t-28.5 75q0 45 28 70.5t77 25.5q46 0 163 -34q64 -18 100 -27q-4 41 -16 78t-32 71q33 33 58.5 70.5t45.5 79.5q-33 -9 -92 -27
q-112 -35 -156 -35q-51 0 -79.5 27t-28.5 76q0 45 27 70.5t75 25.5q47 0 167 -34q63 -18 99 -27q-3 54 -19.5 137t-16.5 114q0 71 35 109.5t100 38.5q57 0 90 -27.5t33 -74.5q0 -50 -60.5 -144.5t-83.5 -152.5q27 7 76 22q125 39 172 39q52 0 80.5 -26t28.5 -74
q0 -46 -28.5 -72.5t-76.5 -26.5q-40 0 -129 26t-135 35q5 -41 17 -78t32 -71q-33 -33 -59 -70t-45 -79l75 23q125 38 172 38q52 0 80.5 -26t28.5 -74q0 -45 -28 -71.5t-76 -26.5q-41 0 -129.5 26t-135.5 35q7 -32 24 -67t44 -74q-68 -70 -109.5 -175t-60.5 -257h-72z" />
    <glyph glyph-name="periodcentered" unicode="&#xb7;" horiz-adv-x="623" 
d="M174 688q0 58 39.5 97.5t97.5 39.5q59 0 98.5 -39.5t39.5 -97.5t-39.5 -97.5t-98.5 -39.5q-58 0 -97.5 39.5t-39.5 97.5z" />
    <glyph glyph-name="quotesinglbase" unicode="&#x201a;" horiz-adv-x="473" 
d="M147 29q-15 -16 -32 -23.5t-35 -7.5q-44 0 -68 25.5t-24 72.5q0 62 43 107t102 45q55 0 88 -35.5t33 -93.5q0 -101 -64.5 -189.5t-189.5 -158.5l-25 39q82 59 122 111t50 108z" />
    <glyph glyph-name="quotedblbase" unicode="&#x201e;" horiz-adv-x="844" 
d="M147 29q-15 -16 -32 -23.5t-35 -7.5q-44 0 -68 25.5t-24 72.5q0 62 43 107t102 45q55 0 88 -35.5t33 -93.5q0 -101 -64.5 -189.5t-189.5 -158.5l-25 39q82 59 122 111t50 108zM516 29q-15 -16 -32 -23.5t-35 -7.5q-44 0 -67.5 25.5t-23.5 72.5q0 63 42.5 107.5
t101.5 44.5q55 0 89 -35.5t34 -93.5q0 -101 -65 -189.5t-189 -158.5l-27 39q81 59 121.5 111t50.5 108z" />
    <glyph glyph-name="perthousand" unicode="&#x2030;" horiz-adv-x="2593" 
d="M1970 332q0 -126 45.5 -190t134.5 -64t134 63.5t45 190.5t-44.5 189.5t-134.5 62.5t-135 -63t-45 -189zM1782 332q0 152 105 253t263 101q159 0 264 -101t105 -253t-105.5 -254.5t-263.5 -102.5t-263 102.5t-105 254.5zM1114 332q0 -127 45 -190.5t133 -63.5q89 0 135 64
t46 190t-45 189t-136 63q-90 0 -134 -62.5t-44 -189.5zM926 332q0 152 104 253t262 101t263.5 -101t105.5 -253t-105.5 -254.5t-263.5 -102.5q-157 0 -261.5 102t-104.5 255zM385 -25l838 1424h129l-838 -1424h-129zM264 1042q0 -125 45.5 -188t134.5 -63q90 0 134.5 62.5
t44.5 188.5q0 128 -44.5 191t-134.5 63t-135 -63.5t-45 -190.5zM76 1042q0 153 105 255t263 102t262.5 -102t104.5 -255q0 -152 -104.5 -253t-262.5 -101t-263 101t-105 253z" />
    <glyph glyph-name="Acircumflex" unicode="&#xc2;" horiz-adv-x="1346" 
d="M860 608l-115 590l-321 -590h436zM-160 0l13 66q80 23 134.5 67.5t100.5 124.5l629 1116h198l232 -1110l3 -15q30 -144 161 -183l-13 -66h-534l12 66q91 14 126.5 41t35.5 79q0 13 -2 29t-6 37l-51 266h-508l-125 -242q-15 -28 -23 -55t-8 -49q0 -41 34 -65.5t113 -40.5
l-12 -66h-510zM1102 1517h-55l-176 207l-277 -207h-67l309 348h104z" />
    <glyph glyph-name="Ecircumflex" unicode="&#xca;" horiz-adv-x="1425" 
d="M-51 0l12 66q101 16 144.5 61.5t66.5 173.5l141 792q6 36 8.5 57t2.5 34q0 54 -32.5 81t-121.5 44l12 65h1121l79 -407l-82 -13q-79 165 -210 245.5t-318 80.5q-129 0 -179.5 -32.5t-68.5 -131.5l-59 -336h106q143 0 204 49.5t102 182.5h65l-102 -582h-66v27
q0 127 -47.5 174t-183.5 47h-97l-71 -416q-6 -37 -8 -56t-2 -30q0 -48 52.5 -71t164.5 -23q175 0 339 83.5t341 262.5l61 -27l-195 -401h-1179zM1071 1517h-55l-176 207l-277 -207h-67l309 348h104z" />
    <glyph glyph-name="Aacute" unicode="&#xc1;" horiz-adv-x="1346" 
d="M860 608l-115 590l-321 -590h436zM-160 0l13 66q80 23 134.5 67.5t100.5 124.5l629 1116h198l232 -1110l3 -15q30 -144 161 -183l-13 -66h-534l12 66q91 14 126.5 41t35.5 79q0 13 -2 29t-6 37l-51 266h-508l-125 -242q-15 -28 -23 -55t-8 -49q0 -41 34 -65.5t113 -40.5
l-12 -66h-510zM744 1517h-72l299 314q19 20 40.5 31.5t39.5 11.5q28 0 49 -21t21 -49q0 -21 -15.5 -40t-54.5 -44z" />
    <glyph glyph-name="Edieresis" unicode="&#xcb;" horiz-adv-x="1425" 
d="M-51 0l12 66q101 16 144.5 61.5t66.5 173.5l141 792q6 36 8.5 57t2.5 34q0 54 -32.5 81t-121.5 44l12 65h1121l79 -407l-82 -13q-79 165 -210 245.5t-318 80.5q-129 0 -179.5 -32.5t-68.5 -131.5l-59 -336h106q143 0 204 49.5t102 182.5h65l-102 -582h-66v27
q0 127 -47.5 174t-183.5 47h-97l-71 -416q-6 -37 -8 -56t-2 -30q0 -48 52.5 -71t164.5 -23q175 0 339 83.5t341 262.5l61 -27l-195 -401h-1179zM913 1667q0 38 30 67t69 29q40 0 69 -28.5t29 -67.5q0 -44 -28 -72.5t-70 -28.5q-40 0 -69.5 29.5t-29.5 71.5zM539 1667
q0 38 29.5 67t68.5 29q40 0 69 -28.5t29 -67.5q0 -44 -27.5 -72.5t-70.5 -28.5q-40 0 -69 29.5t-29 71.5z" />
    <glyph glyph-name="Egrave" unicode="&#xc8;" horiz-adv-x="1425" 
d="M-51 0l12 66q101 16 144.5 61.5t66.5 173.5l141 792q6 36 8.5 57t2.5 34q0 54 -32.5 81t-121.5 44l12 65h1121l79 -407l-82 -13q-79 165 -210 245.5t-318 80.5q-129 0 -179.5 -32.5t-68.5 -131.5l-59 -336h106q143 0 204 49.5t102 182.5h65l-102 -582h-66v27
q0 127 -47.5 174t-183.5 47h-97l-71 -416q-6 -37 -8 -56t-2 -30q0 -48 52.5 -71t164.5 -23q175 0 339 83.5t341 262.5l61 -27l-195 -401h-1179zM954 1517h-67l-244 203q-32 26 -43.5 45t-11.5 41q0 28 20 49t47 21q21 0 44 -15.5t42 -42.5z" />
    <glyph glyph-name="Iacute" unicode="&#xcd;" horiz-adv-x="672" 
d="M-51 0l12 66q101 16 144.5 61.5t66.5 173.5l141 792q6 36 8.5 57t2.5 34q0 54 -32.5 81t-121.5 44l12 65h555l-10 -65q-100 -16 -144 -62t-67 -174l-139 -792q-5 -29 -7.5 -51t-2.5 -37q0 -60 35.5 -90t115.5 -37l-12 -66h-557zM408 1517h-72l299 314q19 20 40.5 31.5
t39.5 11.5q28 0 49 -21t21 -49q0 -21 -15.5 -40t-54.5 -44z" />
    <glyph glyph-name="Icircumflex" unicode="&#xce;" horiz-adv-x="672" 
d="M-51 0l12 66q101 16 144.5 61.5t66.5 173.5l141 792q6 36 8.5 57t2.5 34q0 54 -32.5 81t-121.5 44l12 65h555l-10 -65q-100 -16 -144 -62t-67 -174l-139 -792q-5 -29 -7.5 -51t-2.5 -37q0 -60 35.5 -90t115.5 -37l-12 -66h-557zM766 1517h-55l-176 207l-277 -207h-67
l309 348h104z" />
    <glyph glyph-name="Idieresis" unicode="&#xcf;" horiz-adv-x="672" 
d="M-51 0l12 66q101 16 144.5 61.5t66.5 173.5l141 792q6 36 8.5 57t2.5 34q0 54 -32.5 81t-121.5 44l12 65h555l-10 -65q-100 -16 -144 -62t-67 -174l-139 -792q-5 -29 -7.5 -51t-2.5 -37q0 -60 35.5 -90t115.5 -37l-12 -66h-557zM608 1667q0 38 30 67t69 29q40 0 69 -28.5
t29 -67.5q0 -44 -28 -72.5t-70 -28.5q-40 0 -69.5 29.5t-29.5 71.5zM234 1667q0 38 29.5 67t68.5 29q40 0 69 -28.5t29 -67.5q0 -44 -27.5 -72.5t-70.5 -28.5q-40 0 -69 29.5t-29 71.5z" />
    <glyph glyph-name="Igrave" unicode="&#xcc;" horiz-adv-x="672" 
d="M-51 0l12 66q101 16 144.5 61.5t66.5 173.5l141 792q6 36 8.5 57t2.5 34q0 54 -32.5 81t-121.5 44l12 65h555l-10 -65q-100 -16 -144 -62t-67 -174l-139 -792q-5 -29 -7.5 -51t-2.5 -37q0 -60 35.5 -90t115.5 -37l-12 -66h-557zM649 1517h-67l-244 203q-32 26 -43.5 45
t-11.5 41q0 28 20 49t47 21q21 0 44 -15.5t42 -42.5z" />
    <glyph glyph-name="Oacute" unicode="&#xd3;" horiz-adv-x="1581" 
d="M895 1305q-120 0 -226 -59t-188 -171q-86 -118 -134 -268.5t-48 -302.5q0 -204 103 -321t280 -117q121 0 229.5 59t190.5 170q86 117 132 265t46 308q0 206 -102 321.5t-283 115.5zM72 565q0 171 65.5 325.5t188.5 272.5q123 119 270.5 179.5t312.5 60.5q280 0 439 -162
t159 -446q0 -164 -65 -315t-189 -273q-120 -119 -265.5 -179.5t-311.5 -60.5q-280 0 -442 161t-162 437zM893 1517h-72l299 314q19 20 40.5 31.5t39.5 11.5q28 0 49 -21t21 -49q0 -21 -15.5 -40t-54.5 -44z" />
    <glyph glyph-name="Ocircumflex" unicode="&#xd4;" horiz-adv-x="1581" 
d="M895 1305q-120 0 -226 -59t-188 -171q-86 -118 -134 -268.5t-48 -302.5q0 -204 103 -321t280 -117q121 0 229.5 59t190.5 170q86 117 132 265t46 308q0 206 -102 321.5t-283 115.5zM72 565q0 171 65.5 325.5t188.5 272.5q123 119 270.5 179.5t312.5 60.5q280 0 439 -162
t159 -446q0 -164 -65 -315t-189 -273q-120 -119 -265.5 -179.5t-311.5 -60.5q-280 0 -442 161t-162 437zM1251 1517h-55l-176 207l-277 -207h-67l309 348h104z" />
    <glyph glyph-name="apple" unicode="&#xf000;" horiz-adv-x="1618" 
d="M836 1216q-1 6 -1.5 14t-0.5 23q0 124 95 229.5t236 131.5q1 -10 1.5 -23t0.5 -39q0 -131 -103.5 -234.5t-203.5 -103.5h-8q-3 0 -7.5 1t-8.5 1zM1505 403q-114 -247 -205 -342.5t-204 -95.5q-50 0 -131.5 33t-122.5 33q-45 0 -131 -33t-127 -33q-64 0 -128.5 44
t-129.5 132q-102 140 -157.5 295.5t-55.5 300.5q0 219 125 356.5t323 137.5q68 0 155 -34t124 -34q34 0 121.5 35t152.5 35q110 0 198 -40t161 -124q-102 -65 -151.5 -145.5t-49.5 -182.5q0 -113 60 -200t173 -138z" />
    <glyph glyph-name="Ograve" unicode="&#xd2;" horiz-adv-x="1581" 
d="M895 1305q-120 0 -226 -59t-188 -171q-86 -118 -134 -268.5t-48 -302.5q0 -204 103 -321t280 -117q121 0 229.5 59t190.5 170q86 117 132 265t46 308q0 206 -102 321.5t-283 115.5zM72 565q0 171 65.5 325.5t188.5 272.5q123 119 270.5 179.5t312.5 60.5q280 0 439 -162
t159 -446q0 -164 -65 -315t-189 -273q-120 -119 -265.5 -179.5t-311.5 -60.5q-280 0 -442 161t-162 437zM1134 1517h-67l-244 203q-32 26 -43.5 45t-11.5 41q0 28 20 49t47 21q21 0 44 -15.5t42 -42.5z" />
    <glyph glyph-name="Uacute" unicode="&#xda;" horiz-adv-x="1591" 
d="M1663 1374l-12 -65q-100 -15 -144.5 -60.5t-66.5 -171.5l-115 -649q-22 -125 -65 -200t-125 -136q-79 -57 -196.5 -90t-248.5 -33q-126 0 -235 29t-166 76q-61 47 -89 103t-28 130q0 26 3 54t9 61l121 676q7 41 8.5 57.5t1.5 28.5q0 56 -32.5 83t-118.5 42l10 65h557
l-12 -65q-100 -15 -144 -60.5t-67 -171.5l-115 -653q-4 -23 -6 -46t-2 -46q0 -120 91 -186t257 -66q213 0 328 86.5t149 271.5l119 660q6 34 8 53t2 33q0 56 -32.5 83t-118.5 42l10 65h465zM887 1517h-72l299 314q19 20 40.5 31.5t39.5 11.5q28 0 49 -21t21 -49
q0 -21 -15.5 -40t-54.5 -44z" />
    <glyph glyph-name="Ucircumflex" unicode="&#xdb;" horiz-adv-x="1591" 
d="M1663 1374l-12 -65q-100 -15 -144.5 -60.5t-66.5 -171.5l-115 -649q-22 -125 -65 -200t-125 -136q-79 -57 -196.5 -90t-248.5 -33q-126 0 -235 29t-166 76q-61 47 -89 103t-28 130q0 26 3 54t9 61l121 676q7 41 8.5 57.5t1.5 28.5q0 56 -32.5 83t-118.5 42l10 65h557
l-12 -65q-100 -15 -144 -60.5t-67 -171.5l-115 -653q-4 -23 -6 -46t-2 -46q0 -120 91 -186t257 -66q213 0 328 86.5t149 271.5l119 660q6 34 8 53t2 33q0 56 -32.5 83t-118.5 42l10 65h465zM1245 1517h-55l-176 207l-277 -207h-67l309 348h104z" />
    <glyph glyph-name="Ugrave" unicode="&#xd9;" horiz-adv-x="1591" 
d="M1663 1374l-12 -65q-100 -15 -144.5 -60.5t-66.5 -171.5l-115 -649q-22 -125 -65 -200t-125 -136q-79 -57 -196.5 -90t-248.5 -33q-126 0 -235 29t-166 76q-61 47 -89 103t-28 130q0 26 3 54t9 61l121 676q7 41 8.5 57.5t1.5 28.5q0 56 -32.5 83t-118.5 42l10 65h557
l-12 -65q-100 -15 -144 -60.5t-67 -171.5l-115 -653q-4 -23 -6 -46t-2 -46q0 -120 91 -186t257 -66q213 0 328 86.5t149 271.5l119 660q6 34 8 53t2 33q0 56 -32.5 83t-118.5 42l10 65h465zM1128 1517h-67l-244 203q-32 26 -43.5 45t-11.5 41q0 28 20 49t47 21
q21 0 44 -15.5t42 -42.5z" />
    <glyph glyph-name="dotlessi" unicode="&#x131;" horiz-adv-x="639" 
d="M205 680q6 30 9 56t3 46q0 51 -29 73.5t-102 29.5l11 51q76 4 147.5 16.5t138.5 32.5h72l-129 -688q-1 -4 -3 -14q-12 -68 -12 -88q0 -49 23.5 -76t64.5 -27q31 0 67 14.5t81 45.5l35 -52q-70 -59 -137 -88.5t-130 -29.5q-96 0 -146 48.5t-50 141.5q0 26 4 60.5t12 74.5z
" />
    <glyph glyph-name="circumflex" unicode="&#x2c6;" 
d="M858 1116h-55l-176 207l-277 -207h-67l309 348h104z" />
    <glyph glyph-name="tilde" unicode="&#x2dc;" 
d="M907 1386q-18 -99 -62.5 -146.5t-117.5 -47.5q-17 0 -32.5 2t-28.5 6l-131 37l-12 3q-40 9 -58 9q-38 0 -61 -19t-31 -56h-49q15 94 58 141t114 47q14 0 30 -3t43 -11l131 -35q21 -5 34 -6.5t24 -1.5q42 0 65.5 19.5t34.5 61.5h49z" />
    <glyph glyph-name="macron" unicode="&#xaf;" 
d="M342 1202l23 125h512l-23 -125h-512z" />
    <glyph glyph-name="breve" unicode="&#x2d8;" 
d="M352 1427h56q7 -72 49.5 -108.5t120.5 -36.5q94 0 166.5 34.5t136.5 110.5h59q-81 -139 -172 -206.5t-199 -67.5q-109 0 -162 67.5t-55 206.5z" />
    <glyph glyph-name="dotaccent" unicode="&#x2d9;" 
d="M506 1266q0 42 32.5 75t73.5 33q45 0 77 -32t32 -76q0 -45 -31.5 -76t-77.5 -31q-43 0 -74.5 32t-31.5 75z" />
    <glyph glyph-name="ring" unicode="&#x2da;" 
d="M471 1337q0 -64 45 -108.5t111 -44.5q64 0 108.5 44.5t44.5 108.5q0 66 -44.5 111t-108.5 45q-66 0 -111 -45t-45 -111zM385 1337q0 102 70 172t172 70q101 0 170 -70t69 -172q0 -101 -69 -170t-170 -69q-102 0 -172 69t-70 170z" />
    <glyph glyph-name="cedilla" unicode="&#xb8;" 
d="M168 -373l35 80q62 -35 120 -53.5t103 -18.5q63 0 93 22.5t30 70.5q0 41 -30 65.5t-81 24.5q-15 0 -38 -3t-54 -10l62 195h63l-35 -112q17 2 32.5 3.5t31.5 2.5q83 0 131.5 -44t48.5 -120q0 -82 -59.5 -129t-163.5 -47q-55 0 -124.5 17.5t-164.5 55.5z" />
    <glyph glyph-name="hungarumlaut" unicode="&#x2dd;" 
d="M653 1116l193 301q16 27 37.5 42.5t42.5 15.5q24 0 43.5 -20.5t19.5 -45.5q0 -17 -10.5 -34.5t-38.5 -45.5l-221 -213h-66zM408 1116l153 295q21 39 36.5 51.5t37.5 12.5q26 0 46.5 -19t20.5 -41q0 -19 -10 -39.5t-33 -46.5l-190 -213h-61z" />
    <glyph glyph-name="ogonek" unicode="&#x2db;" 
d="M553 31q-91 -72 -136.5 -138t-45.5 -129q0 -54 27.5 -86t72.5 -32q41 0 70 17.5t49 53.5l31 -18q-36 -71 -91 -109.5t-122 -38.5q-70 0 -114 40.5t-44 103.5q0 88 62 170.5t190 165.5h51z" />
    <glyph glyph-name="caron" unicode="&#x2c7;" 
d="M367 1464h55l176 -207l276 207h68l-309 -348h-105z" />
    <glyph glyph-name="Lslash" unicode="&#x141;" horiz-adv-x="1294" 
d="M-51 0l12 66q101 16 144.5 61.5t66.5 173.5l49 279l-260 -152l19 104l260 152l73 409q6 36 8.5 57t2.5 34q0 54 -32.5 81t-121.5 44l12 65h555l-10 -65q-100 -17 -144 -62.5t-67 -173.5l-51 -291l377 217l-19 -104l-377 -217l-71 -416q-6 -33 -8 -51t-2 -31
q0 -49 47.5 -72.5t144.5 -23.5q151 0 295.5 86.5t282.5 259.5l61 -29l-195 -401h-1052z" />
    <glyph glyph-name="lslash" unicode="&#x142;" horiz-adv-x="635" 
d="M414 811l239 139l-14 -82l-240 -139l-84 -443q-6 -33 -10 -62t-4 -46q0 -46 22.5 -71t65.5 -25q31 0 68 14.5t80 42.5l34 -49q-70 -59 -136 -89t-128 -30q-97 0 -147.5 49t-50.5 142q0 24 4 58.5t12 74.5l68 356l-240 -139l14 82l240 139l74 397q6 36 9 62t3 39
q0 51 -28.5 73.5t-100.5 28.5l8 51q80 5 152 18t137 34h67z" />
    <glyph glyph-name="Scaron" unicode="&#x160;" horiz-adv-x="1348" 
d="M219 96l-53 -100h-70l-49 504l80 12q46 -202 180 -321t314 -119q174 0 294.5 87.5t120.5 213.5q0 84 -49 132.5t-207 100.5q-64 22 -184 52q-201 51 -270 102q-63 46 -94 106t-31 135q0 172 152 288t380 116q84 0 167.5 -26t170.5 -79l41 76h64l63 -397l-76 -12
q-56 165 -172.5 254.5t-275.5 89.5q-128 0 -218.5 -74t-90.5 -176q0 -130 285 -208q56 -15 87 -24q161 -46 230.5 -71.5t99.5 -46.5q69 -50 100 -108.5t31 -137.5q0 -73 -26 -142t-76 -126q-96 -112 -224.5 -170t-283.5 -58q-118 0 -218 31t-192 96zM613 1865h55l176 -207
l276 207h68l-309 -348h-105z" />
    <glyph glyph-name="scaron" unicode="&#x161;" horiz-adv-x="1022" 
d="M893 315q0 -147 -138 -245.5t-352 -98.5q-173 0 -304.5 69.5t-131.5 152.5q0 39 27.5 64.5t68.5 25.5q72 0 135 -94q13 -18 19 -27q39 -55 87.5 -81t111.5 -26q111 0 188.5 55.5t77.5 133.5q0 58 -45.5 97.5t-163.5 78.5q-237 76 -302 136t-65 159q0 127 114.5 211
t291.5 84q185 0 303.5 -56.5t118.5 -138.5q0 -35 -23 -56.5t-61 -21.5q-63 0 -117 73q-13 17 -20 25q-39 44 -91 68.5t-106 24.5q-91 0 -146 -44.5t-55 -117.5q0 -98 305 -196l1 -1q152 -48 212 -105.5t60 -148.5zM367 1464h55l176 -207l276 207h68l-309 -348h-105z" />
    <glyph glyph-name="Zcaron" unicode="&#x17d;" horiz-adv-x="1319" 
d="M-18 0l-37 74l1097 1208q-52 6 -100 9t-92 3q-213 0 -363 -77.5t-266 -245.5l-63 28l166 375h970l27 -88l-1069 -1169q76 -9 137.5 -14t106.5 -5q213 0 374.5 78.5t294.5 247.5l62 -33l-164 -391h-1081zM598 1865h55l176 -207l276 207h68l-309 -348h-105z" />
    <glyph glyph-name="zcaron" unicode="&#x17e;" horiz-adv-x="1167" 
d="M1032 979l35 -64l-774 -821q72 -10 134 -15t112 -5q99 0 156.5 19.5t90.5 64.5q10 13 26 44q45 87 118 87q45 0 70.5 -27t25.5 -76q0 -85 -94 -140.5t-244 -55.5q-19 0 -144 6t-231 6q-47 0 -133 -2.5t-117 -3.5l-34 65l775 822q-51 11 -99 16.5t-93 5.5q-88 0 -146 -21
t-89 -65q-10 -13 -26 -44q-44 -87 -118 -87q-44 0 -69 27t-25 76q0 84 93.5 139t244.5 55q15 0 133 -5t224 -5q53 0 174 3q16 1 24 1zM439 1464h55l176 -207l276 207h68l-309 -348h-105z" />
    <glyph glyph-name="brokenbar" unicode="&#xa6;" 
d="M449 408h126v-758h-126v758zM449 1432h126v-758h-126v758z" />
    <glyph glyph-name="Eth" unicode="&#xd0;" horiz-adv-x="1581" 
d="M-41 0l12 66q100 16 144 61.5t67 173.5l72 412h-234l15 84h233l54 297q1 9 4 26q8 48 8 64q0 54 -32.5 81t-121.5 44l13 65h524q211 0 316.5 -15.5t178.5 -51.5q144 -71 219.5 -199t75.5 -301q0 -160 -61 -308.5t-174 -265.5q-121 -124 -275 -178.5t-391 -54.5h-647z
M387 293q-6 -34 -9 -61.5t-3 -45.5q0 -55 35.5 -78.5t119.5 -23.5q145 0 275 39.5t213 107.5q118 98 188 262.5t70 346.5q0 224 -123.5 338t-366.5 114q-138 0 -186.5 -33.5t-69.5 -152.5l-55 -309h352l-14 -84h-352z" />
    <glyph glyph-name="eth" unicode="&#xf0;" horiz-adv-x="1135" 
d="M721 950q-41 82 -87.5 142.5t-98.5 101.5l-273 -92l-31 72l240 86q-41 38 -96.5 70.5t-124.5 60.5l80 49q75 -24 145 -58t133 -77l273 92l34 -70l-227 -84q167 -149 255.5 -320t88.5 -345q0 -112 -34.5 -211.5t-100.5 -180.5q-86 -104 -200.5 -159.5t-243.5 -55.5
q-197 0 -311.5 111.5t-114.5 300.5q0 101 36 200t103 181q80 98 191.5 154.5t224.5 56.5q34 0 69 -6.5t70 -18.5zM600 891q-160 0 -264.5 -160t-104.5 -409q0 -131 57.5 -199t168.5 -68q161 0 264.5 159t103.5 411q0 119 -62 192.5t-163 73.5z" />
    <glyph glyph-name="Yacute" unicode="&#xdd;" horiz-adv-x="1274" 
d="M625 281q-5 -31 -7 -51t-2 -37q0 -60 36 -90t116 -37l-12 -66h-557l12 66q100 16 144 61t67 174l49 283l-250 516l-12 24q-68 144 -186 185l10 65h538l-10 -65q-72 -11 -106.5 -36t-34.5 -67q0 -23 20 -65q7 -15 10 -22l197 -421l350 412q28 34 43 64t15 53
q0 30 -30.5 51.5t-86.5 30.5l12 65h477l-8 -65q-92 -25 -169 -80t-197 -199l-375 -448zM709 1517h-72l299 314q19 20 40.5 31.5t39.5 11.5q28 0 49 -21t21 -49q0 -21 -15.5 -40t-54.5 -44z" />
    <glyph glyph-name="yacute" unicode="&#xfd;" horiz-adv-x="1200" 
d="M737 127q-104 -72 -206 -107.5t-203 -35.5q-109 0 -170.5 53.5t-61.5 148.5q0 18 3.5 42t15.5 83l69 369q7 36 10 60.5t3 39.5q0 51 -29 73.5t-102 29.5l10 53q75 8 147 20t142 29h69l-131 -707q-5 -23 -7.5 -44.5t-2.5 -36.5q0 -51 33 -79t94 -28q74 0 160.5 38
t179.5 112l139 745h193l-179 -965q-26 -144 -67.5 -221.5t-114.5 -132.5q-81 -61 -173.5 -91t-199.5 -30q-172 0 -275 45.5t-103 118.5q0 38 26.5 64t67.5 26q28 0 50 -12t56 -53q55 -69 93.5 -88t93.5 -19q165 0 254 119.5t116 380.5zM588 1116h-72l299 314
q19 20 40.5 31.5t39.5 11.5q28 0 49 -21t21 -49q0 -21 -15.5 -40t-54.5 -44z" />
    <glyph glyph-name="Thorn" unicode="&#xde;" horiz-adv-x="1276" 
d="M524 1106h183q261 0 382 -83t121 -261q0 -227 -175.5 -345t-512.5 -118q-56 0 -86 1t-57 3l-6 -38q-3 -17 -4.5 -35t-1.5 -37q0 -60 35.5 -90t115.5 -37l-12 -66h-557l12 66q101 16 144.5 61.5t66.5 173.5l139 792q5 28 8 52t3 39q0 59 -35.5 88t-116.5 37l12 65h555
l-10 -65q-94 -17 -137 -54.5t-60 -119.5zM398 395q35 -3 67.5 -4.5t62.5 -1.5q238 0 361 95.5t123 281.5q0 128 -74.5 186t-239.5 58q-116 0 -160 -32t-65 -151z" />
    <glyph glyph-name="thorn" unicode="&#xfe;" horiz-adv-x="1255" 
d="M274 90l-51 -274q-1 -6 -3 -19q-7 -42 -7 -67q0 -56 33 -85t121 -48l-7 -52h-557l9 52q107 20 150.5 61t66.5 166l241 1306q6 29 9.5 54t3.5 37q0 59 -26.5 82t-102.5 30l10 51q79 5 150.5 17.5t136.5 34.5h69l-125 -686q86 121 187.5 182t216.5 61q160 0 255 -106.5
t95 -288.5q0 -119 -51 -239t-142 -214q-78 -81 -175 -123t-208 -42q-89 0 -161.5 26.5t-137.5 83.5zM295 197q44 -63 101 -93t130 -30q76 0 143.5 35.5t127.5 105.5q68 79 109.5 204t41.5 251q0 104 -50 163.5t-138 59.5q-176 0 -300.5 -185.5t-164.5 -510.5z" />
    <glyph glyph-name="minus" unicode="&#x2212;" horiz-adv-x="1706" 
d="M254 670h1198v-119h-1198v119z" />
    <glyph glyph-name="multiply" unicode="&#xd7;" horiz-adv-x="1706" 
d="M381 1169l477 -477l475 477l82 -82l-475 -477l475 -475l-82 -82l-475 475l-477 -475l-80 82l475 475l-475 477z" />
    <glyph glyph-name="onesuperior" unicode="&#xb9;" horiz-adv-x="823" 
d="M117 551l8 39q68 5 98.5 11t43.5 16q16 10 26 31.5t18 70.5l90 456q3 13 3.5 23t1.5 27q0 43 -25 58t-102 15h-17l8 37q83 9 137.5 18.5t90.5 22.5h80q-9 -35 -18.5 -78l-27.5 -129l-88 -455q-2 -9 -3 -20t-1 -30q0 -37 27 -52t118 -22l-7 -39h-461z" />
    <glyph glyph-name="twosuperior" unicode="&#xb2;" horiz-adv-x="823" 
d="M10 551v90q277 137 432.5 285t155.5 272q0 61 -43.5 95t-120.5 34q-80 0 -138 -35t-58 -80q0 -8 9 -31t9 -36q0 -31 -23 -50.5t-59 -19.5q-37 0 -56.5 18t-19.5 52q0 95 107.5 169.5t257.5 74.5q134 0 212.5 -54.5t78.5 -146.5q0 -118 -143 -248t-445 -287h301
q73 0 120.5 32t90.5 110l47 -19l-100 -225h-615z" />
    <glyph glyph-name="threesuperior" unicode="&#xb3;" horiz-adv-x="823" 
d="M518 1008q104 -13 153.5 -56.5t49.5 -124.5q0 -125 -121.5 -207.5t-310.5 -82.5q-131 0 -209 45.5t-78 119.5q0 44 29.5 73.5t72.5 29.5q31 0 47.5 -14.5t16.5 -40.5q0 -15 -10.5 -37.5t-10.5 -34.5q0 -36 42.5 -59t111.5 -23q126 0 198 64.5t72 177.5q0 72 -49.5 106.5
t-152.5 34.5q-17 0 -57 -3q-13 -1 -19 -1l12 53q6 0 16.5 -1t14.5 -1q121 0 193.5 49.5t72.5 130.5q0 63 -39.5 96t-113.5 33t-129.5 -29t-55.5 -63q0 -7 4 -24t4 -25q0 -30 -23 -49t-61 -19q-30 0 -47.5 15.5t-17.5 42.5q0 77 104.5 142t241.5 65q125 0 199.5 -49.5
t74.5 -131.5q0 -73 -62.5 -130t-162.5 -72z" />
    <glyph glyph-name="onequarter" unicode="&#xbc;" horiz-adv-x="1913" 
d="M1556 274l76 390q-87 -97 -356 -356l-35 -34h315zM1389 0l6 35q70 10 98 33.5t39 78.5l10 60h-381l-14 49q199 185 319 307t189 207h127l-96 -496h172v-10l-33 -57h-154l-12 -62q-1 -7 -3.5 -19.5t-2.5 -19.5q0 -32 21 -46.5t87 -24.5l-6 -35h-366zM444 -25l893 1424h131
l-893 -1424h-131zM111 606l8 35q6 1 16 2q102 11 119 25q25 17 42 89l1 5l84 428q3 16 4.5 26.5t1.5 18.5q0 39 -23.5 53.5t-97.5 14.5h-16l6 34q88 10 137.5 19t81.5 20h74q-18 -78 -26.5 -118t-14.5 -74l-84 -426q-2 -7 -3 -17.5t-1 -29.5q0 -34 25.5 -48.5t111.5 -21.5
l-6 -35h-440z" />
    <glyph glyph-name="onehalf" unicode="&#xbd;" horiz-adv-x="1913" 
d="M1137 0v84q265 128 414 266.5t149 253.5q0 56 -41.5 87.5t-116.5 31.5q-77 0 -131.5 -32t-54.5 -73q0 -8 9 -30t9 -35q0 -27 -22.5 -45.5t-57.5 -18.5q-34 0 -53.5 17t-19.5 47q0 90 103 159.5t247 69.5q128 0 203 -50t75 -136q0 -110 -136.5 -232.5t-426.5 -269.5h289
q67 0 112.5 30t88.5 103l45 -16l-97 -211h-587zM444 -25l893 1424h131l-893 -1424h-131zM111 606l8 35q6 1 16 2q102 11 119 25q25 17 42 89l1 5l84 428q3 16 4.5 26.5t1.5 18.5q0 39 -23.5 53.5t-97.5 14.5h-16l6 34q88 10 137.5 19t81.5 20h74q-18 -78 -26.5 -118
t-14.5 -74l-84 -426q-2 -7 -3 -17.5t-1 -29.5q0 -34 25.5 -48.5t111.5 -21.5l-6 -35h-440z" />
    <glyph glyph-name="threequarters" unicode="&#xbe;" horiz-adv-x="1913" 
d="M1556 274l76 390q-87 -97 -356 -356l-35 -34h315zM1389 0l6 35q70 10 98 33.5t39 78.5l10 60h-381l-14 49q199 185 319 307t189 207h127l-96 -496h172v-10l-33 -57h-154l-12 -62q-1 -7 -3.5 -19.5t-2.5 -19.5q0 -32 21 -46.5t87 -24.5l-6 -35h-366zM444 -25l893 1424h131
l-893 -1424h-131zM496 1032q98 -11 145 -52t47 -116q0 -117 -116 -193.5t-298 -76.5q-124 0 -198 42.5t-74 111.5q0 40 28 67t70 27q28 0 44 -13.5t16 -37.5q0 -13 -9.5 -34t-9.5 -32q0 -34 40 -56t106 -22q120 0 189 60.5t69 164.5q0 69 -47 101.5t-148 32.5q-15 0 -50 -3
q-13 -1 -19 -2l10 50h31q115 0 183 46t68 122q0 58 -37.5 89t-107.5 31t-123 -27t-53 -59q0 -7 4 -22.5t4 -24.5q0 -28 -22 -45.5t-58 -17.5q-29 0 -46 14t-17 39q0 72 100 132.5t232 60.5q119 0 190.5 -46.5t71.5 -121.5q0 -68 -61 -121.5t-154 -67.5z" />
    <glyph glyph-name="franc" unicode="&#x20a3;" horiz-adv-x="2236" 
d="M-51 0l12 66q101 16 144.5 61t66.5 172l141 795q6 37 8.5 56t2.5 32q0 54 -32.5 81t-121.5 44l12 67h1121l79 -409l-82 -13q-79 165 -210 245.5t-318 80.5q-129 0 -179.5 -32.5t-68.5 -131.5l-59 -336h106q143 0 204 49.5t102 182.5h65l-102 -582h-66v27q0 127 -47.5 174
t-183.5 47h-97l-69 -397q-6 -33 -8 -52.5t-2 -36.5q0 -59 35 -88t116 -36l-12 -66h-557zM1798 862q78 66 150.5 98.5t140.5 32.5q58 0 91.5 -26t33.5 -72q0 -47 -30 -75.5t-79 -28.5q-31 0 -89 24.5t-91 24.5q-72 0 -112 -54.5t-66 -193.5l-109 -592h-194l127 680
q6 35 9 61.5t3 38.5q0 51 -29 73.5t-102 29.5l10 50q76 4 147.5 17t139.5 35h72z" />
    <glyph glyph-name="Gbreve" unicode="&#x11e;" horiz-adv-x="1616" 
d="M1542 598q-94 -18 -135 -56.5t-66 -174.5l-65 -367h-113l-37 109q-103 -71 -207.5 -105.5t-218.5 -34.5q-278 0 -448 164t-170 432q0 145 49.5 284t142.5 259q112 144 270 221.5t339 77.5q111 0 203 -31t174 -96l63 96h63l21 -428l-84 -22q-68 193 -171 290t-243 97
q-109 0 -218 -65.5t-191 -180.5q-84 -117 -132.5 -262.5t-48.5 -282.5q0 -197 117 -322.5t297 -125.5q171 0 290.5 112t119.5 275q0 60 -36 93t-114 44l13 72h548zM731 1828h56q7 -72 49.5 -108.5t120.5 -36.5q94 0 166.5 34.5t136.5 110.5h59q-81 -139 -172 -206.5
t-199 -67.5q-109 0 -162 67.5t-55 206.5z" />
    <glyph glyph-name="gbreve" unicode="&#x11f;" horiz-adv-x="1198" 
d="M881 985h182l-180 -965q-28 -147 -68.5 -223t-114.5 -131q-79 -60 -180 -90.5t-219 -30.5q-154 0 -252 47.5t-98 118.5q0 38 26.5 63t67.5 25q29 0 51.5 -12t55.5 -51q54 -69 92.5 -88t93.5 -19q175 0 263.5 131t111.5 424q-87 -104 -174 -153t-183 -49q-149 0 -239 104
t-90 279q0 103 31 204t89 187q78 116 184 176.5t230 60.5q83 0 151 -26.5t130 -83.5zM823 776q-40 63 -92.5 93t-122.5 30q-161 0 -276 -174.5t-115 -425.5q0 -101 47 -159t127 -58q164 0 280 184.5t152 509.5zM440 1427h56q7 -72 49.5 -108.5t120.5 -36.5q94 0 166.5 34.5
t136.5 110.5h59q-81 -139 -172 -206.5t-199 -67.5q-109 0 -162 67.5t-55 206.5z" />
    <glyph glyph-name="Idotaccent" unicode="&#x130;" horiz-adv-x="672" 
d="M-51 0l12 66q101 16 144.5 61.5t66.5 173.5l141 792q6 36 8.5 57t2.5 34q0 54 -32.5 81t-121.5 44l12 65h555l-10 -65q-100 -16 -144 -62t-67 -174l-139 -792q-5 -29 -7.5 -51t-2.5 -37q0 -60 35.5 -90t115.5 -37l-12 -66h-557zM414 1667q0 42 32.5 75t73.5 33
q45 0 77 -32t32 -76q0 -45 -31.5 -76t-77.5 -31q-43 0 -74.5 32t-31.5 75z" />
    <glyph glyph-name="Scedilla" unicode="&#x15e;" horiz-adv-x="1348" 
d="M219 96l-53 -100h-70l-49 504l80 12q46 -202 180 -321t314 -119q174 0 294.5 87.5t120.5 213.5q0 84 -49 132.5t-207 100.5q-64 22 -184 52q-201 51 -270 102q-63 46 -94 106t-31 135q0 172 152 288t380 116q84 0 167.5 -26t170.5 -79l41 76h64l63 -397l-76 -12
q-56 165 -172.5 254.5t-275.5 89.5q-128 0 -218.5 -74t-90.5 -176q0 -130 285 -208q56 -15 87 -24q161 -46 230.5 -71.5t99.5 -46.5q69 -50 100 -108.5t31 -137.5q0 -73 -26 -142t-76 -126q-96 -112 -224.5 -170t-283.5 -58q-118 0 -218 31t-192 96zM258 -373l35 80
q62 -35 120 -53.5t103 -18.5q63 0 93 22.5t30 70.5q0 41 -30 65.5t-81 24.5q-15 0 -38 -3t-54 -10l62 195h63l-35 -112q17 2 32.5 3.5t31.5 2.5q83 0 131.5 -44t48.5 -120q0 -82 -59.5 -129t-163.5 -47q-55 0 -124.5 17.5t-164.5 55.5z" />
    <glyph glyph-name="scedilla" unicode="&#x15f;" horiz-adv-x="1022" 
d="M893 315q0 -147 -138 -245.5t-352 -98.5q-173 0 -304.5 69.5t-131.5 152.5q0 39 27.5 64.5t68.5 25.5q72 0 135 -94q13 -18 19 -27q39 -55 87.5 -81t111.5 -26q111 0 188.5 55.5t77.5 133.5q0 58 -45.5 97.5t-163.5 78.5q-237 76 -302 136t-65 159q0 127 114.5 211
t291.5 84q185 0 303.5 -56.5t118.5 -138.5q0 -35 -23 -56.5t-61 -21.5q-63 0 -117 73q-13 17 -20 25q-39 44 -91 68.5t-106 24.5q-91 0 -146 -44.5t-55 -117.5q0 -98 305 -196l1 -1q152 -48 212 -105.5t60 -148.5zM168 -373l35 80q62 -35 120 -53.5t103 -18.5q63 0 93 22.5
t30 70.5q0 41 -30 65.5t-81 24.5q-15 0 -38 -3t-54 -10l62 195h63l-35 -112q17 2 32.5 3.5t31.5 2.5q83 0 131.5 -44t48.5 -120q0 -82 -59.5 -129t-163.5 -47q-55 0 -124.5 17.5t-164.5 55.5z" />
    <glyph glyph-name="Cacute" unicode="&#x106;" horiz-adv-x="1481" 
d="M1278 420l86 -39q-137 -210 -300 -310t-368 -100q-287 0 -457.5 162t-170.5 432q0 145 49 283t143 258q112 144 270 222.5t336 78.5q109 0 200.5 -31.5t176.5 -97.5l64 96h65l19 -483h-84q-49 201 -156.5 310.5t-255.5 109.5q-110 0 -219 -65t-191 -179
q-84 -117 -132 -262.5t-48 -282.5q0 -199 116 -321.5t302 -122.5q161 0 296 83t259 259zM844 1517h-72l299 314q19 20 40.5 31.5t39.5 11.5q28 0 49 -21t21 -49q0 -21 -15.5 -40t-54.5 -44z" />
    <glyph glyph-name="cacute" unicode="&#x107;" horiz-adv-x="1018" 
d="M895 174q-109 -104 -218.5 -154.5t-227.5 -50.5q-190 0 -306 114.5t-116 299.5q0 102 37.5 203.5t105.5 183.5q95 114 212 174t245 60q145 0 235 -64.5t90 -165.5q0 -45 -30 -76.5t-74 -31.5q-78 0 -87 108q-1 7 -1 10q-8 70 -43.5 106t-95.5 36q-75 0 -140.5 -44.5
t-115.5 -129.5q-56 -94 -85.5 -195t-29.5 -197q0 -139 68.5 -215.5t191.5 -76.5q68 0 146 38t194 132zM549 1116h-72l299 314q19 20 40.5 31.5t39.5 11.5q28 0 49 -21t21 -49q0 -21 -15.5 -40t-54.5 -44z" />
    <glyph glyph-name="Ccaron" unicode="&#x10c;" horiz-adv-x="1481" 
d="M1278 420l86 -39q-137 -210 -300 -310t-368 -100q-287 0 -457.5 162t-170.5 432q0 145 49 283t143 258q112 144 270 222.5t336 78.5q109 0 200.5 -31.5t176.5 -97.5l64 96h65l19 -483h-84q-49 201 -156.5 310.5t-255.5 109.5q-110 0 -219 -65t-191 -179
q-84 -117 -132 -262.5t-48 -282.5q0 -199 116 -321.5t302 -122.5q161 0 296 83t259 259zM711 1865h55l176 -207l276 207h68l-309 -348h-105z" />
    <glyph glyph-name="ccaron" unicode="&#x10d;" horiz-adv-x="1018" 
d="M895 174q-109 -104 -218.5 -154.5t-227.5 -50.5q-190 0 -306 114.5t-116 299.5q0 102 37.5 203.5t105.5 183.5q95 114 212 174t245 60q145 0 235 -64.5t90 -165.5q0 -45 -30 -76.5t-74 -31.5q-78 0 -87 108q-1 7 -1 10q-8 70 -43.5 106t-95.5 36q-75 0 -140.5 -44.5
t-115.5 -129.5q-56 -94 -85.5 -195t-29.5 -197q0 -139 68.5 -215.5t191.5 -76.5q68 0 146 38t194 132zM416 1464h55l176 -207l276 207h68l-309 -348h-105z" />
    <glyph glyph-name="dcroat" unicode="&#x111;" horiz-adv-x="1290" 
d="M778 223q-88 -123 -189.5 -184.5t-215.5 -61.5q-158 0 -254 106t-96 279q0 253 170 441t405 188q90 0 162 -26.5t139 -83.5l41 225h-326l13 63l323 1q3 21 4.5 36.5t1.5 22.5q0 52 -27 74.5t-100 29.5l9 51q77 7 148 19.5t138 32.5h66l-49 -267h233l-12 -63h-232
l-149 -807q-6 -30 -9 -57.5t-3 -46.5q0 -49 23 -75t65 -26q32 0 66.5 14.5t74.5 45.5l35 -52q-69 -58 -139 -88t-138 -30q-86 0 -134 49t-48 139q0 14 4 46v5zM879 774q-52 65 -107.5 94t-124.5 29q-171 0 -295.5 -177t-124.5 -425q0 -101 51.5 -159t141.5 -58
q171 0 296 187.5t163 508.5z" />
    <glyph glyph-name="sfthyphen" unicode="&#xad;" horiz-adv-x="674" 
d="M23 408l75 170h477l-75 -170h-477z" />
    <glyph glyph-name="periodcentered" unicode="&#x2219;" horiz-adv-x="623" 
d="M174 688q0 58 39.5 97.5t97.5 39.5q59 0 98.5 -39.5t39.5 -97.5t-39.5 -97.5t-98.5 -39.5q-58 0 -97.5 39.5t-39.5 97.5z" />
    <glyph glyph-name="euro" horiz-adv-x="1247" 
d="M-25 588h154q2 52 9.5 104.5t21.5 104.5h-158l25 73h153q81 240 246.5 384.5t370.5 144.5q89 0 154 -27t136 -94l50 96h65l25 -483h-82q-39 199 -123 305.5t-201 106.5q-132 0 -241 -114.5t-177 -318.5h586l-24 -73h-586q-14 -51 -24 -104t-15 -105h575l-24 -74h-553
q2 -200 89 -314t239 -114q128 0 236.5 81t211.5 253l86 -41q-113 -206 -247.5 -302.5t-309.5 -96.5q-237 0 -368.5 137.5t-143.5 396.5h-180z" />
    <glyph glyph-name="euro" unicode="&#x20ac;" horiz-adv-x="1247" 
d="M-25 588h154q2 52 9.5 104.5t21.5 104.5h-158l25 73h153q81 240 246.5 384.5t370.5 144.5q89 0 154 -27t136 -94l50 96h65l25 -483h-82q-39 199 -123 305.5t-201 106.5q-132 0 -241 -114.5t-177 -318.5h586l-24 -73h-586q-14 -51 -24 -104t-15 -105h575l-24 -74h-553
q2 -200 89 -314t239 -114q128 0 236.5 81t211.5 253l86 -41q-113 -206 -247.5 -302.5t-309.5 -96.5q-237 0 -368.5 137.5t-143.5 396.5h-180z" />
    </font>
</defs>
</svg>
