<?xml version="1.0" standalone="no"?>
<!DOCTYPE svg PUBLIC "-//W3C//DTD SVG 1.1//EN" "http://www.w3.org/Graphics/SVG/1.1/DTD/svg11.dtd" >
<svg>
<metadata>
Created by FontForge 20090622 at Wed Jun 17 13:28:04 2015
 By deploy user
Copyright 1990-1998 Bitstream Inc.  All rights reserved.
</metadata>
<defs>
<font id="BookmanITCbyBT-DemiItalic" horiz-adv-x="1024" >
  <font-face 
    font-family="BookmanITC Lt BT"
    font-weight="700"
    font-style="italic"
    font-stretch="normal"
    units-per-em="2048"
    panose-1="2 5 8 4 5 5 5 9 2 4"
    ascent="1556"
    descent="-492"
    x-height="1014"
    cap-height="1384"
    bbox="-522 -592 2697 1956"
    underline-thickness="195"
    underline-position="-126"
    slope="-10"
    unicode-range="U+0020-U+F002"
  />
<missing-glyph horiz-adv-x="1229" 
d="M102 -362v1806h1024v-1806h-1024zM217 -248h795v1577h-795v-1577z" />
    <glyph glyph-name=".notdef" horiz-adv-x="1229" 
d="M102 -362v1806h1024v-1806h-1024zM217 -248h795v1577h-795v-1577z" />
    <glyph glyph-name=".null" horiz-adv-x="0" 
 />
    <glyph glyph-name="nonmarkingreturn" horiz-adv-x="668" 
 />
    <glyph glyph-name="space" unicode=" " horiz-adv-x="668" 
 />
    <glyph glyph-name="exclam" unicode="!" horiz-adv-x="782" 
d="M111 145q0 83 56 140t136 57q72 0 114 -43t42 -117q0 -83 -56 -140.5t-137 -57.5q-71 0 -113 43.5t-42 117.5zM254 461q16 103 24.5 216.5t8.5 237.5q0 29 -2 106t-2 126q0 120 60.5 193t160.5 73q81 0 129.5 -46t48.5 -122q0 -71 -76 -248q-19 -44 -28 -67
q-76 -181 -111 -287.5t-45 -181.5h-168z" />
    <glyph glyph-name="quotedbl" unicode="&#x22;" horiz-adv-x="717" 
d="M553 846h-45l-84 463q-3 15 -3.5 22.5t-0.5 14.5q0 54 29.5 86t80.5 32t81 -31.5t30 -84.5q0 -16 -0.5 -24.5t-1.5 -15.5zM207 846h-43l-86 462q-3 16 -3.5 23.5t-0.5 14.5q0 54 29.5 86t80.5 32q52 0 82.5 -31.5t30.5 -84.5q0 -8 -1 -17t-3 -22z" />
    <glyph glyph-name="numbersign" unicode="#" horiz-adv-x="1575" 
d="M705 844l-84 -236h253l84 236h-253zM684 1466h248l-139 -393h241l140 393h247l-139 -393h270l-86 -229h-266l-82 -234h277l-84 -229h-275l-141 -393h-248l141 393h-241l-141 -393h-248l141 393h-276l86 229h272l82 234h-285l86 229h281z" />
    <glyph glyph-name="dollar" unicode="$" horiz-adv-x="1337" 
d="M438 -188l43 245q-202 11 -320 91.5t-118 205.5q0 67 42.5 109.5t109.5 42.5q55 0 89.5 -27.5t73.5 -111.5q47 -100 97.5 -137t130.5 -37q106 0 187 66t81 151q0 104 -235 183l-64 21q-201 71 -279.5 148t-78.5 194q0 159 141.5 270.5t372.5 129.5l39 219h114l-39 -223
q184 -18 290 -87.5t106 -170.5q0 -54 -37 -90.5t-90 -36.5q-25 0 -48 9t-49 30q-13 10 -40 62t-50 83q-25 33 -71.5 51.5t-106.5 18.5q-93 0 -158 -49.5t-65 -116.5q0 -62 54.5 -104t242.5 -103q223 -71 301 -141t78 -183q0 -206 -158 -334t-428 -139l-41 -239h-117z" />
    <glyph glyph-name="percent" unicode="%" horiz-adv-x="1862" 
d="M1264 356q0 -117 33 -174t102 -57q67 0 100 57t33 174q0 119 -32.5 175.5t-100.5 56.5q-69 0 -102 -57t-33 -175zM999 356q0 170 111 275.5t289 105.5q177 0 287 -105.5t110 -275.5q0 -169 -110.5 -275t-288.5 -106q-177 0 -287.5 106t-110.5 275zM330 1040
q0 -118 32.5 -174.5t100.5 -56.5t101.5 57.5t33.5 173.5q0 118 -33.5 175t-101.5 57t-100.5 -56.5t-32.5 -175.5zM383 -25l917 1446h179l-918 -1446h-178zM66 1042q0 169 110.5 274t288.5 105t287.5 -104.5t109.5 -274.5q0 -169 -111 -276t-288 -107q-176 0 -286.5 107
t-110.5 276z" />
    <glyph glyph-name="ampersand" unicode="&#x26;" horiz-adv-x="1901" 
d="M582 1030q0 -60 26 -93.5t72 -33.5q65 0 114.5 71.5t49.5 170.5q0 53 -28.5 82.5t-78.5 29.5q-65 0 -110 -65t-45 -162zM893 231q-48 38 -176 286l-8 15q-37 68 -88.5 107t-104.5 39q-74 0 -120 -50t-46 -132q0 -138 93.5 -233t228.5 -95q46 0 100 15.5t121 47.5z
M1004 106q-117 -68 -241 -103.5t-245 -35.5q-225 0 -363.5 115t-138.5 301q0 161 106.5 274t303.5 160q-75 23 -114.5 74t-39.5 125q0 176 138.5 287.5t361.5 111.5q156 0 254 -77t98 -197q0 -115 -82 -202.5t-225 -123.5q135 -66 219.5 -161t128.5 -232q126 127 185 225
t59 178q0 20 -7.5 39t-31.5 52l-15 18q-59 68 -59 139q0 76 46.5 124t119.5 48q82 0 127 -66t45 -186q0 -175 -100 -360.5t-283 -345.5q50 -56 105.5 -83.5t118.5 -27.5q48 0 82.5 20.5t39.5 48.5q3 17 7 47q10 80 28 109q23 34 52 51t63 17q55 0 91 -37.5t36 -95.5
q0 -47 -22.5 -98t-65.5 -101q-69 -81 -170.5 -125.5t-218.5 -44.5q-111 0 -209 35t-184 104z" />
    <glyph glyph-name="quotesingle" unicode="'" horiz-adv-x="371" 
d="M207 846h-43l-86 462q-3 16 -3.5 23.5t-0.5 14.5q0 53 31 85.5t81 32.5q51 0 81 -31.5t30 -84.5q0 -8 -1 -17t-3 -22z" />
    <glyph glyph-name="parenleft" unicode="(" horiz-adv-x="764" 
d="M473 -336q-174 26 -259 136.5t-85 310.5q0 63 12 159.5t35 229.5q51 288 85.5 412t78.5 208q74 139 183 211.5t259 83.5l-26 -151q-103 -18 -166.5 -121t-118.5 -350q-53 -239 -83 -438.5t-30 -299.5q0 -114 34.5 -173.5t107.5 -69.5z" />
    <glyph glyph-name="parenright" unicode=")" horiz-adv-x="764" 
d="M248 1415q173 -26 257.5 -137t84.5 -311q0 -67 -11.5 -164.5t-33.5 -222.5q-50 -278 -85.5 -407.5t-80.5 -215.5q-74 -139 -182.5 -211.5t-257.5 -83.5l26 154q102 17 165 118.5t118 350.5q53 238 82.5 438.5t29.5 300.5q0 115 -33.5 173t-105.5 69z" />
    <glyph glyph-name="asterisk" unicode="*" 
d="M453 1024q-147 10 -203.5 37t-56.5 84q0 48 33 87.5t75 39.5q37 0 74 -32t117 -146l32 18q-40 87 -54.5 131.5t-14.5 71.5q0 47 30 73.5t82 26.5q53 0 82 -26.5t29 -73.5q0 -27 -15 -71.5t-55 -131.5l33 -18q81 114 118.5 146t74.5 32q42 0 75 -39.5t33 -87.5
q0 -57 -56.5 -84t-203.5 -37v-39q146 -10 203 -37.5t57 -83.5q0 -48 -33 -87.5t-75 -39.5q-39 0 -78 34t-115 142l-33 -16q40 -87 55 -131.5t15 -71.5q0 -47 -29 -73.5t-82 -26.5q-51 0 -80.5 27t-29.5 73q0 30 16.5 78t52.5 125l-32 16q-79 -111 -117 -143.5t-76 -32.5
q-42 0 -76.5 39.5t-34.5 87.5q0 57 60.5 85t202.5 36v39z" />
    <glyph glyph-name="plus" unicode="+" horiz-adv-x="1706" 
d="M735 1221h238v-494h479v-231h-479v-496h-238v496h-481v231h481v494z" />
    <glyph glyph-name="comma" unicode="," horiz-adv-x="668" 
d="M193 0h-7q-70 0 -109.5 36t-39.5 99q0 98 68 169t163 71q76 0 119 -48.5t43 -133.5q0 -107 -75.5 -214t-237.5 -229l-76 80q61 51 98 92.5t54 77.5z" />
    <glyph glyph-name="hyphen" unicode="-" horiz-adv-x="674" 
d="M0 379l106 237h500l-104 -237h-502z" />
    <glyph glyph-name="period" unicode="." horiz-adv-x="668" 
d="M74 145q0 86 68.5 154t156.5 68q74 0 117 -43t43 -117q0 -89 -67.5 -157t-155.5 -68q-75 0 -118.5 44t-43.5 119z" />
    <glyph glyph-name="slash" unicode="/" horiz-adv-x="569" 
d="M37 -190h-160l586 1605h160z" />
    <glyph glyph-name="zero" unicode="0" horiz-adv-x="1337" 
d="M750 1257q-78 0 -140.5 -56.5t-109.5 -172.5q-52 -124 -80.5 -277.5t-28.5 -312.5q0 -147 49 -221t146 -74q78 0 140 57t110 173q52 125 80 273t28 300q0 155 -49 233t-145 78zM553 -27q-237 0 -370.5 148.5t-133.5 415.5q0 187 58.5 354t166.5 291q106 121 234.5 183
t271.5 62q238 0 372 -151t134 -420q0 -187 -62 -356.5t-177 -296.5q-102 -112 -228 -171t-266 -59z" />
    <glyph glyph-name="one" unicode="1" horiz-adv-x="1337" 
d="M135 0l29 162l115 10q89 9 124 52.5t60 187.5l98 581q6 34 8 53t2 31q0 38 -29 59t-89 27l-113 11l25 145q157 6 281.5 26t219.5 54h119l-182 -1041q-1 -5 -2 -14q-6 -41 -6 -59q0 -57 31 -83t108 -32l119 -8l-29 -162h-889z" />
    <glyph glyph-name="two" unicode="2" horiz-adv-x="1337" 
d="M20 0l-20 219q412 214 630 433t218 417q0 82 -55.5 132t-145.5 50q-83 0 -148 -42.5t-65 -90.5q0 -5 20.5 -47t20.5 -82q0 -71 -52 -116.5t-134 -45.5q-70 0 -112 43.5t-42 114.5q0 60 25.5 121.5t72.5 114.5q89 100 215 149t295 49q223 0 357.5 -102.5t134.5 -269.5
q0 -185 -168 -354t-621 -419h293q128 0 198.5 44t145.5 161l136 -57l-187 -422h-1012z" />
    <glyph glyph-name="three" unicode="3" horiz-adv-x="1337" 
d="M999 739q106 -39 160.5 -110t54.5 -168q0 -214 -193.5 -350t-506.5 -136q-241 0 -382.5 92.5t-141.5 245.5q0 92 55.5 148.5t144.5 56.5q68 0 108 -37t40 -100q0 -25 -13.5 -63.5t-13.5 -57.5q0 -40 58 -70t143 -30q137 0 219 84t82 225q0 98 -73.5 152.5t-207.5 54.5
q-12 0 -27.5 -1l-45.5 -3l35 176q48 -6 68.5 -8t33.5 -2q125 0 206 69t81 174q0 82 -51 127t-144 45q-80 0 -134 -32.5t-54 -77.5q0 -12 5 -38.5t5 -41.5q0 -64 -52 -107t-130 -43q-76 0 -116 38.5t-40 111.5q0 147 162 252.5t401 105.5q232 0 378.5 -101t146.5 -257
q0 -111 -65.5 -192t-195.5 -132z" />
    <glyph glyph-name="four" unicode="4" horiz-adv-x="1337" 
d="M676 551l96 547l-252 -277.5l-260 -269.5h416zM391 0l29 162q107 6 156 50.5t63 147.5h-606l-47 160q216 206 424 425l411 454h336l-147 -836h288l-92 -203h-233q-4 -28 -6 -53t-2 -41q0 -57 38 -80.5t134 -23.5l-29 -162h-717z" />
    <glyph glyph-name="five" unicode="5" horiz-adv-x="1337" 
d="M393 907q82 39 165.5 57.5t174.5 18.5q221 0 346 -111.5t125 -308.5q0 -137 -62.5 -252.5t-185.5 -204.5q-88 -63 -197 -94.5t-239 -31.5q-227 0 -361 89t-134 236q0 91 56.5 150t143.5 59q69 0 111.5 -41.5t42.5 -107.5q0 -28 -14.5 -67.5t-14.5 -51.5q0 -36 39 -59
t103 -23q139 0 234 112.5t95 278.5q0 105 -66.5 172.5t-170.5 67.5q-77 0 -147.5 -43.5t-137.5 -133.5l-147 56q54 220 91.5 400t59.5 325h914l-95 -266h-682z" />
    <glyph glyph-name="six" unicode="6" horiz-adv-x="1337" 
d="M444 817q83 55 169 82t182 27q213 0 334.5 -107.5t121.5 -296.5q0 -236 -181.5 -391.5t-463.5 -155.5q-259 0 -403 144.5t-144 402.5q0 166 48.5 327t134.5 281q101 141 256.5 216t343.5 75q202 0 328 -75.5t126 -192.5q0 -72 -46 -117t-120 -45q-48 0 -82 18.5t-51 53.5
q-14 28 -19 70t-7 49q-9 27 -49 44t-97 17q-141 0 -236 -106.5t-145 -319.5zM700 737q-130 0 -211 -100.5t-81 -263.5q0 -101 53.5 -155t152.5 -54q129 0 209 96.5t80 253.5q0 106 -53 164.5t-150 58.5z" />
    <glyph glyph-name="seven" unicode="7" horiz-adv-x="1337" 
d="M352 0q70 267 247.5 540t492.5 595h-498q-122 0 -169.5 -23t-84.5 -82l-70 -108l-155 41l143 436h1088l28 -189q-269 -300 -419.5 -600.5t-186.5 -609.5h-416z" />
    <glyph glyph-name="eight" unicode="8" horiz-adv-x="1337" 
d="M324 717q-76 42 -112 100.5t-36 140.5q0 196 171.5 329.5t432.5 133.5q212 0 341.5 -92.5t129.5 -241.5q0 -98 -58.5 -174t-180.5 -137q122 -60 172.5 -127.5t50.5 -169.5t-50 -198t-141 -166q-85 -69 -201 -103.5t-263 -34.5q-260 0 -413 101.5t-153 271.5
q0 127 78.5 219.5t231.5 147.5zM500 627q-103 -42 -157 -105.5t-54 -140.5q0 -105 78.5 -163t220.5 -58q139 0 222 53.5t83 140.5q0 110 -337 249zM817 872q91 36 130.5 83t39.5 118q0 76 -60.5 124t-158.5 48q-112 0 -181 -43.5t-69 -111.5q0 -52 34 -90t103 -64z" />
    <glyph glyph-name="nine" unicode="9" horiz-adv-x="1337" 
d="M629 659q129 0 210 101t81 264q0 101 -53 155t-152 54q-131 0 -211 -97t-80 -257q0 -104 54 -162t151 -58zM883 580q-80 -56 -165 -82.5t-181 -26.5q-215 0 -338 108.5t-123 297.5q0 236 182 390t465 154q258 0 401.5 -144t143.5 -403q0 -166 -48 -326t-133 -280
q-99 -139 -255.5 -216t-344.5 -77q-201 0 -328.5 76.5t-127.5 192.5q0 72 46 117t122 45q48 0 81.5 -18.5t49.5 -51.5q14 -29 20.5 -72t7.5 -48q9 -28 49 -45t97 -17q141 0 235 106t144 320z" />
    <glyph glyph-name="colon" unicode=":" horiz-adv-x="668" 
d="M45 145q0 86 68.5 154t156.5 68q74 0 117 -43t43 -117q0 -89 -67.5 -157t-155.5 -68q-74 0 -118 44t-44 119zM154 780q0 86 67.5 153.5t155.5 67.5q74 0 118 -44t44 -117q0 -88 -67.5 -156t-156.5 -68q-74 0 -117.5 44.5t-43.5 119.5z" />
    <glyph glyph-name="semicolon" unicode=";" horiz-adv-x="668" 
d="M158 780q0 86 68.5 153.5t156.5 67.5q73 0 116.5 -43.5t43.5 -117.5q0 -88 -67.5 -156t-156.5 -68q-74 0 -117.5 44.5t-43.5 119.5zM201 0h-6q-70 0 -109 35.5t-39 99.5q0 99 67 169.5t162 70.5q76 0 119 -48.5t43 -133.5q0 -108 -75 -215t-236 -228l-76 80
q59 49 95.5 90.5t54.5 79.5z" />
    <glyph glyph-name="less" unicode="&#x3c;" horiz-adv-x="1706" 
d="M1442 1214v-253l-854 -351l854 -348v-254l-1178 486v233z" />
    <glyph glyph-name="equal" unicode="=" horiz-adv-x="1706" 
d="M254 502h1198v-230h-1198v230zM254 950h1198v-231h-1198v231z" />
    <glyph glyph-name="greater" unicode="&#x3e;" horiz-adv-x="1706" 
d="M264 1214l1178 -487v-233l-1178 -486v254l854 348l-854 351v253z" />
    <glyph glyph-name="question" unicode="?" horiz-adv-x="1251" 
d="M471 449q8 126 39 194.5t110 130.5q5 4 70 48.5t103 90.5q25 32 38 69t13 79q0 89 -56 140.5t-153 51.5q-82 0 -130 -27.5t-48 -74.5q0 -8 3 -31.5t3 -38.5q0 -77 -46 -124.5t-120 -47.5q-69 0 -111.5 40.5t-42.5 105.5q0 145 153 252.5t374 107.5q236 0 376 -96
t140 -256q0 -118 -63 -215.5t-177 -157.5q-27 -14 -83 -37q-122 -49 -165 -100q-16 -20 -25.5 -46.5t-10.5 -57.5h-191zM358 145q0 83 55.5 140t135.5 57q72 0 115 -43t43 -117q0 -83 -57 -140.5t-138 -57.5q-71 0 -112.5 43t-41.5 118z" />
    <glyph glyph-name="at" unicode="@" horiz-adv-x="2019" 
d="M1171 313q-60 -95 -130 -143.5t-148 -48.5q-156 0 -241 90t-85 256q0 116 50.5 223.5t146.5 196.5q68 62 150 95.5t167 33.5q96 0 150 -44t67 -132l48 157h208l-174 -624q-8 -34 -11 -53t-3 -35q0 -45 19 -72t51 -27q30 0 84.5 27.5t101.5 69.5q97 87 148 211.5t51 273.5
q0 121 -34 219.5t-101 171.5q-99 109 -235.5 166t-299.5 57q-139 0 -265 -39.5t-233 -117.5q-166 -120 -255 -303t-89 -404q0 -336 205 -531.5t557 -195.5q163 0 315 49.5t316 157.5l41 -57q-151 -113 -321 -170.5t-351 -57.5q-432 0 -687 224.5t-255 601.5q0 202 87.5 381
t252.5 313q137 112 302.5 169.5t350.5 57.5q349 0 559.5 -189.5t210.5 -504.5q0 -164 -59 -302t-172 -239q-59 -52 -128 -80t-140 -28q-98 0 -156.5 52.5t-65.5 143.5zM1128 942q-60 0 -110 -44t-98 -140q-57 -112 -88 -218.5t-31 -187.5q0 -71 32.5 -113t86.5 -42
q59 0 115 60.5t108 180.5q42 99 67 198.5t25 166.5t-27.5 103t-79.5 36z" />
    <glyph glyph-name="A" unicode="A" horiz-adv-x="1470" 
d="M510 651h319l-86 422zM-162 0l27 166q79 0 134 39.5t130 169.5l586 1009h295l237 -1050q21 -97 57 -132.5t109 -35.5h21l-29 -166h-707l25 162h14q98 0 138 23.5t40 78.5q0 9 -1.5 22t-8.5 48l-35 160h-448l-100 -185q-13 -23 -20 -45t-7 -37q0 -34 29.5 -49.5
t95.5 -15.5h26l-28 -162h-580z" />
    <glyph glyph-name="B" unicode="B" horiz-adv-x="1503" 
d="M186 1384h795q232 0 344.5 -72t112.5 -220q0 -143 -93.5 -236t-257.5 -113q158 -10 233 -80t75 -204q0 -104 -47 -194.5t-136 -155.5q-77 -59 -167.5 -84t-282.5 -25h-19h-796l28 166q86 4 125 41t56 133l125 709q2 10 3 20.5t1 30.5q0 58 -31 86.5t-96 32.5zM569 659
l-65 -349l-3 -20q-5 -31 -5 -40q0 -44 33 -63t110 -19q183 0 289 84t106 227q0 101 -68.5 140.5t-267.5 39.5h-129zM596 825h139q102 0 150 6t78 19q66 29 104.5 82t38.5 117q0 82 -68 122.5t-204 40.5q-109 0 -144.5 -23t-50.5 -114z" />
    <glyph glyph-name="C" unicode="C" horiz-adv-x="1450" 
d="M1231 459l147 -103q-118 -196 -286 -293.5t-390 -97.5q-302 0 -471.5 159t-169.5 443q0 154 45 290.5t132 248.5q115 149 266 228t319 79q103 0 182 -25t146 -79l35 90l108 6l107 -559l-154 -27q-59 200 -156.5 299t-234.5 99q-178 0 -300 -185t-122 -463
q0 -206 80 -304.5t248 -98.5q132 0 249 73t220 220z" />
    <glyph glyph-name="D" unicode="D" horiz-adv-x="1587" 
d="M-53 0l28 166q86 4 125 41t56 133l125 709q2 10 3 20.5t1 30.5q0 58 -31 86.5t-96 32.5l28 165h510q257 0 365 -16t182 -53q136 -68 209.5 -193.5t73.5 -292.5q0 -214 -85 -392.5t-239 -289.5q-111 -79 -252.5 -113t-402.5 -34h-600zM508 309q-1 -9 -4 -26q-4 -26 -4 -33
q0 -39 24.5 -57.5t77.5 -18.5q102 0 203 43t172 117q82 85 131 215.5t49 265.5q0 186 -93 290.5t-257 104.5q-84 0 -116 -23t-48 -112z" />
    <glyph glyph-name="E" unicode="E" horiz-adv-x="1522" 
d="M-53 0l29 166q86 6 123.5 41t54.5 133l127 709q3 18 4.5 33t1.5 26q0 51 -33 79t-96 32l28 165h1164l114 -446l-139 -47q-72 162 -201.5 240.5t-324.5 78.5q-79 0 -111 -25t-47 -110l-43 -243q10 -2 21 -2.5t32 -0.5q117 0 170.5 48.5t73.5 171.5h145l-108 -617h-139
l3 33.5t1 19.5q0 86 -40.5 128t-123.5 42q-16 0 -33 -1.5t-35 -4.5l-59 -333q-3 -17 -4.5 -32t-1.5 -28q0 -49 33 -68.5t118 -19.5q181 0 343.5 92t312.5 279l131 -74l-224 -465h-1267z" />
    <glyph glyph-name="F" unicode="F" horiz-adv-x="1384" 
d="M-53 0l29 166q86 6 123.5 41t54.5 133l127 709q3 18 4.5 33t1.5 26q0 51 -33 79t-96 32l28 165h1108l115 -446l-139 -47q-65 150 -191 234.5t-284 84.5q-76 0 -107 -24.5t-47 -110.5l-49 -255q10 -2 20.5 -2.5t30.5 -0.5q121 0 176 48.5t72 170.5h145l-108 -626h-139
l3 34t1 19q0 86 -40.5 128t-123.5 42q-15 0 -32 -1.5t-36 -5.5l-55 -310q-3 -20 -4.5 -35t-1.5 -25q0 -48 35.5 -68t129.5 -22l-28 -166h-690z" />
    <glyph glyph-name="G" unicode="G" horiz-adv-x="1599" 
d="M1550 719l-26 -158q-145 -10 -172 -152q-1 -9 -2 -14l-76 -395h-215l-23 111q-86 -70 -178 -104t-194 -34q-263 0 -433 170t-170 435q0 186 69 346.5t202 285.5q110 103 235 154t264 51q96 0 184.5 -28t174.5 -84l45 96h104l86 -502l-145 -27q-75 171 -181.5 259
t-238.5 88q-180 0 -303 -185t-123 -463q0 -193 71.5 -291t211.5 -98t229.5 78t89.5 197q0 57 -33.5 81.5t-113.5 24.5h-10l26 158h645z" />
    <glyph glyph-name="H" unicode="H" horiz-adv-x="1640" 
d="M-53 0l28 166q86 4 125 41t56 133l125 709q2 10 3 20.5t1 30.5q0 58 -31 86.5t-96 32.5l28 165h658l-29 -161q-83 -4 -122.5 -42.5t-55.5 -131.5l-39 -222h492l38 227q3 18 5 33.5t2 24.5q0 52 -32 79t-97 32l28 161h660l-31 -165q-85 -5 -123.5 -41.5t-54.5 -133.5
l-127 -710q-2 -9 -3 -20t-1 -29q0 -60 29.5 -87t98.5 -32l-28 -166h-659l28 161q83 4 123 42t55 131l58 328h-490l-59 -332q-3 -20 -4.5 -34t-1.5 -24q0 -51 31 -78.5t93 -31.5l-28 -162h-653z" />
    <glyph glyph-name="I" unicode="I" horiz-adv-x="795" 
d="M844 1384l-29 -165q-86 -5 -125 -41.5t-55 -133.5l-125 -710q-2 -9 -3 -20t-1 -29q0 -60 29.5 -87t98.5 -32l-28 -166h-659l28 166q86 4 125 41t56 133l125 709q2 10 3 20.5t1 30.5q0 58 -31 86.5t-96 32.5l28 165h658z" />
    <glyph glyph-name="J" unicode="J" horiz-adv-x="1323" 
d="M1083 477q-33 -193 -85.5 -284.5t-147.5 -141.5q-75 -40 -174.5 -61t-212.5 -21q-226 0 -359 99.5t-133 265.5q0 117 67 191.5t171 74.5q75 0 122.5 -43.5t47.5 -112.5q0 -33 -11.5 -60t-33.5 -48q-9 -8 -30 -21q-48 -32 -48 -63q0 -37 50.5 -65.5t121.5 -28.5
q48 0 94.5 13.5t85.5 39.5q46 30 71 79t48 185l98 557q6 35 8.5 52.5t2.5 25.5q0 55 -37 81t-131 36l26 157h723l-28 -157q-62 -11 -98.5 -22t-51.5 -23q-40 -32 -54 -123q-3 -22 -5 -34z" />
    <glyph glyph-name="K" unicode="K" horiz-adv-x="1593" 
d="M-53 0l28 166q86 4 125 41t56 133l125 709q2 10 3 20.5t1 30.5q0 58 -31 86.5t-96 32.5l28 165h654l-29 -161q-79 -4 -118.5 -43.5t-55.5 -130.5l-49 -283l381 307l12 10q84 70 84 91q0 23 -24 37t-64 14q-13 0 -19.5 -0.5t-13.5 -1.5l29 161h674l-31 -172
q-108 -13 -191.5 -44.5t-144.5 -80.5l-264 -213l266 -514q54 -103 110 -147.5t131 -46.5l-30 -166h-713l29 161q82 6 110.5 20t28.5 46q0 33 -33 100l-3 6l-177 337l-190 -144l-35 -196q-3 -15 -4.5 -28.5t-1.5 -25.5q0 -52 28.5 -79t92.5 -35l-29 -162h-649z" />
    <glyph glyph-name="L" unicode="L" horiz-adv-x="1395" 
d="M844 1384l-29 -161q-83 -4 -122.5 -42.5t-55.5 -131.5l-127 -719q-3 -20 -4.5 -34t-1.5 -24q0 -52 33 -80t96 -28q155 0 316 105t274 282l133 -78l-226 -473h-1183l28 166q86 4 125 41t56 133l125 709q2 10 3 20.5t1 30.5q0 58 -31 86.5t-96 32.5l28 165h658z" />
    <glyph glyph-name="M" unicode="M" horiz-adv-x="1774" 
d="M496 1147l-140 -818q-3 -19 -4.5 -34t-1.5 -23q0 -51 31 -78t94 -33l-29 -161h-503l28 166q89 4 129 41t56 133l125 709q2 12 4 26t2 25q0 56 -32 85.5t-97 33.5l28 165h592l72 -624q4 -34 6 -81t2 -114q15 45 33.5 90.5t42.5 96.5l297 632h596l-29 -165
q-85 -4 -127 -43.5t-57 -131.5l-127 -710q-2 -9 -3 -20t-1 -29q0 -60 29.5 -87t98.5 -32l-28 -166h-676l27 166q6 0 17 -1t16 -1q73 0 109 35t59 135l143 633l19 83.5l30 133.5l-563 -1184h-143l-109 915q-6 55 -10 111t-6 121z" />
    <glyph glyph-name="N" unicode="N" horiz-adv-x="1446" 
d="M1522 1384l-29 -165q-86 -5 -125 -41.5t-55 -133.5l-180 -1044h-248l-420 1075l-127 -745q-3 -19 -4.5 -34t-1.5 -24q0 -51 30.5 -78t93.5 -32l-28 -162h-481l28 166q86 4 125 41t56 133l125 709q2 10 3 20.5t1 30.5q0 58 -31 86.5t-96 32.5l28 165h553l314 -817l75 487
q3 18 5 34t2 26q0 50 -32 77t-97 32l28 161h488z" />
    <glyph glyph-name="O" unicode="O" horiz-adv-x="1602" 
d="M877 1245q-198 0 -317.5 -198.5t-119.5 -530.5q0 -186 73 -280.5t216 -94.5q192 0 312 201t120 528q0 181 -74 278t-210 97zM61 573q0 153 45.5 289t135.5 250q116 150 278.5 227.5t360.5 77.5q293 0 476 -169t183 -437q0 -152 -46 -290t-134 -249q-115 -145 -284.5 -224
t-368.5 -79q-285 0 -465.5 169.5t-180.5 434.5z" />
    <glyph glyph-name="P" unicode="P" horiz-adv-x="1403" 
d="M586 756q26 -4 52.5 -6t55.5 -2q156 0 244 77t88 211q0 88 -54.5 131t-164.5 43q-83 0 -115 -22.5t-49 -112.5zM-53 0l28 166q86 4 125 41t56 133l125 709q2 10 3 20.5t1 30.5q0 58 -31 86.5t-96 32.5l28 165h615q207 0 294.5 -15t149.5 -50q67 -39 102 -108.5t35 -161.5
t-30 -171t-88 -143q-80 -85 -183 -120t-297 -35h-231l-41 -248q-4 -20 -6 -37t-2 -27q0 -45 37 -68.5t125 -33.5l-35 -166h-684z" />
    <glyph glyph-name="Q" unicode="Q" horiz-adv-x="1602" 
d="M1331 238q19 -45 28 -85t9 -75q0 -230 -207 -370t-553 -140q-260 0 -432 93.5t-172 227.5q0 67 47.5 109.5t122.5 42.5q34 0 61 -12t46 -35q25 -33 32 -105l6 -44q8 -40 99.5 -70.5t218.5 -30.5q181 0 301.5 74.5t120.5 179.5q0 10 -1.5 19.5t-4.5 20.5
q-82 -35 -165.5 -53t-170.5 -18q-291 0 -473.5 169.5t-182.5 436.5q0 150 46 288t133 249q116 150 280 228.5t361 78.5q296 0 478.5 -170.5t182.5 -445.5q0 -161 -54 -305.5t-157 -257.5zM1085 420q42 95 64 211t22 243q0 179 -76 275t-216 96q-114 0 -201 -58t-143 -171
q-50 -102 -78.5 -233t-28.5 -263q0 -134 35 -221.5t98 -113.5q-3 12 -4.5 24.5t-1.5 23.5q0 98 96.5 160t251.5 62q46 0 91 -9t91 -26zM926 201q-37 29 -74.5 43t-79.5 14q-41 0 -64.5 -16t-23.5 -43q0 -25 24.5 -40.5t65.5 -15.5q39 0 78.5 15t73.5 43z" />
    <glyph glyph-name="R" unicode="R" horiz-adv-x="1460" 
d="M590 793l7 -1q59 -4 85 -4q177 0 274 66.5t97 185.5q0 84 -58.5 125t-177.5 41q-94 0 -128.5 -26.5t-47.5 -102.5zM-53 0l28 162q89 13 125 46.5t54 131.5l125 709q1 6 3 19q5 32 5 42q0 50 -33 77.5t-96 31.5l28 165h703q273 0 397.5 -78.5t124.5 -248.5
q0 -150 -92 -256.5t-258 -147.5l162 -338q41 -85 88.5 -119t122.5 -34l-29 -162h-397l-287 608h-164l-47 -278q-3 -14 -4.5 -26.5t-1.5 -24.5q0 -55 29.5 -83t95.5 -34l-29 -162h-653z" />
    <glyph glyph-name="S" unicode="S" horiz-adv-x="1485" 
d="M197 551q67 -195 193.5 -295t307.5 -100q127 0 209 57.5t82 142.5q0 125 -299 198q-51 13 -77 19q-113 30 -180 53t-97 44q-84 57 -125 131.5t-41 167.5q0 196 165 321t429 125q107 0 209.5 -30t202.5 -91l45 82h129l16 -434l-147 -10q-54 146 -166.5 225.5t-264.5 79.5
q-112 0 -179.5 -44t-67.5 -116q0 -115 286 -181q53 -12 83 -20l13 -3q243 -59 339 -144q60 -54 90 -121t30 -145q0 -207 -183 -350.5t-456 -143.5q-115 0 -222.5 30t-215.5 91l-43 -90h-129l-90 526z" />
    <glyph glyph-name="T" unicode="T" horiz-adv-x="1485" 
d="M610 1214q-138 -13 -244 -88t-202 -229l-135 64l200 423h1172l98 -458l-153 -29q-57 159 -143 229t-236 80l-154 -872q-4 -21 -6 -38.5t-2 -27.5q0 -47 31 -72t95 -30l-28 -166h-659l31 166q83 3 124.5 42.5t57.5 131.5z" />
    <glyph glyph-name="U" unicode="U" horiz-adv-x="1501" 
d="M125 1219l29 165h657l-29 -161q-82 -4 -122.5 -43.5t-55.5 -130.5l-88 -543q-1 -8 -4 -25q-10 -71 -10 -90q0 -99 65 -159t172 -60q150 0 240 78.5t117 232.5l94 572q3 22 4.5 36t1.5 21q0 52 -31 79t-96 32l27 161h485l-29 -165q-85 -5 -124.5 -41.5t-55.5 -133.5
l-102 -577q-28 -159 -63 -228t-99 -124q-82 -71 -208.5 -108.5t-285.5 -37.5q-229 0 -354 86.5t-125 245.5q0 59 24 210l3 20l88 518q0 2 1 9q3 27 3 40q0 58 -31.5 87.5t-97.5 33.5z" />
    <glyph glyph-name="V" unicode="V" horiz-adv-x="1370" 
d="M453 -14l-230 1091q-15 72 -51.5 102t-118.5 40l29 165h696l-28 -161q-95 -7 -136 -30.5t-41 -70.5q0 -19 4 -48t13 -77l121 -630l364 731q6 11 9 23t3 22q0 33 -35.5 54t-101.5 26l29 161h543l-31 -165q-86 -5 -136.5 -39t-117.5 -162l-545 -1032h-239z" />
    <glyph glyph-name="W" unicode="W" horiz-adv-x="1896" 
d="M358 -14l-141 1061q-12 90 -41 124.5t-94 47.5l29 165h589l-28 -161q-66 -5 -93.5 -26t-27.5 -64q0 -3 1 -10t1 -11l74 -651l286 581l-10 72q-10 60 -37 82t-90 27l29 161h606l-29 -161h-12q-75 0 -105 -22t-30 -75q0 -13 1 -28t3 -37l78 -627l279 595l2 5q40 87 40 115
q0 31 -36.5 51t-98.5 23l29 161h491l-28 -165q-65 -4 -110 -47t-103 -166l-486 -1020h-239l-101 749l-368 -749h-230z" />
    <glyph glyph-name="X" unicode="X" horiz-adv-x="1530" 
d="M-78 0l29 166h4q74 0 151 47.5t158 142.5l303 357l-164 305q-64 118 -116 157.5t-131 43.5l28 165h709l-29 -161h-24q-54 0 -81.5 -12.5t-27.5 -36.5q0 -20 8.5 -44.5t24.5 -54.5l100 -180l168 195q21 24 34 47t13 37q0 23 -23.5 37t-64.5 14q-11 0 -17 -0.5t-11 -1.5
l28 161h578l-29 -165q-106 -18 -177.5 -56t-129.5 -108l-272 -322l219 -409q39 -73 102.5 -116.5t130.5 -43.5q11 0 17 0.5t9 1.5l-28 -166h-743l28 162h15q65 0 90.5 17.5t25.5 60.5q0 11 -6.5 29.5t-19.5 41.5l-139 250l-207 -258l-1 -1q-42 -53 -42 -91q0 -25 28.5 -37
t89.5 -12h17l-29 -162h-596z" />
    <glyph glyph-name="Y" unicode="Y" horiz-adv-x="1370" 
d="M782 334q0 -4 -1 -11q-7 -41 -7 -59q0 -56 31 -76t126 -22l-28 -166h-696l29 166q98 0 141.5 36.5t60.5 137.5l43 242l-184 405l-5 11q-91 199 -222 225l26 161h686l-26 -155h-13q-71 0 -108 -16.5t-37 -47.5q0 -10 6.5 -30.5t26.5 -69.5l125 -297l262 319q21 27 32 47
t11 33q0 27 -32 43.5t-89 18.5l27 155h532l-29 -161q-82 -23 -147 -67.5t-127 -121.5l-371 -452z" />
    <glyph glyph-name="Z" unicode="Z" horiz-adv-x="1497" 
d="M72 0l-43 129l936 1069q-7 0 -19 1q-69 3 -98 3q-182 0 -317 -74t-238 -231l-150 49l176 436h1063l54 -143l-928 -1073q21 -2 45.5 -3t71.5 -1q231 0 386 87t249 269l147 -51l-201 -467h-1134z" />
    <glyph glyph-name="bracketleft" unicode="[" horiz-adv-x="717" 
d="M401 -303h-364l297 1687h383l-29 -161h-70q-55 0 -77.5 -22t-36.5 -107l-201 -1123q-3 -17 -4.5 -29.5t-1.5 -21.5q0 -33 18 -47t64 -14h51z" />
    <glyph glyph-name="backslash" unicode="\" horiz-adv-x="569" 
d="M342 -190l-223 1605h149l230 -1605h-156z" />
    <glyph glyph-name="bracketright" unicode="]" horiz-adv-x="717" 
d="M240 1384h364l-299 -1687h-381l29 162h70q55 0 77.5 22t36.5 107l201 1122q3 17 4.5 29.5t1.5 21.5q0 34 -18 48t-64 14h-51z" />
    <glyph glyph-name="asciicircum" unicode="^" horiz-adv-x="2048" 
d="M893 1462h260l479 -565h-121l-489 348l-490 -348h-120z" />
    <glyph glyph-name="underscore" unicode="_" 
d="M0 -244h1024v-239h-1024v239z" />
    <glyph glyph-name="grave" unicode="`" 
d="M778 1145h-104l-260 190q-35 26 -49.5 45.5t-14.5 38.5q0 38 24 63t60 25q26 0 49 -14t49 -47z" />
    <glyph glyph-name="a" unicode="a" horiz-adv-x="1323" 
d="M1061 391q-6 -32 -8 -49.5t-2 -28.5q0 -50 20.5 -76t61.5 -26q22 0 46.5 11.5t53.5 35.5l92 -108q-84 -84 -172.5 -125t-185.5 -41q-94 0 -152 40t-80 119q-75 -81 -158 -120t-180 -39q-173 0 -277 111t-104 298q0 118 41.5 228.5t118.5 199.5q86 100 201.5 152.5
t249.5 52.5q71 0 129.5 -15.5t105.5 -47.5l25 51h287zM827 786q-40 32 -80.5 47t-82.5 15q-73 0 -127.5 -38.5t-96.5 -119.5q-40 -77 -62 -161t-22 -160q0 -95 37.5 -142t112.5 -47q123 0 197 138.5t124 467.5z" />
    <glyph glyph-name="b" unicode="b" horiz-adv-x="1294" 
d="M403 219q41 -31 80.5 -46t81.5 -15q74 0 128 37.5t95 117.5q40 77 62 162t22 162q0 94 -37 140t-112 46q-122 0 -195.5 -136.5t-124.5 -467.5zM246 1096q4 20 6 35t2 24q0 42 -28.5 60.5t-100.5 21.5l29 145q101 10 188 25.5t164 38.5h135l-104 -535q50 56 124 84.5
t166 28.5q178 0 281.5 -111t103.5 -301q0 -117 -41 -227.5t-118 -200.5q-88 -100 -199 -151t-240 -51q-80 0 -140.5 15t-104.5 46l-29 -43h-309z" />
    <glyph glyph-name="c" unicode="c" horiz-adv-x="1155" 
d="M932 338l104 -121q-124 -124 -261.5 -185t-295.5 -61q-215 0 -340 116t-125 316q0 128 51 248t144 209q87 85 203 129.5t247 44.5q193 0 310.5 -73t117.5 -189q0 -78 -55 -129t-139 -51q-68 0 -109 33.5t-41 89.5q0 20 7.5 49.5t7.5 40.5q0 28 -23 46.5t-59 18.5
q-62 0 -122.5 -43.5t-111.5 -124.5q-41 -65 -65.5 -150t-24.5 -163q0 -100 59 -158.5t158 -58.5q76 0 167.5 42t195.5 124z" />
    <glyph glyph-name="d" unicode="d" horiz-adv-x="1323" 
d="M827 786q-40 32 -80.5 47t-82.5 15q-73 0 -127 -38t-97 -118q-40 -77 -62 -162t-22 -161q0 -95 37.5 -142t112.5 -47q124 0 197.5 137t123.5 469zM1061 391q-5 -24 -7.5 -43t-2.5 -35q0 -50 20.5 -75t61.5 -25q23 0 48 11t52 34l92 -108q-85 -85 -173.5 -126.5
t-184.5 -41.5q-93 0 -151 39.5t-81 119.5q-75 -81 -158 -120t-180 -39q-173 0 -277 111.5t-104 299.5q0 120 41.5 230t118.5 198q86 100 201.5 152.5t249.5 52.5q71 0 129.5 -15.5t105.5 -47.5l27 133q4 17 6 32.5t2 26.5q0 43 -29 62t-99 22l28 145q92 10 179.5 25
t172.5 37h137z" />
    <glyph glyph-name="e" unicode="e" horiz-adv-x="1128" 
d="M396 588q177 1 284.5 57t107.5 143q0 42 -28 66.5t-76 24.5q-96 0 -175 -79t-113 -212zM924 344l106 -123q-126 -128 -263.5 -189t-297.5 -61q-202 0 -326.5 118t-124.5 308q0 123 53 241t146 204q106 97 226.5 144.5t258.5 47.5q174 0 276.5 -71.5t102.5 -190.5
q0 -154 -187 -240t-540 -94q-4 -16 -6 -33t-2 -36q0 -91 57.5 -142t159.5 -51q77 0 166 41.5t195 126.5z" />
    <glyph glyph-name="f" unicode="f" horiz-adv-x="809" 
d="M512 395q-37 -276 -91.5 -406t-154.5 -231q-102 -104 -242 -159.5t-298 -55.5q-111 0 -176.5 45t-65.5 119q0 64 48.5 108t121.5 44q31 0 61 -11t56 -32q7 -6 21 -21q50 -51 104 -51q112 0 182 132t112 425l78 547h-174l27 166h172l18 57q60 177 201.5 276t333.5 99
q122 0 189 -41t67 -115q0 -58 -45 -98.5t-111 -40.5q-47 0 -102 47q-8 7 -12 10l-19 16q-43 38 -76 38q-59 0 -90.5 -38.5t-50.5 -140.5l-12 -69h211l-27 -166h-197z" />
    <glyph glyph-name="g" unicode="g" horiz-adv-x="1280" 
d="M713 121q-59 -70 -136 -104.5t-171 -34.5q-173 0 -276 112t-103 299q0 118 41 228.5t118 199.5q86 100 201.5 152.5t249.5 52.5q71 0 128.5 -15.5t104.5 -47.5l19 51h299l-164 -862l-3 -17q-61 -317 -208 -440q-85 -71 -206.5 -109.5t-264.5 -38.5q-191 0 -304.5 58.5
t-113.5 154.5q0 65 47 108.5t117 43.5q44 0 79 -17t56 -48q3 -4 17.5 -38.5t33.5 -56.5q11 -11 34.5 -17.5t51.5 -6.5q137 0 224 96.5t129 296.5zM836 786q-41 32 -81.5 47t-82.5 15q-72 0 -125.5 -38t-95.5 -120q-41 -77 -62.5 -161t-21.5 -160q0 -95 37 -142t112 -47
q122 0 195.5 137.5t124.5 468.5z" />
    <glyph glyph-name="h" unicode="h" horiz-adv-x="1339" 
d="M31 0l213 1096q4 21 6 37.5t2 29.5q0 38 -27.5 54.5t-97.5 19.5l29 145q80 8 165 23.5t183 40.5h137l-100 -522q75 51 154.5 76.5t160.5 25.5q141 0 217 -66.5t76 -189.5q0 -54 -27 -178l-6 -29l-45 -211q-7 -33 -10.5 -56t-3.5 -32q0 -34 16.5 -52.5t46.5 -18.5
q24 0 52.5 11t62.5 34l78 -125q-88 -67 -172.5 -100t-169.5 -33q-116 0 -185 57t-69 151q0 18 3 41t11 68l61 298q4 17 9 42q10 50 10 63q0 54 -26.5 78.5t-84.5 24.5q-42 0 -91.5 -20t-106.5 -60l-142 -723h-329z" />
    <glyph glyph-name="i" unicode="i" horiz-adv-x="727" 
d="M498 1509q70 0 115.5 -45t45.5 -114q0 -89 -68.5 -158.5t-156.5 -69.5q-71 0 -117.5 45.5t-46.5 114.5q0 89 69.5 158t158.5 69zM459 346q-6 -33 -9.5 -54.5t-3.5 -29.5q0 -43 13.5 -60.5t44.5 -17.5q25 0 54 12t63 35l77 -129q-86 -68 -169.5 -100.5t-170.5 -32.5
q-114 0 -184 57.5t-70 149.5q0 23 3 51t10 64l69 368q4 19 6.5 34.5t2.5 25.5q0 43 -28.5 61.5t-102.5 22.5l28 149q87 9 174 24.5t174 37.5h144z" />
    <glyph glyph-name="j" unicode="j" horiz-adv-x="698" 
d="M391 -51q-19 -97 -52 -159t-91 -112q-71 -60 -172.5 -96.5t-198.5 -36.5q-152 0 -240 49.5t-88 133.5q0 56 42 93.5t106 37.5q31 0 61 -10.5t56 -30.5q20 -15 52.5 -59t63.5 -44q49 0 76 41t57 199l138 709q1 7 3 18q5 28 5 37q0 46 -29 65.5t-102 22.5l28 145
q85 8 171.5 23t177.5 39h143zM512 1509q70 0 116 -45t46 -114q0 -89 -69 -158.5t-156 -69.5q-71 0 -116.5 45.5t-45.5 114.5q0 90 68 158.5t157 68.5z" />
    <glyph glyph-name="k" unicode="k" horiz-adv-x="1337" 
d="M31 0l213 1096q4 21 6 37.5t2 29.5q0 38 -27.5 54.5t-97.5 19.5l29 145q80 8 165 23.5t183 40.5h137l-190 -942q164 254 345 387t363 133q78 0 122 -33.5t44 -91.5q0 -62 -41.5 -100.5t-107.5 -38.5q-32 0 -83.5 26.5t-78.5 26.5q-31 0 -67.5 -22t-86.5 -72
q20 -224 83 -358t144 -134q31 0 65 8t77 25l82 -113q-95 -82 -188 -123.5t-181 -41.5q-154 0 -256 131.5t-102 332.5v37q-80 -102 -128.5 -221t-70.5 -262h-354z" />
    <glyph glyph-name="l" unicode="l" horiz-adv-x="692" 
d="M430 348q-9 -43 -12.5 -64t-3.5 -30q0 -31 17.5 -48.5t47.5 -17.5q25 0 54 11t61 32l76 -127q-88 -67 -172 -100t-168 -33q-115 0 -184.5 57.5t-69.5 149.5q0 23 3 52t9 63l156 801q4 19 6 35t2 28q0 43 -26.5 60t-98.5 20l29 145q91 10 177.5 25.5t170.5 38.5h137z" />
    <glyph glyph-name="m" unicode="m" horiz-adv-x="2001" 
d="M94 952q85 8 171.5 23t176.5 39h121l-18 -99q100 57 177.5 82t151.5 25q106 0 176.5 -34t96.5 -97q100 68 189.5 100.5t176.5 32.5q141 0 217 -67t76 -191q0 -51 -24 -168q-6 -26 -8 -38l-43 -204q-2 -8 -6 -26q-11 -56 -11 -62q0 -34 16.5 -52.5t47.5 -18.5
q24 0 53.5 11.5t62.5 33.5l76 -127q-86 -67 -170 -99t-170 -32q-115 0 -184.5 57t-69.5 152q0 22 3 48.5t10 59.5l63 291q10 50 13 72t3 34q0 54 -26.5 78.5t-83.5 24.5q-44 0 -92 -19.5t-105 -60.5l-139 -721h-320l115 587q10 51 13 73.5t4 35.5q0 56 -26.5 80.5
t-84.5 24.5q-40 0 -89 -18.5t-108 -55.5l-141 -727h-328l129 663q3 16 4.5 31t2.5 27q0 46 -26.5 64.5t-100.5 21.5z" />
    <glyph glyph-name="n" unicode="n" horiz-adv-x="1364" 
d="M57 0l129 664q4 19 6.5 35t2.5 26q0 42 -29 60.5t-100 21.5l28 145q85 8 171.5 23t176.5 39h121l-18 -99q86 58 169 86.5t167 28.5q140 0 215 -67t75 -191q0 -61 -30 -205v-2l-45 -209l-2 -10q-15 -68 -15 -78q0 -34 16.5 -52.5t47.5 -18.5q24 0 53.5 11.5t63.5 33.5
l75 -127q-86 -67 -170 -99t-170 -32q-115 0 -184.5 57t-69.5 152q0 22 3 48.5t10 59.5l63 297q10 50 13 72t4 35q0 52 -26.5 76t-84.5 24q-45 0 -93.5 -19t-103.5 -59l-141 -727h-328z" />
    <glyph glyph-name="o" unicode="o" horiz-adv-x="1219" 
d="M635 866q-61 0 -111 -38.5t-84 -110.5q-36 -77 -57 -171.5t-21 -180.5q0 -117 36.5 -171.5t115.5 -54.5q117 0 194.5 144.5t77.5 365.5q0 110 -37.5 163.5t-113.5 53.5zM25 432q0 256 179 429t447 173q222 0 348.5 -123.5t126.5 -339.5q0 -262 -177.5 -431t-454.5 -169
q-215 0 -342 125t-127 336z" />
    <glyph glyph-name="p" unicode="p" horiz-adv-x="1323" 
d="M420 219q40 -31 80.5 -46t83.5 -15q73 0 127 37.5t96 117.5q40 77 62 162t22 162q0 94 -37 140t-113 46q-123 0 -197 -137.5t-124 -466.5zM-195 -449l31 154q95 10 134 46t61 147l147 766q4 19 6 35t2 26q0 42 -28.5 60.5t-99.5 21.5l28 145q108 10 194 25.5t158 36.5
h109l-27 -125q68 67 149 101t175 34q178 0 282.5 -111.5t104.5 -300.5q0 -117 -41.5 -227.5t-118.5 -200.5q-86 -98 -200.5 -151t-241.5 -53q-52 0 -111.5 15.5t-132.5 47.5l-27 -147q-6 -32 -9 -55t-3 -36q0 -46 33 -68t121 -32l-31 -154h-664z" />
    <glyph glyph-name="q" unicode="q" horiz-adv-x="1305" 
d="M842 786q-43 32 -83 47t-83 15q-74 0 -128.5 -38t-98.5 -120q-42 -78 -64.5 -162t-22.5 -161q0 -92 39.5 -139.5t114.5 -47.5q125 0 199.5 136t126.5 470zM442 -455l29 160q95 9 136.5 48.5t62.5 144.5l43 217q-73 -70 -144.5 -102.5t-150.5 -32.5q-183 0 -289 110.5
t-106 302.5q0 118 41 228.5t118 199.5q87 99 199.5 151t241.5 52q85 0 155.5 -22t122.5 -64l33 76h274l-215 -1118q-6 -32 -9 -55t-3 -36q0 -46 33 -68t121 -32l-33 -160h-660z" />
    <glyph glyph-name="r" unicode="r" 
d="M57 0l129 664q4 20 6.5 36t2.5 23q0 42 -29.5 61.5t-99.5 22.5l28 145q85 8 171.5 23t176.5 39h121l-18 -105q69 62 140.5 93.5t141.5 31.5q92 0 146.5 -43t54.5 -114q0 -70 -48.5 -113t-129.5 -43q-55 0 -114.5 33.5t-71.5 33.5q-62 0 -114 -80t-77 -216l-88 -492h-328z
" />
    <glyph glyph-name="s" unicode="s" horiz-adv-x="1174" 
d="M-6 199q0 52 41 89.5t100 37.5q31 0 60 -11t45 -29q11 -10 31 -31q108 -112 196 -112q72 0 122 35.5t50 85.5q0 41 -34 67.5t-146 59.5q-224 67 -281 123.5t-57 161.5q0 157 142 257.5t372 100.5q195 0 313.5 -57t118.5 -148q0 -50 -33.5 -80t-89.5 -30q-59 0 -132 60
q-18 15 -28 22q-51 40 -83.5 53.5t-67.5 13.5q-58 0 -97.5 -30.5t-39.5 -73.5q0 -66 163 -115q57 -17 91 -28q162 -54 221 -112t59 -153q0 -161 -162 -272t-413 -111q-206 0 -333.5 63.5t-127.5 162.5z" />
    <glyph glyph-name="t" unicode="t" horiz-adv-x="848" 
d="M221 848h-149l26 129q127 23 211.5 110t130.5 242h193l-62 -315h273l-33 -166h-270l-99 -490l-6 -35q-10 -49 -10 -65q0 -32 21 -51t57 -19q31 0 74.5 20t121.5 73l101 -131q-113 -92 -221 -137.5t-211 -45.5q-122 0 -194.5 59.5t-72.5 157.5q0 25 3.5 54t9.5 63z" />
    <glyph glyph-name="u" unicode="u" horiz-adv-x="1364" 
d="M737 92q-83 -56 -165.5 -83t-168.5 -27q-140 0 -216 66t-76 188q0 31 5.5 69.5t24.5 122.5l49 235q3 18 4 27t1 17q0 55 -26 75.5t-103 24.5l28 145q85 8 171.5 23t176.5 39h142l-117 -604q-9 -45 -13.5 -73t-4.5 -36q0 -51 26 -74.5t84 -23.5q45 0 94 20t101 60l141 731
h324l-129 -657q-5 -24 -8 -46t-3 -37q0 -39 16 -58t48 -19q24 0 53.5 11.5t63.5 33.5l75 -127q-87 -68 -171 -100.5t-169 -32.5q-74 0 -138 27t-120 83z" />
    <glyph glyph-name="v" unicode="v" horiz-adv-x="1159" 
d="M442 403q-6 -32 -10 -56.5t-4 -35.5q0 -45 22.5 -68.5t67.5 -23.5q108 0 198.5 110.5t90.5 250.5q0 39 -11.5 74t-46.5 88l-2 3q-51 78 -51 127q0 68 47 112t119 44q97 0 146 -64t49 -190q0 -147 -53 -302.5t-138 -260.5q-91 -114 -222.5 -178t-274.5 -64q-129 0 -206 69
t-77 183q0 12 1.5 26.5t6.5 44.5l72 362q7 36 9.5 53t2.5 26q0 36 -31 54t-95 20l26 145q86 8 173.5 23.5t176.5 38.5h133z" />
    <glyph glyph-name="w" unicode="w" horiz-adv-x="1817" 
d="M58 807l28 145q85 8 171.5 23t176.5 39h141l-116 -608q-10 -49 -14.5 -76.5t-4.5 -34.5q0 -51 27 -74.5t84 -23.5q45 0 94 20t100 59l144 738h328l-117 -608q-6 -35 -9.5 -58t-3.5 -37q0 -45 23 -68.5t68 -23.5q108 0 198 110t90 251q0 38 -11.5 72.5t-47.5 90.5l-6 9
q-47 73 -47 120q0 68 46.5 112t119.5 44q96 0 145 -64.5t49 -189.5q0 -146 -52.5 -300.5t-137.5 -260.5q-93 -115 -223 -178.5t-275 -63.5q-103 0 -170 35.5t-96 106.5q-88 -70 -179.5 -105t-185.5 -35q-140 0 -216.5 67t-76.5 189q0 50 23 154l8 39l51 241q3 19 3.5 27
t0.5 17q0 55 -27 76t-103 24z" />
    <glyph glyph-name="x" unicode="x" horiz-adv-x="1214" 
d="M371 516l-41 111q-38 105 -83 140.5t-130 37.5l29 143q79 5 153.5 19t149.5 39h106q21 -87 43.5 -160t48.5 -139q101 155 205 238t199 83q59 0 96 -31.5t37 -81.5q0 -64 -44 -108.5t-108 -44.5q-10 0 -29.5 2t-29.5 2q-64 0 -130.5 -58t-135.5 -176l47 -112
q46 -112 85.5 -157.5t86.5 -45.5q25 0 56 13t75 42l90 -114q-102 -96 -188.5 -141.5t-165.5 -45.5q-113 0 -201.5 91.5t-151.5 273.5q-81 -174 -180 -269.5t-197 -95.5q-55 0 -94 38.5t-39 92.5q0 121 204 146q9 1 13 2q47 6 101.5 71t122.5 195z" />
    <glyph glyph-name="y" unicode="y" horiz-adv-x="1313" 
d="M1051 125q-38 -196 -82.5 -281.5t-122.5 -150.5q-85 -71 -207.5 -109.5t-263.5 -38.5q-192 0 -305 58t-113 153q0 64 47 107t117 43q42 0 77.5 -17.5t57.5 -48.5q1 -1 16 -35t35 -57q11 -11 34.5 -17.5t51.5 -6.5q135 0 223 94.5t121 275.5q-84 -57 -167 -85.5
t-167 -28.5q-140 0 -216 66.5t-76 189.5q0 31 5.5 69.5t24.5 122.5l49 235q3 18 4 27t1 17q0 55 -26 75.5t-103 24.5l28 145q85 8 171.5 23t176.5 39h142l-117 -604q-9 -45 -13.5 -73t-4.5 -36q0 -51 26 -74.5t84 -23.5q45 0 94 20t101 60l141 731h324z" />
    <glyph glyph-name="z" unicode="z" horiz-adv-x="1145" 
d="M-18 147l651 684q-32 7 -61 10t-54 3q-98 0 -143 -92q-4 -8 -6 -13q-32 -65 -66 -87.5t-90 -22.5q-58 0 -94.5 36t-36.5 95q0 118 106 190t285 72q54 0 204 -16.5t249 -16.5q36 0 54.5 0.5t35.5 1.5l51 -121l-643 -677q40 -8 73 -11.5t58 -3.5q69 0 108.5 22t71.5 81
q30 55 61.5 76.5t80.5 21.5q66 0 107.5 -42t41.5 -108q0 -108 -95.5 -172.5t-258.5 -64.5q-45 0 -201 12t-266 12q-29 0 -66.5 -3t-99.5 -11z" />
    <glyph glyph-name="braceleft" unicode="{" 
d="M852 1516v-66q-111 -3 -152 -54t-41 -208v-131q0 -227 -50.5 -308.5t-184.5 -113.5q134 -33 184.5 -113.5t50.5 -306.5v-131q0 -158 41 -209.5t152 -55.5v-63h-12q-229 0 -314.5 74t-85.5 272v187q0 168 -54.5 230t-207.5 77v80q153 14 207.5 76.5t54.5 230.5v186
q0 199 85.5 273t314.5 74h12z" />
    <glyph glyph-name="bar" unicode="|" 
d="M393 1565h240v-2048h-240v2048z" />
    <glyph glyph-name="braceright" unicode="}" 
d="M172 1516h12q229 0 314.5 -74t85.5 -273v-186q0 -168 54.5 -230.5t207.5 -76.5v-80q-153 -15 -207.5 -77t-54.5 -230v-187q0 -198 -85.5 -272t-314.5 -74h-12v63q111 4 152 55.5t41 209.5v131q0 226 50.5 306.5t184.5 113.5q-134 34 -184.5 115t-50.5 307v131
q0 157 -41 208t-152 54v66z" />
    <glyph glyph-name="asciitilde" unicode="~" horiz-adv-x="1706" 
d="M1530 819v-254q-101 -69 -194 -103t-183 -34q-45 0 -89 7.5t-83 21.5q-13 4 -38 13q-255 89 -382 89q-84 0 -175.5 -37.5t-207.5 -120.5v254q112 73 207.5 108.5t179.5 35.5q63 0 126.5 -12t169.5 -46q16 -5 51 -17q159 -56 247 -56q84 0 173.5 36t197.5 115z" />
    <glyph glyph-name="Adieresis" unicode="&#xc4;" horiz-adv-x="1470" 
d="M510 651h319l-86 422zM-162 0l27 166q79 0 134 39.5t130 169.5l586 1009h295l237 -1050q21 -97 57 -132.5t109 -35.5h21l-29 -166h-707l25 162h14q98 0 138 23.5t40 78.5q0 9 -1.5 22t-8.5 48l-35 160h-448l-100 -185q-13 -23 -20 -45t-7 -37q0 -34 29.5 -49.5
t95.5 -15.5h26l-28 -162h-580zM932 1690q0 45 36 80.5t83 35.5q50 0 85.5 -34t35.5 -82q0 -54 -34.5 -88.5t-86.5 -34.5q-49 0 -84 36t-35 87zM574 1690q0 45 36 80.5t82 35.5q51 0 86 -34t35 -82q0 -54 -34 -88.5t-87 -34.5q-48 0 -83 36t-35 87z" />
    <glyph glyph-name="Aring" unicode="&#xc5;" horiz-adv-x="1470" 
d="M743 1702q0 -60 41 -100.5t101 -40.5t101.5 40.5t41.5 100.5q0 59 -42 101t-101 42q-60 0 -101 -41.5t-41 -101.5zM633 1704q0 106 73 179t179 73t180 -73t74 -179t-74 -180t-180 -74t-179 74t-73 180zM510 651h321l-88 422zM-162 0l27 166q79 0 134 39.5t130 169.5
l586 1009h295l237 -1050q21 -97 57 -132.5t109 -35.5h21l-29 -166h-707l25 162h14q98 0 138 23.5t40 78.5q0 9 -1.5 22t-8.5 48l-35 160h-448l-100 -185q-13 -23 -20 -45t-7 -37q0 -34 29.5 -49.5t95.5 -15.5h26l-28 -162h-580z" />
    <glyph glyph-name="Ccedilla" unicode="&#xc7;" horiz-adv-x="1450" 
d="M1231 459l147 -103q-118 -196 -286 -293.5t-390 -97.5q-302 0 -471.5 159t-169.5 443q0 154 45 290.5t132 248.5q115 149 266 228t319 79q103 0 182 -25t146 -79l35 90l108 6l107 -559l-154 -27q-59 200 -156.5 299t-234.5 99q-178 0 -300 -185t-122 -463
q0 -206 80 -304.5t248 -98.5q132 0 249 73t220 220zM356 -375l39 90q75 -40 132.5 -57.5t109.5 -17.5q47 0 70.5 22t23.5 66q0 39 -26.5 60.5t-75.5 21.5q-13 -1 -31 -3.5t-59 -11.5l65 205h70l-35 -113q16 3 32.5 4.5t32.5 2.5q86 0 136.5 -46t50.5 -124q0 -85 -61 -133
t-169 -48q-58 0 -130.5 19.5t-174.5 62.5z" />
    <glyph glyph-name="Eacute" unicode="&#xc9;" horiz-adv-x="1522" 
d="M-53 0l29 166q86 6 123.5 41t54.5 133l127 709q3 18 4.5 33t1.5 26q0 51 -33 79t-96 32l28 165h1164l114 -446l-139 -47q-72 162 -201.5 240.5t-324.5 78.5q-79 0 -111 -25t-47 -110l-43 -243q10 -2 21 -2.5t32 -0.5q117 0 170.5 48.5t73.5 171.5h145l-108 -617h-139
l3 33.5t1 19.5q0 86 -40.5 128t-123.5 42q-16 0 -33 -1.5t-35 -4.5l-59 -333q-3 -17 -4.5 -32t-1.5 -28q0 -49 33 -68.5t118 -19.5q181 0 343.5 92t312.5 279l131 -74l-224 -465h-1267zM743 1526h-104l307 303q30 28 59 42.5t56 14.5q32 0 55.5 -25.5t23.5 -60.5
q0 -26 -16 -47.5t-51 -42.5z" />
    <glyph glyph-name="Ntilde" unicode="&#xd1;" horiz-adv-x="1446" 
d="M1522 1384l-29 -165q-86 -5 -125 -41.5t-55 -133.5l-180 -1044h-248l-420 1075l-127 -745q-3 -19 -4.5 -34t-1.5 -24q0 -51 30.5 -78t93.5 -32l-28 -162h-481l28 166q86 4 125 41t56 133l125 709q2 10 3 20.5t1 30.5q0 58 -31 86.5t-96 32.5l28 165h553l314 -817l75 487
q3 18 5 34t2 26q0 50 -32 77t-97 32l28 161h488zM1194 1831q-21 -115 -72 -175.5t-126 -60.5q-11 1 -22 2.5t-34 6.5l-106 26q-10 3 -21 4.5t-28 1.5q-40 0 -63.5 -21t-37.5 -69h-65q20 118 71.5 180t129.5 62q15 0 29 -2t28 -6l88 -23q24 -5 38.5 -7.5t22.5 -2.5
q44 0 68 20t35 64h65z" />
    <glyph glyph-name="Odieresis" unicode="&#xd6;" horiz-adv-x="1602" 
d="M877 1245q-198 0 -317.5 -198.5t-119.5 -530.5q0 -186 73 -280.5t216 -94.5q192 0 312 201t120 528q0 181 -74 278t-210 97zM61 573q0 153 45.5 289t135.5 250q116 150 278.5 227.5t360.5 77.5q293 0 476 -169t183 -437q0 -152 -46 -290t-134 -249q-115 -145 -284.5 -224
t-368.5 -79q-285 0 -465.5 169.5t-180.5 434.5zM1016 1690q0 45 36 80.5t83 35.5q50 0 85.5 -34t35.5 -82q0 -54 -34.5 -88.5t-86.5 -34.5q-49 0 -84 36t-35 87zM658 1690q0 45 36 80.5t82 35.5q51 0 86 -34t35 -82q0 -54 -34 -88.5t-87 -34.5q-48 0 -83 36t-35 87z" />
    <glyph glyph-name="Udieresis" unicode="&#xdc;" horiz-adv-x="1501" 
d="M125 1219l29 165h657l-29 -161q-82 -4 -122.5 -43.5t-55.5 -130.5l-88 -543q-1 -8 -4 -25q-10 -71 -10 -90q0 -99 65 -159t172 -60q150 0 240 78.5t117 232.5l94 572q3 22 4.5 36t1.5 21q0 52 -31 79t-96 32l27 161h485l-29 -165q-85 -5 -124.5 -41.5t-55.5 -133.5
l-102 -577q-28 -159 -63 -228t-99 -124q-82 -71 -208.5 -108.5t-285.5 -37.5q-229 0 -354 86.5t-125 245.5q0 59 24 210l3 20l88 518q0 2 1 9q3 27 3 40q0 58 -31.5 87.5t-97.5 33.5zM1030 1690q0 45 36 80.5t83 35.5q50 0 85.5 -34t35.5 -82q0 -54 -34.5 -88.5t-86.5 -34.5
q-49 0 -84 36t-35 87zM672 1690q0 45 36 80.5t82 35.5q51 0 86 -34t35 -82q0 -54 -34 -88.5t-87 -34.5q-48 0 -83 36t-35 87z" />
    <glyph glyph-name="aacute" unicode="&#xe1;" horiz-adv-x="1323" 
d="M1061 391q-6 -32 -8 -49.5t-2 -28.5q0 -50 20.5 -76t61.5 -26q22 0 46.5 11.5t53.5 35.5l92 -108q-84 -84 -172.5 -125t-185.5 -41q-94 0 -152 40t-80 119q-75 -81 -158 -120t-180 -39q-173 0 -277 111t-104 298q0 118 41.5 228.5t118.5 199.5q86 100 201.5 152.5
t249.5 52.5q71 0 129.5 -15.5t105.5 -47.5l25 51h287zM827 786q-40 32 -80.5 47t-82.5 15q-73 0 -127.5 -38.5t-96.5 -119.5q-40 -77 -62 -161t-22 -160q0 -95 37.5 -142t112.5 -47q123 0 197 138.5t124 467.5zM647 1145h-104l307 303q30 28 59 42.5t56 14.5
q32 0 55.5 -25.5t23.5 -60.5q0 -26 -16 -47.5t-51 -42.5z" />
    <glyph glyph-name="agrave" unicode="&#xe0;" horiz-adv-x="1323" 
d="M1061 391q-6 -32 -8 -49.5t-2 -28.5q0 -50 20.5 -76t61.5 -26q22 0 46.5 11.5t53.5 35.5l92 -108q-84 -84 -172.5 -125t-185.5 -41q-94 0 -152 40t-80 119q-75 -81 -158 -120t-180 -39q-173 0 -277 111t-104 298q0 118 41.5 228.5t118.5 199.5q86 100 201.5 152.5
t249.5 52.5q71 0 129.5 -15.5t105.5 -47.5l25 51h287zM827 786q-40 32 -80.5 47t-82.5 15q-73 0 -127.5 -38.5t-96.5 -119.5q-40 -77 -62 -161t-22 -160q0 -95 37.5 -142t112.5 -47q123 0 197 138.5t124 467.5zM909 1145h-104l-260 190q-35 26 -49.5 45.5t-14.5 38.5
q0 38 24 63t60 25q26 0 49 -14t49 -47z" />
    <glyph glyph-name="acircumflex" unicode="&#xe2;" horiz-adv-x="1323" 
d="M1061 391q-6 -32 -8 -49.5t-2 -28.5q0 -50 20.5 -76t61.5 -26q22 0 46.5 11.5t53.5 35.5l92 -108q-84 -84 -172.5 -125t-185.5 -41q-94 0 -152 40t-80 119q-75 -81 -158 -120t-180 -39q-173 0 -277 111t-104 298q0 118 41.5 228.5t118.5 199.5q86 100 201.5 152.5
t249.5 52.5q71 0 129.5 -15.5t105.5 -47.5l25 51h287zM827 786q-40 32 -80.5 47t-82.5 15q-73 0 -127.5 -38.5t-96.5 -119.5q-40 -77 -62 -161t-22 -160q0 -95 37.5 -142t112.5 -47q123 0 197 138.5t124 467.5zM1022 1145h-80l-168 178l-246 -178h-102l305 348h127z" />
    <glyph glyph-name="adieresis" unicode="&#xe4;" horiz-adv-x="1323" 
d="M1061 391q-6 -32 -8 -49.5t-2 -28.5q0 -50 20.5 -76t61.5 -26q22 0 46.5 11.5t53.5 35.5l92 -108q-84 -84 -172.5 -125t-185.5 -41q-94 0 -152 40t-80 119q-75 -81 -158 -120t-180 -39q-173 0 -277 111t-104 298q0 118 41.5 228.5t118.5 199.5q86 100 201.5 152.5
t249.5 52.5q71 0 129.5 -15.5t105.5 -47.5l25 51h287zM827 786q-40 32 -80.5 47t-82.5 15q-73 0 -127.5 -38.5t-96.5 -119.5q-40 -77 -62 -161t-22 -160q0 -95 37.5 -142t112.5 -47q123 0 197 138.5t124 467.5zM815 1309q0 45 36 80.5t83 35.5q50 0 85.5 -34t35.5 -82
q0 -54 -34.5 -88.5t-86.5 -34.5q-49 0 -84 36t-35 87zM457 1309q0 45 36 80.5t82 35.5q51 0 86 -34t35 -82q0 -54 -34 -88.5t-87 -34.5q-48 0 -83 36t-35 87z" />
    <glyph glyph-name="atilde" unicode="&#xe3;" horiz-adv-x="1323" 
d="M1061 391q-6 -32 -8 -49.5t-2 -28.5q0 -50 20.5 -76t61.5 -26q22 0 46.5 11.5t53.5 35.5l92 -108q-84 -84 -172.5 -125t-185.5 -41q-94 0 -152 40t-80 119q-75 -81 -158 -120t-180 -39q-173 0 -277 111t-104 298q0 118 41.5 228.5t118.5 199.5q86 100 201.5 152.5
t249.5 52.5q71 0 129.5 -15.5t105.5 -47.5l25 51h287zM827 786q-40 32 -80.5 47t-82.5 15q-73 0 -127.5 -38.5t-96.5 -119.5q-40 -77 -62 -161t-22 -160q0 -95 37.5 -142t112.5 -47q123 0 197 138.5t124 467.5zM1042 1450q-21 -115 -72 -175.5t-126 -60.5q-11 1 -22 2.5
t-34 6.5l-106 26q-10 3 -21 4.5t-28 1.5q-40 0 -63.5 -21t-37.5 -69h-65q20 118 71.5 180t129.5 62q15 0 29 -2t28 -6l88 -23q24 -5 38.5 -7.5t22.5 -2.5q44 0 68 20t35 64h65z" />
    <glyph glyph-name="aring" unicode="&#xe5;" horiz-adv-x="1323" 
d="M604 1331q0 -59 41.5 -100t102.5 -41q59 0 100 40.5t41 100.5t-41.5 102t-99.5 42q-60 0 -102 -42t-42 -102zM494 1333q0 106 73.5 179t180.5 73q106 0 178.5 -73t72.5 -179t-73 -180t-178 -74q-106 0 -180 74t-74 180zM827 786q-40 32 -80.5 47t-82.5 15
q-73 0 -127.5 -38.5t-96.5 -119.5q-40 -77 -62 -161t-22 -160q0 -95 37.5 -142t112.5 -47q123 0 197 138.5t124 467.5zM1061 391q-6 -32 -8 -49.5t-2 -28.5q0 -50 20.5 -76t61.5 -26q22 0 46.5 11.5t53.5 35.5l92 -108q-84 -84 -172.5 -125t-185.5 -41q-94 0 -152 40
t-80 119q-75 -81 -158 -120t-180 -39q-173 0 -277 111t-104 298q0 118 41.5 228.5t118.5 199.5q86 100 201.5 152.5t249.5 52.5q71 0 129.5 -15.5t105.5 -47.5l25 51h287z" />
    <glyph glyph-name="ccedilla" unicode="&#xe7;" horiz-adv-x="1155" 
d="M932 338l104 -121q-124 -124 -261.5 -185t-295.5 -61q-215 0 -340 116t-125 316q0 128 51 248t144 209q87 85 203 129.5t247 44.5q193 0 310.5 -73t117.5 -189q0 -78 -55 -129t-139 -51q-68 0 -109 33.5t-41 89.5q0 20 7.5 49.5t7.5 40.5q0 28 -23 46.5t-59 18.5
q-62 0 -122.5 -43.5t-111.5 -124.5q-41 -65 -65.5 -150t-24.5 -163q0 -100 59 -158.5t158 -58.5q76 0 167.5 42t195.5 124zM133 -375l39 90q75 -40 132.5 -57.5t109.5 -17.5q47 0 70.5 22t23.5 66q0 39 -26.5 60.5t-75.5 21.5q-13 -1 -31 -3.5t-59 -11.5l65 205h70l-35 -113
q16 3 32.5 4.5t32.5 2.5q86 0 136.5 -46t50.5 -124q0 -85 -61 -133t-169 -48q-58 0 -130.5 19.5t-174.5 62.5z" />
    <glyph glyph-name="eacute" unicode="&#xe9;" horiz-adv-x="1128" 
d="M396 588q177 1 284.5 57t107.5 143q0 42 -28 66.5t-76 24.5q-96 0 -175 -79t-113 -212zM924 344l106 -123q-126 -128 -263.5 -189t-297.5 -61q-202 0 -326.5 118t-124.5 308q0 123 53 241t146 204q106 97 226.5 144.5t258.5 47.5q174 0 276.5 -71.5t102.5 -190.5
q0 -154 -187 -240t-540 -94q-4 -16 -6 -33t-2 -36q0 -91 57.5 -142t159.5 -51q77 0 166 41.5t195 126.5zM598 1145h-104l307 303q30 28 59 42.5t56 14.5q32 0 55.5 -25.5t23.5 -60.5q0 -26 -16 -47.5t-51 -42.5z" />
    <glyph glyph-name="egrave" unicode="&#xe8;" horiz-adv-x="1128" 
d="M396 588q177 1 284.5 57t107.5 143q0 42 -28 66.5t-76 24.5q-96 0 -175 -79t-113 -212zM924 344l106 -123q-126 -128 -263.5 -189t-297.5 -61q-202 0 -326.5 118t-124.5 308q0 123 53 241t146 204q106 97 226.5 144.5t258.5 47.5q174 0 276.5 -71.5t102.5 -190.5
q0 -154 -187 -240t-540 -94q-4 -16 -6 -33t-2 -36q0 -91 57.5 -142t159.5 -51q77 0 166 41.5t195 126.5zM860 1145h-104l-260 190q-35 26 -49.5 45.5t-14.5 38.5q0 38 24 63t60 25q26 0 49 -14t49 -47z" />
    <glyph glyph-name="ecircumflex" unicode="&#xea;" horiz-adv-x="1128" 
d="M396 588q177 1 284.5 57t107.5 143q0 42 -28 66.5t-76 24.5q-96 0 -175 -79t-113 -212zM924 344l106 -123q-126 -128 -263.5 -189t-297.5 -61q-202 0 -326.5 118t-124.5 308q0 123 53 241t146 204q106 97 226.5 144.5t258.5 47.5q174 0 276.5 -71.5t102.5 -190.5
q0 -154 -187 -240t-540 -94q-4 -16 -6 -33t-2 -36q0 -91 57.5 -142t159.5 -51q77 0 166 41.5t195 126.5zM973 1145h-80l-168 178l-246 -178h-102l305 348h127z" />
    <glyph glyph-name="edieresis" unicode="&#xeb;" horiz-adv-x="1128" 
d="M396 588q177 1 284.5 57t107.5 143q0 42 -28 66.5t-76 24.5q-96 0 -175 -79t-113 -212zM924 344l106 -123q-126 -128 -263.5 -189t-297.5 -61q-202 0 -326.5 118t-124.5 308q0 123 53 241t146 204q106 97 226.5 144.5t258.5 47.5q174 0 276.5 -71.5t102.5 -190.5
q0 -154 -187 -240t-540 -94q-4 -16 -6 -33t-2 -36q0 -91 57.5 -142t159.5 -51q77 0 166 41.5t195 126.5zM766 1309q0 45 36 80.5t83 35.5q50 0 85.5 -34t35.5 -82q0 -54 -34.5 -88.5t-86.5 -34.5q-49 0 -84 36t-35 87zM408 1309q0 45 36 80.5t82 35.5q51 0 86 -34t35 -82
q0 -54 -34 -88.5t-87 -34.5q-48 0 -83 36t-35 87z" />
    <glyph glyph-name="iacute" unicode="&#xed;" horiz-adv-x="727" 
d="M459 346q-6 -33 -9.5 -54.5t-3.5 -29.5q0 -43 13.5 -60.5t44.5 -17.5q25 0 54 12t63 35l77 -129q-86 -68 -169.5 -100.5t-170.5 -32.5q-114 0 -184 57.5t-70 149.5q0 23 3 51t10 64l69 368q4 19 6.5 34.5t2.5 25.5q0 43 -28.5 61.5t-102.5 22.5l28 149q87 9 174 24.5
t174 37.5h144zM344 1145h-104l307 303q30 28 59 42.5t56 14.5q32 0 55.5 -25.5t23.5 -60.5q0 -26 -16 -47.5t-51 -42.5z" />
    <glyph glyph-name="igrave" unicode="&#xec;" horiz-adv-x="727" 
d="M459 346q-6 -33 -9.5 -54.5t-3.5 -29.5q0 -43 13.5 -60.5t44.5 -17.5q25 0 54 12t63 35l77 -129q-86 -68 -169.5 -100.5t-170.5 -32.5q-114 0 -184 57.5t-70 149.5q0 23 3 51t10 64l69 368q4 19 6.5 34.5t2.5 25.5q0 43 -28.5 61.5t-102.5 22.5l28 149q87 9 174 24.5
t174 37.5h144zM606 1145h-104l-260 190q-35 26 -49.5 45.5t-14.5 38.5q0 38 24 63t60 25q26 0 49 -14t49 -47z" />
    <glyph glyph-name="icircumflex" unicode="&#xee;" horiz-adv-x="727" 
d="M459 346q-6 -33 -9.5 -54.5t-3.5 -29.5q0 -43 13.5 -60.5t44.5 -17.5q25 0 54 12t63 35l77 -129q-86 -68 -169.5 -100.5t-170.5 -32.5q-114 0 -184 57.5t-70 149.5q0 23 3 51t10 64l69 368q4 19 6.5 34.5t2.5 25.5q0 43 -28.5 61.5t-102.5 22.5l28 149q87 9 174 24.5
t174 37.5h144zM719 1145h-80l-168 178l-246 -178h-102l305 348h127z" />
    <glyph glyph-name="idieresis" unicode="&#xef;" horiz-adv-x="727" 
d="M459 346q-6 -33 -9.5 -54.5t-3.5 -29.5q0 -43 13.5 -60.5t44.5 -17.5q25 0 54 12t63 35l77 -129q-86 -68 -169.5 -100.5t-170.5 -32.5q-114 0 -184 57.5t-70 149.5q0 23 3 51t10 64l69 368q4 19 6.5 34.5t2.5 25.5q0 43 -28.5 61.5t-102.5 22.5l28 149q87 9 174 24.5
t174 37.5h144zM512 1309q0 45 36 80.5t83 35.5q50 0 85.5 -34t35.5 -82q0 -54 -34.5 -88.5t-86.5 -34.5q-49 0 -84 36t-35 87zM154 1309q0 45 36 80.5t82 35.5q51 0 86 -34t35 -82q0 -54 -34 -88.5t-87 -34.5q-48 0 -83 36t-35 87z" />
    <glyph glyph-name="ntilde" unicode="&#xf1;" horiz-adv-x="1364" 
d="M57 0l129 664q4 19 6.5 35t2.5 26q0 42 -29 60.5t-100 21.5l28 145q85 8 171.5 23t176.5 39h121l-18 -99q86 58 169 86.5t167 28.5q140 0 215 -67t75 -191q0 -61 -30 -205v-2l-45 -209l-2 -10q-15 -68 -15 -78q0 -34 16.5 -52.5t47.5 -18.5q24 0 53.5 11.5t63.5 33.5
l75 -127q-86 -67 -170 -99t-170 -32q-115 0 -184.5 57t-69.5 152q0 22 3 48.5t10 59.5l63 297q10 50 13 72t4 35q0 52 -26.5 76t-84.5 24q-45 0 -93.5 -19t-103.5 -59l-141 -727h-328zM1022 1450q-21 -115 -72 -175.5t-126 -60.5q-11 1 -22 2.5t-34 6.5l-106 26
q-10 3 -21 4.5t-28 1.5q-40 0 -63.5 -21t-37.5 -69h-65q20 118 71.5 180t129.5 62q15 0 29 -2t28 -6l88 -23q24 -5 38.5 -7.5t22.5 -2.5q44 0 68 20t35 64h65z" />
    <glyph glyph-name="oacute" unicode="&#xf3;" horiz-adv-x="1219" 
d="M635 866q-61 0 -111 -38.5t-84 -110.5q-36 -77 -57 -171.5t-21 -180.5q0 -117 36.5 -171.5t115.5 -54.5q117 0 194.5 144.5t77.5 365.5q0 110 -37.5 163.5t-113.5 53.5zM25 432q0 256 179 429t447 173q222 0 348.5 -123.5t126.5 -339.5q0 -262 -177.5 -431t-454.5 -169
q-215 0 -342 125t-127 336zM592 1145h-104l307 303q30 28 59 42.5t56 14.5q32 0 55.5 -25.5t23.5 -60.5q0 -26 -16 -47.5t-51 -42.5z" />
    <glyph glyph-name="ograve" unicode="&#xf2;" horiz-adv-x="1219" 
d="M635 866q-61 0 -111 -38.5t-84 -110.5q-36 -77 -57 -171.5t-21 -180.5q0 -117 36.5 -171.5t115.5 -54.5q117 0 194.5 144.5t77.5 365.5q0 110 -37.5 163.5t-113.5 53.5zM25 432q0 256 179 429t447 173q222 0 348.5 -123.5t126.5 -339.5q0 -262 -177.5 -431t-454.5 -169
q-215 0 -342 125t-127 336zM854 1145h-104l-260 190q-35 26 -49.5 45.5t-14.5 38.5q0 38 24 63t60 25q26 0 49 -14t49 -47z" />
    <glyph glyph-name="ocircumflex" unicode="&#xf4;" horiz-adv-x="1219" 
d="M635 866q-61 0 -111 -38.5t-84 -110.5q-36 -77 -57 -171.5t-21 -180.5q0 -117 36.5 -171.5t115.5 -54.5q117 0 194.5 144.5t77.5 365.5q0 110 -37.5 163.5t-113.5 53.5zM25 432q0 256 179 429t447 173q222 0 348.5 -123.5t126.5 -339.5q0 -262 -177.5 -431t-454.5 -169
q-215 0 -342 125t-127 336zM967 1145h-80l-168 178l-246 -178h-102l305 348h127z" />
    <glyph glyph-name="odieresis" unicode="&#xf6;" horiz-adv-x="1219" 
d="M635 866q-61 0 -111 -38.5t-84 -110.5q-36 -77 -57 -171.5t-21 -180.5q0 -117 36.5 -171.5t115.5 -54.5q117 0 194.5 144.5t77.5 365.5q0 110 -37.5 163.5t-113.5 53.5zM25 432q0 256 179 429t447 173q222 0 348.5 -123.5t126.5 -339.5q0 -262 -177.5 -431t-454.5 -169
q-215 0 -342 125t-127 336zM760 1309q0 45 36 80.5t83 35.5q50 0 85.5 -34t35.5 -82q0 -54 -34.5 -88.5t-86.5 -34.5q-49 0 -84 36t-35 87zM402 1309q0 45 36 80.5t82 35.5q51 0 86 -34t35 -82q0 -54 -34 -88.5t-87 -34.5q-48 0 -83 36t-35 87z" />
    <glyph glyph-name="otilde" unicode="&#xf5;" horiz-adv-x="1219" 
d="M635 866q-61 0 -111 -38.5t-84 -110.5q-36 -77 -57 -171.5t-21 -180.5q0 -117 36.5 -171.5t115.5 -54.5q117 0 194.5 144.5t77.5 365.5q0 110 -37.5 163.5t-113.5 53.5zM25 432q0 256 179 429t447 173q222 0 348.5 -123.5t126.5 -339.5q0 -262 -177.5 -431t-454.5 -169
q-215 0 -342 125t-127 336zM987 1450q-21 -115 -72 -175.5t-126 -60.5q-11 1 -22 2.5t-34 6.5l-106 26q-10 3 -21 4.5t-28 1.5q-40 0 -63.5 -21t-37.5 -69h-65q20 118 71.5 180t129.5 62q15 0 29 -2t28 -6l88 -23q24 -5 38.5 -7.5t22.5 -2.5q44 0 68 20t35 64h65z" />
    <glyph glyph-name="uacute" unicode="&#xfa;" horiz-adv-x="1364" 
d="M737 92q-83 -56 -165.5 -83t-168.5 -27q-140 0 -216 66t-76 188q0 31 5.5 69.5t24.5 122.5l49 235q3 18 4 27t1 17q0 55 -26 75.5t-103 24.5l28 145q85 8 171.5 23t176.5 39h142l-117 -604q-9 -45 -13.5 -73t-4.5 -36q0 -51 26 -74.5t84 -23.5q45 0 94 20t101 60l141 731
h324l-129 -657q-5 -24 -8 -46t-3 -37q0 -39 16 -58t48 -19q24 0 53.5 11.5t63.5 33.5l75 -127q-87 -68 -171 -100.5t-169 -32.5q-74 0 -138 27t-120 83zM663 1145h-104l307 303q30 28 59 42.5t56 14.5q32 0 55.5 -25.5t23.5 -60.5q0 -26 -16 -47.5t-51 -42.5z" />
    <glyph glyph-name="ugrave" unicode="&#xf9;" horiz-adv-x="1364" 
d="M737 92q-83 -56 -165.5 -83t-168.5 -27q-140 0 -216 66t-76 188q0 31 5.5 69.5t24.5 122.5l49 235q3 18 4 27t1 17q0 55 -26 75.5t-103 24.5l28 145q85 8 171.5 23t176.5 39h142l-117 -604q-9 -45 -13.5 -73t-4.5 -36q0 -51 26 -74.5t84 -23.5q45 0 94 20t101 60l141 731
h324l-129 -657q-5 -24 -8 -46t-3 -37q0 -39 16 -58t48 -19q24 0 53.5 11.5t63.5 33.5l75 -127q-87 -68 -171 -100.5t-169 -32.5q-74 0 -138 27t-120 83zM925 1145h-104l-260 190q-35 26 -49.5 45.5t-14.5 38.5q0 38 24 63t60 25q26 0 49 -14t49 -47z" />
    <glyph glyph-name="ucircumflex" unicode="&#xfb;" horiz-adv-x="1364" 
d="M737 92q-83 -56 -165.5 -83t-168.5 -27q-140 0 -216 66t-76 188q0 31 5.5 69.5t24.5 122.5l49 235q3 18 4 27t1 17q0 55 -26 75.5t-103 24.5l28 145q85 8 171.5 23t176.5 39h142l-117 -604q-9 -45 -13.5 -73t-4.5 -36q0 -51 26 -74.5t84 -23.5q45 0 94 20t101 60l141 731
h324l-129 -657q-5 -24 -8 -46t-3 -37q0 -39 16 -58t48 -19q24 0 53.5 11.5t63.5 33.5l75 -127q-87 -68 -171 -100.5t-169 -32.5q-74 0 -138 27t-120 83zM1038 1145h-80l-168 178l-246 -178h-102l305 348h127z" />
    <glyph glyph-name="udieresis" unicode="&#xfc;" horiz-adv-x="1364" 
d="M737 92q-83 -56 -165.5 -83t-168.5 -27q-140 0 -216 66t-76 188q0 31 5.5 69.5t24.5 122.5l49 235q3 18 4 27t1 17q0 55 -26 75.5t-103 24.5l28 145q85 8 171.5 23t176.5 39h142l-117 -604q-9 -45 -13.5 -73t-4.5 -36q0 -51 26 -74.5t84 -23.5q45 0 94 20t101 60l141 731
h324l-129 -657q-5 -24 -8 -46t-3 -37q0 -39 16 -58t48 -19q24 0 53.5 11.5t63.5 33.5l75 -127q-87 -68 -171 -100.5t-169 -32.5q-74 0 -138 27t-120 83zM831 1309q0 45 36 80.5t83 35.5q50 0 85.5 -34t35.5 -82q0 -54 -34.5 -88.5t-86.5 -34.5q-49 0 -84 36t-35 87z
M473 1309q0 45 36 80.5t82 35.5q51 0 86 -34t35 -82q0 -54 -34 -88.5t-87 -34.5q-48 0 -83 36t-35 87z" />
    <glyph glyph-name="dagger" unicode="&#x2020;" 
d="M319 -18q16 118 23.5 199.5t7.5 125.5q0 69 -14 136.5t-43 138.5q49 29 89 72t73 102l-101 -43q-35 -15 -64 -23t-50 -8q-62 0 -96.5 33.5t-34.5 93.5q0 74 42 116t115 42q28 0 58.5 -7t62.5 -20l92 -35l-26 197q-6 41 -9.5 70t-3.5 45q0 98 47.5 148t139.5 50
q69 0 108 -35t39 -96q0 -60 -64 -183q-26 -48 -38 -75l-58 -121l99 35q35 13 65.5 20t50.5 7q62 0 97 -33t35 -92q0 -74 -42.5 -117t-115.5 -43q-35 0 -65.5 6.5t-55.5 20.5l-92 46q5 -48 28.5 -91t67.5 -82q-92 -115 -149 -260t-86 -340h-132z" />
    <glyph glyph-name="degree" unicode="&#xb0;" horiz-adv-x="674" 
d="M338 1321q-69 0 -117.5 -48t-48.5 -116q0 -70 48 -118t118 -48q68 0 116 49t48 117t-48 116t-116 48zM338 1466q129 0 220 -91t91 -220q0 -128 -91.5 -219.5t-221.5 -91.5q-129 0 -219 90.5t-90 220.5q0 131 90.5 221t220.5 90z" />
    <glyph glyph-name="cent" unicode="&#xa2;" horiz-adv-x="1337" 
d="M604 430l119 614q-88 -9 -152.5 -139t-64.5 -305q0 -66 25.5 -110.5t72.5 -59.5zM510 -51l55 297q-177 20 -265.5 116.5t-88.5 270.5q0 239 151.5 400.5t391.5 176.5l45 228h123l-45 -232q147 -12 233 -77t86 -164q0 -79 -48.5 -131t-121.5 -52q-62 0 -97.5 31.5
t-35.5 85.5q0 23 9 54t9 38q0 24 -18 38t-51 15l-121 -632q87 7 160.5 50.5t138.5 127.5l110 -84q-84 -120 -195.5 -186.5t-246.5 -78.5l-55 -292h-123z" />
    <glyph glyph-name="sterling" unicode="&#xa3;" horiz-adv-x="1337" 
d="M334 289q-38 29 -74.5 43t-77.5 14q-48 0 -80 -28.5t-32 -71.5q0 -40 29.5 -68t72.5 -28q47 0 89.5 36t72.5 103zM225 702l64 175h174q23 259 172 402.5t395 143.5q172 0 274.5 -83t102.5 -222q0 -101 -47 -162t-123 -61q-60 0 -93.5 32t-33.5 89q0 36 20.5 78.5
t20.5 52.5q0 46 -36 74t-97 28q-108 0 -177 -99t-81 -273h287l-62 -175h-244q-9 -99 -33.5 -191.5t-64.5 -182.5q100 -55 183.5 -86t127.5 -31q41 0 63.5 16.5t22.5 44.5q0 24 -18.5 40t-46.5 16q-12 0 -29 -3t-39 -10l-22 142q35 16 70 24t69 8q101 0 164 -65t63 -170
q0 -120 -85 -200.5t-214 -80.5q-96 0 -203.5 47t-213.5 136q-87 -92 -176 -137.5t-181 -45.5q-125 0 -207 73.5t-82 182.5q0 119 90 204t218 85q48 0 96 -14t96 -43q20 49 33.5 108t21.5 133h-219z" />
    <glyph glyph-name="section" unicode="&#xa7;" 
d="M647 545q27 22 39 42.5t12 43.5q0 56 -126 122q-14 7 -21 11l-152 80q-26 -18 -39.5 -38.5t-13.5 -43.5q0 -38 32 -69t116 -72zM799 457q28 -32 41.5 -66.5t13.5 -77.5q0 -150 -128 -249t-327 -99q-168 0 -273.5 69t-105.5 175q0 62 37.5 100.5t98.5 38.5q62 0 95 -25.5
t58 -113.5q7 -24 38.5 -37.5t80.5 -13.5q63 0 103 26.5t40 67.5q0 53 -140 114q-22 10 -34 15q-182 79 -249.5 147.5t-67.5 163.5q0 78 41 135t123 95q-35 37 -51.5 78t-16.5 90q0 144 120 236.5t312 92.5q167 0 269 -62t102 -161q0 -58 -37.5 -95.5t-95.5 -37.5
q-89 0 -133 105q-8 19 -13 29q-13 24 -46 38t-79 14q-61 0 -101 -28t-40 -68q0 -61 155 -131l31 -14q205 -93 263.5 -157.5t58.5 -160.5q0 -74 -36.5 -134t-106.5 -99z" />
    <glyph glyph-name="bullet" unicode="&#x2022;" horiz-adv-x="1208" 
d="M307 762q0 123 87 209t210 86q122 0 208.5 -86.5t86.5 -208.5t-87.5 -209.5t-209.5 -87.5q-123 0 -209 87t-86 210z" />
    <glyph glyph-name="paragraph" unicode="&#xb6;" 
d="M997 1479v-123h-106v-1356h-176v1356h-150v-1356h-174v784q-164 6 -263 101t-99 245q0 158 106 253.5t283 95.5h579z" />
    <glyph glyph-name="germandbls" unicode="&#xdf;" horiz-adv-x="1370" 
d="M76 860l30 154h162q81 214 226.5 324t347.5 110q162 0 263 -73.5t101 -188.5q0 -55 -22 -111t-62 -100q-33 -39 -89 -71.5t-56 -45.5t40 -43.5t62 -50.5q85 -78 120.5 -149.5t35.5 -159.5q0 -97 -54 -193t-151 -170q-83 -63 -179.5 -94t-211.5 -31q-49 0 -97 9t-93 26
l65 160q36 -9 68.5 -14t58.5 -5q113 0 200 82t87 187q0 56 -39 111t-127 122q-20 16 -58 42q-112 80 -112 138q0 38 29.5 69.5t146.5 96.5q95 53 126.5 90.5t31.5 85.5q0 52 -34 82.5t-91 30.5q-96 0 -155 -77.5t-87 -239.5l-104 -586l-14 -76q-64 -373 -201 -528
q-96 -108 -230 -170t-272 -62q-122 0 -191 47t-69 129q0 64 45.5 106t114.5 42q35 0 64 -11t50 -32q8 -7 21 -26q38 -54 86 -54q89 0 147 73t84 218l148 827h-162z" />
    <glyph glyph-name="registered" unicode="&#xae;" horiz-adv-x="1683" 
d="M772 728q8 -2 16 -2.5t23 -0.5q85 0 127.5 43.5t42.5 130.5q0 62 -38.5 103.5t-98.5 41.5q-37 0 -54.5 -15.5t-17.5 -47.5v-253zM463 1100h405q147 0 236.5 -56t89.5 -145q0 -87 -64.5 -136.5t-211.5 -74.5q116 -23 172.5 -87.5t56.5 -172.5q0 -48 10 -68t33 -20
q25 0 39 31t14 88v12h55q0 -5 1 -15t1 -14q0 -90 -47 -135t-141 -45q-45 0 -80 13t-55 36q-32 37 -36 134q-2 43 -5 65q-13 87 -47.5 124.5t-100.5 37.5h-16v-244q0 -45 18 -63.5t70 -26.5v-57h-397v57q57 5 77.5 24t20.5 66v524q0 47 -19 65.5t-79 26.5v56zM844 1311
q-127 0 -244.5 -49t-204.5 -138q-88 -90 -135 -204.5t-47 -241.5q0 -130 47 -244t137 -203q93 -91 205.5 -137.5t239.5 -46.5t240.5 47.5t201.5 136.5q89 91 137.5 207.5t48.5 239.5q0 125 -49 243.5t-137 204.5q-89 88 -204 136.5t-236 48.5zM844 1423q150 0 291 -60
t245 -169q99 -102 152 -240t53 -292q0 -141 -63 -280.5t-176 -246.5q-102 -97 -232 -149t-272 -52q-109 0 -212.5 31.5t-197.5 91.5q-159 107 -246.5 269.5t-87.5 351.5q0 149 56 284t161 240q105 106 242.5 163.5t286.5 57.5z" />
    <glyph glyph-name="copyright" unicode="&#xa9;" horiz-adv-x="1683" 
d="M1128 1104h50v-330h-52q-29 130 -98 201.5t-164 71.5q-112 0 -167.5 -91t-55.5 -272q0 -182 61 -278.5t177 -96.5q76 0 143.5 44.5t124.5 131.5l51 -32q-64 -108 -152 -162.5t-198 -54.5q-192 0 -318.5 122t-126.5 306q0 194 122.5 319t312.5 125q82 0 157.5 -33
t79.5 -33q22 0 33.5 13.5t19.5 48.5zM844 1311q-126 0 -242.5 -49t-204.5 -138q-89 -91 -136.5 -206t-47.5 -240q0 -130 47 -244t137 -203q93 -91 205.5 -137.5t239.5 -46.5t240.5 47.5t201.5 136.5q89 91 137.5 207.5t48.5 239.5q0 126 -48.5 244.5t-135.5 203.5
q-89 88 -205 136.5t-237 48.5zM844 1423q144 0 280.5 -56.5t241.5 -160.5q104 -104 161.5 -242.5t57.5 -285.5q0 -146 -56.5 -281.5t-162.5 -242.5q-105 -106 -240 -161.5t-284 -55.5t-283 55.5t-242 161.5q-106 104 -162.5 239t-56.5 285q0 149 55.5 283t161.5 241
q105 106 242.5 163.5t286.5 57.5z" />
    <glyph glyph-name="trademark" unicode="&#x2122;" horiz-adv-x="1683" 
d="M745 1460h222l127 -356l123 356h206v-26l-22 -7q-19 -4 -27 -15t-8 -34v-383q0 -22 8 -33t27 -16l22 -6v-33h-260v33l30 6q18 3 27 15.5t9 33.5v355l-148 -445h-43l-166 457v-367q0 -22 9 -34t27 -15l34 -6v-33h-197v33l35 6q18 4 26.5 16t8.5 33v375q0 21 -9 33.5
t-25 15.5l-36 6v35zM229 1460h457l12 -198h-36q-7 79 -38 116t-92 37v-420q1 -22 8.5 -34t23.5 -15l30 -6v-33h-272v33l30 6q15 3 23 15.5t8 33.5v420h-4q-58 0 -89.5 -38t-37.5 -115h-35z" />
    <glyph glyph-name="acute" unicode="&#xb4;" 
d="M516 1145h-104l307 303q30 28 59 42.5t56 14.5q32 0 55.5 -25.5t23.5 -60.5q0 -26 -16 -47.5t-51 -42.5z" />
    <glyph glyph-name="dieresis" unicode="&#xa8;" 
d="M684 1309q0 45 36 80.5t83 35.5q50 0 85.5 -34t35.5 -82q0 -54 -34.5 -88.5t-86.5 -34.5q-49 0 -84 36t-35 87zM326 1309q0 45 36 80.5t82 35.5q51 0 86 -34t35 -82q0 -54 -34 -88.5t-87 -34.5q-48 0 -83 36t-35 87z" />
    <glyph glyph-name="notequal" unicode="&#x2260;" horiz-adv-x="1706" 
d="M1194 1251l168 -137l-135 -168h225v-221h-377l-180 -227h557v-222h-704l-246 -307l-170 137l135 170h-213v222h360l183 227h-543v221h694z" />
    <glyph glyph-name="AE" unicode="&#xc6;" horiz-adv-x="2290" 
d="M387 309q-15 -19 -23 -38.5t-8 -37.5q0 -38 28.5 -54.5t96.5 -16.5h29l-27 -162h-620l28 166h15q64 0 116 31t132 129l602 745q13 16 19.5 33t6.5 35q0 36 -28 54.5t-95 25.5l31 165h1426l116 -446l-139 -47q-72 162 -201.5 240.5t-324.5 78.5q-80 0 -112.5 -25.5
t-47.5 -109.5l-43 -243q10 -2 21 -2.5t32 -0.5q118 0 172 48.5t74 171.5h145l-108 -617h-139l3 33.5t1 19.5q0 86 -40.5 128t-123.5 42q-16 0 -33 -1.5t-35 -4.5l-59 -333q-3 -17 -4.5 -32t-1.5 -28q0 -50 32 -69t117 -19q181 0 345 92.5t313 278.5l129 -74l-222 -465h-1257
l29 162q83 4 120 40t56 138l26 154h-424zM664 651h321l96 551z" />
    <glyph glyph-name="Oslash" unicode="&#xd8;" horiz-adv-x="1602" 
d="M41 -154l221 277q-100 84 -149.5 196.5t-49.5 260.5q0 190 72.5 355t210.5 288q112 98 246 146t295 48q103 0 190 -20t160 -62l131 162h166l-188 -240q98 -83 146 -193t48 -253q0 -194 -73.5 -362t-209.5 -285q-111 -96 -253 -145.5t-306 -49.5q-108 0 -191.5 19.5
t-137.5 56.5l-156 -199h-172zM449 354l643 799q-38 47 -91.5 70.5t-121.5 23.5q-202 0 -326.5 -202t-124.5 -531q0 -47 5 -86.5t16 -73.5zM1157 1026l-645 -801q37 -41 89 -62.5t116 -21.5q118 0 203.5 57.5t146.5 178.5q50 99 78.5 227t28.5 254q0 36 -4.5 78.5t-12.5 89.5
z" />
    <glyph glyph-name="infinity" unicode="&#x221e;" horiz-adv-x="1706" 
d="M956 561q44 -68 103.5 -103.5t130.5 -35.5q89 0 146 52t57 132q0 77 -52 129.5t-127 52.5q-71 0 -130 -51t-128 -176zM752 657q-43 68 -101.5 102t-132.5 34q-90 0 -146.5 -51t-56.5 -130q0 -78 51.5 -131t127.5 -53q69 0 130 53.5t128 175.5zM856 442
q-68 -130 -147.5 -193t-176.5 -63q-139 0 -238 121.5t-99 300.5q0 188 87.5 305t227.5 117q90 0 166.5 -56.5t175.5 -199.5q70 131 149 193.5t175 62.5q140 0 238.5 -120.5t98.5 -299.5q0 -189 -87.5 -306.5t-227.5 -117.5q-91 0 -166 55t-176 201z" />
    <glyph glyph-name="plusminus" unicode="&#xb1;" horiz-adv-x="1706" 
d="M254 213h1198v-231h-1198v231zM735 1241h238v-319h479v-232h-479v-319h-238v319h-481v232h481v319z" />
    <glyph glyph-name="lessequal" unicode="&#x2264;" horiz-adv-x="1706" 
d="M256 213h1196v-229h-1196v229zM1450 1257v-239l-776 -240l776 -239v-240l-1194 379v201z" />
    <glyph glyph-name="greaterequal" unicode="&#x2265;" horiz-adv-x="1706" 
d="M256 213h1196v-229h-1196v229zM256 1257l1194 -378v-201l-1194 -379v240l778 239l-778 240v239z" />
    <glyph glyph-name="yen" unicode="&#xa5;" horiz-adv-x="1331" 
d="M1065 920h229l-18 -109h-301l-131 -162h403l-18 -110h-449l-37 -205v-5q-8 -45 -8 -65q0 -55 31.5 -75.5t127.5 -22.5l-30 -166h-667l30 166q99 0 142 36t61 138l37 199h-442l18 110h399l-73 162h-297l18 109h229l-30 67l-3 6q-93 203 -227 230l29 161h641l-27 -155h-12
q-71 0 -108 -16.5t-37 -47.5q0 -10 6.5 -30.5t26.5 -69.5l131 -317l280 339q23 29 34 48t11 32q0 27 -33 43.5t-89 18.5l26 155h522l-28 -161q-83 -23 -148 -67.5t-127 -121.5z" />
    <glyph glyph-name="mu" unicode="&#xb5;" horiz-adv-x="1233" 
d="M219 190q-12 -89 -27 -239q-40 -377 -163 -377q-57 0 -92 34.5t-35 88.5q0 56 69 281t105 397l108 510h293l-106 -498q-10 -43 -15.5 -75t-5.5 -50q0 -54 28 -86.5t75 -32.5q62 0 104 55t68 171l110 516h291l-111 -525q-6 -26 -9 -49t-3 -43q0 -43 19.5 -67.5t54.5 -24.5
q26 0 49.5 13.5t40.5 37.5q10 14 25 42q35 63 65 63q11 0 20 -12t9 -27q0 -30 -21 -87t-53 -104q-41 -62 -95.5 -92t-125.5 -30q-90 0 -136.5 47.5t-54.5 146.5q-36 -97 -98.5 -145.5t-150.5 -48.5q-101 0 -161 54.5t-71 155.5z" />
    <glyph glyph-name="partialdiff" unicode="&#x2202;" horiz-adv-x="1114" 
d="M766 684q21 113 32 206t11 150q0 87 -29.5 148t-68.5 61q-35 0 -132 -93t-180 -93q-48 0 -80 33.5t-32 83.5q0 69 93 125.5t220 56.5q210 0 332.5 -161t122.5 -441q0 -344 -162.5 -564.5t-417.5 -220.5q-182 0 -299 116.5t-117 299.5q0 203 119.5 336t298.5 133
q101 0 170.5 -42.5t118.5 -133.5zM698 532q0 114 -36.5 176t-104.5 62q-96 0 -160.5 -136.5t-64.5 -346.5q0 -116 36.5 -176t106.5 -60q97 0 160 135.5t63 345.5z" />
    <glyph glyph-name="summation" unicode="&#x2211;" horiz-adv-x="1585" 
d="M27 1473h1276l153 -463h-92l-102 262q-25 62 -74 86t-201 24h-485l590 -757v-41l-689 -652h885q41 0 58 13.5t28 49.5l70 230h94l-188 -618h-1325v88l766 725l-764 981v72z" />
    <glyph glyph-name="product" unicode="&#x220f;" horiz-adv-x="1774" 
d="M43 1473h1681v-91h-192v-1685h192v-90h-753v90h168v1685h-512v-1685h170v-90h-754v90h193v1685h-193v91z" />
    <glyph glyph-name="pi" unicode="&#x3c0;" horiz-adv-x="1513" 
d="M1481 885l-68 -320h-358v-49v-70q0 -53 6 -147.5t6 -136.5q0 -102 -38.5 -154.5t-113.5 -52.5q-60 0 -93.5 33t-33.5 94q0 70 66 228.5t92 254.5h-377q0 -9 -1 -25t-1 -24v-70q0 -51 6.5 -145.5t6.5 -138.5q0 -102 -38.5 -154.5t-113.5 -52.5q-61 0 -94 33t-33 94
q0 66 66.5 224t93.5 259h-207q-90 0 -126 -26t-52 -97h-72q48 251 144.5 347t302.5 96h1030z" />
    <glyph glyph-name="integral" unicode="&#x222b;" horiz-adv-x="1249" 
d="M362 -248q99 0 119 667q3 101 4 154q17 523 130.5 753t349.5 230q105 0 170 -53t65 -137q0 -64 -41 -103.5t-106 -39.5q-64 0 -96.5 38.5t-32.5 112.5q0 38 -7.5 49t-25.5 11q-101 0 -124 -667l-3 -91q-11 -329 -30.5 -472.5t-57.5 -244.5q-62 -166 -159.5 -249
t-229.5 -83q-107 0 -171.5 52t-64.5 139q0 65 42 104t112 39q60 0 92.5 -36t32.5 -103q0 -12 -2 -24v-3q0 -24 8 -33.5t26 -9.5z" />
    <glyph glyph-name="ordfeminine" unicode="&#xaa;" horiz-adv-x="993" 
d="M797 944q-4 -16 -6.5 -30t-2.5 -25q0 -36 15.5 -54t46.5 -18q15 0 33.5 8t42.5 25l67 -76q-62 -59 -128.5 -88t-139.5 -29q-70 0 -113.5 28.5t-60.5 84.5q-56 -57 -118 -85t-134 -28q-130 0 -208.5 78t-78.5 209q0 83 31.5 160.5t89.5 140.5q66 70 152 107t186 37
q54 0 98 -11.5t78 -34.5l19 37h215zM621 1221q-30 21 -60.5 32t-62.5 11q-54 0 -94.5 -27t-73.5 -84q-30 -53 -46 -112t-16 -113q0 -66 27.5 -98.5t83.5 -32.5q93 0 149 97t93 327z" />
    <glyph glyph-name="ordmasculine" unicode="&#xba;" horiz-adv-x="913" 
d="M477 1276q-47 0 -84.5 -26.5t-62.5 -78.5q-27 -53 -42.5 -119t-15.5 -126q0 -83 27 -120.5t86 -37.5q89 0 147 100.5t58 255.5q0 77 -28 114.5t-85 37.5zM18 973q0 179 135 300.5t336 121.5q166 0 261.5 -87.5t95.5 -238.5q0 -183 -134 -301.5t-341 -118.5
q-162 0 -257.5 88t-95.5 236z" />
    <glyph glyph-name="Omega" unicode="&#x3a9;" horiz-adv-x="1581" 
d="M1153 297v-14h283l37 120h81l-120 -403h-545q85 207 128.5 423.5t43.5 430.5q0 278 -66.5 413.5t-201.5 135.5q-136 0 -203.5 -137t-67.5 -410q0 -211 43.5 -428t128.5 -428h-544l-121 403h82l36 -120h283v14q-170 66 -264 208.5t-94 334.5q0 281 205 469t516 188
q309 0 514.5 -189t205.5 -470q0 -189 -95 -332t-265 -209z" />
    <glyph glyph-name="ae" unicode="&#xe6;" horiz-adv-x="1817" 
d="M718 416q-197 -5 -300 -50.5t-103 -127.5q0 -44 30 -72.5t77 -28.5q94 0 176.5 76.5t119.5 202.5zM1069 588q179 1 286 56t107 142q0 42 -28 66.5t-76 24.5q-96 0 -175 -78.5t-114 -210.5zM801 133q-95 -83 -197.5 -122.5t-222.5 -39.5q-154 0 -252 74.5t-98 190.5
q0 167 183 253t546 91l1 5q30 124 30 150q0 63 -48 102.5t-125 39.5q-57 0 -98.5 -22.5t-79.5 -72.5q-8 -11 -22 -32q-67 -103 -162 -103q-52 0 -86.5 35.5t-34.5 89.5q0 103 141.5 181.5t346.5 78.5q124 0 220 -28t165 -84q69 56 161 84t207 28q175 0 277 -70.5t102 -189.5
q0 -154 -189 -241t-538 -93q-4 -16 -6 -33t-2 -34q0 -91 58 -143t159 -52q77 0 167.5 42t194.5 126l105 -123q-127 -127 -264.5 -188.5t-294.5 -61.5q-118 0 -202 39.5t-142 122.5z" />
    <glyph glyph-name="oslash" unicode="&#xf8;" horiz-adv-x="1219" 
d="M434 158q23 -10 45.5 -15.5t40.5 -5.5q58 0 108.5 39.5t82.5 110.5q36 77 55.5 165.5t19.5 168.5q0 36 -3.5 68.5t-10.5 61.5zM92 -244l154 267q-107 61 -164 166.5t-57 242.5q0 261 181 431.5t462 170.5q29 0 65.5 -4.5t77.5 -13.5l117 201h147l-143 -252
q97 -61 145.5 -157.5t48.5 -229.5q0 -141 -51.5 -258t-148.5 -199q-88 -75 -192 -113.5t-216 -38.5q-32 0 -69.5 3.5t-80.5 10.5l-126 -227h-150zM377 244l342 600q-16 12 -35.5 18t-44.5 6q-118 0 -197.5 -147.5t-79.5 -372.5q0 -30 4 -56.5t11 -47.5z" />
    <glyph glyph-name="questiondown" unicode="&#xbf;" horiz-adv-x="1251" 
d="M911 1241q0 -83 -56 -141t-136 -58q-72 0 -114 43t-42 117q0 84 56 141.5t137 57.5q72 0 113.5 -43t41.5 -117zM796 936q-7 -126 -38 -193.5t-110 -129.5q-5 -4 -70.5 -48.5t-102.5 -91.5q-24 -31 -36.5 -67.5t-12.5 -79.5q0 -90 55.5 -142.5t151.5 -52.5q82 0 130 28.5
t48 76.5q0 8 -2 31.5t-2 37.5q0 78 44.5 124t119.5 46q69 0 112 -40t43 -105q0 -145 -152.5 -253t-373.5 -108q-236 0 -376 96t-140 257q0 118 63 216.5t177 157.5q27 15 85 38q121 47 162 97q16 19 25 46t11 59h189z" />
    <glyph glyph-name="exclamdown" unicode="&#xa1;" horiz-adv-x="782" 
d="M670 1237q0 -83 -55.5 -140t-135.5 -57q-72 0 -114.5 43.5t-42.5 116.5q0 83 55.5 141t136.5 58q71 0 113.5 -43.5t42.5 -118.5zM528 922q-17 -109 -25.5 -223t-8.5 -232q0 -28 2 -106.5t2 -127.5q0 -119 -61 -191.5t-161 -72.5q-81 0 -129.5 45.5t-48.5 120.5
q0 72 78 254l27 64q82 196 115 296t42 173h168z" />
    <glyph glyph-name="logicalnot" unicode="&#xac;" horiz-adv-x="1706" 
d="M254 866h1198v-501h-229v274h-969v227z" />
    <glyph glyph-name="radical" unicode="&#x221a;" horiz-adv-x="1366" 
d="M1155 1714h215v-149h-96l-590 -1606h-119l-307 846l-145 -55l-37 129l360 127l223 -635z" />
    <glyph glyph-name="florin" unicode="&#x192;" horiz-adv-x="1337" 
d="M459 606h-217l30 180h199q29 322 156 479.5t356 157.5q114 0 180 -46.5t66 -125.5q0 -64 -32 -97.5t-95 -33.5q-62 0 -110 59q-6 7 -9 11q-1 1 -5 6q-26 33 -56 33q-84 0 -103 -347q-4 -62 -6 -96h246l-33 -180h-223q-30 -328 -62.5 -530.5t-74.5 -331.5
q-50 -152 -159 -244t-239 -92q-118 0 -191 51.5t-73 132.5q0 53 38 90t91 37q31 0 55 -13.5t48 -45.5q25 -34 42.5 -43.5t43.5 -9.5q78 0 93 245l1 9l14 270t29 475z" />
    <glyph glyph-name="approxequal" unicode="&#x2248;" horiz-adv-x="1706" 
d="M1530 602v-254q-105 -71 -196 -104t-181 -33t-283 65.5t-309 65.5q-82 0 -172.5 -37t-210.5 -121v254q111 74 209 109t195 35q115 0 304.5 -65.5t272.5 -65.5t170 35t201 116zM1530 1036v-254q-107 -70 -197 -102.5t-178 -32.5q-91 0 -284 64.5t-310 64.5q-84 0 -172 -36
t-211 -122v256q112 74 209 108t195 34q115 0 304.5 -65.5t272.5 -65.5t170.5 35.5t200.5 115.5z" />
    <glyph glyph-name="Delta" unicode="&#x2206;" horiz-adv-x="1346" 
d="M528 1085l-356 -751h713zM639 1497h76l712 -1497h-1509z" />
    <glyph glyph-name="guillemotleft" unicode="&#xab;" horiz-adv-x="1042" 
d="M440 522q168 112 339 247.5t190 135.5q14 0 22 -8.5t8 -22.5q0 -31 -77 -128.5t-224 -249.5q71 -127 111.5 -219.5t40.5 -126.5q0 -15 -8.5 -23t-24.5 -8q-18 0 -135 132.5t-242 242.5v28zM61 522q169 112 339 247.5t188 135.5q14 0 23.5 -8.5t9.5 -22.5q0 -31 -77 -127
t-227 -251q72 -127 112 -219.5t40 -126.5q0 -15 -8.5 -23t-24.5 -8q-17 0 -133.5 132.5t-241.5 242.5v28z" />
    <glyph glyph-name="guillemotright" unicode="&#xbb;" horiz-adv-x="1042" 
d="M285 526q-71 127 -111.5 219.5t-40.5 126.5q0 15 9 24t24 9q18 0 134 -132.5t241 -242.5v-30q-168 -112 -338 -246.5t-189 -134.5q-14 0 -22 7.5t-8 20.5q0 32 77 129.5t224 249.5zM664 526q-72 127 -112 219.5t-40 126.5q0 15 8.5 24t24.5 9q18 0 135 -132.5t242 -242.5
v-30q-167 -111 -338.5 -246t-190.5 -135q-14 0 -22.5 7.5t-8.5 20.5q0 32 77.5 129.5t224.5 249.5z" />
    <glyph glyph-name="ellipsis" unicode="&#x2026;" horiz-adv-x="2048" 
d="M82 145q0 86 68.5 154t156.5 68q74 0 117 -43t43 -117q0 -89 -67.5 -157t-155.5 -68q-75 0 -118.5 44t-43.5 119zM764 145q0 86 68.5 154t156.5 68q74 0 117 -43t43 -117q0 -89 -67.5 -157t-155.5 -68q-75 0 -118.5 44t-43.5 119zM1448 145q0 86 68.5 154t156.5 68
q74 0 117 -43t43 -117q0 -89 -67.5 -157t-155.5 -68q-75 0 -118.5 44t-43.5 119z" />
    <glyph glyph-name="nonbreakingspace" unicode="&#xa0;" horiz-adv-x="1337" 
 />
    <glyph glyph-name="Agrave" unicode="&#xc0;" horiz-adv-x="1470" 
d="M510 651h319l-86 422zM-162 0l27 166q79 0 134 39.5t130 169.5l586 1009h295l237 -1050q21 -97 57 -132.5t109 -35.5h21l-29 -166h-707l25 162h14q98 0 138 23.5t40 78.5q0 9 -1.5 22t-8.5 48l-35 160h-448l-100 -185q-13 -23 -20 -45t-7 -37q0 -34 29.5 -49.5
t95.5 -15.5h26l-28 -162h-580zM1026 1526h-104l-260 190q-35 26 -49.5 45.5t-14.5 38.5q0 38 24 63t60 25q26 0 49 -14t49 -47z" />
    <glyph glyph-name="Atilde" unicode="&#xc3;" horiz-adv-x="1470" 
d="M510 651h319l-86 422zM-162 0l27 166q79 0 134 39.5t130 169.5l586 1009h295l237 -1050q21 -97 57 -132.5t109 -35.5h21l-29 -166h-707l25 162h14q98 0 138 23.5t40 78.5q0 9 -1.5 22t-8.5 48l-35 160h-448l-100 -185q-13 -23 -20 -45t-7 -37q0 -34 29.5 -49.5
t95.5 -15.5h26l-28 -162h-580zM1159 1831q-21 -115 -72 -175.5t-126 -60.5q-11 1 -22 2.5t-34 6.5l-106 26q-10 3 -21 4.5t-28 1.5q-40 0 -63.5 -21t-37.5 -69h-65q20 118 71.5 180t129.5 62q15 0 29 -2t28 -6l88 -23q24 -5 38.5 -7.5t22.5 -2.5q44 0 68 20t35 64h65z" />
    <glyph glyph-name="Otilde" unicode="&#xd5;" horiz-adv-x="1602" 
d="M877 1245q-198 0 -317.5 -198.5t-119.5 -530.5q0 -186 73 -280.5t216 -94.5q192 0 312 201t120 528q0 181 -74 278t-210 97zM61 573q0 153 45.5 289t135.5 250q116 150 278.5 227.5t360.5 77.5q293 0 476 -169t183 -437q0 -152 -46 -290t-134 -249q-115 -145 -284.5 -224
t-368.5 -79q-285 0 -465.5 169.5t-180.5 434.5zM1243 1831q-21 -115 -72 -175.5t-126 -60.5q-11 1 -22 2.5t-34 6.5l-106 26q-10 3 -21 4.5t-28 1.5q-40 0 -63.5 -21t-37.5 -69h-65q20 118 71.5 180t129.5 62q15 0 29 -2t28 -6l88 -23q24 -5 38.5 -7.5t22.5 -2.5q44 0 68 20
t35 64h65z" />
    <glyph glyph-name="OE" unicode="&#x152;" horiz-adv-x="2431" 
d="M1059 100q-70 -67 -160 -100t-203 -33q-276 0 -455.5 172t-179.5 434q0 151 46.5 289.5t132.5 247.5q115 149 278.5 229t353.5 80q124 0 220.5 -33.5t171.5 -101.5l18 100h975l117 -446l-140 -47q-72 162 -201 240.5t-325 78.5q-80 0 -112.5 -25.5t-47.5 -109.5l-43 -243
q10 -2 21 -2.5t33 -0.5q118 0 171.5 48.5t73.5 171.5h146l-109 -617l-139 1q2 21 3 32.5t1 19.5q0 86 -40.5 128t-123.5 42q-16 0 -33 -1.5t-34 -4.5l-60 -334q-3 -17 -4.5 -32t-1.5 -27q0 -50 32.5 -69t117.5 -19q181 0 344.5 92.5t312.5 278.5l129 -74l-221 -465h-1088z
M879 1245q-204 0 -327.5 -198.5t-123.5 -530.5q0 -187 75 -281t224 -94q197 0 320.5 201.5t123.5 527.5q0 182 -75.5 278.5t-216.5 96.5z" />
    <glyph glyph-name="oe" unicode="&#x153;" horiz-adv-x="1839" 
d="M870 80q-77 -54 -169.5 -81.5t-200.5 -27.5q-220 0 -347.5 124.5t-127.5 336.5q0 256 178.5 429t447.5 173q107 0 195 -30.5t166 -94.5q93 63 192.5 94t206.5 31q172 0 276.5 -73t104.5 -191q0 -154 -189 -241t-538 -93q-4 -16 -6 -33t-2 -34q0 -91 57.5 -142t159.5 -51
q78 0 167.5 41t192.5 125l107 -123q-126 -126 -262 -187t-291 -61q-112 0 -189.5 26.5t-128.5 82.5zM1106 590q179 1 286 56t107 142q0 42 -28 66.5t-76 24.5q-96 0 -175 -78.5t-114 -210.5zM635 866q-61 0 -111 -38.5t-84 -110.5q-36 -77 -57 -171.5t-21 -180.5
q0 -117 36.5 -171.5t115.5 -54.5q117 0 194.5 144.5t77.5 365.5q0 110 -37.5 163.5t-113.5 53.5z" />
    <glyph glyph-name="endash" unicode="&#x2013;" 
d="M-51 399l35 195h1024l-33 -195h-1026z" />
    <glyph glyph-name="emdash" unicode="&#x2014;" horiz-adv-x="2048" 
d="M2048 594v-195h-2048v195h2048z" />
    <glyph glyph-name="quotedblleft" unicode="&#x201c;" horiz-adv-x="1055" 
d="M862 1165h6q70 0 109 -35.5t39 -99.5q0 -98 -67 -168.5t-163 -70.5q-75 0 -118 48t-43 134q0 107 75 214t236 228l76 -80q-59 -49 -95.5 -90.5t-54.5 -79.5zM369 1165h6q70 0 109.5 -35.5t39.5 -99.5q0 -98 -68 -168.5t-163 -70.5q-76 0 -119 48t-43 134q0 107 75.5 214
t235.5 228l76 -80q-59 -49 -95.5 -90.5t-53.5 -79.5z" />
    <glyph glyph-name="quotedblright" unicode="&#x201d;" horiz-adv-x="1055" 
d="M295 1040h-6q-71 0 -110.5 35.5t-39.5 98.5q0 98 68 169.5t164 71.5q76 0 118.5 -48.5t42.5 -133.5q0 -107 -75 -214.5t-236 -227.5l-76 79q60 50 96.5 91.5t53.5 78.5zM788 1040h-6q-70 0 -109.5 35.5t-39.5 98.5q0 98 68 169.5t163 71.5q76 0 119 -48.5t43 -133.5
q0 -106 -75.5 -213.5t-237.5 -228.5l-76 79q61 52 98 93t53 77z" />
    <glyph glyph-name="quoteleft" unicode="&#x2018;" horiz-adv-x="561" 
d="M369 1165h6q70 0 109.5 -35.5t39.5 -99.5q0 -98 -68 -168.5t-163 -70.5q-76 0 -119 48t-43 134q0 107 75.5 214t235.5 228l76 -80q-59 -49 -95.5 -90.5t-53.5 -79.5z" />
    <glyph glyph-name="quoteright" unicode="&#x2019;" horiz-adv-x="561" 
d="M313 1040h-6q-70 0 -108.5 35t-38.5 99q0 98 67 169.5t162 71.5q76 0 119 -48.5t43 -133.5q0 -107 -75.5 -214.5t-235.5 -227.5l-76 79q59 50 95.5 91.5t53.5 78.5z" />
    <glyph glyph-name="divide" unicode="&#xf7;" horiz-adv-x="1706" 
d="M854 371q68 0 116 -48.5t48 -117.5q0 -68 -47.5 -116t-116.5 -48t-117.5 48t-48.5 116t49 117t117 49zM254 727h1198v-231h-1198v231zM854 1182q67 0 115.5 -49t48.5 -117t-48.5 -116t-117.5 -48t-116.5 48t-47.5 116t49 117t117 49z" />
    <glyph glyph-name="lozenge" unicode="&#x25ca;" horiz-adv-x="1012" 
d="M506 1409l-385 -817l385 -825l385 825zM506 1653l500 -1061l-500 -1069l-500 1069z" />
    <glyph glyph-name="ydieresis" unicode="&#xff;" horiz-adv-x="1313" 
d="M1051 125q-38 -196 -82.5 -281.5t-122.5 -150.5q-85 -71 -207.5 -109.5t-263.5 -38.5q-192 0 -305 58t-113 153q0 64 47 107t117 43q42 0 77.5 -17.5t57.5 -48.5q1 -1 16 -35t35 -57q11 -11 34.5 -17.5t51.5 -6.5q135 0 223 94.5t121 275.5q-84 -57 -167 -85.5
t-167 -28.5q-140 0 -216 66.5t-76 189.5q0 31 5.5 69.5t24.5 122.5l49 235q3 18 4 27t1 17q0 55 -26 75.5t-103 24.5l28 145q85 8 171.5 23t176.5 39h142l-117 -604q-9 -45 -13.5 -73t-4.5 -36q0 -51 26 -74.5t84 -23.5q45 0 94 20t101 60l141 731h324zM829 1309
q0 45 36 80.5t83 35.5q50 0 85.5 -34t35.5 -82q0 -54 -34.5 -88.5t-86.5 -34.5q-49 0 -84 36t-35 87zM471 1309q0 45 36 80.5t82 35.5q51 0 86 -34t35 -82q0 -54 -34 -88.5t-87 -34.5q-48 0 -83 36t-35 87z" />
    <glyph glyph-name="Ydieresis" unicode="&#x178;" horiz-adv-x="1370" 
d="M782 334q0 -4 -1 -11q-7 -41 -7 -59q0 -56 31 -76t126 -22l-28 -166h-696l29 166q98 0 141.5 36.5t60.5 137.5l43 242l-184 405l-5 11q-91 199 -222 225l26 161h686l-26 -155h-13q-71 0 -108 -16.5t-37 -47.5q0 -10 6.5 -30.5t26.5 -69.5l125 -297l262 319q21 27 32 47
t11 33q0 27 -32 43.5t-89 18.5l27 155h532l-29 -161q-82 -23 -147 -67.5t-127 -121.5l-371 -452zM913 1690q0 45 36 80.5t83 35.5q50 0 85.5 -34t35.5 -82q0 -54 -34.5 -88.5t-86.5 -34.5q-49 0 -84 36t-35 87zM555 1690q0 45 36 80.5t82 35.5q51 0 86 -34t35 -82
q0 -54 -34 -88.5t-87 -34.5q-48 0 -83 36t-35 87z" />
    <glyph glyph-name="fraction" unicode="&#x2215;" horiz-adv-x="342" 
d="M-342 -25l854 1446h170l-854 -1446h-170z" />
    <glyph glyph-name="currency" unicode="&#xa4;" horiz-adv-x="1337" 
d="M-20 627h161q2 42 6.5 81.5t12.5 77.5h-156l35 111h147q20 60 47.5 116.5t61.5 106.5q97 143 236.5 225t279.5 82q82 0 160 -28.5t129 -75.5l20 90l107 6l96 -522l-156 -27q-49 176 -136.5 271.5t-190.5 95.5q-102 0 -184 -88t-134 -252h520l-47 -111h-499
q-8 -38 -12.5 -77.5t-6.5 -81.5h459l-49 -111h-408q10 -180 77 -265t198 -85q108 0 219 79.5t198 221.5l136 -115q-100 -179 -259.5 -279t-342.5 -100q-249 0 -397 143t-165 400h-196z" />
    <glyph glyph-name="guilsinglleft" unicode="&#x2039;" horiz-adv-x="664" 
d="M61 494v28q169 112 339 247.5t188 135.5q14 0 23.5 -8.5t9.5 -22.5q0 -31 -77 -127t-227 -251q72 -127 112 -219.5t40 -126.5q0 -15 -8.5 -23t-24.5 -8q-17 0 -133.5 132.5t-241.5 242.5z" />
    <glyph glyph-name="guilsinglright" unicode="&#x203a;" horiz-adv-x="664" 
d="M537 530v-30q-167 -111 -338.5 -246t-190.5 -135q-14 0 -22.5 7.5t-8.5 20.5q0 32 77.5 129.5t224.5 249.5q-72 127 -112 219.5t-40 126.5q0 15 8.5 24t24.5 9q18 0 135 -132.5t242 -242.5z" />
    <glyph glyph-name="fi" unicode="&#xf001;" horiz-adv-x="1464" 
d="M514 395q-6 -28 -16 -86q-37 -196 -70 -297q-23 -69 -62.5 -131.5t-97.5 -122.5q-102 -104 -241.5 -159.5t-298.5 -55.5q-111 0 -176.5 45t-65.5 119q0 64 49 108t121 44q31 0 61 -11t56 -32q7 -6 21 -21q50 -51 104 -51q106 0 168 106.5t127 450.5l102 545h-176l26 166
h183q75 210 252 323t432 113q143 0 223 -42t80 -116q0 -61 -55.5 -105t-135.5 -44q-48 0 -85.5 12.5t-67.5 38.5q-8 6 -24 25q-50 59 -109 59q-67 0 -116.5 -47t-68.5 -127l-20 -90h639l-125 -656q-7 -33 -10.5 -59.5t-3.5 -34.5q0 -30 17 -47.5t46 -17.5q24 0 52.5 11
t62.5 34l78 -127q-86 -66 -171 -98.5t-171 -32.5q-116 0 -185 57t-69 152q0 24 3.5 51.5t10.5 56.5l88 405q3 15 4.5 28.5t1.5 25.5q0 48 -28 67t-101 19h-172z" />
    <glyph glyph-name="fl" unicode="&#xf002;" horiz-adv-x="1464" 
d="M516 395q-3 -15 -8 -43q-83 -435 -240 -594q-101 -103 -241.5 -159t-298.5 -56q-111 0 -176.5 45t-65.5 119q0 64 49 108t121 44q31 0 61 -11t56 -32q7 -6 21 -21q50 -51 104 -51q39 0 76.5 19.5t68.5 56.5q73 82 141 438l9 44l106 546h-176l29 166h178q65 196 231 314
t377 118q47 0 95 -7.5t97 -23.5l134 31h106l-211 -1090q-6 -31 -10 -57t-4 -37q0 -30 17 -47.5t46 -17.5q24 0 52.5 11t62.5 34l78 -127q-86 -66 -171 -98.5t-171 -32.5q-115 0 -184.5 56t-69.5 146q0 18 3 43t11 72l166 881q-34 10 -77 54t-77 44q-67 0 -109.5 -46
t-68.5 -149l-18 -71h190l-26 -166h-197z" />
    <glyph glyph-name="daggerdbl" unicode="&#x2021;" 
d="M334 -18q5 72 7.5 116t2.5 76q0 52 -6 101.5t-19 101.5q40 34 64 63.5t37 59.5l-103 -35q-25 -8 -49.5 -12t-46.5 -4q-56 0 -83 26.5t-27 81.5q0 59 38 97t97 38q24 0 53.5 -6t65.5 -18l77 -27q0 24 -7.5 53.5t-22.5 67.5q18 21 34 46.5t33 61.5l-102 -32q-28 -9 -53 -14
t-43 -5q-56 0 -82.5 26.5t-26.5 82.5q0 59 38 97t97 38q27 0 57 -6t62 -17l78 -28l-21 112q-10 55 -14 85t-4 51q0 74 44 114.5t126 40.5q61 0 96 -31t35 -86q0 -26 -10 -55t-45 -90l-80 -141l103 31q35 10 58 15t37 5q55 0 82 -27.5t27 -83.5q0 -59 -38 -96t-97 -37
q-33 0 -63 5.5t-56 15.5l-78 30q0 -21 9.5 -46.5t29.5 -61.5q-17 -19 -33.5 -45.5t-42.5 -75.5l103 31q37 11 59 15.5t37 4.5q55 0 83 -27.5t28 -82.5q0 -59 -39 -96t-99 -37q-32 0 -62 5t-56 15l-78 30q1 -28 14.5 -58t40.5 -64q-56 -91 -93.5 -190t-55.5 -205h-117z" />
    <glyph glyph-name="periodcentered" unicode="&#xb7;" horiz-adv-x="668" 
d="M141 700q0 80 56.5 135.5t136.5 55.5q81 0 135.5 -55t54.5 -136t-54.5 -136.5t-135.5 -55.5q-82 0 -137.5 55.5t-55.5 136.5z" />
    <glyph glyph-name="quotesinglbase" unicode="&#x201a;" horiz-adv-x="561" 
d="M164 0h-6q-70 0 -109 35.5t-39 99.5q0 99 67 169.5t163 70.5q75 0 118 -48.5t43 -133.5q0 -108 -75 -215t-236 -228l-76 80q59 49 96 90.5t54 79.5z" />
    <glyph glyph-name="quotedblbase" unicode="&#x201e;" horiz-adv-x="1055" 
d="M160 0h-6q-70 0 -109 35.5t-39 99.5q0 99 67 169.5t163 70.5q75 0 118 -48.5t43 -133.5q0 -108 -75 -215t-236 -228l-76 80q59 49 95.5 90.5t54.5 79.5zM653 0h-6q-70 0 -109.5 36t-39.5 99q0 98 68 169t163 71q76 0 119 -48.5t43 -133.5q0 -108 -75.5 -215t-235.5 -228
l-76 80q59 49 95.5 90.5t53.5 79.5z" />
    <glyph glyph-name="perthousand" unicode="&#x2030;" horiz-adv-x="2761" 
d="M2165 356q0 -118 32.5 -174.5t100.5 -56.5t101.5 57.5t33.5 173.5q0 118 -33.5 175t-101.5 57t-100.5 -56.5t-32.5 -175.5zM1901 356q0 170 110.5 275.5t288.5 105.5q177 0 287 -105.5t110 -275.5q0 -169 -110.5 -275t-288.5 -106q-177 0 -287 106t-110 275zM1264 356
q0 -117 33 -174t102 -57q67 0 100 57t33 174q0 119 -32.5 175.5t-100.5 56.5q-69 0 -102 -57t-33 -175zM999 356q0 170 111 275.5t289 105.5q177 0 287 -105.5t110 -275.5q0 -169 -110.5 -275t-288.5 -106q-177 0 -287.5 106t-110.5 275zM330 1040q0 -118 32.5 -174.5
t100.5 -56.5t101.5 57.5t33.5 173.5q0 118 -33.5 175t-101.5 57t-100.5 -56.5t-32.5 -175.5zM383 -25l917 1446h179l-918 -1446h-178zM66 1042q0 169 110.5 274t288.5 105t287.5 -104.5t109.5 -274.5q0 -169 -111 -276t-288 -107q-176 0 -286.5 107t-110.5 276z" />
    <glyph glyph-name="Acircumflex" unicode="&#xc2;" horiz-adv-x="1470" 
d="M510 651h319l-86 422zM-162 0l27 166q79 0 134 39.5t130 169.5l586 1009h295l237 -1050q21 -97 57 -132.5t109 -35.5h21l-29 -166h-707l25 162h14q98 0 138 23.5t40 78.5q0 9 -1.5 22t-8.5 48l-35 160h-448l-100 -185q-13 -23 -20 -45t-7 -37q0 -34 29.5 -49.5
t95.5 -15.5h26l-28 -162h-580zM1139 1526h-80l-168 178l-246 -178h-102l305 348h127z" />
    <glyph glyph-name="Ecircumflex" unicode="&#xca;" horiz-adv-x="1522" 
d="M-53 0l29 166q86 6 123.5 41t54.5 133l127 709q3 18 4.5 33t1.5 26q0 51 -33 79t-96 32l28 165h1164l114 -446l-139 -47q-72 162 -201.5 240.5t-324.5 78.5q-79 0 -111 -25t-47 -110l-43 -243q10 -2 21 -2.5t32 -0.5q117 0 170.5 48.5t73.5 171.5h145l-108 -617h-139
l3 33.5t1 19.5q0 86 -40.5 128t-123.5 42q-16 0 -33 -1.5t-35 -4.5l-59 -333q-3 -17 -4.5 -32t-1.5 -28q0 -49 33 -68.5t118 -19.5q181 0 343.5 92t312.5 279l131 -74l-224 -465h-1267zM1118 1526h-80l-168 178l-246 -178h-102l305 348h127z" />
    <glyph glyph-name="Aacute" unicode="&#xc1;" horiz-adv-x="1470" 
d="M510 651h319l-86 422zM-162 0l27 166q79 0 134 39.5t130 169.5l586 1009h295l237 -1050q21 -97 57 -132.5t109 -35.5h21l-29 -166h-707l25 162h14q98 0 138 23.5t40 78.5q0 9 -1.5 22t-8.5 48l-35 160h-448l-100 -185q-13 -23 -20 -45t-7 -37q0 -34 29.5 -49.5
t95.5 -15.5h26l-28 -162h-580zM764 1526h-104l307 303q30 28 59 42.5t56 14.5q32 0 55.5 -25.5t23.5 -60.5q0 -26 -16 -47.5t-51 -42.5z" />
    <glyph glyph-name="Edieresis" unicode="&#xcb;" horiz-adv-x="1522" 
d="M-53 0l29 166q86 6 123.5 41t54.5 133l127 709q3 18 4.5 33t1.5 26q0 51 -33 79t-96 32l28 165h1164l114 -446l-139 -47q-72 162 -201.5 240.5t-324.5 78.5q-79 0 -111 -25t-47 -110l-43 -243q10 -2 21 -2.5t32 -0.5q117 0 170.5 48.5t73.5 171.5h145l-108 -617h-139
l3 33.5t1 19.5q0 86 -40.5 128t-123.5 42q-16 0 -33 -1.5t-35 -4.5l-59 -333q-3 -17 -4.5 -32t-1.5 -28q0 -49 33 -68.5t118 -19.5q181 0 343.5 92t312.5 279l131 -74l-224 -465h-1267zM911 1690q0 45 36 80.5t83 35.5q50 0 85.5 -34t35.5 -82q0 -54 -34.5 -88.5
t-86.5 -34.5q-49 0 -84 36t-35 87zM553 1690q0 45 36 80.5t82 35.5q51 0 86 -34t35 -82q0 -54 -34 -88.5t-87 -34.5q-48 0 -83 36t-35 87z" />
    <glyph glyph-name="Egrave" unicode="&#xc8;" horiz-adv-x="1522" 
d="M-53 0l29 166q86 6 123.5 41t54.5 133l127 709q3 18 4.5 33t1.5 26q0 51 -33 79t-96 32l28 165h1164l114 -446l-139 -47q-72 162 -201.5 240.5t-324.5 78.5q-79 0 -111 -25t-47 -110l-43 -243q10 -2 21 -2.5t32 -0.5q117 0 170.5 48.5t73.5 171.5h145l-108 -617h-139
l3 33.5t1 19.5q0 86 -40.5 128t-123.5 42q-16 0 -33 -1.5t-35 -4.5l-59 -333q-3 -17 -4.5 -32t-1.5 -28q0 -49 33 -68.5t118 -19.5q181 0 343.5 92t312.5 279l131 -74l-224 -465h-1267zM1005 1526h-104l-260 190q-35 26 -49.5 45.5t-14.5 38.5q0 38 24 63t60 25q26 0 49 -14
t49 -47z" />
    <glyph glyph-name="Iacute" unicode="&#xcd;" horiz-adv-x="795" 
d="M844 1384l-29 -165q-86 -5 -125 -41.5t-55 -133.5l-125 -710q-2 -9 -3 -20t-1 -29q0 -60 29.5 -87t98.5 -32l-28 -166h-659l28 166q86 4 125 41t56 133l125 709q2 10 3 20.5t1 30.5q0 58 -31 86.5t-96 32.5l28 165h658zM459 1526h-104l307 303q30 28 59 42.5t56 14.5
q32 0 55.5 -25.5t23.5 -60.5q0 -26 -16 -47.5t-51 -42.5z" />
    <glyph glyph-name="Icircumflex" unicode="&#xce;" horiz-adv-x="795" 
d="M844 1384l-29 -165q-86 -5 -125 -41.5t-55 -133.5l-125 -710q-2 -9 -3 -20t-1 -29q0 -60 29.5 -87t98.5 -32l-28 -166h-659l28 166q86 4 125 41t56 133l125 709q2 10 3 20.5t1 30.5q0 58 -31 86.5t-96 32.5l28 165h658zM834 1526h-80l-168 178l-246 -178h-102l305 348
h127z" />
    <glyph glyph-name="Idieresis" unicode="&#xcf;" horiz-adv-x="795" 
d="M844 1384l-29 -165q-86 -5 -125 -41.5t-55 -133.5l-125 -710q-2 -9 -3 -20t-1 -29q0 -60 29.5 -87t98.5 -32l-28 -166h-659l28 166q86 4 125 41t56 133l125 709q2 10 3 20.5t1 30.5q0 58 -31 86.5t-96 32.5l28 165h658zM627 1690q0 45 36 80.5t83 35.5q50 0 85.5 -34
t35.5 -82q0 -54 -34.5 -88.5t-86.5 -34.5q-49 0 -84 36t-35 87zM269 1690q0 45 36 80.5t82 35.5q51 0 86 -34t35 -82q0 -54 -34 -88.5t-87 -34.5q-48 0 -83 36t-35 87z" />
    <glyph glyph-name="Igrave" unicode="&#xcc;" horiz-adv-x="795" 
d="M844 1384l-29 -165q-86 -5 -125 -41.5t-55 -133.5l-125 -710q-2 -9 -3 -20t-1 -29q0 -60 29.5 -87t98.5 -32l-28 -166h-659l28 166q86 4 125 41t56 133l125 709q2 10 3 20.5t1 30.5q0 58 -31 86.5t-96 32.5l28 165h658zM721 1526h-104l-260 190q-35 26 -49.5 45.5
t-14.5 38.5q0 38 24 63t60 25q26 0 49 -14t49 -47z" />
    <glyph glyph-name="Oacute" unicode="&#xd3;" horiz-adv-x="1602" 
d="M877 1245q-198 0 -317.5 -198.5t-119.5 -530.5q0 -186 73 -280.5t216 -94.5q192 0 312 201t120 528q0 181 -74 278t-210 97zM61 573q0 153 45.5 289t135.5 250q116 150 278.5 227.5t360.5 77.5q293 0 476 -169t183 -437q0 -152 -46 -290t-134 -249q-115 -145 -284.5 -224
t-368.5 -79q-285 0 -465.5 169.5t-180.5 434.5zM848 1526h-104l307 303q30 28 59 42.5t56 14.5q32 0 55.5 -25.5t23.5 -60.5q0 -26 -16 -47.5t-51 -42.5z" />
    <glyph glyph-name="Ocircumflex" unicode="&#xd4;" horiz-adv-x="1602" 
d="M877 1245q-198 0 -317.5 -198.5t-119.5 -530.5q0 -186 73 -280.5t216 -94.5q192 0 312 201t120 528q0 181 -74 278t-210 97zM61 573q0 153 45.5 289t135.5 250q116 150 278.5 227.5t360.5 77.5q293 0 476 -169t183 -437q0 -152 -46 -290t-134 -249q-115 -145 -284.5 -224
t-368.5 -79q-285 0 -465.5 169.5t-180.5 434.5zM1223 1526h-80l-168 178l-246 -178h-102l305 348h127z" />
    <glyph glyph-name="apple" unicode="&#xf000;" horiz-adv-x="1618" 
d="M836 1216q-1 6 -1.5 14t-0.5 23q0 124 95 229.5t236 131.5q1 -10 1.5 -23t0.5 -39q0 -131 -103.5 -234.5t-203.5 -103.5h-8q-3 0 -7.5 1t-8.5 1zM1505 403q-114 -247 -205 -342.5t-204 -95.5q-50 0 -131.5 33t-122.5 33q-45 0 -131 -33t-127 -33q-64 0 -128.5 44
t-129.5 132q-102 140 -157.5 295.5t-55.5 300.5q0 219 125 356.5t323 137.5q68 0 155 -34t124 -34q34 0 121.5 34t152.5 34q111 0 199 -39.5t160 -122.5q-102 -65 -151.5 -145.5t-49.5 -182.5q0 -113 60 -200t173 -138z" />
    <glyph glyph-name="Ograve" unicode="&#xd2;" horiz-adv-x="1602" 
d="M877 1245q-198 0 -317.5 -198.5t-119.5 -530.5q0 -186 73 -280.5t216 -94.5q192 0 312 201t120 528q0 181 -74 278t-210 97zM61 573q0 153 45.5 289t135.5 250q116 150 278.5 227.5t360.5 77.5q293 0 476 -169t183 -437q0 -152 -46 -290t-134 -249q-115 -145 -284.5 -224
t-368.5 -79q-285 0 -465.5 169.5t-180.5 434.5zM1110 1526h-104l-260 190q-35 26 -49.5 45.5t-14.5 38.5q0 38 24 63t60 25q26 0 49 -14t49 -47z" />
    <glyph glyph-name="Uacute" unicode="&#xda;" horiz-adv-x="1501" 
d="M125 1219l29 165h657l-29 -161q-82 -4 -122.5 -43.5t-55.5 -130.5l-88 -543q-1 -8 -4 -25q-10 -71 -10 -90q0 -99 65 -159t172 -60q150 0 240 78.5t117 232.5l94 572q3 22 4.5 36t1.5 21q0 52 -31 79t-96 32l27 161h485l-29 -165q-85 -5 -124.5 -41.5t-55.5 -133.5
l-102 -577q-28 -159 -63 -228t-99 -124q-82 -71 -208.5 -108.5t-285.5 -37.5q-229 0 -354 86.5t-125 245.5q0 59 24 210l3 20l88 518q0 2 1 9q3 27 3 40q0 58 -31.5 87.5t-97.5 33.5zM862 1526h-104l307 303q30 28 59 42.5t56 14.5q32 0 55.5 -25.5t23.5 -60.5
q0 -26 -16 -47.5t-51 -42.5z" />
    <glyph glyph-name="Ucircumflex" unicode="&#xdb;" horiz-adv-x="1501" 
d="M125 1219l29 165h657l-29 -161q-82 -4 -122.5 -43.5t-55.5 -130.5l-88 -543q-1 -8 -4 -25q-10 -71 -10 -90q0 -99 65 -159t172 -60q150 0 240 78.5t117 232.5l94 572q3 22 4.5 36t1.5 21q0 52 -31 79t-96 32l27 161h485l-29 -165q-85 -5 -124.5 -41.5t-55.5 -133.5
l-102 -577q-28 -159 -63 -228t-99 -124q-82 -71 -208.5 -108.5t-285.5 -37.5q-229 0 -354 86.5t-125 245.5q0 59 24 210l3 20l88 518q0 2 1 9q3 27 3 40q0 58 -31.5 87.5t-97.5 33.5zM1237 1526h-80l-168 178l-246 -178h-102l305 348h127z" />
    <glyph glyph-name="Ugrave" unicode="&#xd9;" horiz-adv-x="1501" 
d="M125 1219l29 165h657l-29 -161q-82 -4 -122.5 -43.5t-55.5 -130.5l-88 -543q-1 -8 -4 -25q-10 -71 -10 -90q0 -99 65 -159t172 -60q150 0 240 78.5t117 232.5l94 572q3 22 4.5 36t1.5 21q0 52 -31 79t-96 32l27 161h485l-29 -165q-85 -5 -124.5 -41.5t-55.5 -133.5
l-102 -577q-28 -159 -63 -228t-99 -124q-82 -71 -208.5 -108.5t-285.5 -37.5q-229 0 -354 86.5t-125 245.5q0 59 24 210l3 20l88 518q0 2 1 9q3 27 3 40q0 58 -31.5 87.5t-97.5 33.5zM1124 1526h-104l-260 190q-35 26 -49.5 45.5t-14.5 38.5q0 38 24 63t60 25q26 0 49 -14
t49 -47z" />
    <glyph glyph-name="dotlessi" unicode="&#x131;" horiz-adv-x="727" 
d="M459 346q-6 -33 -9.5 -54.5t-3.5 -29.5q0 -43 13.5 -60.5t44.5 -17.5q25 0 54 12t63 35l77 -129q-86 -68 -169.5 -100.5t-170.5 -32.5q-114 0 -184 57.5t-70 149.5q0 23 3 51t10 64l69 368q4 19 6.5 34.5t2.5 25.5q0 43 -28.5 61.5t-102.5 22.5l28 149q87 9 174 24.5
t174 37.5h144z" />
    <glyph glyph-name="circumflex" unicode="&#x2c6;" 
d="M891 1145h-80l-168 178l-246 -178h-102l305 348h127z" />
    <glyph glyph-name="tilde" unicode="&#x2dc;" 
d="M911 1450q-21 -115 -72 -175.5t-126 -60.5q-11 1 -22 2.5t-34 6.5l-106 26q-10 3 -21 4.5t-28 1.5q-40 0 -63.5 -21t-37.5 -69h-65q20 118 71.5 180t129.5 62q15 0 29 -2t28 -6l88 -23q24 -5 38.5 -7.5t22.5 -2.5q44 0 68 20t35 64h65z" />
    <glyph glyph-name="macron" unicode="&#xaf;" 
d="M332 1231l26 147h555l-26 -147h-555z" />
    <glyph glyph-name="breve" unicode="&#x2d8;" 
d="M346 1464h76q9 -67 50 -99t118 -32q89 0 160.5 31.5t136.5 99.5h82q-91 -152 -185.5 -222.5t-208.5 -70.5t-171.5 73.5t-57.5 219.5z" />
    <glyph glyph-name="dotaccent" unicode="&#x2d9;" 
d="M510 1309q0 50 39 89.5t90 39.5q53 0 92 -38.5t39 -90.5q0 -56 -37.5 -93.5t-93.5 -37.5q-53 0 -91 38.5t-38 92.5z" />
    <glyph glyph-name="ring" unicode="&#x2da;" 
d="M510 1376q0 -59 41.5 -100t101.5 -41t101 40.5t41 100.5t-41.5 102t-100.5 42q-60 0 -101.5 -42t-41.5 -102zM399 1378q0 106 74 179t180 73t179 -73t73 -179t-73 -180t-179 -74t-180 74t-74 180z" />
    <glyph glyph-name="cedilla" unicode="&#xb8;" 
d="M141 -375l39 90q75 -40 132.5 -57.5t109.5 -17.5q47 0 70.5 22t23.5 66q0 39 -26.5 60.5t-75.5 21.5q-13 -1 -31 -3.5t-59 -11.5l65 205h70l-35 -113q16 3 32.5 4.5t32.5 2.5q86 0 136.5 -46t50.5 -124q0 -85 -61 -133t-169 -48q-58 0 -130.5 19.5t-174.5 62.5z" />
    <glyph glyph-name="hungarumlaut" unicode="&#x2dd;" 
d="M862 1421q29 41 58 61.5t59 20.5q34 0 57 -23t23 -57q0 -20 -15.5 -41.5t-48.5 -48.5l-243 -188h-88zM551 1411q25 46 54 70t59 24q34 0 56.5 -22t22.5 -56q0 -19 -13 -41.5t-38 -46.5l-200 -194h-89z" />
    <glyph glyph-name="ogonek" unicode="&#x2db;" 
d="M578 29q-91 -73 -133 -136.5t-42 -128.5q0 -52 25.5 -82t69.5 -30q34 0 61.5 17t52.5 55l33 -19q-42 -84 -100.5 -124t-138.5 -40q-65 0 -107.5 43t-42.5 109q0 84 66.5 167t201.5 169h54z" />
    <glyph glyph-name="caron" unicode="&#x2c7;" 
d="M362 1493h80l168 -180l246 180h102l-305 -348h-127z" />
    <glyph glyph-name="Lslash" unicode="&#x141;" horiz-adv-x="1407" 
d="M858 1384l-29 -161q-81 -3 -121.5 -42t-56.5 -132l-39 -224l316 183l-29 -183l-319 -184l-56 -312q-3 -20 -4.5 -34t-1.5 -23q0 -52 33.5 -80t95.5 -28q155 0 316 105t274 282l133 -78l-225 -473h-1184l29 166q84 4 123 40.5t57 133.5l37 203l-254 -146l29 181l256 145
l57 326q2 9 3 20t1 31q0 58 -30.5 86.5t-96.5 32.5l29 165h657z" />
    <glyph glyph-name="lslash" unicode="&#x142;" horiz-adv-x="721" 
d="M158 582l-205 -119l33 182l207 119l65 330q4 19 6 36t2 33q0 38 -27.5 54.5t-96.5 19.5l28 145q91 10 177.5 25.5t170.5 38.5h137l-100 -537l195 113l-31 -182l-203 -117l-72 -375l-12 -64t-4 -30q0 -31 17.5 -48.5t48.5 -17.5q24 0 53 11t61 32l76 -127
q-88 -67 -172 -100t-168 -33q-114 0 -184 58t-70 149q0 23 3 51t9 64z" />
    <glyph glyph-name="Scaron" unicode="&#x160;" horiz-adv-x="1485" 
d="M197 551q67 -195 193.5 -295t307.5 -100q127 0 209 57.5t82 142.5q0 125 -299 198q-51 13 -77 19q-113 30 -180 53t-97 44q-84 57 -125 131.5t-41 167.5q0 196 165 321t429 125q107 0 209.5 -30t202.5 -91l45 82h129l16 -434l-147 -10q-54 146 -166.5 225.5t-264.5 79.5
q-112 0 -179.5 -44t-67.5 -116q0 -115 286 -181q53 -12 83 -20l13 -3q243 -59 339 -144q60 -54 90 -121t30 -145q0 -207 -183 -350.5t-456 -143.5q-115 0 -222.5 30t-215.5 91l-43 -90h-129l-90 526zM649 1874h80l168 -180l246 180h102l-305 -348h-127z" />
    <glyph glyph-name="scaron" unicode="&#x161;" horiz-adv-x="1174" 
d="M-6 199q0 52 41 89.5t100 37.5q31 0 60 -11t45 -29q11 -10 31 -31q108 -112 196 -112q72 0 122 35.5t50 85.5q0 41 -34 67.5t-146 59.5q-224 67 -281 123.5t-57 161.5q0 157 142 257.5t372 100.5q195 0 313.5 -57t118.5 -148q0 -50 -33.5 -80t-89.5 -30q-59 0 -132 60
q-18 15 -28 22q-51 40 -83.5 53.5t-67.5 13.5q-58 0 -97.5 -30.5t-39.5 -73.5q0 -66 163 -115q57 -17 91 -28q162 -54 221 -112t59 -153q0 -161 -162 -272t-413 -111q-206 0 -333.5 63.5t-127.5 162.5zM438 1493h80l168 -180l246 180h102l-305 -348h-127z" />
    <glyph glyph-name="Zcaron" unicode="&#x17d;" horiz-adv-x="1497" 
d="M72 0l-43 129l936 1069q-7 0 -19 1q-69 3 -98 3q-182 0 -317 -74t-238 -231l-150 49l176 436h1063l54 -143l-928 -1073q21 -2 45.5 -3t71.5 -1q231 0 386 87t249 269l147 -51l-201 -467h-1134zM655 1874h80l168 -180l246 180h102l-305 -348h-127z" />
    <glyph glyph-name="zcaron" unicode="&#x17e;" horiz-adv-x="1145" 
d="M-18 147l651 684q-32 7 -61 10t-54 3q-98 0 -143 -92q-4 -8 -6 -13q-32 -65 -66 -87.5t-90 -22.5q-58 0 -94.5 36t-36.5 95q0 118 106 190t285 72q54 0 204 -16.5t249 -16.5q36 0 54.5 0.5t35.5 1.5l51 -121l-643 -677q40 -8 73 -11.5t58 -3.5q69 0 108.5 22t71.5 81
q30 55 61.5 76.5t80.5 21.5q66 0 107.5 -42t41.5 -108q0 -108 -95.5 -172.5t-258.5 -64.5q-45 0 -201 12t-266 12q-29 0 -66.5 -3t-99.5 -11zM423 1493h80l168 -180l246 180h102l-305 -348h-127z" />
    <glyph glyph-name="brokenbar" unicode="&#xa6;" 
d="M393 408h240v-758h-240v758zM393 1432h240v-758h-240v758z" />
    <glyph glyph-name="Eth" unicode="&#xd0;" horiz-adv-x="1602" 
d="M520 309q-3 -20 -4.5 -35t-1.5 -24q0 -40 24 -58t76 -18q103 0 205 43t172 117q82 84 130 214.5t48 266.5q0 186 -93 290.5t-257 104.5q-85 0 -117.5 -24t-46.5 -111l-41 -250h304l-29 -157h-303zM-41 0l31 166q85 4 123.5 40.5t54.5 133.5l57 328h-213l29 157h213
l41 224q2 10 3 21.5t1 31.5q0 55 -32 84t-97 33l29 165h510q256 0 364 -16t182 -53q137 -68 210 -193.5t73 -292.5q0 -214 -85 -392.5t-239 -289.5q-111 -79 -252 -113t-401 -34h-602z" />
    <glyph glyph-name="eth" unicode="&#xf0;" horiz-adv-x="1219" 
d="M723 971q-27 54 -63.5 103t-81.5 93l-281 -112l-45 108l240 94q-56 46 -114 81.5t-122 64.5l166 53q51 -18 114 -49.5t134 -75.5l282 111l45 -107l-219 -86q169 -154 254.5 -324.5t85.5 -355.5q0 -273 -167.5 -436.5t-446.5 -163.5q-214 0 -344.5 123t-130.5 324
q0 234 176.5 396.5t433.5 162.5q17 0 62 -3q15 -1 22 -1zM635 819q-115 0 -194 -139t-79 -346q0 -104 38 -154.5t114 -50.5q117 0 194.5 138t77.5 347q0 104 -37.5 154.5t-113.5 50.5z" />
    <glyph glyph-name="Yacute" unicode="&#xdd;" horiz-adv-x="1370" 
d="M782 334q0 -4 -1 -11q-7 -41 -7 -59q0 -56 31 -76t126 -22l-28 -166h-696l29 166q98 0 141.5 36.5t60.5 137.5l43 242l-184 405l-5 11q-91 199 -222 225l26 161h686l-26 -155h-13q-71 0 -108 -16.5t-37 -47.5q0 -10 6.5 -30.5t26.5 -69.5l125 -297l262 319q21 27 32 47
t11 33q0 27 -32 43.5t-89 18.5l27 155h532l-29 -161q-82 -23 -147 -67.5t-127 -121.5l-371 -452zM745 1526h-104l307 303q30 28 59 42.5t56 14.5q32 0 55.5 -25.5t23.5 -60.5q0 -26 -16 -47.5t-51 -42.5z" />
    <glyph glyph-name="yacute" unicode="&#xfd;" horiz-adv-x="1313" 
d="M1051 125q-38 -196 -82.5 -281.5t-122.5 -150.5q-85 -71 -207.5 -109.5t-263.5 -38.5q-192 0 -305 58t-113 153q0 64 47 107t117 43q42 0 77.5 -17.5t57.5 -48.5q1 -1 16 -35t35 -57q11 -11 34.5 -17.5t51.5 -6.5q135 0 223 94.5t121 275.5q-84 -57 -167 -85.5
t-167 -28.5q-140 0 -216 66.5t-76 189.5q0 31 5.5 69.5t24.5 122.5l49 235q3 18 4 27t1 17q0 55 -26 75.5t-103 24.5l28 145q85 8 171.5 23t176.5 39h142l-117 -604q-9 -45 -13.5 -73t-4.5 -36q0 -51 26 -74.5t84 -23.5q45 0 94 20t101 60l141 731h324zM661 1145h-104
l307 303q30 28 59 42.5t56 14.5q32 0 55.5 -25.5t23.5 -60.5q0 -26 -16 -47.5t-51 -42.5z" />
    <glyph glyph-name="Thorn" unicode="&#xde;" horiz-adv-x="1403" 
d="M281 1053q4 20 6 36t2 27q0 43 -39.5 71t-110.5 34l35 163h670l-29 -165h-24q-72 0 -100 -25.5t-44 -103.5h107q339 0 461 -68.5t122 -237.5q0 -83 -30 -155t-88 -129q-79 -77 -184 -109.5t-298 -32.5h-221l-4 -26q-4 -19 -6 -35t-2 -29q0 -45 31.5 -67t130.5 -37
l-35 -164h-684l28 166q86 4 125 41t56 133zM545 518h5q68 -8 99 -8q156 0 244 70t88 192q0 79 -54.5 119.5t-162.5 40.5q-86 0 -118.5 -22.5t-47.5 -100.5z" />
    <glyph glyph-name="thorn" unicode="&#xfe;" horiz-adv-x="1323" 
d="M403 219q41 -31 81.5 -46t82.5 -15q74 0 128 37.5t96 117.5q40 77 61.5 162t21.5 162q0 93 -37.5 139.5t-113.5 46.5q-122 0 -195.5 -136.5t-124.5 -467.5zM-211 -451l31 156q95 12 132.5 47t59.5 146l232 1196q5 31 6.5 45t1.5 24q0 38 -27.5 54.5t-97.5 19.5l29 145
q91 10 177.5 25.5t170.5 38.5h137l-113 -576q62 78 138 116t168 38q173 0 276.5 -112t103.5 -300q0 -117 -41 -227.5t-118 -200.5q-86 -98 -201.5 -151t-243.5 -53q-51 0 -111 15.5t-130 47.5l-29 -148q-5 -24 -7.5 -46t-2.5 -44q0 -47 32 -68.5t119 -31.5l-30 -156h-662z
" />
    <glyph glyph-name="minus" unicode="&#x2212;" horiz-adv-x="1706" 
d="M254 729h1198v-235h-1198v235z" />
    <glyph glyph-name="multiply" unicode="&#xd7;" horiz-adv-x="1706" 
d="M430 1214l440 -440l441 440l162 -161l-441 -443l441 -440l-162 -162l-441 441l-440 -441l-162 162l441 440l-441 443z" />
    <glyph glyph-name="onesuperior" unicode="&#xb9;" horiz-adv-x="883" 
d="M90 559l19 96l75 7q60 5 83.5 32t37.5 113l66 349q3 17 4.5 29.5t1.5 20.5q0 23 -18.5 35t-58.5 16l-75 7l17 86q108 5 189 17t140 32h80l-121 -625q0 -5 -3 -21t-3 -24q0 -34 21 -49t72 -19l79 -6l-20 -96h-586z" />
    <glyph glyph-name="twosuperior" unicode="&#xb2;" horiz-adv-x="883" 
d="M14 559l-14 131q273 130 416 260.5t143 249.5q0 50 -36 80.5t-95 30.5q-54 0 -97.5 -26t-43.5 -54q0 -4 13 -29t13 -49q0 -43 -34 -70.5t-89 -27.5q-45 0 -72.5 26t-27.5 70q0 36 16.5 72.5t47.5 68.5q60 60 143.5 89.5t194.5 29.5q146 0 234.5 -61.5t88.5 -161.5
q0 -112 -111 -214t-409 -251h192q83 0 130 26t98 97l90 -33l-123 -254h-668z" />
    <glyph glyph-name="threesuperior" unicode="&#xb3;" horiz-adv-x="883" 
d="M659 1004q71 -25 106.5 -67.5t35.5 -100.5q0 -128 -127.5 -209.5t-333.5 -81.5q-160 0 -253 55t-93 148q0 55 36 88.5t95 33.5q45 0 71.5 -22t26.5 -60q0 -14 -9 -37.5t-9 -35.5q0 -24 38 -42t95 -18q91 0 145 50.5t54 134.5q0 59 -48.5 92t-136.5 33q-8 0 -24.5 -1
t-24.5 -1l23 104q14 -1 36.5 -3.5t30.5 -2.5q83 0 136 41.5t53 105.5q0 50 -33 76.5t-94 26.5q-53 0 -89 -19.5t-36 -46.5q0 -6 3 -22.5t3 -26.5q0 -38 -33.5 -63t-85.5 -25q-51 0 -77.5 22.5t-26.5 65.5q0 88 107 151.5t265 63.5q154 0 250 -60.5t96 -154.5
q0 -67 -43 -115.5t-129 -76.5z" />
    <glyph glyph-name="onequarter" unicode="&#xbc;" horiz-adv-x="2028" 
d="M1610 309l61 305l-176 -169.5l-147 -135.5h262zM1430 0l18 90q68 4 99 29t40 83l-383 1l-28 88l260.5 233l265.5 258h211l-92 -467h180l-57 -112h-148q-2 -14 -3 -26.5t-1 -26.5q0 -33 24 -46.5t85 -13.5l-19 -90h-452zM500 -25l854 1446h170l-854 -1446h-170zM86 616
l18 91l72 6q56 4 78 28t39 107l61 325q3 15 4.5 27t1.5 21q0 21 -18.5 32.5t-57.5 14.5l-69 6l15 82q95 3 174.5 13.5t142.5 29.5h74l-115 -582q-1 -4 -1 -9q-3 -22 -3 -32q0 -32 18.5 -46t66.5 -19l77 -4l-19 -91h-559z" />
    <glyph glyph-name="onehalf" unicode="&#xbd;" horiz-adv-x="2028" 
d="M1196 0l-12 123q260 121 397 242.5t137 232.5q0 46 -35 74t-92 28q-51 0 -92 -23.5t-41 -49.5q0 -3 12.5 -27t12.5 -47q0 -39 -33 -64.5t-84 -25.5q-43 0 -69.5 24t-26.5 64q0 34 16 69t45 64q54 56 134 83.5t188 27.5q140 0 224.5 -57.5t84.5 -151.5q0 -104 -106 -198.5
t-392 -233.5h185q79 0 124.5 24.5t92.5 89.5l86 -32l-117 -236h-639zM500 -25l854 1446h170l-854 -1446h-170zM86 616l18 91l72 6q56 4 78 28t39 107l61 325q3 15 4.5 27t1.5 21q0 21 -18.5 32.5t-57.5 14.5l-69 6l15 82q95 3 174.5 13.5t142.5 29.5h74l-115 -582
q-1 -4 -1 -9q-3 -22 -3 -32q0 -32 18.5 -46t66.5 -19l77 -4l-19 -91h-559z" />
    <glyph glyph-name="threequarters" unicode="&#xbe;" horiz-adv-x="2028" 
d="M1610 309l61 305l-176 -169.5l-147 -135.5h262zM1430 0l18 90q68 4 99 29t40 83l-383 1l-28 88l260.5 233l265.5 258h211l-92 -467h180l-57 -112h-148q-2 -14 -3 -26.5t-1 -26.5q0 -33 24 -46.5t85 -13.5l-19 -90h-452zM500 -25l854 1446h170l-854 -1446h-170zM629 1030
q67 -21 102 -61t35 -95q0 -119 -122 -195.5t-320 -76.5q-152 0 -241 52t-89 139q0 51 35 82.5t92 31.5q42 0 67 -21t25 -57q0 -13 -8 -34.5t-8 -32.5q0 -23 36 -39t91 -16q86 0 137 46.5t51 125.5q0 55 -46 85.5t-130 30.5q-8 0 -23.5 -1t-23.5 -1l22 98q23 -3 38.5 -4.5
t25.5 -1.5q79 0 130.5 39.5t51.5 98.5q0 45 -32.5 70.5t-90.5 25.5q-51 0 -85 -18.5t-34 -45.5q0 -5 3.5 -20t3.5 -23q0 -36 -32.5 -60t-82.5 -24q-49 0 -73.5 21.5t-24.5 62.5q0 82 102 141.5t252 59.5q146 0 238 -56.5t92 -144.5q0 -63 -40.5 -108t-123.5 -74z" />
    <glyph glyph-name="franc" unicode="&#x20a3;" horiz-adv-x="2408" 
d="M-53 0l29 166q86 6 123.5 41t54.5 133l127 709q3 18 4.5 33t1.5 26q0 51 -33 79t-96 32l28 165h1108l115 -446l-139 -47q-65 150 -191 234.5t-284 84.5q-76 0 -107 -24.5t-47 -110.5l-49 -255q10 -2 20.5 -2.5t30.5 -0.5q121 0 176 48.5t72 170.5h145l-108 -626h-139
l3 34t1 19q0 86 -40.5 128t-123.5 42q-15 0 -32 -1.5t-36 -5.5l-55 -310q-3 -20 -4.5 -35t-1.5 -25q0 -48 35.5 -68t129.5 -22l-28 -166h-690zM1441 0l129 664q4 20 6.5 36t2.5 23q0 42 -29.5 61.5t-99.5 22.5l28 145q85 8 171.5 23t176.5 39h121l-18 -105q69 62 140.5 93.5
t141.5 31.5q92 0 146.5 -43t54.5 -114q0 -70 -48.5 -113t-129.5 -43q-55 0 -114.5 33.5t-71.5 33.5q-62 0 -114 -80t-77 -216l-88 -492h-328z" />
    <glyph glyph-name="Gbreve" unicode="&#x11e;" horiz-adv-x="1599" 
d="M1550 719l-26 -158q-145 -10 -172 -152q-1 -9 -2 -14l-76 -395h-215l-23 111q-86 -70 -178 -104t-194 -34q-263 0 -433 170t-170 435q0 186 69 346.5t202 285.5q110 103 235 154t264 51q96 0 184.5 -28t174.5 -84l45 96h104l86 -502l-145 -27q-75 171 -181.5 259
t-238.5 88q-180 0 -303 -185t-123 -463q0 -193 71.5 -291t211.5 -98t229.5 78t89.5 197q0 57 -33.5 81.5t-113.5 24.5h-10l26 158h645zM690 1845h76q9 -67 50 -99t118 -32q89 0 160.5 31.5t136.5 99.5h82q-91 -152 -185.5 -222.5t-208.5 -70.5t-171.5 73.5t-57.5 219.5z" />
    <glyph glyph-name="gbreve" unicode="&#x11f;" horiz-adv-x="1280" 
d="M713 121q-59 -70 -136 -104.5t-171 -34.5q-173 0 -276 112t-103 299q0 118 41 228.5t118 199.5q86 100 201.5 152.5t249.5 52.5q71 0 128.5 -15.5t104.5 -47.5l19 51h299l-164 -862l-3 -17q-61 -317 -208 -440q-85 -71 -206.5 -109.5t-264.5 -38.5q-191 0 -304.5 58.5
t-113.5 154.5q0 65 47 108.5t117 43.5q44 0 79 -17t56 -48q3 -4 17.5 -38.5t33.5 -56.5q11 -11 34.5 -17.5t51.5 -6.5q137 0 224 96.5t129 296.5zM836 786q-41 32 -81.5 47t-82.5 15q-72 0 -125.5 -38t-95.5 -120q-41 -77 -62.5 -161t-21.5 -160q0 -95 37 -142t112 -47
q122 0 195.5 137.5t124.5 468.5zM475 1464h76q9 -67 50 -99t118 -32q89 0 160.5 31.5t136.5 99.5h82q-91 -152 -185.5 -222.5t-208.5 -70.5t-171.5 73.5t-57.5 219.5z" />
    <glyph glyph-name="Idotaccent" unicode="&#x130;" horiz-adv-x="795" 
d="M844 1384l-29 -165q-86 -5 -125 -41.5t-55 -133.5l-125 -710q-2 -9 -3 -20t-1 -29q0 -60 29.5 -87t98.5 -32l-28 -166h-659l28 166q86 4 125 41t56 133l125 709q2 10 3 20.5t1 30.5q0 58 -31 86.5t-96 32.5l28 165h658zM453 1690q0 50 39 89.5t90 39.5q53 0 92 -38.5
t39 -90.5q0 -56 -37.5 -93.5t-93.5 -37.5q-53 0 -91 38.5t-38 92.5z" />
    <glyph glyph-name="Scedilla" unicode="&#x15e;" horiz-adv-x="1485" 
d="M197 551q67 -195 193.5 -295t307.5 -100q127 0 209 57.5t82 142.5q0 125 -299 198q-51 13 -77 19q-113 30 -180 53t-97 44q-84 57 -125 131.5t-41 167.5q0 196 165 321t429 125q107 0 209.5 -30t202.5 -91l45 82h129l16 -434l-147 -10q-54 146 -166.5 225.5t-264.5 79.5
q-112 0 -179.5 -44t-67.5 -116q0 -115 286 -181q53 -12 83 -20l13 -3q243 -59 339 -144q60 -54 90 -121t30 -145q0 -207 -183 -350.5t-456 -143.5q-115 0 -222.5 30t-215.5 91l-43 -90h-129l-90 526zM278 -375l39 90q75 -40 132.5 -57.5t109.5 -17.5q47 0 70.5 22t23.5 66
q0 39 -26.5 60.5t-75.5 21.5q-13 -1 -31 -3.5t-59 -11.5l65 205h70l-35 -113q16 3 32.5 4.5t32.5 2.5q86 0 136.5 -46t50.5 -124q0 -85 -61 -133t-169 -48q-58 0 -130.5 19.5t-174.5 62.5z" />
    <glyph glyph-name="scedilla" unicode="&#x15f;" horiz-adv-x="1174" 
d="M-6 199q0 52 41 89.5t100 37.5q31 0 60 -11t45 -29q11 -10 31 -31q108 -112 196 -112q72 0 122 35.5t50 85.5q0 41 -34 67.5t-146 59.5q-224 67 -281 123.5t-57 161.5q0 157 142 257.5t372 100.5q195 0 313.5 -57t118.5 -148q0 -50 -33.5 -80t-89.5 -30q-59 0 -132 60
q-18 15 -28 22q-51 40 -83.5 53.5t-67.5 13.5q-58 0 -97.5 -30.5t-39.5 -73.5q0 -66 163 -115q57 -17 91 -28q162 -54 221 -112t59 -153q0 -161 -162 -272t-413 -111q-206 0 -333.5 63.5t-127.5 162.5zM217 -375l39 90q75 -40 132.5 -57.5t109.5 -17.5q47 0 70.5 22t23.5 66
q0 39 -26.5 60.5t-75.5 21.5q-13 -1 -31 -3.5t-59 -11.5l65 205h70l-35 -113q16 3 32.5 4.5t32.5 2.5q86 0 136.5 -46t50.5 -124q0 -85 -61 -133t-169 -48q-58 0 -130.5 19.5t-174.5 62.5z" />
    <glyph glyph-name="Cacute" unicode="&#x106;" horiz-adv-x="1450" 
d="M1231 459l147 -103q-118 -196 -286 -293.5t-390 -97.5q-302 0 -471.5 159t-169.5 443q0 154 45 290.5t132 248.5q115 149 266 228t319 79q103 0 182 -25t146 -79l35 90l108 6l107 -559l-154 -27q-59 200 -156.5 299t-234.5 99q-178 0 -300 -185t-122 -463
q0 -206 80 -304.5t248 -98.5q132 0 249 73t220 220zM799 1526h-104l307 303q30 28 59 42.5t56 14.5q32 0 55.5 -25.5t23.5 -60.5q0 -26 -16 -47.5t-51 -42.5z" />
    <glyph glyph-name="cacute" unicode="&#x107;" horiz-adv-x="1155" 
d="M932 338l104 -121q-124 -124 -261.5 -185t-295.5 -61q-215 0 -340 116t-125 316q0 128 51 248t144 209q87 85 203 129.5t247 44.5q193 0 310.5 -73t117.5 -189q0 -78 -55 -129t-139 -51q-68 0 -109 33.5t-41 89.5q0 20 7.5 49.5t7.5 40.5q0 28 -23 46.5t-59 18.5
q-62 0 -122.5 -43.5t-111.5 -124.5q-41 -65 -65.5 -150t-24.5 -163q0 -100 59 -158.5t158 -58.5q76 0 167.5 42t195.5 124zM600 1145h-104l307 303q30 28 59 42.5t56 14.5q32 0 55.5 -25.5t23.5 -60.5q0 -26 -16 -47.5t-51 -42.5z" />
    <glyph glyph-name="Ccaron" unicode="&#x10c;" horiz-adv-x="1450" 
d="M1231 459l147 -103q-118 -196 -286 -293.5t-390 -97.5q-302 0 -471.5 159t-169.5 443q0 154 45 290.5t132 248.5q115 149 266 228t319 79q103 0 182 -25t146 -79l35 90l108 6l107 -559l-154 -27q-59 200 -156.5 299t-234.5 99q-178 0 -300 -185t-122 -463
q0 -206 80 -304.5t248 -98.5q132 0 249 73t220 220zM645 1874h80l168 -180l246 180h102l-305 -348h-127z" />
    <glyph glyph-name="ccaron" unicode="&#x10d;" horiz-adv-x="1155" 
d="M932 338l104 -121q-124 -124 -261.5 -185t-295.5 -61q-215 0 -340 116t-125 316q0 128 51 248t144 209q87 85 203 129.5t247 44.5q193 0 310.5 -73t117.5 -189q0 -78 -55 -129t-139 -51q-68 0 -109 33.5t-41 89.5q0 20 7.5 49.5t7.5 40.5q0 28 -23 46.5t-59 18.5
q-62 0 -122.5 -43.5t-111.5 -124.5q-41 -65 -65.5 -150t-24.5 -163q0 -100 59 -158.5t158 -58.5q76 0 167.5 42t195.5 124zM446 1493h80l168 -180l246 180h102l-305 -348h-127z" />
    <glyph glyph-name="dcroat" unicode="&#x111;" horiz-adv-x="1337" 
d="M819 743q-44 33 -82.5 47.5t-81.5 14.5q-72 0 -126 -38t-97 -118q-37 -73 -57.5 -146.5t-20.5 -135.5q0 -92 39 -139.5t113 -47.5q119 0 192 129t121 434zM735 141q-75 -81 -158 -120t-180 -39q-170 0 -275.5 111t-105.5 292q0 243 175.5 415.5t424.5 172.5
q72 0 130.5 -15.5t105.5 -46.5l39 142h-287l25 118h286v11v12q0 37 -25.5 51.5t-117.5 20.5l25 118q92 10 179.5 25t172.5 37h137l-59 -275h205l-17 -116h-215l-139 -664q-5 -21 -7.5 -37.5t-2.5 -27.5q0 -42 31.5 -77.5t70.5 -35.5q15 0 31 8.5t49 36.5l92 -108
q-85 -85 -173.5 -126.5t-184.5 -41.5q-95 0 -152 39t-80 120z" />
    <glyph glyph-name="sfthyphen" unicode="&#xad;" horiz-adv-x="674" 
d="M0 379l106 237h500l-104 -237h-502z" />
    <glyph glyph-name="periodcentered" unicode="&#x2219;" horiz-adv-x="668" 
d="M141 700q0 80 56.5 135.5t136.5 55.5q81 0 135.5 -55t54.5 -136t-54.5 -136.5t-135.5 -55.5q-82 0 -137.5 55.5t-55.5 136.5z" />
    <glyph glyph-name="euro" horiz-adv-x="1337" 
d="M-20 627h161q2 42 6.5 81.5t12.5 77.5h-156l35 111h147q20 60 47.5 116.5t61.5 106.5q97 143 236.5 225t279.5 82q82 0 160 -28.5t129 -75.5l20 90l107 6l96 -522l-156 -27q-49 176 -136.5 271.5t-190.5 95.5q-102 0 -184 -88t-134 -252h520l-47 -111h-499
q-8 -38 -12.5 -77.5t-6.5 -81.5h459l-49 -111h-408q10 -180 77 -265t198 -85q108 0 219 79.5t198 221.5l136 -115q-100 -179 -259.5 -279t-342.5 -100q-249 0 -397 143t-165 400h-196z" />
    <glyph glyph-name="euro" unicode="&#x20ac;" horiz-adv-x="1337" 
d="M-20 627h161q2 42 6.5 81.5t12.5 77.5h-156l35 111h147q20 60 47.5 116.5t61.5 106.5q97 143 236.5 225t279.5 82q82 0 160 -28.5t129 -75.5l20 90l107 6l96 -522l-156 -27q-49 176 -136.5 271.5t-190.5 95.5q-102 0 -184 -88t-134 -252h520l-47 -111h-499
q-8 -38 -12.5 -77.5t-6.5 -81.5h459l-49 -111h-408q10 -180 77 -265t198 -85q108 0 219 79.5t198 221.5l136 -115q-100 -179 -259.5 -279t-342.5 -100q-249 0 -397 143t-165 400h-196z" />
    </font>
</defs>
</svg>
